<?xml version="1.0" encoding="UTF-8"?>
<svg width="160px" height="256px" viewBox="0 0 160 256" version="1.1" xmlns="http://www.w3.org/2000/svg" xmlns:xlink="http://www.w3.org/1999/xlink">
    <title>2</title>
    <defs>
        <polygon id="path-1" points="0 4 160 4 160 260 0 260"></polygon>
        <linearGradient x1="50%" y1="0%" x2="50%" y2="100%" id="linearGradient-3">
            <stop stop-color="#FFFFFF" offset="0%"></stop>
            <stop stop-color="#FFFFFF" stop-opacity="0" offset="100%"></stop>
        </linearGradient>
    </defs>
    <g id="Desktop" stroke="none" stroke-width="1" fill="none" fill-rule="evenodd">
        <g id="2" transform="translate(0, -4)">
            <mask id="mask-2" fill="white">
                <use xlink:href="#path-1"></use>
            </mask>
            <g id="Mask"></g>
            <path d="M35.6153846,240 L35.6153846,193.757225 L123.769231,120.693642 C129.615385,115.83815 134.634615,111.271676 138.826923,106.99422 C143.019231,102.716763 146.25,98.3044316 148.519231,93.7572254 C150.788462,89.2100193 151.923077,84.1618497 151.923077,78.6127168 C151.923077,72.5240848 150.634615,67.3217726 148.057692,63.0057803 C145.480769,58.6897881 141.923077,55.3564547 137.384615,53.0057803 C132.846154,50.655106 127.615385,49.4797688 121.692308,49.4797688 C115.769231,49.4797688 110.557692,50.6743738 106.057692,53.0635838 C101.557692,55.4527938 98.0769231,58.9595376 95.6153846,63.583815 C93.1538462,68.2080925 91.9230769,73.8342967 91.9230769,80.4624277 L31,80.4624277 C31,63.8150289 34.7307692,49.4797688 42.1923077,37.4566474 C49.6538462,25.433526 60.1923077,16.1849711 73.8076923,9.71098266 C87.4230769,3.23699422 103.384615,0 121.692308,0 C140.615385,0 157.019231,3.02504817 170.903846,9.07514451 C184.788462,15.1252408 195.519231,23.6223507 203.096154,34.566474 C210.673077,45.5105973 214.461538,58.3429672 214.461538,73.0635838 C214.461538,82.1579961 212.576923,91.194605 208.807692,100.17341 C205.038462,109.152216 198.269231,119.075145 188.5,129.942197 C178.730769,140.809249 164.846154,153.757225 146.846154,168.786127 L124.692308,187.283237 L124.692308,188.67052 L217,188.67052 L217,240 L35.6153846,240 Z" id="Path" fill="url(#linearGradient-3)" fill-rule="nonzero" opacity="0.5" mask="url(#mask-2)"></path>
        </g>
    </g>
</svg>