<?xml version="1.0" encoding="UTF-8"?>
<svg width="876px" height="370px" viewBox="0 0 876 370" version="1.1" xmlns="http://www.w3.org/2000/svg" xmlns:xlink="http://www.w3.org/1999/xlink">
    <title>Combined Shape Copy</title>
    <defs>
        <linearGradient x1="50%" y1="0%" x2="50%" y2="100%" id="linearGradient-1">
            <stop stop-color="#FF967B" offset="0%"></stop>
            <stop stop-color="#FFDFD3" stop-opacity="0" offset="100%"></stop>
        </linearGradient>
    </defs>
    <g id="Desktop" stroke="none" stroke-width="1" fill="none" fill-rule="evenodd">
        <path d="M0,298.810127 L0,239.427769 L148.586913,4.6835443 L199.783395,4.6835443 L199.783395,86.9274702 L169.452991,86.9274702 L75.820574,235.523578 L75.820574,238.311508 L287.013874,238.311508 L287.013874,298.810127 L0,298.810127 Z M171.086446,361.56962 L171.086446,280.712619 L172.337451,254.434638 L172.337451,4.6835443 L243.073639,4.6835443 L243.073639,361.56962 L171.086446,361.56962 Z M439.404293,370 C409.491177,369.930942 383.778388,362.557166 362.265927,347.878672 C340.753467,333.200178 324.218669,311.97388 312.661535,284.199778 C301.1044,256.425675 295.36028,223.010612 295.428563,183.954587 C295.499883,144.920369 301.307912,111.690672 312.853262,84.2654957 C324.398612,56.840319 340.921625,35.9397755 362.422301,21.5638653 C383.922977,7.1879551 409.583641,0 439.404293,0 C469.224946,0 494.903287,7.20521964 516.439317,21.6156589 C537.975347,36.0260982 554.533261,56.9443605 566.113058,84.370446 C577.692855,111.796531 583.4474,144.991245 583.377336,183.954587 C583.377336,223.150545 577.598578,256.635576 566.04235,284.409678 C554.486122,312.18378 537.969001,333.392359 516.490988,348.035416 C495.012975,362.678472 469.31741,370 439.404293,370 Z M439.402695,307.240506 C459.88434,307.240506 476.240654,296.962396 488.471637,276.406175 C500.702619,255.849954 506.783562,224.992901 506.715048,183.835017 C506.715048,156.72967 503.932879,134.149455 498.369705,116.094371 C492.80653,98.0392872 484.985902,84.4802519 474.90782,75.417265 C464.829738,66.3542782 452.994696,61.8227848 439.402695,61.8227848 C419.013785,61.8227848 402.732932,72.0022858 390.560136,92.3612878 C378.38734,112.72029 372.230936,143.211533 372.089648,183.835017 C372.021828,211.21847 374.757048,234.071338 380.296584,252.393622 C385.83612,270.715906 393.662203,284.437624 403.774833,293.558777 C413.887464,302.67993 425.763418,307.240506 439.402695,307.240506 Z M588.986126,298.810127 L588.986126,239.427769 L737.573039,4.6835443 L788.769521,4.6835443 L788.769521,86.9274702 L758.439117,86.9274702 L664.8067,235.523578 L664.8067,238.311508 L876,238.311508 L876,298.810127 L588.986126,298.810127 Z M760.072572,361.56962 L760.072572,280.712619 L761.323577,254.434638 L761.323577,4.6835443 L832.059765,4.6835443 L832.059765,361.56962 L760.072572,361.56962 Z" id="Combined-Shape-Copy" fill="url(#linearGradient-1)" fill-rule="nonzero"></path>
    </g>
</svg>