<?xml version="1.0" encoding="UTF-8"?>
<svg width="613.000195px" height="79px" viewBox="0 0 613.000195 79" version="1.1" xmlns="http://www.w3.org/2000/svg" xmlns:xlink="http://www.w3.org/1999/xlink">
    <title>Group 23</title>
    <defs>
        <linearGradient x1="96.9474749%" y1="48.0594026%" x2="-6.34671423%" y2="51.9405974%" id="linearGradient-1">
            <stop stop-color="#EBEBF4" offset="0%"></stop>
            <stop stop-color="#EBEBF4" stop-opacity="0.398089215" offset="100%"></stop>
        </linearGradient>
        <path d="M46.8598621,17.3743424 L47.8664029,17.3743424 C51.2694296,17.3743424 54.0334491,20.1861214 54.0334491,23.6480471 L54.0334491,31.3519056 C54.0334491,34.8138313 51.2694296,37.6256103 47.8664029,37.6256103 L39.7821679,37.6256103 C37.8649791,37.6256103 36.9541641,38.6169784 36.9541641,40.5023194 L36.9541641,48.7262953 C36.9541641,52.188221 34.1903116,55 30.7872849,55 L23.2142557,55 C19.8112289,55 17.0472094,52.188221 17.0472094,48.7262953 C17.0472094,48.7262953 17.0472094,42.5663874 17.0472094,40.5023194 C17.0472094,38.454484 16.0566396,37.6256103 14.2033349,37.6256103 L6.16702956,37.6256103 C2.7639861,37.6093778 0,34.7975988 0,31.335673 L0,23.6318146 C0,20.1698888 2.7639861,17.3581098 6.16702956,17.3581098 L14.2352936,17.3581098 C16.0246809,17.3581098 17.079118,16.3342767 17.079118,14.4326186 L17.079118,6.27364047 C17.079118,2.81176546 19.8431375,0 23.2461643,0 L30.8191935,0 C34.2222202,0 36.9862397,2.81176546 36.9862397,6.27364047 L36.9862397,14.448868 C36.9862397,16.4479044 37.705102,17.3743424 39.76613,17.3743424 L41.1879838,17.3743424 L37.0341862,23.1441622 C33.8546867,22.8841035 31.3143614,20.1698888 31.3143614,16.8706266 L31.3143614,8.67906506 C31.3143614,6.67996105 30.5635906,5.76978942 28.4546161,5.76978942 L25.578833,5.76978942 C23.7894457,5.76978942 22.7508292,6.74497572 22.7508292,8.67906506 L22.7508292,16.8706266 C22.7508292,20.3323832 19.9869768,23.1441622 16.5838665,23.1441622 L8.5315902,23.1441622 C6.45460787,23.1441622 5.67174466,24.5256184 5.67174466,26.069738 L5.67174466,28.9626797 C5.67174466,30.7017588 6.71024417,31.8557904 8.49963148,31.8557904 L16.5838665,31.8557904 C19.9869768,31.8557904 22.7508292,34.6675694 22.7508292,38.1293261 L22.7508292,46.3370694 C22.7508292,48.1899453 23.6616442,49.2301801 25.5467573,49.2301801 L28.4385783,49.2301801 C30.2279656,49.2301801 31.2984907,48.1250152 31.2984907,46.3046043 L31.2984907,38.1293261 C31.2984907,34.6675694 34.0625102,31.8557904 37.4655369,31.8557904 L45.549772,31.8557904 C47.4988693,31.8557904 48.3776087,30.8480207 48.3776087,28.9302146 L48.3776087,26.037273 C48.3776087,24.0543677 47.35503,23.1441622 45.4857877,23.1441622 L42.7058974,23.1441622 L46.8598621,17.3743424 Z" id="path-2"></path>
        <ellipse id="path-4" cx="49.8640375" cy="43.8439746" rx="42.3931085" ry="26.3231753"></ellipse>
        <radialGradient cx="50%" cy="50%" fx="50%" fy="50%" r="50%" gradientTransform="translate(0.500000,0.500000),scale(0.620931,1.000000),rotate(90.000000),translate(-0.500000,-0.500000)" id="radialGradient-6">
            <stop stop-color="#FF1F78" offset="0%"></stop>
            <stop stop-color="#FF1F78" stop-opacity="0" offset="100%"></stop>
        </radialGradient>
        <ellipse id="path-7" cx="52.0273525" cy="43.9698001" rx="46.0004695" ry="24.3629617"></ellipse>
        <radialGradient cx="50%" cy="50%" fx="50%" fy="50%" r="50%" gradientTransform="translate(0.500000,0.500000),scale(0.529624,1.000000),rotate(90.000000),translate(-0.500000,-0.500000)" id="radialGradient-9">
            <stop stop-color="#4AD6FC" offset="0%"></stop>
            <stop stop-color="#4AD6FC" stop-opacity="0" offset="100%"></stop>
        </radialGradient>
        <ellipse id="path-10" cx="71.1139449" cy="46.1663203" rx="65.7449148" ry="33.9897744"></ellipse>
        <radialGradient cx="50%" cy="50%" fx="50%" fy="50%" r="50%" gradientTransform="translate(0.500000,0.500000),scale(0.516995,1.000000),rotate(90.000000),translate(-0.500000,-0.500000)" id="radialGradient-12">
            <stop stop-color="#FFFFFF" offset="0%"></stop>
            <stop stop-color="#FFFFFF" stop-opacity="0" offset="100%"></stop>
        </radialGradient>
    </defs>
    <g id="Desktop" stroke="none" stroke-width="1" fill="none" fill-rule="evenodd">
        <g id="011-Home-elements" transform="translate(-421.999805, -1193.000000)">
            <g id="Group-23" transform="translate(421.999805, 1193.000000)">
                <rect id="Rectangle" fill="url(#linearGradient-1)" x="212.000195" y="0" width="401" height="79" rx="39.5"></rect>
                <g id="eapteka-logo-new" transform="translate(268.000195, 12.000000)">
                    <path d="M117.68993,11.6463213 L130.563461,43.3200165 L124.618439,43.3200165 L121.624042,35.808243 L107.275198,35.808243 L104.324571,43.3200165 L98.6526929,43.3200165 L111.340453,11.6463213 L117.68993,11.6463213 Z M109.28594,30.6085908 L119.56953,30.6085908 L114.433248,17.6203667 L109.28594,30.6085908 Z" id="Shape" fill="#8168F0" fill-rule="nonzero"></path>
                    <polygon id="Path" fill="#8168F0" fill-rule="nonzero" points="157.239716 16.8570995 140.574073 16.8570995 140.574073 43.3200165 134.989568 43.3200165 134.989568 11.6463213 162.83508 11.6463213 162.83508 43.3200165 157.250575 43.3200165 157.250575 16.8570995"></polygon>
                    <polygon id="Path" fill="#8168F0" fill-rule="nonzero" points="194.01596 16.8570995 183.469417 16.8570995 183.469417 43.3201856 177.886248 43.3201856 177.886248 16.8570995 167.515119 16.8570995 167.515119 11.6574811 194.01596 11.6574811"></polygon>
                    <polygon id="Path" fill="#8168F0" fill-rule="nonzero" points="218.692498 29.6128264 204.300218 29.6128264 204.300218 38.1203644 220.834217 38.1203644 220.834217 43.3200165 198.715378 43.3200165 198.715378 11.6463213 220.343058 11.6463213 220.343058 16.8459396 204.300218 16.8459396 204.300218 24.4021835 218.692498 24.4021835"></polygon>
                    <polygon id="Path" fill="#8168F0" fill-rule="nonzero" points="93.934063 29.6128264 79.5414484 29.6128264 79.5414484 38.1203644 96.0759485 38.1203644 96.0759485 43.3200165 73.9569428 43.3200165 73.9569428 11.6463213 95.5841217 11.6463213 95.5841217 16.8459396 79.5414484 16.8459396 79.5414484 24.4021835 93.934063 24.4021835"></polygon>
                    <polygon id="Path" fill="#8168F0" fill-rule="nonzero" points="233.071414 43.3200165 227.488245 43.3200165 227.488245 11.6463213 233.071414 11.6463213 233.071414 24.9441134 237.760808 24.9441134 247.814522 11.6463213 254.612223 11.6463213 242.677405 26.7143048 256.535091 43.3200165 249.388234 43.3200165 238.033117 29.6128264 233.071414 29.6128264"></polygon>
                    <path d="M276.126301,11.6463213 L289,43.3200165 L283.05598,43.3200165 L280.060581,35.808243 L265.711736,35.808243 L262.761444,43.3200165 L257.089733,43.3200165 L269.777994,11.6463213 L276.126301,11.6463213 Z M267.723147,30.6085908 L278.007405,30.6085908 L272.870288,17.6203667 L267.723147,30.6085908 Z" id="Shape" fill="#8168F0" fill-rule="nonzero"></path>
                    <path d="M46.8598621,17.3743424 L47.8664029,17.3743424 C51.2694296,17.3743424 54.0334491,20.1861214 54.0334491,23.6480471 L54.0334491,31.3519056 C54.0334491,34.8138313 51.2694296,37.6256103 47.8664029,37.6256103 L39.7821679,37.6256103 C37.8649791,37.6256103 36.9541641,38.6169784 36.9541641,40.5023194 L36.9541641,48.7262953 C36.9541641,52.188221 34.1903116,55 30.7872849,55 L23.2142557,55 C19.8112289,55 17.0472094,52.188221 17.0472094,48.7262953 C17.0472094,48.7262953 17.0472094,42.5663874 17.0472094,40.5023194 C17.0472094,38.454484 16.0566396,37.6256103 14.2033349,37.6256103 L6.16702956,37.6256103 C2.7639861,37.6093778 0,34.7975988 0,31.335673 L0,23.6318146 C0,20.1698888 2.7639861,17.3581098 6.16702956,17.3581098 L14.2352936,17.3581098 C16.0246809,17.3581098 17.079118,16.3342767 17.079118,14.4326186 L17.079118,6.27364047 C17.079118,2.81176546 19.8431375,0 23.2461643,0 L30.8191935,0 C34.2222202,0 36.9862397,2.81176546 36.9862397,6.27364047 L36.9862397,14.448868 C36.9862397,16.4479044 37.705102,17.3743424 39.76613,17.3743424 L41.1879838,17.3743424 L37.0341862,23.1441622 C33.8546867,22.8841035 31.3143614,20.1698888 31.3143614,16.8706266 L31.3143614,8.67906506 C31.3143614,6.67996105 30.5635906,5.76978942 28.4546161,5.76978942 L25.578833,5.76978942 C23.7894457,5.76978942 22.7508292,6.74497572 22.7508292,8.67906506 L22.7508292,16.8706266 C22.7508292,20.3323832 19.9869768,23.1441622 16.5838665,23.1441622 L8.5315902,23.1441622 C6.45460787,23.1441622 5.67174466,24.5256184 5.67174466,26.069738 L5.67174466,28.9626797 C5.67174466,30.7017588 6.71024417,31.8557904 8.49963148,31.8557904 L16.5838665,31.8557904 C19.9869768,31.8557904 22.7508292,34.6675694 22.7508292,38.1293261 L22.7508292,46.3370694 C22.7508292,48.1899453 23.6616442,49.2301801 25.5467573,49.2301801 L28.4385783,49.2301801 C30.2279656,49.2301801 31.2984907,48.1250152 31.2984907,46.3046043 L31.2984907,38.1293261 C31.2984907,34.6675694 34.0625102,31.8557904 37.4655369,31.8557904 L45.549772,31.8557904 C47.4988693,31.8557904 48.3776087,30.8480207 48.3776087,28.9302146 L48.3776087,26.037273 C48.3776087,24.0543677 47.35503,23.1441622 45.4857877,23.1441622 L42.7058974,23.1441622 L46.8598621,17.3743424 Z" id="Path" fill="#8168F0" fill-rule="nonzero"></path>
                    <g id="Clipped">
                        <mask id="mask-3" fill="white">
                            <use xlink:href="#path-2"></use>
                        </mask>
                        <g id="Path"></g>
                        <g id="Group" mask="url(#mask-3)">
                            <g transform="translate(-40.151625, -52.083425)" id="Clipped">
                                <g transform="translate(0.000000, 63.992174)">
                                    <mask id="mask-5" fill="white">
                                        <use xlink:href="#path-4" transform="translate(49.864037, 43.843975) rotate(29.639351) translate(-49.864037, -43.843975) "></use>
                                    </mask>
                                    <g id="Oval" transform="translate(49.864037, 43.843975) rotate(29.639351) translate(-49.864037, -43.843975) "></g>
                                    <ellipse id="Oval" fill="url(#radialGradient-6)" fill-rule="nonzero" mask="url(#mask-5)" transform="translate(49.864037, 43.843975) rotate(29.639351) translate(-49.864037, -43.843975) " cx="49.8640375" cy="43.8439746" rx="42.3931085" ry="26.3231753"></ellipse>
                                </g>
                                <g transform="translate(25.350915, 11.013416)">
                                    <mask id="mask-8" fill="white">
                                        <use xlink:href="#path-7" transform="translate(52.027352, 43.969800) rotate(29.732955) translate(-52.027352, -43.969800) "></use>
                                    </mask>
                                    <g id="Oval" transform="translate(52.027352, 43.969800) rotate(29.732955) translate(-52.027352, -43.969800) "></g>
                                    <ellipse id="Oval" fill="url(#radialGradient-9)" fill-rule="nonzero" mask="url(#mask-8)" transform="translate(52.027352, 43.969800) rotate(29.732955) translate(-52.027352, -43.969800) " cx="52.0273525" cy="43.9698001" rx="46.0004695" ry="24.3629617"></ellipse>
                                </g>
                                <g transform="translate(38.995917, 0.000000)">
                                    <mask id="mask-11" fill="white">
                                        <use xlink:href="#path-10" transform="translate(71.113945, 46.166320) rotate(11.253420) translate(-71.113945, -46.166320) "></use>
                                    </mask>
                                    <g id="Oval" transform="translate(71.113945, 46.166320) rotate(11.253420) translate(-71.113945, -46.166320) "></g>
                                    <ellipse id="Oval" fill="url(#radialGradient-12)" fill-rule="nonzero" mask="url(#mask-11)" transform="translate(71.113945, 46.166320) rotate(11.253420) translate(-71.113945, -46.166320) " cx="71.1139449" cy="46.1663203" rx="65.7449148" ry="33.9897744"></ellipse>
                                </g>
                            </g>
                        </g>
                    </g>
                </g>
                <g id="купить-—&gt;" transform="translate(0.000000, 23.000000)" fill="#FF967B" fill-rule="nonzero">
                    <polygon id="Path" points="18.9499512 32 8.15014648 17.6625977 4.83764648 17.6625977 4.83764648 32 0 32 0 0 4.83764648 0 4.83764648 13.5124512 6.48754883 13.5124512 18.9375 0 24.9250488 0 11.6376953 14.4624023 24.8500977 32"></polygon>
                    <path d="M32.0127258,32.4375 L32.0127258,28.1875 L33.9250793,28.1875 C34.7250468,28.1875 35.3891093,28.0515544 35.9172668,27.7796631 C36.4454244,27.5077718 36.878774,27.1411133 37.2173157,26.6796875 C37.5558573,26.2182617 37.8375956,25.7083333 38.0625305,25.1499023 L38.525177,24.0124512 L27.275177,0 L32.400177,0 L40.7876282,18.5 L48.2627258,0 L53.3127747,0 L42.2627258,26.4499512 C41.7918599,27.5124512 41.2501933,28.4984131 40.6377258,29.4078369 C40.0252584,30.3172607 39.2138163,31.0495605 38.2033997,31.6047363 C37.192983,32.1599121 35.8543599,32.4375 34.1875305,32.4375 L32.0127258,32.4375 Z" id="Path"></path>
                    <polygon id="Path" points="82.8939209 0 82.8939209 32 78.0814209 32 78.0814209 4.125 63.0189209 4.125 63.0189209 32 58.2064209 32 58.2064209 0"></polygon>
                    <polygon id="Path" points="90.262661 0 95.0502586 0 95.0502586 23.5 95.3503075 23.5 111.62521 0 116.100307 0 116.100307 32 111.262661 32 111.262661 8.53759766 110.975063 8.53759766 94.7126122 32 90.262661 32"></polygon>
                    <polygon id="Path" points="121.550194 4.15625 121.550194 0 146.315819 0 146.315819 4.15625 136.331444 4.15625 136.331444 32 131.518944 32 131.518944 4.15625"></polygon>
                    <path d="M155.162815,12.8999023 L163.787815,12.8999023 C166.160699,12.8999023 168.179946,13.286377 169.845554,14.0593262 C171.511163,14.8322754 172.783014,15.921875 173.661106,17.328125 C174.539199,18.734375 174.977268,20.3916829 174.975322,22.3000488 C174.977268,24.2084147 174.539199,25.8907064 173.661106,27.3469238 C172.783014,28.8031413 171.511163,29.9427083 169.845554,30.765625 C168.179946,31.5885417 166.160699,32 163.787815,32 L151.800266,32 L151.800266,0 L156.637669,0 L156.637669,27.9375 L163.787815,27.9375 C165.164768,27.9375 166.330865,27.6676839 167.286106,27.1280518 C168.241347,26.5884196 168.966363,25.8852946 169.461155,25.0186768 C169.955947,24.1520589 170.202284,23.2250163 170.200169,22.2375488 C170.202284,20.7937012 169.650201,19.5556641 168.543919,18.5234375 C167.437636,17.4912109 165.852268,16.9750977 163.787815,16.9750977 L155.162815,16.9750977 L155.162815,12.8999023 Z" id="Path"></path>
                    <polygon id="Path" points="229.075146 1.41870117 243.656445 16 229.075146 30.5812988 226.262646 27.8000488 236.037548 18.0249023 194.500195 18.0249023 194.500195 13.9750977 236.037548 13.9750977 226.262646 4.22509766"></polygon>
                </g>
            </g>
        </g>
    </g>
</svg>