<svg width="1383" height="59" xmlns="http://www.w3.org/2000/svg"><g fill="#E9EBF0" fill-rule="nonzero"><path d="M24.375 6.438H6.47v13.625h9.187c4.084.02 7.282 1.213 9.594 3.578 2.313 2.364 3.469 5.62 3.469 9.765 0 4.167-1.172 7.474-3.516 9.922C22.86 45.776 19.615 47 15.47 47H.719V1.5h23.656v4.938zM6.47 25v17.094h9.125c2.333 0 4.146-.802 5.437-2.407 1.292-1.604 1.938-3.718 1.938-6.343 0-2.584-.64-4.62-1.922-6.11C19.766 25.744 17.958 25 15.625 25H6.47zM57.813 35.125H42.438L38.906 47h-5.875L47.688 1.5h4.906L67.28 47h-5.875l-3.593-11.875zm-13.875-4.938h12.406L50.125 9.5l-6.187 20.688zM104.469 42.094h5.344l-.063 16.062h-5.719V47H77.156v11.188h-5.75l-.031-16.094h3.344c1.458-1.854 2.65-4.646 3.578-8.375.927-3.73 1.516-7.896 1.766-12.5L80.938 1.5h23.53v40.594zm-23.656 0h17.906V6.437H86.5l-.656 14.688c-.25 4.813-.823 8.964-1.719 12.453-.896 3.49-2 6.328-3.312 8.516zM116.906 43.969c0-1 .297-1.834.89-2.5.595-.667 1.485-1 2.673-1 1.187 0 2.088.333 2.703 1 .615.666.922 1.5.922 2.5 0 .958-.307 1.76-.922 2.406-.615.646-1.516.969-2.703.969-1.188 0-2.078-.323-2.672-.969-.594-.646-.89-1.448-.89-2.406zM179.594 47h-5.75V25.969H155.53V47h-5.718V1.5h5.718v19.563h18.313V1.5h5.75zM211.813 25.969h-16.094v16.125h18.75V47H190V1.5h24.156v4.938H195.72v14.625h16.094zM257.281 47V29.281h-7.875L241.563 47h-6.094l8.906-19.469c-4.958-2.312-7.437-6.416-7.437-12.312 0-4.271 1.192-7.62 3.578-10.047C242.9 2.745 246.24 1.52 250.53 1.5h12.5V47h-5.75zm-14.593-31.781c0 2.75.687 4.953 2.062 6.61 1.375 1.655 3.302 2.504 5.781 2.546h6.75V6.437h-6.687c-2.584 0-4.547.782-5.89 2.344-1.345 1.563-2.016 3.709-2.016 6.438zM273.938 47V1.5h12.968c4.146 0 7.266 1.01 9.36 3.031 2.093 2.021 3.14 5.052 3.14 9.094 0 2.125-.531 4-1.593 5.625-1.063 1.625-2.5 2.885-4.313 3.781 2.083.625 3.734 1.907 4.953 3.844 1.219 1.938 1.828 4.27 1.828 7 0 4.083-1.12 7.292-3.36 9.625-2.239 2.333-5.431 3.5-9.577 3.5h-13.406zm5.718-21.281v16.375h7.813c2.166 0 3.885-.714 5.156-2.14 1.27-1.428 1.906-3.433 1.906-6.017 0-5.479-2.312-8.218-6.937-8.218h-7.938zm0-4.813H287c1.98 0 3.578-.666 4.797-2 1.219-1.333 1.828-3.104 1.828-5.312 0-2.5-.552-4.318-1.656-5.453-1.104-1.136-2.792-1.704-5.063-1.704h-7.25v14.47zM338.594 1.5V47h-5.75V6.437h-12.719l-.687 19.125c-.25 5.584-.782 9.844-1.594 12.782-.813 2.937-2 5.104-3.563 6.5-1.562 1.396-3.614 2.114-6.156 2.156h-1.75v-4.906l1.063-.063c1.52-.125 2.708-.713 3.562-1.765.854-1.052 1.5-2.724 1.938-5.016.437-2.292.75-5.792.937-10.5l.75-23.25h23.969zM369.094 47V29.281h-7.875L353.375 47h-6.094l8.907-19.469c-4.959-2.312-7.438-6.416-7.438-12.312 0-4.271 1.193-7.62 3.578-10.047 2.386-2.427 5.724-3.651 10.016-3.672h12.5V47h-5.75zM354.5 15.219c0 2.75.688 4.953 2.063 6.61 1.375 1.655 3.302 2.504 5.78 2.546h6.75V6.437h-6.687c-2.583 0-4.547.782-5.89 2.344-1.344 1.563-2.016 3.709-2.016 6.438zM407.563 25.969h-16.094v16.125h18.75V47H385.75V1.5h24.156v4.938H391.47v14.625h16.094zM445.25 6.438h-11.969V47h-5.718V6.437h-11.938V1.5h29.625zM480.125 32.563c-.25 4.874-1.62 8.604-4.11 11.187-2.489 2.583-6.005 3.875-10.546 3.875-4.563 0-8.188-1.734-10.875-5.203-2.688-3.469-4.031-8.172-4.031-14.11v-8.25c0-5.916 1.38-10.593 4.14-14.03C457.463 2.593 461.23.874 466 .874c4.396 0 7.797 1.318 10.203 3.953 2.406 2.636 3.714 6.401 3.922 11.297h-5.781c-.25-3.708-1.031-6.354-2.344-7.938-1.312-1.583-3.312-2.374-6-2.374-3.104 0-5.49 1.213-7.156 3.64-1.667 2.427-2.5 5.985-2.5 10.672v8.344c0 4.604.776 8.135 2.328 10.593 1.552 2.459 3.818 3.688 6.797 3.688 2.979 0 5.125-.74 6.437-2.219 1.313-1.479 2.125-4.135 2.438-7.968h5.781zM508.219 47V29.281h-7.875L492.5 47h-6.094l8.907-19.469c-4.959-2.312-7.438-6.416-7.438-12.312 0-4.271 1.193-7.62 3.578-10.047 2.386-2.427 5.724-3.651 10.016-3.672h12.5V47h-5.75zm-14.594-31.781c0 2.75.688 4.953 2.063 6.61 1.375 1.655 3.302 2.504 5.78 2.546h6.75V6.437h-6.687c-2.583 0-4.547.782-5.89 2.344-1.344 1.563-2.016 3.709-2.016 6.438zM569.281 1.5V47h-5.75V6.437h-12.718l-.688 19.125c-.25 5.584-.781 9.844-1.594 12.782-.812 2.937-2 5.104-3.562 6.5-1.563 1.396-3.615 2.114-6.156 2.156h-1.75v-4.906l1.062-.063c1.52-.125 2.708-.713 3.563-1.765.854-1.052 1.5-2.724 1.937-5.016.438-2.292.75-5.792.938-10.5l.75-23.25h23.968zM601.75 25.969h-16.094v16.125h18.75V47h-24.468V1.5h24.156v4.938h-18.438v14.625h16.094zM622.531 26.563h-4.312V47H612.5V1.5h5.719v20.063h3.5L634.53 1.5h7.125l-14.437 22 15.5 23.5h-7zM669.813 35.125h-15.375L650.906 47h-5.875l14.657-45.5h4.906L679.28 47h-5.875l-3.593-11.875zm-13.875-4.938h12.406L662.125 9.5l-6.187 20.688zM691.688 29.188V47h-5.72V1.5h14.5c4.23 0 7.553 1.266 9.97 3.797 2.416 2.531 3.625 5.9 3.625 10.11 0 4.374-1.151 7.744-3.454 10.109-2.302 2.364-5.546 3.588-9.734 3.672h-9.187zm0-4.907h8.78c2.542 0 4.49-.76 5.845-2.281 1.354-1.52 2.03-3.698 2.03-6.531 0-2.73-.697-4.917-2.093-6.563s-3.312-2.469-5.75-2.469h-8.812v17.844zM750.469 32.563c-.25 4.874-1.62 8.604-4.11 11.187s-6.005 3.875-10.546 3.875c-4.563 0-8.188-1.734-10.875-5.203-2.688-3.469-4.032-8.172-4.032-14.11v-8.25c0-5.916 1.38-10.593 4.14-14.03 2.761-3.438 6.527-5.157 11.298-5.157 4.396 0 7.797 1.318 10.203 3.953 2.406 2.636 3.713 6.401 3.922 11.297h-5.781c-.25-3.708-1.032-6.354-2.344-7.938-1.313-1.583-3.313-2.374-6-2.374-3.104 0-5.49 1.213-7.156 3.64-1.667 2.427-2.5 5.985-2.5 10.672v8.344c0 4.604.776 8.135 2.328 10.593 1.552 2.459 3.817 3.688 6.797 3.688 2.979 0 5.125-.74 6.437-2.219 1.313-1.479 2.125-4.135 2.438-7.968h5.78zM784.406 6.438h-11.968V47h-5.72V6.437h-11.937V1.5h29.625zM791.625 47V1.5h12.969c4.146 0 7.265 1.01 9.36 3.031 2.093 2.021 3.14 5.052 3.14 9.094 0 2.125-.531 4-1.594 5.625-1.062 1.625-2.5 2.885-4.312 3.781 2.083.625 3.734 1.907 4.953 3.844 1.218 1.938 1.828 4.27 1.828 7 0 4.083-1.12 7.292-3.36 9.625-2.24 2.333-5.432 3.5-9.578 3.5h-13.406zm5.719-21.281v16.375h7.812c2.167 0 3.886-.714 5.157-2.14 1.27-1.428 1.906-3.433 1.906-6.017 0-5.479-2.313-8.218-6.938-8.218h-7.937zm0-4.813h7.344c1.979 0 3.578-.666 4.796-2 1.22-1.333 1.829-3.104 1.829-5.312 0-2.5-.553-4.318-1.657-5.453-1.104-1.136-2.791-1.704-5.062-1.704h-7.25v14.47zM848.844 25.969H832.75v16.125h18.75V47h-24.469V1.5h24.157v4.938H832.75v14.625h16.094zM889.094 47h-5.75V25.969H865.03V47h-5.718V1.5h5.718v19.563h18.313V1.5h5.75zM929.281 47h-5.75V25.969H905.22V47H899.5V1.5h5.719v19.563h18.312V1.5h5.75zM945.719 20.063h9.187c4.084.02 7.282 1.213 9.594 3.578 2.313 2.364 3.469 5.62 3.469 9.765 0 4.167-1.172 7.474-3.516 9.922C962.11 45.776 958.865 47 954.72 47H940V1.5h5.719v18.563zM977.688 47h-5.72V1.5h5.72V47zm-31.97-22v17.094h9.126c2.333 0 4.146-.802 5.437-2.407 1.292-1.604 1.938-3.718 1.938-6.343 0-2.584-.64-4.62-1.922-6.11-1.281-1.49-3.089-2.234-5.422-2.234h-9.156zM995.906 1.5l11.875 37.125L1019.656 1.5h7.375V47h-5.718V29.281l.53-17.75L1009.939 47h-4.375l-11.844-35.344.531 17.625V47h-5.719V1.5zM1081.063 32.563c-.25 4.874-1.62 8.604-4.11 11.187s-6.005 3.875-10.547 3.875c-4.562 0-8.187-1.734-10.875-5.203-2.687-3.469-4.03-8.172-4.03-14.11v-8.25c0-5.916 1.38-10.593 4.14-14.03 2.76-3.438 6.526-5.157 11.297-5.157 4.395 0 7.796 1.318 10.203 3.953 2.406 2.636 3.713 6.401 3.922 11.297h-5.782c-.25-3.708-1.03-6.354-2.343-7.938-1.313-1.583-3.313-2.374-6-2.374-3.105 0-5.49 1.213-7.157 3.64-1.666 2.427-2.5 5.985-2.5 10.672v8.344c0 4.604.776 8.135 2.328 10.593 1.553 2.459 3.818 3.688 6.797 3.688 2.98 0 5.125-.74 6.438-2.219 1.312-1.479 2.125-4.135 2.437-7.968h5.782zM1095.031 29.188V47h-5.718V1.5h14.5c4.229 0 7.552 1.266 9.968 3.797 2.417 2.531 3.625 5.9 3.625 10.11 0 4.374-1.15 7.744-3.453 10.109-2.302 2.364-5.547 3.588-9.734 3.672h-9.188zm0-4.907h8.782c2.541 0 4.49-.76 5.843-2.281 1.354-1.52 2.032-3.698 2.032-6.531 0-2.73-.698-4.917-2.094-6.563s-3.313-2.469-5.75-2.469h-8.813v17.844zM1147.094 25.969H1131v16.125h18.75V47h-24.469V1.5h24.157v4.938H1131v14.625h16.094zM1187.469 42.094h5.344l-.063 16.062h-5.719V47h-26.875v11.188h-5.75l-.03-16.094h3.343c1.458-1.854 2.65-4.646 3.578-8.375.927-3.73 1.516-7.896 1.766-12.5l.875-19.719h23.53v40.594zm-23.656 0h17.906V6.437H1169.5l-.656 14.688c-.25 4.813-.823 8.964-1.719 12.453-.896 3.49-2 6.328-3.312 8.516zM1228.094 32.563c-.25 4.874-1.62 8.604-4.11 11.187s-6.005 3.875-10.546 3.875c-4.563 0-8.188-1.734-10.875-5.203-2.688-3.469-4.032-8.172-4.032-14.11v-8.25c0-5.916 1.38-10.593 4.14-14.03 2.761-3.438 6.527-5.157 11.298-5.157 4.396 0 7.797 1.318 10.203 3.953 2.406 2.636 3.713 6.401 3.922 11.297h-5.781c-.25-3.708-1.032-6.354-2.344-7.938-1.313-1.583-3.313-2.374-6-2.374-3.104 0-5.49 1.213-7.156 3.64-1.667 2.427-2.5 5.985-2.5 10.672v8.344c0 4.604.776 8.135 2.328 10.593 1.552 2.459 3.817 3.688 6.797 3.688 2.979 0 5.125-.74 6.437-2.219 1.313-1.479 2.125-4.135 2.438-7.968h5.78zM1262.031 6.438h-11.968V47h-5.72V6.437h-11.937V1.5h29.625zM1269.25 47V1.5h12.969c4.146 0 7.265 1.01 9.36 3.031 2.093 2.021 3.14 5.052 3.14 9.094 0 2.125-.531 4-1.594 5.625-1.062 1.625-2.5 2.885-4.312 3.781 2.083.625 3.734 1.907 4.953 3.844 1.218 1.938 1.828 4.27 1.828 7 0 4.083-1.12 7.292-3.36 9.625-2.24 2.333-5.432 3.5-9.578 3.5h-13.406zm5.719-21.281v16.375h7.812c2.167 0 3.886-.714 5.157-2.14 1.27-1.428 1.906-3.433 1.906-6.017 0-5.479-2.313-8.218-6.938-8.218h-7.937zm0-4.813h7.344c1.979 0 3.578-.666 4.796-2 1.22-1.333 1.829-3.104 1.829-5.312 0-2.5-.553-4.318-1.657-5.453-1.104-1.136-2.791-1.704-5.062-1.704h-7.25v14.47zM1334.25 28.25c0 6.208-1.323 10.99-3.969 14.344-2.646 3.354-6.406 5.031-11.28 5.031-4.688 0-8.392-1.63-11.11-4.89-2.72-3.261-4.13-7.87-4.235-13.829v-8.562c0-6.084 1.344-10.85 4.032-14.297 2.687-3.448 6.437-5.172 11.25-5.172 4.791 0 8.526 1.651 11.203 4.953 2.677 3.302 4.047 8.016 4.11 14.14v8.282zm-5.719-7.969c0-4.812-.786-8.39-2.36-10.734-1.572-2.344-3.983-3.516-7.233-3.516-3.146 0-5.526 1.188-7.141 3.563-1.615 2.375-2.432 5.875-2.453 10.5v8.156c0 4.646.807 8.188 2.422 10.625 1.614 2.438 4.026 3.656 7.234 3.656s5.583-1.125 7.125-3.375c1.542-2.25 2.344-5.698 2.406-10.343V20.28zM1350.969 1.5l11.875 37.125L1374.719 1.5h7.375V47h-5.719V29.281l.531-17.75L1365 47h-4.375l-11.844-35.344.532 17.625V47h-5.72V1.5z"/></g></svg>