<?xml version="1.0" encoding="UTF-8"?>
<svg width="17px" height="32px" viewBox="0 0 17 32" version="1.1" xmlns="http://www.w3.org/2000/svg" xmlns:xlink="http://www.w3.org/1999/xlink">
    <title>Path</title>
    <g id="Desktop" stroke="none" stroke-width="1" fill="none" fill-rule="evenodd">
        <g id="040-Articles" transform="translate(-80, -1093)" fill="#4E515C" fill-rule="nonzero">
            <g id="Group" transform="translate(56, 1061)">
                <g id="Bolt" transform="translate(24, 32)">
                    <path d="M16.788085,8.42307692 C17.0156977,8.67948654 17.0599551,8.96153846 16.9208591,9.26923077 L6.67828803,31.5192308 C6.51390102,31.8397442 6.24835231,32 5.88164361,32 C5.83106295,32 5.74254703,31.9871795 5.61609547,31.9615385 C5.40112856,31.897436 5.23990291,31.775641 5.13241851,31.5961538 C5.02493467,31.4166667 4.99648309,31.2243596 5.04706375,31.0192308 L8.78370541,15.4807692 L1.08280939,17.4230769 C1.03222873,17.4358974 0.956357835,17.4423077 0.855196703,17.4423077 C0.627584013,17.4423077 0.431584828,17.3717948 0.267197253,17.2307692 C0.0395845631,17.0384615 -0.0426082761,16.7884615 0.020616839,16.4807692 L3.8331294,0.615384615 C3.88371006,0.4358975 3.98487119,0.288461538 4.13661299,0.173076923 C4.28835478,0.0576923077 4.46538624,0 4.66770926,0 L10.8891228,0 C11.1293813,0 11.3317024,0.0801282692 11.49609,0.240384615 C11.660477,0.400640962 11.7426704,0.589744231 11.7426704,0.807692308 C11.7426704,0.910256346 11.7110574,1.02564038 11.6478318,1.15384615 L8.40435093,10.0576923 L15.9155697,8.17307692 C16.0167308,8.14743596 16.0926017,8.13461538 16.1431824,8.13461538 C16.3834409,8.13461538 16.5984078,8.23076923 16.788085,8.42307692 Z" id="Path"></path>
                </g>
            </g>
        </g>
    </g>
</svg>