<?xml version="1.0" encoding="UTF-8"?>
<svg width="1440px" height="380px" viewBox="0 0 1440 380" version="1.1" xmlns="http://www.w3.org/2000/svg" xmlns:xlink="http://www.w3.org/1999/xlink">
    <title>Group 6</title>
    <defs>
        <rect id="path-1" x="0" y="0" width="1440" height="380"></rect>
        <linearGradient x1="7.40938188%" y1="50.9941648%" x2="25.8483475%" y2="51.3467873%" id="linearGradient-3">
            <stop stop-color="#8577B7" stop-opacity="0" offset="0%"></stop>
            <stop stop-color="#8577B7" offset="100%"></stop>
        </linearGradient>
        <linearGradient x1="83.6137405%" y1="43.5771865%" x2="59.3370159%" y2="50%" id="linearGradient-4">
            <stop stop-color="#8577B7" stop-opacity="0" offset="0%"></stop>
            <stop stop-color="#8577B7" offset="100%"></stop>
        </linearGradient>
    </defs>
    <g id="Page-1" stroke="none" stroke-width="1" fill="none" fill-rule="evenodd">
        <g id="ABout-repro" transform="translate(0, -219)">
            <g id="Group-6" transform="translate(0, 219)">
                <mask id="mask-2" fill="white">
                    <use xlink:href="#path-1"></use>
                </mask>
                <g id="Rectangle"></g>
                <g id="family-line" mask="url(#mask-2)" fill-rule="nonzero">
                    <g transform="translate(-50.3333, 3)">
                        <path d="M902.405812,32.8264957 C903.688091,30.7424121 905.769804,29.506044 907.860814,30.5507329 C909.177793,31.2074247 910.093791,32.730468 910.093791,34.3927207 C910.093791,35.2211478 909.422218,35.8927207 908.593791,35.8927207 C907.765364,35.8927207 907.093791,35.2211478 907.093791,34.3927207 C907.093791,33.8535788 906.807696,33.3778839 906.521059,33.2349562 C906.19889,33.0739978 905.532311,33.4698916 904.96039,34.3994321 C901.11389,40.6418008 898.775458,46.2976555 899.278953,50.2205435 C899.631006,52.9640164 900.235498,55.0303913 901.839304,59.5604927 C901.863577,59.6290548 901.863577,59.6290548 901.887865,59.6976616 C903.406598,63.9879153 904.028023,66.0655928 904.450358,68.8045774 C904.763939,70.8412777 904.707104,72.413443 904.362605,75.811326 L904.281721,76.621941 C904.211179,77.3455597 904.169836,77.8326728 904.141276,78.3036346 L904.123949,78.6176345 L904.116368,78.7773739 C904.063129,79.9576143 904.100335,80.9697085 904.247617,81.9250858 C904.435731,83.1458024 904.836742,84.0003437 905.977759,85.8830484 L906.003204,85.9250326 C907.627806,88.6057715 908.217965,90.0488453 908.217965,92.3640887 C908.217965,93.1925158 907.546392,93.8640887 906.717965,93.8640887 C905.889538,93.8640887 905.217965,93.1925158 905.217965,92.3640887 C905.217965,90.7530396 904.796206,89.721742 903.437573,87.4798759 L903.412156,87.4379374 C902.075507,85.2324351 901.548963,84.1103886 901.282629,82.3820836 C901.102141,81.2113108 901.057861,80.0067716 901.119416,78.6421847 C901.151269,77.936045 901.195995,77.3563735 901.293888,76.3510998 L901.347452,75.8104403 L901.377906,75.5087181 C901.697111,72.3603134 901.74757,70.9645516 901.485347,69.2614254 C901.100511,66.7656317 900.517766,64.8172801 899.059831,60.6987743 C899.035577,60.6302601 899.035577,60.6302601 899.011303,60.5616988 C897.338104,55.8355907 896.691072,53.6237947 896.303357,50.6024198 C895.679767,45.7438387 898.195341,39.6595409 902.405812,32.8264957 Z" id="Stroke-1" fill="#8577B7"></path>
                        <path d="M908.414143,32.9035173 C909.236607,32.8043006 909.983777,33.3906086 910.082994,34.2130729 C910.106852,34.4108429 910.135576,34.6160096 910.168764,34.8284904 C911.487248,43.0737172 919.584834,50.7787713 929.717558,55.4177939 C930.931821,55.9736184 932.138721,56.306677 934.424053,56.787632 C934.623655,56.8295645 934.623655,56.8295645 934.824332,56.8715867 C939.661648,57.8846846 941.777282,58.6923712 943.936583,61.0077175 C947.619686,64.9561338 948.065666,70.679102 946.133207,76.9210916 C945.923922,77.5965371 945.693356,78.2515016 945.373592,79.1020704 C944.341233,81.8481263 944.077325,82.5945051 943.970105,83.4546116 L943.948609,83.6484775 C943.938902,83.7472054 943.93057,83.8492701 943.922773,83.9575705 C943.860063,84.8195851 944.115097,85.6571885 945.026841,87.8671836 C945.388929,88.7448566 945.576154,89.2215365 945.764688,89.774379 C946.510134,91.9612082 946.669249,93.9573055 946.198211,95.8809659 C946.001179,96.685621 945.189151,97.1781968 944.384496,96.9811646 C943.57984,96.7841325 943.087265,95.9721045 943.284297,95.1674494 C943.609463,93.8395124 943.496093,92.4172895 942.925196,90.742514 C942.762999,90.2669013 942.592662,89.8332175 942.253579,89.0113063 C941.14419,86.3222369 940.820223,85.2582377 940.930599,83.7410321 C941.033924,82.3057056 941.175852,81.7653447 942.223231,78.9593191 L942.445036,78.3669687 L942.565475,78.0463809 C942.866215,77.2464167 943.078886,76.6422863 943.267507,76.0335309 C944.914533,70.7135124 944.552357,66.0659556 941.742729,63.0539348 C940.146348,61.3421884 938.458351,60.6977613 934.209373,59.8078811 C934.0084,59.7657972 934.0084,59.7657972 933.806228,59.7233247 C931.313818,59.1987895 929.943799,58.8207166 928.468827,58.1455534 C917.517632,53.1318134 908.718689,44.7594013 907.205562,35.2968951 C907.166362,35.0460008 907.132834,34.8065192 907.104587,34.5723685 C907.005371,33.7499042 907.591679,33.002734 908.414143,32.9035173 Z" id="Stroke-3" fill="#8577B7"></path>
                        <path d="M908.653391,33.0711967 L908.797446,33.084007 C909.618202,33.1964824 910.192377,33.9530161 910.079901,34.7737724 C909.987871,35.4453393 909.785202,36.1360605 909.45496,36.9985773 C909.388356,37.1725334 909.248615,37.5165616 909.098222,37.8828338 L908.968162,38.198781 C908.751905,38.7229458 908.55034,39.2063093 908.545634,39.2178853 C908.39864,39.5794542 908.272802,39.9016661 908.157735,40.2138329 C908.011314,40.61242 907.855395,41.0297254 907.653605,41.5646489 C907.603367,41.6978252 907.416636,42.1915544 907.27549,42.5650266 L907.169919,42.8444806 L907.133468,42.9410929 C906.297507,45.1555609 905.803695,46.5438419 905.380014,47.9353943 C904.826762,49.7522037 904.510525,51.2466387 904.441268,52.4710861 C904.403941,53.1364424 904.438506,53.7899002 904.539909,54.4604031 C904.696294,55.4850639 904.966746,56.4070806 905.53158,57.989781 C905.574021,58.1087045 905.61274,58.2166981 905.695101,58.4461696 C906.520636,60.7472304 906.859459,61.9145798 907.045966,63.497079 C907.145938,64.3500424 907.186638,65.0295127 907.248949,66.5433715 C907.256327,66.722642 907.256327,66.722642 907.263789,66.9008599 C907.388169,69.8463928 907.620404,71.3033256 908.350708,72.7507025 C912.0748,80.1336818 919.304077,87.4203567 924.301493,87.0789145 C931.051121,86.6180569 937.187264,78.4754751 938.886858,69.8151685 C939.046394,69.002248 939.834726,68.4725757 940.647647,68.6321121 C941.460567,68.7916485 941.99024,69.5799806 941.830703,70.392901 C939.900038,80.2306368 932.916519,89.4976743 924.50592,90.0719413 C917.879957,90.524652 909.897858,82.479178 905.672258,74.1019628 C904.691339,72.1578975 904.408059,70.3807287 904.26646,67.0274271 C904.258886,66.8465276 904.258886,66.8465276 904.251487,66.6667484 C904.192299,65.228748 904.154572,64.5989134 904.066474,63.8472615 C903.914672,62.5592348 903.623123,61.5547586 902.871327,59.4592347 C902.788964,59.2297603 902.749422,59.1194676 902.706119,58.9981308 C902.081293,57.2473287 901.766967,56.1757385 901.573945,54.9110185 C901.442207,54.0399433 901.396749,53.1805555 901.446016,52.3023608 C901.531072,50.7985948 901.893143,49.0875654 902.510108,47.0615299 C902.957901,45.590784 903.469152,44.1534741 904.326523,41.8822936 C904.4251,41.6207548 904.775624,40.694157 904.846682,40.5057903 C905.04567,39.9782927 905.198797,39.5684606 905.342301,39.1778175 C905.470406,38.8302758 905.607918,38.4781727 905.76652,38.0880509 C905.790493,38.029084 906.491235,36.349147 906.653299,35.9258737 C906.908513,35.2593112 907.052638,34.7681137 907.10768,34.3664628 C907.220156,33.5457066 907.976689,32.9715315 908.797446,33.084007 L908.653391,33.0711967 Z" id="Stroke-5" fill="#8577B7"></path>
                        <path d="M946.734229,25.5238476 L946.9431,25.7619855 C950.686062,30.0832037 952.793663,34.8849186 955.957036,44.3865826 C956.689493,46.5892604 958.278276,48.7560333 959.489479,48.7560333 C960.924391,48.7560333 962.188933,46.3610894 962.716726,42.6562362 C963.368236,38.082683 962.958717,34.9613239 961.658444,32.3726123 C960.250843,29.5678193 957.817973,27.9359545 954.011773,26.9830487 C953.227356,26.7865062 952.57164,26.6686179 951.111184,26.4411125 C949.351848,26.1670486 947.965119,25.8963375 946.764071,25.5337783 L946.734229,25.5238476 Z M953.946265,22.7872808 C953.837134,22.6798876 953.480467,22.3333553 953.098744,21.9678816 L952.868483,21.7480859 C952.562205,21.4566919 952.268368,21.1813607 952.100879,21.0348333 C951.506738,20.5150487 950.937795,20.0914972 950.346031,19.743708 C949.165897,19.0505088 948.577431,18.8664459 947.085803,18.5823308 C947.05759,18.5769311 947.03643,18.5728814 947.018783,18.5694916 L946.926725,18.5515533 L946.859201,18.5381751 C945.688436,18.3044154 944.143484,18.607323 943.621577,19.1449891 C943.572347,19.1954355 943.506734,19.3276538 943.471471,19.4995104 C943.383564,19.9289554 943.512529,20.3430259 943.857663,20.6197651 C946.001331,22.3359921 947.653878,22.8663624 951.572946,23.4768628 C953.122136,23.7181909 953.839707,23.8471999 954.740633,24.0729347 C959.324651,25.220572 962.491926,27.3450448 964.339502,31.0265323 C965.930271,34.1935933 966.420382,37.9292255 965.686741,43.0793322 C964.961747,48.1684398 963.067481,51.7560333 959.489479,51.7560333 C956.474701,51.7560333 954.226535,48.6899983 953.110471,45.3337182 C949.638272,34.9044505 947.547573,30.4914766 943.108317,26.0471055 C940.449627,23.3846277 934.980117,21.7805142 928.56101,21.5536915 C919.68813,21.2400848 912.954291,24.0684491 911.159488,29.4617377 C910.897905,30.247782 910.048635,30.6729416 909.262591,30.4113583 C908.476546,30.1497749 908.051387,29.3005049 908.31297,28.5144606 C910.628569,21.5562073 918.61817,18.2003945 928.666964,18.5555631 C933.129269,18.7132411 937.211807,19.482286 940.452578,20.8543585 L940.611229,20.9228476 L940.601323,20.8927025 C940.439179,20.3213495 940.402808,19.7173708 940.49286,19.120581 L940.532556,18.8971996 C940.678377,18.1865288 941.002477,17.533431 941.471727,17.0525919 C942.799872,15.6843226 945.366957,15.181013 947.448344,15.5965928 C947.544463,15.6156593 947.544463,15.6156593 947.647131,15.6353135 C949.447346,15.9782062 950.327284,16.253437 951.86578,17.1571344 C952.634213,17.608755 953.35005,18.1416619 954.076201,18.7769354 C954.42803,19.0847328 954.758944,19.3946951 955.170192,19.7951703 C955.254855,19.8776152 955.491231,20.109302 955.587534,20.2037284 L955.628969,20.2443683 C955.796375,20.4081546 955.916493,20.5241394 956.028682,20.6297126 C956.286456,20.872785 956.422692,21.0091617 956.799009,21.3930736 C956.858009,21.4532644 956.899581,21.4953357 956.929377,21.524975 L956.933229,21.5288476 L956.96314,21.549268 C957.287131,21.7958623 957.507756,22.1712803 957.548641,22.599147 L957.555508,22.743607 C957.555508,23.5720342 956.883935,24.243607 956.055508,24.243607 C955.519304,24.1647625 955.519304,24.1647625 955.32436,24.0565894 C955.184721,23.973484 955.184721,23.973484 955.108034,23.9161138 C955.041664,23.865575 954.984354,23.8154764 954.921406,23.7563704 C954.852283,23.6914659 954.785664,23.624763 954.656603,23.4930968 C954.308366,23.1378319 954.18972,23.0190622 953.971643,22.8134219 L953.946265,22.7872808 Z" id="Stroke-7" fill="#8577B7"></path>
                        <path d="M954.245386,43.7417805 C955.049145,43.5411265 955.863383,44.0300402 956.064037,44.8337998 C956.895335,48.1637269 956.912077,53.832188 956.299393,58.1252535 C955.981312,60.3541388 955.034768,61.4992377 952.915071,63.0466771 C952.838726,63.1023748 952.838726,63.1023748 952.763665,63.1571118 C951.427618,64.1318101 950.996946,64.6006753 950.786009,65.4452462 C950.328096,67.2795045 950.213474,69.275193 950.15783,74.2232451 C950.141092,75.7116968 950.132187,76.3415317 950.113219,77.1618768 C950.111802,77.222883 950.110493,77.2788337 950.109215,77.3328638 L950.105388,77.492327 C950.098895,77.7589453 950.091169,78.055918 950.072341,78.7750953 C950.019545,80.7917907 949.999103,81.8429333 949.997477,83.0474786 L949.998375,83.5560661 C950.022536,88.4195573 950.498445,91.7553716 951.66785,94.0072489 C952.996692,96.5660056 955.875178,97.7812044 960.266434,97.7812044 C961.094861,97.7812044 961.766434,98.4527773 961.766434,99.2812044 C961.766434,100.109632 961.094861,100.781204 960.266434,100.781204 C954.870666,100.781204 950.944568,99.1237394 949.005455,95.3898749 C947.507887,92.5060661 946.989926,88.6405804 946.997399,83.04343 C946.997688,82.8888251 946.998196,82.7368368 946.999029,82.5852409 L947.002529,82.129407 C947.011587,81.2111982 947.033302,80.2270546 947.073369,78.6965831 C947.092128,77.9800261 947.099822,77.6842717 947.106265,77.4197453 L947.110059,77.2616602 C947.111326,77.2081366 947.112622,77.1527455 947.114024,77.0923703 C947.13262,76.2881292 947.141417,75.6659318 947.15802,74.1895105 C947.216703,68.9711497 947.337122,66.8745432 947.875376,64.7184588 C948.307033,62.9901547 949.129127,62.0951533 950.995561,60.7335183 L951.07131,60.6782763 C951.090139,60.6645426 951.108823,60.6509113 951.146191,60.6236488 C952.671078,59.5104383 953.154839,58.9251992 953.329484,57.7014128 C953.89209,53.759246 953.876428,48.4568008 953.153366,45.5604322 C952.952712,44.7566726 953.441626,43.9424346 954.245386,43.7417805 Z" id="Stroke-9" fill="#8577B7"></path>
                        <path d="M877.998735,191.746545 C878.006199,191.59497 878.01399,191.395269 878.02198,191.14954 C878.04173,190.542145 878.062461,189.662498 878.084475,188.507271 C878.124266,186.419196 878.167721,183.475015 878.222422,179.260017 L878.222845,179.224426 C878.22929,178.694997 878.302789,172.736014 878.383856,166.287912 L878.393617,165.512108 C878.395249,165.382522 878.396882,165.252819 878.398517,165.123038 L878.408344,164.343748 C878.413263,163.953957 878.418188,163.564183 878.423106,163.175495 L878.432929,162.39988 C878.488495,158.01651 878.542058,153.863863 878.574915,151.495368 C878.812234,134.388036 879.050184,122.679125 879.334323,116.132964 C879.405686,114.476765 879.755357,112.862482 880.289162,111.345701 C880.623976,110.394344 881.018119,109.540653 881.234431,109.179624 C884.763542,103.315119 892.177283,99.1976495 900.121649,97.8310064 C901.335347,97.6219137 902.615119,97.4759085 904.150634,97.3563605 C904.247863,97.3487908 904.341469,97.3416224 904.433943,97.3346838 L904.710461,97.3143858 C905.220314,97.2778079 905.77125,97.2429926 906.777541,97.1814018 C911.69667,96.8803227 913.748977,96.5845535 915.737343,95.6769073 C918.168167,94.5672887 919.607015,92.6154731 920.170078,89.1830845 C920.304184,88.3655841 921.075614,87.8115835 921.893114,87.9456896 C922.710615,88.0797957 923.264616,88.8512253 923.130509,89.6687258 C922.408605,94.0693959 920.342013,96.8727551 916.983123,98.4060159 C914.532352,99.5247399 912.269206,99.8508942 906.960815,100.175798 C905.605786,100.258734 905.09024,100.292286 904.383495,100.34731 C902.93318,100.460224 901.740764,100.596263 900.630618,100.787516 C893.47074,102.019206 886.822885,105.711316 883.806387,110.72398 C883.233341,111.680417 882.430687,113.96112 882.331522,116.262583 C882.049131,122.768451 881.811503,134.461545 881.574626,151.536981 C881.535987,154.322301 881.468686,159.577174 881.403177,164.772324 L881.38848,165.939158 C881.305517,172.533413 881.229181,178.722205 881.222594,179.263176 L881.222169,179.298946 C881.077021,190.483496 881.04241,192.299749 880.864116,192.771841 C880.571425,193.54684 879.705891,193.937828 878.930892,193.645136 C878.155893,193.352445 877.764906,192.486911 878.057597,191.711912 C878.003223,191.855885 877.996546,191.821021 877.994837,191.825498 L877.998735,191.746545 Z" id="Stroke-11" fill="#8577B7"></path>
                        <path d="M965.712535,97.4528825 C966.224462,97.4410639 966.706698,97.4512449 967.18259,97.4869793 C972.855181,97.91307 977.818831,100.026709 981.697765,103.675699 C986.832021,108.505695 990.177159,114.977356 994.722741,127.0133 C995.104955,128.025339 996.385072,131.451332 996.477979,131.698836 C996.483679,131.71402 996.483679,131.71402 996.48933,131.729074 C1000.37084,142.064867 1003.00414,148.770735 1005.36211,154.159717 C1008.80333,162.031793 1013.08541,178.222884 1011.38555,182.599408 C1011.08561,183.371632 1010.21645,183.754497 1009.44423,183.45456 C1008.672,183.154624 1008.28914,182.285466 1008.58908,181.513242 C1009.87309,178.207379 1005.69604,162.413426 1002.61349,155.361823 C1000.22829,149.910615 997.580164,143.166988 993.680795,132.783649 C993.675067,132.768391 993.675067,132.768391 993.669339,132.753133 C993.57478,132.501229 992.296201,129.079351 991.916223,128.073231 C987.52924,116.457233 984.33298,110.273597 979.642189,105.860786 C976.273147,102.691462 971.958455,100.854165 966.957918,100.478555 C966.585085,100.450559 966.199981,100.442428 965.781776,100.452083 C965.707313,100.453802 965.636284,100.455741 965.566418,100.458043 L965.358038,100.466181 C964.93917,100.48521 964.480404,100.522479 963.491159,100.608995 C962.088582,100.73166 961.274466,100.781204 960.265829,100.781204 C959.437402,100.781204 958.765829,100.109632 958.765829,99.2812044 C958.765829,98.4527773 959.437402,97.7812044 960.265829,97.7812044 C961.165186,97.7812044 961.908104,97.7359932 963.229786,97.620403 C964.619983,97.4988208 965.027143,97.4687058 965.712535,97.4528825 Z" id="Stroke-13" fill="#8577B7"></path>
                        <path d="M1008.56555,181.578508 C1008.82986,180.793376 1009.6806,180.371166 1010.46573,180.635476 C1011.25087,180.899785 1011.67308,181.750525 1011.40877,182.535657 C1009.51273,188.167852 1006.39449,195.55534 1003.99857,200.650259 C1000.73206,207.595934 997.421437,213.042793 990.077446,224.169433 C989.868334,224.486234 989.868334,224.486234 989.659257,224.802959 C984.626705,232.426806 982.356791,235.993892 979.814494,240.455766 C979.364864,241.245133 978.897129,242.14413 978.382477,243.19974 C977.962546,244.061067 977.530955,244.984126 976.954557,246.244727 C976.983513,246.181399 975.815103,248.747433 975.476291,249.481844 C975.050685,250.404393 974.675809,251.200125 974.310383,251.952583 C972.21452,256.273284 970.026769,259.650758 967.643059,261.759312 C967.041765,262.28803 963.149886,264.958206 960.30362,266.651443 C955.874338,269.287306 953.831726,270.406691 952.226054,270.88768 C951.790439,271.018638 950.264778,271.217168 947.26877,271.566099 C946.997048,271.597695 946.997048,271.597695 946.724566,271.629198 C946.126113,271.698296 945.496894,271.770067 944.786113,271.850477 C944.326303,271.902495 943.879032,271.952872 943.095528,272.041049 C942.498844,272.108264 942.156482,272.147105 941.900804,272.176753 C941.754491,272.193719 941.645892,272.206622 941.574403,272.215541 C943.312617,271.998674 941.812397,272.212473 942.17231,271.938549 C941.513092,272.440269 940.571966,272.312591 940.070246,271.653372 C939.568526,270.994154 939.696204,270.053028 940.355422,269.551308 C941.111731,269.219547 941.111731,269.219547 941.085925,269.254007 C941.140802,269.246465 941.140802,269.246465 941.20299,269.238621 C941.284998,269.228389 941.401008,269.214606 941.55525,269.19672 C941.81529,269.166567 942.159729,269.12749 942.759708,269.059904 C943.54351,268.971693 943.98992,268.921413 944.448878,268.869492 C945.157542,268.789321 945.784566,268.717801 946.380467,268.648997 C946.470833,268.63855 946.531077,268.631585 946.581245,268.625778 L946.72157,268.609507 C946.771634,268.603693 946.831669,268.596712 946.921721,268.58624 C949.407365,268.296749 951.200169,268.063456 951.36377,268.014274 C952.615606,267.639278 954.660243,266.518784 958.769625,264.073293 C959.369935,263.716169 960.022232,263.311214 960.678523,262.893137 L961.416004,262.419095 C963.455185,261.097104 965.357621,259.774089 965.658728,259.509332 C967.670085,257.730142 969.674702,254.635392 971.611482,250.642648 C971.967571,249.909414 972.334308,249.130959 972.752206,248.22512 C973.087329,247.498703 974.252421,244.939954 974.226235,244.997226 C974.812056,243.716016 975.252998,242.772958 975.68589,241.885047 C976.226638,240.775912 976.722931,239.822026 977.20782,238.970757 C979.793224,234.433227 982.087256,230.828242 987.155551,223.150246 C987.364647,222.833493 987.364647,222.833493 987.57366,222.516842 C993.412529,213.670564 996.66342,208.471309 999.368277,203.255225 L999.725869,202.559325 L1000.07806,201.861297 L1000.42594,201.159209 L1000.77057,200.451131 C1000.94225,200.095274 1001.11312,199.736446 1001.28378,199.373564 C1003.635,194.373708 1006.71295,187.08166 1008.56555,181.578508 Z" id="Stroke-15" fill="#8577B7"></path>
                        <path d="M952.812899,245.094199 C952.778019,244.791944 952.696412,244.652762 952.663514,244.637489 C952.562389,244.590526 952.265988,244.573552 951.846867,244.634797 C951.504746,244.684791 951.121038,244.779259 950.716298,244.907194 C950.408506,245.004485 950.229113,245.070522 949.84774,245.218541 C946.133751,246.665716 944.25439,247.074878 940.509987,247.393926 C938.658597,247.552 937.2857,246.901707 936.565993,245.659051 C936.097729,244.85054 935.956878,243.777233 936.161534,243.162557 C936.804024,241.284972 938.436976,240.218955 940.884657,239.482917 C941.252046,239.37244 941.632548,239.270877 942.065236,239.165136 C942.341872,239.097531 942.615921,239.033743 943.103459,238.921249 C944.555522,238.582531 945.754508,237.94455 948.062735,236.419356 L948.192498,236.333555 C948.240311,236.301933 948.277253,236.277486 948.369609,236.216369 C950.804391,234.605412 952.020091,233.916835 953.695969,233.37285 C955.349936,232.835937 956.597814,232.823658 959.180388,233.083536 C960.276613,233.193847 960.737292,233.228723 961.297836,233.228358 C961.484995,233.228358 961.635284,233.231098 961.862872,233.237338 C962.087897,233.243509 962.124911,233.24439 962.208983,233.245018 C962.345093,233.246035 962.458617,233.242582 962.58425,233.232844 C963.4102,233.168825 964.131662,233.786492 964.195681,234.612442 C964.2597,235.438391 963.642033,236.159854 962.816083,236.223873 C962.600906,236.240551 962.403524,236.246555 962.186573,236.244935 C962.073706,236.244091 962.030484,236.243062 961.780639,236.236211 C961.679399,236.233435 961.597225,236.231472 961.52122,236.230203 L961.298811,236.228358 C960.6038,236.22881 960.077709,236.188982 958.880022,236.068462 C956.697018,235.848791 955.756569,235.858046 954.622218,236.22628 C953.2885,236.659201 952.23674,237.254922 950.024998,238.718305 C949.87123,238.820063 949.87123,238.820063 949.716594,238.922305 C947.121934,240.636763 945.690876,241.39823 943.784683,241.842881 C943.142524,241.992546 942.77497,242.078522 942.508778,242.144748 L942.325432,242.191401 C942.127385,242.243111 941.973783,242.288111 941.748567,242.355835 C940.331796,242.78187 939.463624,243.289937 939.115536,243.881052 L939.08566,243.935637 L939.095653,243.983984 C939.103637,244.01618 939.113285,244.047071 939.124409,244.075909 L939.162023,244.155513 C939.275742,244.351862 939.519963,244.46754 940.255031,244.40478 C943.726193,244.109013 945.326259,243.760657 948.760398,242.422529 C949.201049,242.251501 949.425041,242.169047 949.812114,242.046696 C950.35908,241.873804 950.893307,241.742278 951.413092,241.666323 C952.357161,241.528369 953.194419,241.576315 953.926962,241.916515 C956.007424,242.882395 956.350939,245.859146 955.116674,247.910468 L955.045961,248.02597 C954.715327,248.557487 954.381993,248.970712 953.586265,249.897825 C953.438193,250.070347 953.352289,250.170954 953.263202,250.276606 C953.060938,250.517031 952.74164,250.856128 952.293071,251.308303 L952.00832,251.593293 C951.357323,252.24067 950.483723,253.084019 949.360634,254.154992 C949.307616,254.205545 949.307616,254.205545 949.254594,254.256081 C949.203956,254.304342 946.624844,256.754507 946.114213,257.246267 C946.010079,257.347164 942.006325,260.340438 940.321571,261.6519 C940.083563,261.837172 939.851571,262.018853 939.625715,262.196898 C938.517219,263.070738 937.572268,263.844489 936.817137,264.501858 C936.609859,264.681896 936.427959,264.854064 936.269388,265.017799 L936.15566,265.138637 L936.21848,265.119058 C936.374034,265.067213 936.558806,264.99388 936.762138,264.895052 L936.917951,264.816088 C937.466285,264.527239 938.074236,264.187226 938.697017,263.81986 C940.696484,262.639434 943.084452,261.105538 945.268278,259.651822 L950.343426,256.178862 L955.421771,253.056616 C956.127487,252.62273 957.051316,252.843093 957.485201,253.548809 C957.919087,254.254525 957.698724,255.178354 956.993008,255.612239 L951.976518,258.694329 L946.947002,262.138085 C944.705069,263.630638 942.279943,265.188403 940.221703,266.403526 C939.557877,266.795104 938.908011,267.158559 938.31702,267.469879 C937.251341,268.032149 936.22554,268.269692 935.506352,268.210807 C934.480676,268.126467 933.583175,267.474026 933.169765,266.606079 C932.968354,266.184136 932.909288,265.836559 932.911786,265.463172 L932.910669,265.320291 C932.913382,265.113104 932.935952,264.928348 932.996061,264.735207 C933.041067,264.583391 933.091143,264.438198 933.14241,264.315545 C933.276756,263.986675 933.453574,263.679133 933.689868,263.399248 C934.004229,263.026448 934.388373,262.637786 934.848608,262.238036 C935.644468,261.545209 936.624844,260.742452 937.768469,259.840919 C937.999249,259.658992 938.236052,259.473543 938.478789,259.28459 C939.056161,258.835147 939.808868,258.260095 940.572782,257.680799 L940.954914,257.39136 C942.417506,256.284795 943.820781,255.236954 944.009105,255.102391 L944.029913,255.088566 C944.552471,254.585311 947.14153,252.125695 947.184874,252.084387 C947.23759,252.034142 947.23759,252.034142 947.290287,251.983895 C949.329536,250.039277 950.568141,248.820055 950.968617,248.344023 C951.065948,248.228592 951.15635,248.122717 951.309781,247.943952 C952.04415,247.088329 952.310975,246.753788 952.548031,246.360606 C952.759501,246.009145 952.86176,245.517602 952.812899,245.094199 Z" id="Stroke-17" fill="#8577B7"></path>
                        <path d="M958.824484,257.523897 C959.602354,257.238924 960.463958,257.638496 960.748931,258.416367 C961.033903,259.194237 960.634331,260.055841 959.856461,260.340814 C956.793202,261.463038 954.472928,262.655082 949.520158,265.477716 C949.487558,265.496296 949.463108,265.51023 949.442732,265.521843 L949.336745,265.582245 L949.259268,265.626398 C944.704291,268.222047 942.458916,269.391394 939.547003,270.536526 C939.526714,270.544474 938.731877,270.8771 938.400934,271.004963 C938.036385,271.14581 937.695921,271.26443 937.365228,271.36193 C936.844246,271.515533 936.366646,271.61134 935.917879,271.635922 C934.46908,271.715932 933.111936,270.803315 932.810974,269.527494 C932.802226,269.489793 932.802226,269.489793 932.789168,269.430401 C932.647089,268.766133 932.698829,268.101093 933.090466,267.372433 C933.372171,266.851072 933.88588,266.336631 934.523995,265.968133 C934.724674,265.852905 934.985921,265.721465 935.306943,265.570386 C935.394041,265.529541 935.394041,265.529541 935.48103,265.489264 C935.726805,265.375794 935.987892,265.259349 936.248674,265.145767 C936.40506,265.077653 936.527419,265.025274 936.599282,264.994914 C937.362401,264.672514 938.242387,265.029788 938.564787,265.792907 C938.887186,266.556025 938.529912,267.436012 937.766794,267.758411 C937.7045,267.784729 937.592083,267.832852 937.446615,267.89621 C937.204306,268.001746 936.962303,268.109679 936.738527,268.212993 C936.660834,268.248966 936.660834,268.248966 936.584399,268.284812 C936.331097,268.40402 936.132171,268.504105 936.02104,268.56791 C935.993447,268.583845 935.967262,268.600318 935.94274,268.616787 L935.940298,268.618355 L936.010689,268.608016 C936.107932,268.590483 936.21607,268.566267 936.333624,268.535482 L936.516832,268.484392 C936.760499,268.41255 937.02622,268.319971 937.319747,268.206565 C937.60111,268.097857 938.387272,267.768862 938.450902,267.743936 C941.185929,266.668364 943.340311,265.546405 947.773957,263.019897 C947.839123,262.98276 947.871706,262.964191 947.904302,262.945615 L948.034725,262.871284 C953.129654,259.967632 955.554565,258.72183 958.824484,257.523897 Z" id="Stroke-19" fill="#8577B7"></path>
                        <path d="M959.647217,260.481006 C960.391208,260.116631 961.289716,260.424371 961.654091,261.168362 C962.018466,261.912353 961.710726,262.810861 960.966735,263.175236 C959.870041,263.71235 959.397284,263.969627 958.752521,264.374816 C956.115745,266.026781 949.578968,268.883239 946.405621,269.986321 C946.227314,270.048312 946.041333,270.114234 945.787325,270.20518 C945.466528,270.320259 945.288783,270.383999 945.135516,270.438601 C944.191523,270.774905 943.535649,270.991104 942.857636,271.177018 C942.023214,271.40582 941.261768,271.553341 940.534442,271.612675 C940.502225,271.615332 940.259815,271.690818 939.917077,271.824689 C939.823844,271.861337 939.823844,271.861337 939.728566,271.899524 C939.66092,271.926731 939.303188,272.072464 939.206317,272.111111 C938.988984,272.197816 938.831658,272.25617 938.684548,272.30107 C938.558518,272.339536 938.441879,272.367803 938.313368,272.385046 C937.924553,272.437215 937.579239,272.408117 937.163799,272.108526 C936.438349,271.585374 936.399088,270.805625 936.679946,270.2044 C936.768848,270.014091 936.872817,269.873284 937.00469,269.727302 C937.317061,269.381512 937.753842,269.214989 938.185647,269.234304 L938.292556,269.244121 L938.460025,269.176638 C938.493442,269.163067 938.524253,269.15056 938.549943,269.140144 L938.609139,269.116201 C938.715658,269.073506 938.715658,269.073506 938.825605,269.030286 C939.442058,268.789504 939.865405,268.657675 940.289159,268.622719 C940.812643,268.580014 941.396882,268.466824 942.064309,268.283813 C942.653886,268.122149 943.249507,267.925812 944.128727,267.612584 C944.278534,267.559214 944.452642,267.496778 944.77606,267.380761 C945.038013,267.28697 945.231773,267.218292 945.420534,267.152665 C948.399416,266.117181 954.751066,263.341621 957.158011,261.833648 C957.900161,261.367256 958.462458,261.061251 959.647217,260.481006 Z" id="Stroke-21" fill="#8577B7"></path>
                        <path d="M972.636823,136.623618 C973.402881,136.308268 974.279536,136.673638 974.594887,137.439697 C975.078207,138.61379 976.446563,141.801592 977.888271,145.068395 C980.04776,149.961636 982.266425,154.814887 984.402364,159.258841 C987.085804,164.841906 989.473979,169.434425 991.442422,172.713006 C991.877661,173.437928 992.289386,174.093274 992.675503,174.675582 L992.739109,174.76969 L992.869467,174.621271 C994.566458,172.698981 996.027228,172.053226 997.488275,172.834052 L997.625256,172.911439 C1000.82904,174.817386 998.549137,179.985636 995.494012,180.64063 C994.707214,180.809532 993.858836,180.492973 992.915621,179.685759 L992.906109,179.67769 L992.859368,179.748879 C992.396335,180.460026 991.909534,181.248833 991.401417,182.109917 L991.145593,182.546458 C990.434577,183.767974 989.691889,185.11122 988.920283,186.564539 C987.746497,188.775364 986.577367,191.101226 985.315524,193.699772 C985.153237,194.033974 984.766871,194.837259 984.368122,195.665353 L984.150668,196.116832 C983.718392,197.014028 983.317187,197.84462 983.221892,198.031823 C982.287107,199.868842 977.014743,216.061656 976.961095,216.215433 C973.754539,225.406861 970.894461,231.424209 967.715121,234.544426 C967.114647,235.131352 966.481403,235.496453 965.664004,235.81884 C964.687419,236.203299 962.199776,236.325535 960.74649,236.219045 C959.920278,236.158505 959.299579,235.43965 959.36012,234.613438 C959.42066,233.787226 960.139516,233.166526 960.965728,233.227067 C961.990078,233.302126 964.13483,233.196739 964.564184,233.027713 C965.041144,232.839596 965.349025,232.662086 965.61597,232.401167 C968.344028,229.723837 971.077473,223.972914 974.128518,215.227249 C974.07445,215.382233 979.489037,198.752615 980.548254,196.671065 C980.727973,196.318016 982.231758,193.182398 982.616874,192.389319 C983.893164,189.761021 985.077501,187.404906 986.270581,185.157741 C987.059489,183.671834 987.820752,182.294993 988.55284,181.037276 C989.303712,179.747288 990.005712,178.594844 990.668445,177.586037 L990.833109,177.33569 L990.694419,177.144011 C988.397033,173.958223 985.579287,168.610836 981.937171,161.054384 L981.69847,160.558439 C979.546957,156.082083 977.315301,151.200414 975.143664,146.279647 C973.692562,142.991557 972.31468,139.781564 971.820744,138.581683 C971.505394,137.815624 971.870764,136.938969 972.636823,136.623618 Z M996.192109,175.69469 L996.165919,175.712238 C995.848902,175.92763 995.43793,176.316746 994.965129,176.865214 C994.902296,176.938104 994.838688,177.013399 994.774319,177.091077 L994.649109,177.24469 L994.724901,177.320561 C994.835864,177.428351 994.937226,177.517495 995.027617,177.587428 L995.058109,177.60969 L995.08893,177.590052 C995.349181,177.39944 995.695563,177.004739 995.929698,176.54809 L996.003314,176.393775 C996.13051,176.105437 996.186203,175.899442 996.193201,175.755481 L996.192109,175.69469 Z" id="Stroke-23" fill="#8577B7"></path>
                        <path d="M972.416459,125.805285 C973.639115,125.279583 974.940481,125.573516 975.735514,126.791442 C977.088086,128.861804 976.99215,131.565353 975.932559,135.07514 C975.642329,136.036497 975.292684,137.021157 974.824194,138.234548 L974.865821,138.12554 L974.927304,138.252941 C975.2079,138.912059 974.98024,139.681541 974.38619,140.081884 L974.262537,140.156889 C974.219719,140.180156 974.176268,140.201121 974.132327,140.219827 L974.029821,140.25754 L974.01718,140.291345 C974.002573,140.328589 973.989597,140.361717 973.97852,140.390055 L973.951252,140.460023 C973.65241,141.230696 973.456009,141.775878 973.319347,142.2266 C970.88879,150.245055 970.285062,157.800791 970.154042,173.007121 C970.138268,174.843613 970.128188,176.496488 970.125656,178.00553 L970.125709,179.468101 C970.128114,180.728166 970.136972,181.885062 970.153585,182.966732 L970.159821,183.35854 L970.325913,183.628612 C974.83994,191.044725 977.072531,198.339733 974.479667,200.139092 L974.350429,200.221846 C972.295356,201.433217 970.445344,200.417265 969.221421,198.28488 C968.456292,196.951832 967.889389,195.084552 967.751855,193.740604 C967.429634,190.589122 967.255293,187.794945 967.177028,184.267314 L967.174821,184.17854 L967.139005,184.120875 C964.800195,180.426926 961.95864,176.92152 958.844679,174.051119 L958.35077,173.60324 C954.618666,170.275191 951.738099,168.088855 949.502337,166.725392 C948.806614,166.30111 948.293402,166.025806 947.718771,165.747203 C947.581677,165.681024 947.506684,165.64486 947.458416,165.621269 C947.355146,165.570796 947.280253,165.532565 947.207471,165.491834 C947.068058,165.413815 946.950929,165.335958 946.826899,165.222945 C946.523207,164.946225 946.3058,164.571318 946.303833,164.062349 C946.319437,163.791158 946.319437,163.791158 946.387033,163.555305 C946.654477,162.771236 947.506898,162.352429 948.290967,162.619873 C948.475454,162.682801 948.639719,162.778116 948.77958,162.897306 L948.846821,162.95954 C948.878391,162.975441 948.903764,162.987736 948.932276,163.001555 L949.02757,163.04775 C949.683436,163.365739 950.279547,163.685513 951.064322,164.164102 C953.465149,165.62823 956.487692,167.922324 960.347517,171.364266 C962.696115,173.458961 964.939679,175.978382 966.948334,178.648149 L967.124821,178.88454 L967.125556,178.036234 C967.127762,176.678749 967.136044,175.20722 967.149055,173.593274 L967.154153,172.981313 C967.287636,157.489065 967.906714,149.741235 970.44838,141.356226 C970.611996,140.816612 970.830182,140.210956 971.154181,139.375407 C971.205492,139.243083 971.361707,138.846241 971.530995,138.415896 L971.565821,138.32754 L971.541176,138.28103 C971.48388,138.172147 971.430053,138.068392 971.36738,137.946645 L971.318525,137.851599 C970.514992,136.286478 969.955181,134.944778 969.616684,133.619552 C969.00004,131.205369 969.209153,129.072885 970.527766,127.34347 C971.011996,126.706368 971.690139,126.117579 972.416459,125.805285 Z M970.450821,190.20054 L970.468259,190.435189 C970.476546,190.545096 970.485008,190.654974 970.493646,190.764877 L970.547624,191.425035 C970.603768,192.086367 970.66647,192.752535 970.736282,193.435326 C970.832577,194.376295 971.276708,195.839183 971.823298,196.791483 C972.167528,197.391218 972.387227,197.640211 972.577278,197.686362 L972.620821,197.69254 L972.626352,197.642696 C972.659187,197.282833 972.618278,196.758623 972.496943,196.109592 L972.44766,195.860431 C972.136343,194.365674 971.470624,192.450186 970.522902,190.356924 L970.450821,190.20054 Z M973.374821,128.70154 L973.311806,128.75067 C973.172117,128.865346 973.027237,129.012696 972.914808,129.160617 C972.232309,130.055745 972.113134,131.271053 972.523363,132.877111 C972.632496,133.304369 972.774977,133.745274 972.9521,134.209042 L973.011821,134.36154 L973.060583,134.208101 C973.816748,131.703384 973.937198,129.876067 973.389607,128.728028 L973.374821,128.70154 Z" id="Stroke-25" fill="#8577B7"></path>
                        <path d="M963.974678,134.236092 C964.720915,133.876341 965.617496,134.189651 965.977248,134.935888 C971.12693,145.61796 963.355835,159.381069 951.769754,163.844993 C951.202264,164.0636 950.634283,164.295028 949.871065,164.615357 C949.770302,164.657648 949.361487,164.830042 949.009248,164.978379 L948.944117,165.005275 L948.868787,165.081284 C948.635393,165.294612 948.334336,165.435143 948.001551,165.466943 L947.857091,165.473809 L947.818117,165.473275 L947.679026,165.531204 C947.592195,165.566439 947.507236,165.600682 947.423488,165.634194 L947.175218,165.732794 C943.865622,167.037019 941.321482,167.562011 938.362243,167.293025 C937.24222,167.190377 936.098543,166.768363 935.28427,166.011609 C934.100601,164.911105 933.642396,163.260048 934.26861,161.724508 C934.352802,161.520527 934.431848,161.351726 934.539366,161.168338 C934.680891,160.932128 934.808712,160.758199 934.993904,160.539881 C936.758289,158.466759 939.208191,158.639459 942.55447,160.129424 C943.044887,160.347786 943.539229,160.585498 944.186782,160.909444 L944.442872,161.037426 C946.105405,161.867362 946.88296,162.235737 947.354224,162.38445 L947.403117,162.398275 L947.457037,162.376717 C947.757773,162.250457 948.412519,161.974314 948.648108,161.875168 L948.710053,161.849123 C949.498292,161.518292 950.091142,161.276731 950.691269,161.045552 C960.790442,157.154508 967.569838,145.147762 963.274882,136.238662 C962.915131,135.492425 963.22844,134.595844 963.974678,134.236092 Z M941.334189,162.870028 C939.095199,161.873095 937.872034,161.786871 937.2801,162.48238 C937.195936,162.581601 937.163097,162.626285 937.120348,162.697492 C937.104768,162.724087 937.077474,162.782375 937.044094,162.863213 C936.917162,163.174468 937.014035,163.523532 937.326779,163.814301 C937.594909,164.063492 938.123615,164.258583 938.634927,164.305444 C940.161104,164.444168 941.565724,164.321457 943.127237,163.923082 L943.374117,163.856275 L943.138007,163.739154 L942.844581,163.592446 C942.233788,163.28689 941.775827,163.066672 941.334189,162.870028 Z" id="Stroke-27" fill="#8577B7"></path>
                        <path d="M909.890684,159.868618 C910.714586,159.782147 911.452589,160.379953 911.539059,161.203855 C911.62553,162.027757 911.027724,162.76576 910.203822,162.85223 C907.03083,163.185245 903.913348,164.041328 901.228619,165.384932 C897.466771,167.266226 893.650272,170.164192 891.736423,172.080768 C884.347152,179.483262 881.280174,186.653278 880.367941,196.985362 C880.295082,197.810579 879.567047,198.420485 878.74183,198.347626 C877.916613,198.274767 877.306707,197.546732 877.379566,196.721515 C878.350971,185.719239 881.700845,177.887866 889.6134,169.961152 C891.741295,167.830225 895.810817,164.740132 899.886377,162.701951 C902.90905,161.189218 906.374088,160.237694 909.890684,159.868618 Z" id="Stroke-29" fill="#8577B7"></path>
                        <path d="M900.273753,121.830817 C899.307659,122.9735 898.292997,123.991619 897.357496,124.724766 C896.70545,125.235772 895.762609,125.121436 895.251604,124.469389 C894.740598,123.817343 894.854934,122.874503 895.506981,122.363497 C896.5643,121.534881 897.786117,120.21135 898.862143,118.794172 L898.983567,118.630984 L898.952849,118.58842 C898.848736,118.445781 898.695011,118.234797 898.608246,118.114295 L898.570982,118.062318 C897.821753,117.010463 897.413917,116.202506 897.246288,115.169472 C896.912409,113.10222 897.92278,111.269868 899.190964,110.671242 C899.356962,110.59241 899.443257,110.5517 899.514476,110.520952 L899.618076,110.478783 L899.676542,110.456702 C899.887482,110.378132 900.095819,110.325773 900.34161,110.289704 C903.078073,109.900169 905.277856,112.106523 904.387053,115.040496 C904.071933,116.074161 903.464395,117.289495 902.69217,118.52609 L902.577567,118.704984 L902.63304,118.815122 C902.79287,119.148728 902.924157,119.486193 903.035012,119.851009 L903.11445,120.130116 C903.616018,122.015173 903.210395,125.31038 902.617832,127.131855 C901.806493,129.626299 900.790465,131.685781 898.921908,134.919007 C898.743246,135.228151 898.134072,136.276061 898.075307,136.377422 C897.326548,137.668925 896.836899,138.541789 896.35876,139.455778 C890.858253,149.960608 897.205728,156.948948 910.374812,159.897266 C911.183227,160.078255 911.691856,160.880325 911.510866,161.68874 C911.329877,162.497155 910.527807,163.005784 909.719392,162.824794 C894.912793,159.509867 887.02113,150.821433 893.700791,138.064662 C894.203186,137.104307 894.711175,136.198749 895.47994,134.872738 C895.540427,134.768408 896.148111,133.723062 896.324477,133.41789 C898.096122,130.352354 899.033931,128.451422 899.764973,126.20385 C900.099203,125.176461 900.380123,123.2694 900.33747,121.905044 L900.329567,121.762984 L900.273753,121.830817 Z M901.516942,114.167304 C901.73259,113.457039 901.440014,113.163589 900.770877,113.258826 C900.73564,113.263999 900.732047,113.264902 900.723687,113.268016 C900.693942,113.279095 900.665656,113.29202 900.474746,113.38268 C900.551686,113.346361 900.446849,113.452571 900.360024,113.610033 C900.202056,113.896515 900.136343,114.248028 900.207732,114.690047 C900.262188,115.025639 900.388019,115.343232 900.632003,115.747005 L900.742567,115.922984 L900.831685,115.760257 C901.085057,115.27946 901.291565,114.823276 901.437071,114.409985 L901.516942,114.167304 Z" id="Stroke-31" fill="#8577B7"></path>
                        <path d="M875.432221,5.85366394 C884.926708,-0.774638859 895.84717,-3.00772805 905.518916,0.212633061 C907.84757,0.987250391 910.087714,2.07168958 912.216354,3.46450878 C913.416379,4.24838727 913.937327,5.1461178 914.683108,7.07990741 C914.698122,7.11884733 914.698122,7.11884733 914.71302,7.15749995 C915.093054,8.14337446 915.281313,8.54657827 915.551311,8.89958734 C915.919629,9.38149691 916.321341,9.7329776 917.266302,10.4453302 C917.339855,10.5007615 917.339855,10.5007615 917.414435,10.5569972 C918.869921,11.6551082 919.593663,12.3467016 920.259976,13.5082347 C921.31367,15.3480624 921.663505,17.7905596 919.901932,19.2390098 C919.262042,19.7651583 918.316781,19.6729525 917.790633,19.0330625 C917.264484,18.3931725 917.35669,17.4479115 917.99658,16.921763 C918.205374,16.7500827 918.053942,15.6928048 917.657215,15.0000904 C917.249264,14.2889417 916.759449,13.820884 915.607601,12.9518568 C915.58932,12.9380724 915.57561,12.9277342 915.56417,12.9191084 L915.504375,12.8740336 L915.460415,12.8409035 C914.304908,11.969832 913.752751,11.486719 913.168078,10.7217298 C912.664383,10.0631717 912.397976,9.49259655 911.913794,8.23654212 C911.898871,8.19782596 911.898871,8.19782596 911.884049,8.15938589 C911.360112,6.80082987 911.068251,6.29787595 910.574739,5.97550437 C908.66107,4.72334634 906.654684,3.75206794 904.571584,3.059133 C895.866234,0.160548641 885.912381,2.19597895 877.149404,8.31359926 C866.632783,15.6541944 863.345183,28.3364141 868.445796,41.1500983 C868.964883,42.4522892 870.657404,45.4170238 872.10794,47.3755886 C872.444277,47.8298583 872.802685,48.3046843 873.264507,48.9097531 C873.43914,49.1385535 874.248185,50.1949712 874.470392,50.4863142 C878.171409,55.3388263 879.957462,58.2334721 880.896803,61.630021 C882.020475,65.6950071 881.999573,69.8033726 880.852141,72.7843091 C880.4647,73.789353 879.445635,75.508846 878.355126,76.596691 C876.963413,77.9821702 875.228034,78.86487 872.624131,79.6604745 C871.206378,80.0926666 869.647786,80.4545713 867.214029,80.9473306 C867.170613,80.956121 867.102451,80.9698301 867.014938,80.987389 L866.699735,81.0505462 C866.458086,81.0989254 866.160602,81.1584283 865.850427,81.2205041 L865.38104,81.3144783 C864.834902,81.4238722 864.315964,81.5280515 864.055459,81.5811885 C862.818024,81.8335965 861.802191,82.0528381 860.830262,82.2812137 C853.987188,83.8891413 849.672756,85.9773256 847.170408,89.4701684 C843.841362,94.1185735 842.276354,99.6138333 840.143262,111.608594 C840.095855,111.875174 840.053179,112.115593 839.96316,112.622956 C839.51076,115.172332 839.245306,116.633516 838.968996,118.048192 L838.881149,118.494601 C838.851592,118.643699 838.821685,118.793496 838.791195,118.945208 C837.527324,125.235665 836.397497,131.863995 835.369097,138.765288 C834.674044,143.429589 834.314774,146.099163 833.515113,152.280341 C833.435855,152.895031 833.310654,153.47519 833.148872,154.032474 C833.050259,154.372164 832.954683,154.652151 832.830908,154.984793 C832.808927,155.043568 832.793603,155.08458 832.782564,155.114263 L832.77238,155.140051 L832.770293,155.15615 C832.66541,155.597693 832.362369,155.982751 831.926738,156.178459 L831.792137,156.231359 C831.007599,156.497426 830.155915,156.077123 829.889848,155.292586 C829.763384,154.91969 829.798859,154.573774 829.857494,154.415724 C829.891919,154.290368 829.891919,154.290368 829.918427,154.212994 C829.940377,154.149495 829.967682,154.076021 830.019245,153.938585 C830.119489,153.669181 830.192973,153.453912 830.267819,153.196093 C830.388358,152.780877 830.481225,152.350547 830.539826,151.896068 C831.341972,145.695676 831.703089,143.012377 832.401861,138.323124 C833.437181,131.375389 834.57522,124.698883 835.849988,118.354192 C836.164745,116.787989 836.417908,115.42136 836.873426,112.863281 L837.009308,112.09878 C837.09933,111.591404 837.142099,111.350461 837.189604,111.083329 C839.404464,98.6287702 841.043834,92.8724012 844.731528,87.7232096 C847.767409,83.4856478 852.653361,81.1208479 860.144037,79.3607523 C861.148728,79.1246785 862.191815,78.8995547 863.455875,78.6417159 C863.719681,78.5879056 864.241051,78.4832323 864.788445,78.3735843 L865.258613,78.2794523 C865.646729,78.2017776 866.014371,78.128254 866.277158,78.0756048 L866.53677,78.0235157 L866.618703,78.0069927 C868.964172,77.532109 870.447872,77.1875941 871.748426,76.7911294 C873.92559,76.125912 875.25515,75.4496315 876.237487,74.4716966 C876.993716,73.7173141 877.804952,72.3484944 878.052663,71.7059215 C878.950496,69.3734222 878.968103,65.912557 878.005293,62.4295011 C877.201235,59.5221219 875.558779,56.8602019 872.085013,52.3056457 C871.86511,52.0173245 871.056494,50.9614657 870.879765,50.7299202 C870.409833,50.1142253 870.043301,49.628636 869.696992,49.1608985 C868.098402,47.0024257 866.278002,43.8136899 865.658776,42.2602873 C860.059196,28.1931046 863.733428,14.0194142 875.432221,5.85366394 Z" id="Stroke-33" fill="#8577B7"></path>
                        <path d="M904.263031,16.8446952 C905.79902,15.5962161 907.025616,15.1435405 908.84545,15.6505718 C909.152395,15.7365865 909.453604,15.8613373 909.932378,16.0838522 C910.04011,16.1339219 910.426025,16.3156891 910.482329,16.3420349 C910.704833,16.4461476 910.88535,16.5286541 911.064507,16.6073976 C912.371133,17.1816896 913.429381,17.4565412 914.453814,17.4070234 C914.534526,17.4031518 914.534526,17.4031518 914.616243,17.3993677 C915.579785,17.3550022 915.788658,17.3433384 916.224843,17.3011778 C917.401777,17.1874181 918.027201,16.9490594 918.039871,16.9129861 C918.314383,16.1313632 919.17055,15.7202691 919.952173,15.9947817 C920.733796,16.2692944 921.14489,17.1254613 920.870377,17.9070842 C920.3118,19.4975278 918.826179,20.0637201 916.513471,20.2872611 C916.006013,20.3363108 915.776924,20.3491035 914.75423,20.3961926 C914.675311,20.3998474 914.675311,20.3998474 914.598964,20.40351 C913.020142,20.4798252 911.551271,20.0983252 909.857389,19.3538256 C909.891778,19.3689403 908.214062,18.589205 908.038113,18.5398974 C907.354378,18.3493999 907.013222,18.4753039 906.155254,19.1726755 C906.082995,19.2314084 905.997485,19.3017586 905.827194,19.4419247 C904.770418,20.3088326 904.061981,20.74168 903.010126,20.9766642 C901.61902,21.2874002 900.203502,21.5007512 898.346042,21.7065364 C897.876314,21.7585768 897.509407,21.7968061 896.659675,21.8835129 C891.716771,22.3878883 889.574684,22.7872262 887.019618,23.9285774 C886.364612,24.2214673 886.000162,24.9476158 885.757493,26.4422012 C885.712589,26.7187609 885.684102,26.9255175 885.613356,27.4685144 C885.375372,29.285066 885.222192,29.9458828 884.636604,30.6860489 C884.362509,31.0323395 884.32909,31.4961171 884.492233,32.8523702 C884.49329,32.8611616 884.49329,32.8611616 884.49435,32.8699706 C884.636056,34.0478276 884.666511,34.5842402 884.559263,35.303354 C884.562828,35.2798416 884.529061,35.6244814 884.485852,36.0204151 L884.455952,36.2884928 C884.430381,36.5124281 884.403807,36.7304624 884.381014,36.8882648 C884.300798,37.4436255 884.20502,37.9063218 884.074429,38.2935538 C883.766202,39.2075109 883.30751,39.832568 882.251753,39.832568 C881.181845,39.832568 880.643952,39.1966198 880.15551,38.12506 C879.992074,37.7665091 879.623504,36.6939862 879.290776,35.7010472 L879.140631,35.2513082 C879.067709,35.0321538 878.99867,34.8237391 878.936475,34.6358167 L878.822088,34.2901843 C878.735834,34.0297424 878.674076,33.8442832 878.650524,33.7789568 C877.564685,30.7670409 876.517198,29.5120094 875.298096,29.739125 C873.310705,30.1088186 872.325674,32.2687674 872.66551,35.4527706 C872.998413,38.571828 874.568047,41.466865 876.208014,42.1535029 C876.333946,42.2067178 876.442017,42.2520735 876.568441,42.3038134 C876.775722,42.3886438 876.981573,42.4696462 877.184092,42.5449827 C877.308554,42.5912819 877.428289,42.6341192 877.54206,42.6728928 C877.60546,42.694358 877.60546,42.694358 877.667719,42.7148443 C878.455233,42.9719705 878.885197,43.8188184 878.62807,44.606332 C878.370944,45.3938455 877.524096,45.8238094 876.736583,45.5666831 C876.709417,45.5577439 876.691306,45.5517844 876.676241,45.5467984 L876.574308,45.5125152 C876.433026,45.4643656 876.287455,45.4122853 876.138131,45.3567374 C875.902547,45.269101 875.667409,45.1765742 875.432154,45.0802951 C875.291203,45.0226102 875.167928,44.9708739 875.051084,44.921446 C872.216631,43.7346907 870.119602,39.8669263 869.682453,35.7711585 C869.19661,31.219175 870.889154,27.5078109 874.749053,26.7897943 C878.016652,26.1810486 879.924423,28.4668173 881.472723,32.7615127 L881.459327,32.7258404 L881.454393,32.6760427 C881.284232,30.9717677 881.401437,30.0174018 882.164709,28.9806505 L882.28409,28.8244159 C882.37865,28.7048949 882.486955,28.237667 882.638637,27.0798756 C882.671884,26.8246893 882.696496,26.6383439 882.718124,26.4820804 L882.749033,26.2654019 C882.764075,26.1634986 882.779026,26.0676155 882.796272,25.9614013 C883.185298,23.565411 883.967387,22.0071357 885.795524,21.1896738 C888.736295,19.8760272 891.101522,19.4350905 896.355136,18.8990104 C897.196196,18.8131883 897.557483,18.7755446 898.015697,18.7247797 C899.773706,18.5300127 901.090272,18.3315761 902.356087,18.0488267 C902.826973,17.9436308 903.205305,17.7124739 903.924494,17.1224996 C904.088652,16.987363 904.182656,16.910025 904.263031,16.8446952 Z" id="Stroke-35" fill="#8577B7"></path>
                        <path d="M877.406878,51.2740672 C877.412982,51.2949615 876.892837,49.3890752 876.741831,48.8526497 C876.490867,47.9633599 876.20791,46.4251154 875.941094,44.3309508 C875.836391,43.5091669 876.4177,42.758101 877.239484,42.6533982 C878.061268,42.5486954 878.812334,43.1300046 878.917037,43.9517885 C879.166677,45.9111505 879.424623,47.3134212 879.629327,48.0387919 C879.732891,48.4066863 879.834588,48.7753655 879.970567,49.2738068 C880.052957,49.5761272 880.052957,49.5761272 880.134229,49.8745674 C880.198628,50.1108895 880.247635,50.2901336 880.295289,50.4634017 C881.260047,53.9711624 881.937973,55.7154401 883.084216,57.2438433 C885.022912,59.8291588 888.16206,61.7988874 893.640537,64.1084554 C895.611173,64.937396 897.15576,65.4494214 898.904614,65.7260102 C899.618823,65.8392271 900.54871,65.7517456 901.499073,65.4822921 C901.658818,65.4371385 901.816918,65.3872596 901.96762,65.3344389 C902.749416,65.0604204 903.605323,65.4720555 903.879341,66.2538518 C904.15336,67.035648 903.741725,67.891555 902.959929,68.1655735 C902.750381,68.2390196 902.533503,68.3074423 902.316241,68.3688533 C900.975884,68.7488814 899.618283,68.876601 898.435446,68.6890966 C896.39507,68.3664025 894.652524,67.7887545 892.476235,66.873306 C886.544919,64.3728349 883.023338,62.1631398 880.684129,59.0437273 C879.243902,57.1233258 878.462983,55.11405 877.402699,51.2589656 L877.406878,51.2740672 Z" id="Stroke-37" fill="#8577B7"></path>
                        <path d="M829.88324,154.34668 C830.139582,153.558911 830.986001,153.128103 831.77377,153.384445 C832.561539,153.640787 832.992347,154.487206 832.736005,155.274975 C831.892202,157.868084 831.533897,160.010811 831.815255,163.006056 C832.302335,168.207586 835.084635,175.223132 838.965709,181.258926 C842.141487,186.197299 846.551975,191.349701 852.139113,196.900843 C853.786602,198.537718 857.235272,201.713782 860.733143,204.934661 L861.716773,205.840483 C866.081396,209.860668 870.266259,213.731973 870.849526,214.5357 C870.885285,214.58502 870.885285,214.58502 870.920927,214.634334 C872.758849,217.179311 874.378947,219.874911 875.857995,222.699545 C876.015535,223.000409 876.193105,223.34817 876.375609,223.710442 L876.742724,224.444737 C877.320243,225.607618 877.846327,226.699499 877.841625,226.691963 C878.852464,228.307769 880.091659,230.019554 880.885468,230.930235 C882.899535,233.235593 889.824331,238.531983 895.741803,241.800845 C897.781613,242.927457 900.442808,243.830949 902.681608,244.230403 C903.279001,244.33619 904.084696,244.412924 904.790134,244.440472 C905.669143,244.476602 906.455096,244.43623 907.132337,244.347616 C907.305478,244.324962 907.454985,244.301197 907.585506,244.277171 C907.653536,244.264369 907.653536,244.264369 907.698566,244.255333 C907.718026,244.251388 907.718026,244.251388 907.741151,244.246767 C907.756152,244.2438 907.756152,244.2438 907.790948,244.237633 L907.764906,244.211294 C907.675113,244.117174 907.790578,244.172039 909.291616,244.885283 C909.750692,245.574878 909.563819,246.506059 908.874224,246.965135 C908.671402,247.100157 908.447682,247.179302 908.221221,247.206212 L908.198544,247.207828 L908.208544,247.211828 L908.187196,247.21656 L908.12862,247.227599 C907.948455,247.260764 907.74783,247.292654 907.521553,247.322261 C906.680662,247.432287 905.724414,247.481407 904.670006,247.438064 C903.841015,247.405695 902.903957,247.316451 902.156582,247.184103 C899.604291,246.728716 896.631679,245.719496 894.29129,244.426871 C888.087274,240.99972 880.889281,235.494376 878.625115,232.902746 C877.717935,231.862005 876.387904,230.024742 875.297289,228.281412 C875.239153,228.188217 874.734207,227.151699 874.191255,226.055314 L873.998712,225.667307 C873.709528,225.085884 873.42317,224.516812 873.200299,224.09118 C871.783009,221.384489 870.234339,218.807736 868.488836,216.390733 C868.45517,216.344151 868.45517,216.344151 868.421454,216.297649 C868.342266,216.188531 868.159153,215.990035 867.888599,215.716269 L867.635666,215.463507 C864.535114,212.397423 853.627478,202.608615 850.02466,199.029008 C844.296401,193.337655 839.754054,188.031213 836.44239,182.881535 C832.320891,176.471837 829.365201,169.019088 828.828363,163.286191 C828.502342,159.815482 828.923778,157.295225 829.88324,154.34668 Z" id="Stroke-39" fill="#8577B7"></path>
                        <path d="M896.395087,227.272884 L896.3757,227.25679 C896.245535,227.149971 896.046118,227.015898 895.498322,226.675855 C895.283769,226.541749 895.163103,226.458896 893.993622,225.649636 C893.312392,225.178237 893.14229,224.243847 893.613689,223.562617 C894.085088,222.881386 895.019479,222.711285 895.700709,223.182684 C896.759969,223.915673 896.937831,224.037798 897.08445,224.12945 C897.735368,224.533496 898.016968,224.722823 898.278828,224.937716 C898.324049,224.975123 898.324049,224.975123 898.366715,225.011431 C898.328527,224.978736 898.84187,225.43576 899.113294,225.661508 C899.603741,226.069421 900.317078,226.627647 901.365533,227.415109 C901.492042,227.510235 902.68591,228.423336 903.164233,228.785597 C904.173004,229.549596 905.111309,230.245418 906.027404,230.902996 C906.344578,231.130666 906.653793,231.349863 906.954651,231.560129 C907.44473,231.902641 907.909782,232.219465 908.347829,232.508574 C908.800281,232.807439 909.248205,233.110872 909.764413,233.466638 C909.859763,233.532353 910.029385,233.649823 910.215698,233.779002 L910.4436,233.937074 C910.786416,234.174925 911.108685,234.398812 911.074595,234.375187 C911.377489,234.58511 911.626248,234.756375 911.867037,234.920417 C912.737038,235.513123 913.484645,235.997654 914.281903,236.478194 C914.30213,236.490396 914.321352,236.501976 914.340005,236.513191 L914.448564,236.578142 C914.593477,236.664356 914.757625,236.759936 915.163789,236.995921 C915.196333,237.014838 915.22074,237.029025 915.241094,237.040861 L915.347236,237.102684 L915.425062,237.148103 C916.395616,237.715495 916.954036,238.077223 917.413288,238.478984 C918.911734,239.794428 918.838678,241.570963 917.724998,242.981989 C916.977557,243.931773 915.068018,244.518316 913.683784,244.305566 C913.146792,244.224395 912.562784,244.085065 911.94055,243.896347 C911.795617,243.852596 911.649074,243.804492 911.500839,243.752181 C910.831094,243.515836 910.141111,243.200114 909.407436,242.810821 C908.786801,242.481507 907.437608,241.685379 907.411105,241.671712 C905.58034,240.729609 904.137602,239.799077 901.840863,238.163002 C901.815696,238.145074 900.771482,237.399164 900.467701,237.183819 C899.944417,236.812873 899.503696,236.505947 899.071112,236.212805 C898.211798,235.630486 897.410407,235.121161 896.586088,234.639979 C895.705757,234.125241 895.143734,233.770732 893.896283,232.960346 C893.880035,232.949791 893.880035,232.949791 893.863795,232.939241 C892.716973,232.194288 892.116739,231.818051 891.263026,231.324515 C890.545822,230.909895 890.300528,229.992371 890.715148,229.275166 C891.129767,228.557962 892.047292,228.312668 892.764496,228.727288 C893.673949,229.253047 894.310902,229.652301 895.498018,230.423429 C895.514314,230.434014 895.514314,230.434014 895.5306,230.444594 C896.740686,231.230707 897.272001,231.565845 898.099416,232.049643 C898.984842,232.566495 899.842079,233.111313 900.754058,233.72932 C901.206238,234.035743 901.663478,234.354173 902.202646,234.736379 C902.511686,234.955452 903.560169,235.704412 903.581438,235.719563 C905.770404,237.278865 907.109853,238.142778 908.784923,239.004762 C908.909209,239.068851 910.278765,239.876995 910.813573,240.160768 C911.426088,240.485773 911.986913,240.742395 912.499166,240.923163 C912.604827,240.96045 912.707663,240.994207 912.809384,241.024915 C913.304392,241.175045 913.751588,241.281735 914.135837,241.339822 C914.331975,241.369967 914.671105,241.33192 915.002802,241.230035 C915.157661,241.182468 915.294898,241.125899 915.392961,241.072163 C915.412768,241.061309 915.419474,241.0579 915.410049,241.071677 L915.394761,241.09116 L915.43278,241.043957 C915.563841,240.876798 915.568709,240.854146 915.47981,240.773781 L915.436065,240.735216 C915.171401,240.503685 914.71486,240.207952 913.910988,239.738003 C913.784713,239.664301 913.784713,239.664301 913.656677,239.589878 C913.080226,239.254955 912.975206,239.193526 912.732762,239.047271 C911.883626,238.535463 911.090775,238.021609 910.177955,237.399732 C909.929663,237.230578 909.674664,237.055016 909.365715,236.840897 C909.422167,236.880021 908.361728,236.143389 908.06199,235.936812 C907.560832,235.591417 907.128628,235.298633 906.694833,235.012092 C906.233806,234.707817 905.746996,234.376169 905.236097,234.019107 C904.924582,233.801392 904.60513,233.574938 904.278014,233.340133 C903.33853,232.665767 902.380608,231.955396 901.352994,231.177126 C900.865247,230.807729 899.677084,229.898991 899.563233,229.813382 C898.478756,228.998866 897.727985,228.411346 897.194942,227.968005 C897.12662,227.91118 897.048349,227.844641 896.968268,227.775791 L896.808105,227.637204 C896.624059,227.477046 896.459703,227.331187 896.418438,227.293699 C896.394895,227.272664 896.394895,227.272664 896.3757,227.25679 L896.395087,227.272884 Z" id="Stroke-41" fill="#8577B7"></path>
                        <path d="M911.824781,213.683004 C912.243766,213.706585 912.589977,213.767131 913.039687,213.941741 C913.866719,214.262856 914.520237,214.870313 914.80766,215.779471 C915.06985,216.602963 914.98733,217.80241 914.423701,218.605521 C913.969775,219.248443 913.704284,219.519843 913.141542,219.927556 C911.967929,220.774953 907.714631,220.849184 904.767294,219.844711 C903.820201,219.521473 902.9893,219.092261 901.765253,218.356868 C900.332324,217.495981 899.592371,217.086329 899.102428,216.934035 L899.087168,216.929211 L899.103059,216.953219 C899.357297,217.329238 900.175227,218.155673 901.339765,219.217691 L901.562124,219.419528 C901.703283,219.547075 901.848422,219.677204 901.997228,219.809673 C902.708846,220.443164 903.473343,221.103013 904.238105,221.749276 C904.505959,221.975626 904.754586,222.184 904.97749,222.36949 C905.110638,222.480288 905.205169,222.558464 905.26428,222.607149 C905.302156,222.638837 905.302156,222.638837 905.469334,222.779116 C905.631648,222.915429 905.812434,223.067612 906.007097,223.231923 C906.563503,223.701574 907.120012,224.17464 907.640125,224.62143 C907.689283,224.663668 907.689283,224.663668 907.738431,224.705939 C908.571177,225.422346 909.219055,225.993175 909.6283,226.376218 C910.840979,227.512737 912.04224,228.487945 913.501321,229.558923 C913.737451,229.732244 916.240525,231.518158 916.900437,232.025574 C917.851371,232.756762 918.588386,233.413327 919.215616,234.115009 C919.357572,234.27115 919.386784,234.303876 919.504085,234.443351 C919.692562,234.667456 919.878223,234.906652 920.054263,235.159355 C920.371943,235.61538 920.628674,236.071573 920.803758,236.534826 C920.923222,236.850914 921.002613,237.1659 921.033063,237.484291 C921.219959,239.443982 919.967531,240.894995 917.898842,241.140465 C917.359536,241.212475 916.336945,240.967556 915.08405,240.445252 C914.885668,240.362314 914.657617,240.249551 914.343571,240.084878 C914.31049,240.067515 914.31049,240.067515 914.277703,240.050243 C914.223002,240.021407 913.864841,239.831018 913.779512,239.786561 C912.591276,239.162898 911.610911,238.527552 910.743088,237.864232 C910.036045,237.323803 909.85292,237.194044 909.915948,237.205406 L909.925168,237.207211 L909.829819,237.151266 C909.450523,236.902078 909.191909,236.485878 909.156512,236.009619 L909.152691,235.865046 C909.170153,235.036803 909.855732,234.379535 910.683975,234.396996 C911.002087,234.403703 911.210123,234.48239 911.425422,234.603342 C911.503128,234.646997 911.558231,234.6838 911.639155,234.742378 C911.712502,234.796133 911.780395,234.850353 911.900367,234.948794 C912.281414,235.261453 912.34105,235.309647 912.564904,235.480749 C913.303256,236.045109 914.142206,236.588808 915.169615,237.128066 C915.264087,237.177278 915.631825,237.372758 915.676729,237.39643 C915.706832,237.412287 915.706832,237.412287 915.736739,237.427985 C915.976722,237.553822 916.14699,237.638013 916.2398,237.676815 C916.752921,237.890724 917.174656,238.030454 917.5,238.108377 C917.534401,238.116616 917.566275,238.123802 917.595449,238.129983 L917.671168,238.144211 L917.728391,238.136285 C918.018452,238.088839 918.063564,238.028043 918.051724,237.832374 L918.046652,237.769506 C918.043601,237.737602 918.028333,237.677027 917.997496,237.595437 C917.921552,237.394495 917.7803,237.143501 917.592673,236.874165 C917.383335,236.573663 917.222058,236.381899 916.987465,236.123786 C916.492118,235.569703 915.88707,235.0307 915.071777,234.403809 C914.462507,233.935332 912.00045,232.178684 911.726169,231.977359 C910.177442,230.840581 908.886407,229.792492 907.577544,228.565829 C907.208292,228.22022 906.58449,227.670603 905.781928,226.980163 C905.733625,226.938619 905.733625,226.938619 905.685283,226.897082 C905.172492,226.456582 904.622318,225.988902 904.072041,225.524423 C903.741842,225.245709 903.485259,225.030227 903.348952,224.916123 C903.295207,224.871919 903.196266,224.790097 903.058552,224.675499 C902.830022,224.485328 902.575621,224.272113 902.301752,224.040681 C901.518736,223.378993 900.735456,222.702931 900.00248,222.050427 C899.848259,221.913137 899.697617,221.778075 899.55084,221.645451 C898.071692,220.308933 897.076744,219.312323 896.617438,218.633008 C895.323816,216.717878 896.223488,214.289458 897.819185,213.950495 C899.48397,213.598227 900.214366,213.925324 903.31023,215.785284 C904.364999,216.418976 905.041234,216.768294 905.735676,217.005304 C906.949721,217.419058 908.360251,217.602134 909.738381,217.578082 C910.284917,217.568544 910.791653,217.525667 911.189814,217.461616 C911.349793,217.435881 911.479642,217.408546 911.565003,217.384638 L911.518168,217.395211 L911.56016,217.364248 C911.680135,217.267849 911.747606,217.189703 911.881366,217.004019 L911.970527,216.878697 C911.94894,216.909456 911.945122,216.843666 911.945579,216.780885 L911.946168,216.736211 L911.883742,216.71499 C911.811707,216.694829 911.732148,216.683747 911.629568,216.677453 L911.51874,216.672597 C911.498003,216.671984 911.498003,216.671984 911.454739,216.669781 C909.014514,216.520385 906.98489,216.038206 904.235015,214.62907 C903.524679,214.265132 902.70672,213.815247 901.600669,213.186209 C901.114451,212.909685 899.119246,211.76369 898.622644,211.480902 C898.220972,211.252172 897.854404,211.044997 897.503913,210.848876 C895.29785,209.614452 893.638893,208.771163 892.292398,208.231462 C892.266305,208.22101 892.197718,208.200075 892.094743,208.17414 C891.80268,208.100581 890.05018,207.766609 889.754343,207.705107 C885.916495,206.912823 882.771611,205.047496 879.593454,200.76432 C877.296546,197.669305 875.226324,193.914073 871.939671,187.243983 C871.747712,186.854413 871.547604,186.44717 871.30664,185.955914 C871.165344,185.667852 870.990361,185.310839 870.674195,184.665774 C865.662669,174.443407 863.149603,170.054243 860.030111,166.923719 C858.390838,165.278338 856.756441,164.134494 855.017687,163.489702 L855.004168,163.484211 L854.932162,163.623163 C854.734672,163.990148 854.483503,164.392425 854.197178,164.792218 L853.976132,165.091006 C852.908706,166.487899 851.636142,167.55239 850.170917,168.016211 C847.204236,168.955202 845.001388,166.352506 845.403721,163.834343 C845.820848,161.22776 848.483405,159.866481 851.480648,159.864211 C855.530153,159.864211 858.93576,161.574739 862.155273,164.806247 C865.605006,168.26818 868.188348,172.780085 873.367899,183.345183 C873.684278,183.990685 873.859012,184.347188 874.000073,184.634771 C874.240305,185.124536 874.43966,185.530245 874.630717,185.917984 C877.838305,192.427616 879.848565,196.074082 882.002592,198.97657 C884.719207,202.63773 887.213879,204.117395 890.362912,204.767482 C890.582114,204.813052 892.435063,205.166166 892.827441,205.26499 C893.049624,205.320949 893.237366,205.378253 893.408237,205.446699 C894.903961,206.046214 896.65849,206.938085 898.968846,208.230867 C899.326384,208.430931 899.699353,208.641723 900.107163,208.873949 C900.610474,209.160557 902.604731,210.306008 903.083766,210.578447 C904.154978,211.187672 904.939919,211.619396 905.603057,211.959152 C907.949346,213.161476 909.582931,213.549568 911.635655,213.675242 L911.611168,213.673211 L911.824781,213.683004 Z M851.481784,162.864211 C849.777889,162.865502 848.491701,163.523088 848.366089,164.308027 C848.281249,164.839032 848.700866,165.334816 849.26559,165.156074 C850.040978,164.910623 850.865211,164.221158 851.592411,163.269503 C851.648652,163.195902 851.703431,163.121817 851.75646,163.047827 L851.877168,162.872211 L851.818732,162.869375 L851.481784,162.864211 Z" id="Stroke-43" fill="#8577B7"></path>
                        <path d="M887.694999,233.801872 C888.061271,233.058813 888.960561,232.753367 889.70362,233.119639 C891.187269,233.850966 892.871267,234.808332 894.078951,235.572807 C894.433638,235.798119 894.979742,236.129831 895.663406,236.536926 C895.705704,236.562107 895.705704,236.562107 895.748034,236.587285 C896.226987,236.872112 896.740876,237.174714 897.254864,237.475375 C897.563294,237.655793 897.802963,237.795322 897.98566,237.902433 C898.057335,237.947544 898.196267,238.034156 898.394344,238.156312 C898.726302,238.361033 899.101258,238.589438 899.511069,238.835557 C900.681757,239.538632 901.895134,240.241586 903.085117,240.896272 C903.560504,241.157813 904.023426,241.40674 904.471269,241.641188 C905.97079,242.426194 907.256614,243.025643 908.246356,243.38826 C909.406069,243.812895 911.933528,243.917745 912.706624,243.640408 C912.810812,243.602802 913.02853,243.357265 913.043354,243.268395 C913.179653,242.451257 913.952566,241.899328 914.769703,242.035627 C915.586841,242.171926 916.13877,242.944839 916.002472,243.761977 C915.803138,244.957018 914.818358,246.067627 913.72239,246.46321 C912.243445,246.993767 909.000684,246.859242 907.214589,246.205254 C906.078875,245.789157 904.685585,245.139607 903.079884,244.299016 C902.612994,244.054597 902.131941,243.79592 901.639028,243.524737 C900.412675,242.850041 899.167484,242.128656 897.966511,241.407393 C897.546241,241.154993 897.161272,240.920488 896.819601,240.709777 C896.613501,240.582674 896.46684,240.491244 896.433988,240.469412 C896.294678,240.388599 896.051933,240.247279 895.740117,240.064881 C895.220362,239.760847 894.700507,239.454731 894.214633,239.165789 C894.171579,239.14018 894.171579,239.14018 894.128532,239.114553 C893.421806,238.693726 892.855501,238.349744 892.472365,238.106357 C891.352295,237.397344 889.759746,236.491968 888.377232,235.810493 C887.634173,235.444221 887.328727,234.544931 887.694999,233.801872 Z" id="Stroke-45" fill="#8577B7"></path>
                        <path d="M870.659715,121.38733 L870.631653,121.588823 C870.464484,122.788645 870.325865,124.054386 870.207451,125.39249 C870.15497,125.985536 870.109282,126.559133 870.062525,127.194275 C870.047961,127.392105 869.985304,128.268767 869.971694,128.445629 C869.096588,139.860493 865.458871,152.312912 859.995776,163.256274 C859.625758,163.997474 858.724937,164.298376 857.983737,163.928357 C857.242537,163.558339 856.941634,162.657518 857.311653,161.916318 C862.607627,151.307722 866.136205,139.228902 866.980504,128.215881 C866.993399,128.048307 867.055528,127.179044 867.070621,126.97402 C867.118385,126.325204 867.165203,125.737415 867.219129,125.128042 C867.366366,123.464231 867.544407,121.902642 867.769708,120.424688 C868.52763,115.452786 869.597973,112.332966 871.636325,111.311824 C872.56633,110.846159 873.480318,110.818607 874.350566,111.120044 C876.594926,111.910201 876.904716,114.828159 875.623017,117.300054 C875.096874,118.315636 874.189059,119.184718 872.967453,120.017884 C872.446682,120.373063 871.945756,120.672746 871.27959,121.044734 C871.113071,121.137472 871.113071,121.137472 870.968642,121.217766 C870.864394,121.275848 870.793631,121.315747 870.735503,121.349353 C870.700039,121.369856 870.661722,121.394895 870.750733,121.305757 L870.659715,121.38733 Z M873.361517,113.952309 C873.229596,113.906617 873.149895,113.90902 872.979765,113.994206 C872.684531,114.142108 872.230593,114.864392 871.811891,116.084817 C871.705809,116.394024 871.60386,116.72762 871.506016,117.084211 L871.409715,117.44533 L871.501666,117.382286 C872.155585,116.912387 872.629731,116.457848 872.883232,116.052742 L872.959505,115.919583 C873.275521,115.310111 873.409461,114.6842 873.360192,114.220128 C873.334235,113.975635 873.307235,113.933219 873.361517,113.952309 Z" id="Stroke-47" fill="#8577B7"></path>
                        <path d="M912.066476,184.971047 C914.356196,183.263783 917.355666,182.894636 919.862042,184.008044 C921.809064,184.875391 922.907202,186.00865 923.600896,188.296139 C924.254522,190.455271 924.185677,191.808458 923.549081,194.867185 C922.74395,198.737321 918.913792,204.145188 914.66123,207.476979 C912.495874,209.173508 910.518308,210.841289 908.770366,212.40792 C908.160012,212.954962 907.622507,213.449734 907.163042,213.883191 C906.890009,214.140769 906.705305,214.319021 906.614107,214.408908 C906.024094,214.990437 905.074371,214.983559 904.492842,214.393546 C903.911313,213.803533 903.918191,212.85381 904.508204,212.272281 C904.614705,212.167311 904.81513,211.973888 905.104383,211.701008 C905.582062,211.250368 906.13832,210.738334 906.768078,210.173901 C908.563309,208.564885 910.591066,206.854777 912.811026,205.115467 C916.546617,202.18871 919.966114,197.360662 920.611992,194.256033 C921.154464,191.649553 921.201534,190.724371 920.729791,189.166058 C920.305165,187.765832 919.834276,187.279882 918.642696,186.749064 C917.140443,186.081719 915.290318,186.309414 913.86063,187.37542 C912.673377,188.262046 912.320624,189.642143 912.342161,192.296819 C912.348881,193.125219 911.682778,193.802218 910.854378,193.808938 C910.025978,193.815658 909.34898,193.149556 909.342259,192.321156 C909.313513,188.777653 909.866563,186.613914 912.066476,184.971047 Z" id="Stroke-49" fill="#8577B7"></path>
                        <path d="M897.31368,191.893474 C897.523692,182.215277 911.549119,182.452963 912.336466,192.234386 C912.402935,193.060142 911.78741,193.783433 910.961654,193.849902 C910.135898,193.91637 909.412607,193.300846 909.346138,192.47509 C908.853662,186.356919 900.437622,186.214294 900.312972,191.958651 C900.053332,203.889598 935.231602,220.710429 970.018501,225.225556 C970.840037,225.332186 971.419583,226.084614 971.312952,226.90615 C971.206322,227.727686 970.453895,228.307232 969.632358,228.200601 C933.354745,223.491988 897.004287,206.110665 897.31368,191.893474 Z" id="Stroke-51" fill="#8577B7"></path>
                        <path d="M1168.38191,82.5833452 C1176.21621,74.022821 1185.22709,69.8343252 1196.07387,70.6104299 C1196.90018,70.6695541 1197.52211,71.387344 1197.46299,72.2136586 C1197.40386,73.0399732 1196.68607,73.661904 1195.85976,73.6027798 C1185.99555,72.8969801 1177.84676,76.6847567 1170.59503,84.6087132 C1164.7526,90.9927253 1159.95412,99.2551292 1153.83374,112.371003 C1153.37236,113.359737 1151.99013,116.378868 1150.58345,119.445387 L1150.23178,120.211856 C1149.00282,122.889921 1147.81232,125.477747 1147.2608,126.646874 C1139.72021,142.631619 1134.16643,150.253572 1126.49102,152.420294 C1117.01446,155.095471 1105.92626,147.842635 1091.54492,128.984836 C1081.26543,115.505189 1071.99211,115.378961 1061.69611,126.489175 C1053.55896,135.269822 1047.12571,146.982668 1033.44206,175.592568 C1032.05253,178.497817 1031.88118,178.855945 1031.31176,180.043789 C1021.51703,200.476189 1015.89431,211.022855 1009.54025,219.747059 C1001.13887,231.282274 993.106112,236.301297 984.725131,233.747059 C983.932689,233.50555 983.486069,232.667366 983.727579,231.874924 C983.969088,231.082482 984.807272,230.635863 985.599714,230.877372 C992.41088,232.953184 999.383681,228.596445 1007.11526,217.980876 C1013.32323,209.457248 1018.89339,199.009177 1028.60653,178.746976 C1029.17539,177.560298 1029.34665,177.20236 1030.73569,174.298152 C1044.57665,145.359319 1051.0633,133.549253 1059.4957,124.450017 C1071.02506,112.008901 1082.49099,112.164975 1093.93041,127.165647 C1107.63526,145.13639 1117.76934,151.76513 1125.67599,149.533128 C1132.17257,147.699184 1137.39115,140.537252 1144.54754,125.366933 C1145.77169,122.771949 1150.2032,113.056716 1151.11516,111.102408 C1157.35628,97.7278029 1162.27817,89.2528924 1168.38191,82.5833452 Z" id="Stroke-53" fill="#8577B7"></path>
                        <path d="M846.113778,242.581988 C857.704794,234.530693 866.491577,230.849433 873.931919,231.726171 C874.754654,231.823119 875.343021,232.568668 875.246074,233.391403 C875.149126,234.214138 874.403576,234.802505 873.580841,234.705558 C867.076346,233.939096 858.858649,237.381935 847.825249,245.045901 C844.033898,247.679431 839.978745,250.747184 834.96983,254.737101 L833.749024,255.712637 C833.129112,256.209507 832.494671,256.720219 831.844509,257.245615 C830.546021,258.294923 826.688995,261.449743 822.843934,264.592056 L822.075843,265.219725 C818.882475,267.829085 815.816419,270.331703 814.365236,271.501873 C798.867547,283.998526 787.346881,292.187036 775.60689,298.420068 C760.762418,306.301342 747.068327,309.973127 733.945255,308.878154 C718.595492,307.597388 704.343732,299.762545 691.094318,284.568175 C676.558981,267.899113 658.53227,266.270482 634.489067,275.934274 C626.749326,279.045142 619.167155,282.898647 607.801821,289.237342 C607.186537,289.5805 605.124429,290.737 602.968456,291.945275 L602.320201,292.308549 C600.375106,293.398462 598.46357,294.468626 597.571899,294.963857 C436.345708,384.508355 220.884105,400.495462 -0.41184776,337.306868 C-1.20843718,337.07941 -1.66980998,336.249257 -1.44235274,335.452667 C-1.2148955,334.656078 -0.384741661,334.194705 0.41184776,334.422162 C220.980358,397.403044 435.625902,381.476488 596.115289,292.341208 C598.089429,291.244777 605.104102,287.306882 606.340557,286.617284 C617.808695,280.221253 625.48355,276.320643 633.370254,273.150705 C658.478021,263.059028 677.844534,264.808704 693.355412,282.596513 C706.11408,297.228098 719.66188,304.675941 734.194704,305.888543 C746.672215,306.929651 759.82283,303.403587 774.2001,295.770362 C785.732846,289.647362 797.121141,281.552936 812.482114,269.166525 C815.778588,266.508393 827.480398,256.915152 829.958922,254.912257 C836.512186,249.616564 841.492835,245.791765 846.113778,242.581988 Z" id="Stroke-55" fill="url(#linearGradient-3)"></path>
                        <path d="M1292.72856,107.716397 C1294.08257,107.109791 1295.25528,107.670663 1295.65986,109.084749 C1295.81312,109.619671 1295.9687,110.167179 1296.17531,110.897517 C1296.30336,111.350351 1296.30336,111.350351 1296.43116,111.802545 L1296.45276,111.888609 C1296.5241,112.213237 1296.58409,112.478648 1296.71684,113.060446 C1296.74184,113.170025 1296.74184,113.170025 1296.76689,113.279863 C1297.37576,115.951485 1297.62224,117.33625 1297.69938,119.019555 C1297.8278,121.818502 1296.81786,124.175666 1294.66041,125.817302 C1292.08196,127.780309 1288.44876,126.960646 1286.96302,124.107126 C1286.48739,123.192771 1286.21588,122.200967 1286.16064,121.174741 C1285.98361,117.949208 1286.66013,114.86395 1288.16412,111.97139 C1289.16195,110.052891 1290.71531,108.616868 1292.72856,107.716397 Z M1293.06508,110.927245 L1292.90741,111.029137 C1292.01865,111.621736 1291.32477,112.396033 1290.82573,113.355511 C1289.56813,115.774211 1289.00876,118.325207 1289.15622,121.011916 C1289.18854,121.612332 1289.3459,122.187151 1289.62421,122.722178 C1290.25169,123.927325 1291.74719,124.264715 1292.84348,123.430097 C1294.18632,122.408307 1294.78734,121.005538 1294.70253,119.156976 C1294.63604,117.706205 1294.41244,116.449987 1293.84189,113.946481 C1293.81699,113.83727 1293.81699,113.83727 1293.79201,113.727791 C1293.6575,113.138252 1293.59631,112.86754 1293.54429,112.618605 L1293.50183,112.468401 C1293.41443,112.159161 1293.40045,112.109715 1293.2886,111.714148 C1293.2298,111.50632 1293.17518,111.313414 1293.12358,111.131469 L1293.06508,110.927245 Z" id="Path" fill="#8577B7"></path>
                        <path d="M1318.4501,-0.919895855 C1323.70062,-1.79701797 1328.92584,-1.68022986 1334.10857,-0.564479316 C1341.15991,0.952398769 1346.94182,3.84298677 1351.59101,8.45368319 C1355.24999,12.0817877 1357.99043,16.0576527 1359.80354,20.5136771 C1359.89928,20.7481641 1359.98975,20.9724685 1360.10118,21.2515378 L1360.24665,21.6168649 L1360.33008,21.8270375 C1360.36238,21.908464 1360.36238,21.908464 1360.39463,21.9897686 C1360.45258,22.1358927 1360.47576,22.1943424 1360.50584,22.2700695 L1360.58756,22.4756575 L1360.63692,22.6208518 L1361.61416,26.0642605 C1361.65491,26.2078226 1361.67385,26.3561116 1361.67084,26.5042205 L1361.66927,26.515 L1361.67374,26.5311477 C1361.67588,26.5397869 1361.67817,26.5492626 1361.68115,26.5617346 L1361.69269,26.6102992 C1362.03062,28.0939782 1362.27384,29.6087709 1362.4236,31.1499935 C1362.8238,35.2917248 1362.78446,39.5354771 1362.33352,43.93286 C1362.12913,45.930881 1361.87889,47.5871512 1361.3072,50.9790293 C1361.29259,51.0657089 1361.29259,51.0657089 1361.27798,51.1523505 C1361.08514,52.2962262 1360.99976,52.8080564 1360.89718,53.4431297 C1360.41259,56.450664 1360.3971,59.2322544 1360.89524,61.8954659 C1361.36604,64.411855 1361.98342,66.9974155 1362.75405,69.729957 C1363.08843,70.9167159 1363.38948,72.0937226 1363.65676,73.2627321 L1363.70527,73.484 L1363.77065,73.4733816 C1366.93445,72.981961 1370.44731,73.6050076 1374.377,75.4058145 L1374.77136,75.5898234 C1391.10027,83.3442215 1406.04919,82.5293199 1421.22482,74.3808004 C1432.98042,68.0686537 1442.62574,59.4442022 1460.22308,41.0510666 C1460.635,40.6205138 1461.05772,40.1783259 1461.61019,39.6001622 C1462.30318,38.8748765 1462.69397,38.4658682 1462.99568,38.1501736 C1464.12659,36.9668417 1464.95047,36.1061098 1465.76313,35.2596037 C1467.86241,33.0729084 1469.614,31.2669173 1471.29371,29.5626738 C1484.41342,16.2513186 1494.05006,8.44913144 1504.19323,3.96961212 C1516.76961,-1.584485 1529.13278,-1.11892612 1542.0761,6.25820341 C1542.79583,6.66841958 1543.04674,7.58442358 1542.63652,8.30415561 C1542.22631,9.02388764 1541.3103,9.27479981 1540.59057,8.86458364 C1528.48705,1.96609645 1517.1247,1.53822584 1505.40519,6.71390658 C1495.69925,11.0003327 1486.30293,18.6079457 1473.43036,31.6685575 C1471.76109,33.3622041 1470.01817,35.1592567 1467.92727,37.3372258 C1467.11647,38.1817912 1466.29398,39.0410702 1465.16449,40.222911 C1464.86294,40.5384433 1464.47231,40.9472784 1463.77917,41.6727319 C1463.22631,42.2513037 1462.8032,42.6938995 1462.39077,43.1249747 C1444.5752,61.7462197 1434.77214,70.5117062 1422.64401,77.0238818 C1406.6556,85.6088284 1390.70637,86.4782588 1373.48444,78.2997737 C1369.98622,76.6385117 1367.00778,76.0393907 1364.37629,76.4155019 L1364.29827,76.427 L1364.35683,76.7475237 C1364.60594,78.1909859 1364.8016,79.6246943 1364.94292,81.0520762 L1365.02119,81.9077736 C1365.50934,87.7154962 1365.30153,93.5402147 1364.40704,99.3657391 C1362.9932,108.584425 1360.10534,117.196259 1355.70646,125.185076 C1352.01528,131.890496 1347.51454,137.758796 1342.13823,142.790709 C1336.69885,147.880386 1330.88735,151.572289 1324.45131,153.850325 C1324.25826,153.918613 1324.10818,153.966313 1323.78621,154.064797 C1323.77024,154.069684 1323.77024,154.069684 1323.75437,154.074538 C1323.24618,154.230039 1323.02442,154.309417 1322.81053,154.419587 C1322.72232,154.465022 1322.62982,154.501594 1322.53439,154.528763 L1320.39535,155.13776 C1320.30316,155.164007 1320.20899,155.181265 1320.11415,155.189487 L1319.99427,155.194 L1319.97799,155.199308 L1319.9333,155.211402 C1317.52453,155.831172 1314.98254,156.214288 1312.18427,156.41241 C1307.21923,156.761999 1302.38977,156.461724 1297.68775,155.483229 C1292.85873,154.477518 1288.93095,153.140904 1285.3947,151.138993 C1279.07165,147.5604 1274.24305,142.30332 1270.73894,135.430576 C1269.40288,132.808717 1268.33937,130.041482 1267.12975,126.269107 C1266.26287,123.56294 1265.82222,120.910276 1265.83756,118.264197 L1265.84027,118.116 L1265.70193,118.166115 C1264.19656,118.690301 1262.62698,119.101519 1260.99267,119.40627 L1260.28829,119.530378 C1259.22402,119.706854 1258.37385,119.83387 1256.46712,120.108327 C1256.43868,120.112421 1256.43868,120.112421 1256.41024,120.116515 C1253.48771,120.5372 1252.15067,120.748397 1250.53753,121.069979 C1248.21976,121.531252 1246.74069,121.964114 1245.36668,122.66219 C1245.10091,122.796936 1244.86985,122.925446 1244.39618,123.197489 C1244.31717,123.242873 1244.31717,123.242873 1244.23718,123.28877 C1244.1273,123.351719 1244.1273,123.351719 1244.01259,123.416938 C1243.83859,123.515125 1243.69553,123.59055 1243.40827,123.738317 L1243.3535,123.76649 C1242.9718,123.962914 1242.78882,124.063533 1242.61204,124.178708 C1242.58199,124.198404 1242.55253,124.217798 1242.52324,124.237185 L1242.34602,124.355769 C1242.16387,124.478967 1241.9565,124.623068 1241.63022,124.851589 C1241.61822,124.859998 1241.61822,124.859998 1241.60619,124.868418 C1240.90926,125.356538 1240.57659,125.582368 1240.14805,125.847365 C1237.80624,127.292231 1235.39021,127.285978 1233.20929,125.672778 C1232.26854,124.977849 1231.4709,124.165808 1230.82164,123.228979 C1228.29426,119.575084 1227.07822,117.875456 1225.52606,115.903167 C1224.05376,114.033041 1223.06296,111.896876 1222.56407,109.535102 C1221.89539,106.373998 1223.04897,103.485422 1225.71288,101.688274 C1228.14442,100.047637 1230.90369,100.288874 1233.01689,102.325146 C1233.57295,102.861927 1233.98558,103.317861 1234.83884,104.305726 C1234.8603,104.330569 1234.8603,104.330569 1234.88105,104.354591 C1235.58626,105.16991 1236.45111,105.699037 1237.5056,105.961558 C1238.60232,106.233802 1239.77763,106.218853 1241.12985,105.943141 C1242.55829,105.651535 1243.8918,104.96877 1245.58318,103.750579 C1246.53059,103.068233 1247.25364,102.445806 1248.85905,100.980778 C1249.36994,100.514563 1249.59832,100.307288 1249.88697,100.049574 C1255.31277,95.203717 1260.88902,91.1576017 1266.76259,87.8844188 C1270.15777,85.9907153 1273.45252,84.8380979 1276.85919,84.4773952 C1281.26498,84.0139641 1284.98386,85.5229714 1287.76815,88.9453856 C1288.90228,90.3411977 1289.68585,91.6706219 1290.99366,94.210476 C1293.10774,98.3205856 1294.8388,102.502245 1296.17717,106.767486 L1296.03727,106.334 L1296.32692,106.401965 C1297.24343,106.636471 1298.13502,107.000702 1299.02108,107.489089 L1299.40054,107.705983 C1299.67581,107.869351 1299.89452,108.000596 1300.38411,108.295473 C1301.89527,109.205643 1302.56685,109.595425 1303.41364,110.033189 C1307.63753,112.220016 1312.27335,113.248951 1317.34081,113.193613 C1322.87059,113.134115 1327.99533,111.6919 1332.69876,108.860644 C1338.76888,105.206366 1343.1429,99.8646455 1346.72182,92.2427836 C1350.56764,84.0507204 1353.35724,79.557124 1357.07887,76.5403042 C1358.23519,75.6029748 1359.44729,74.8658057 1360.72069,74.333947 L1360.81327,74.295 L1360.78847,74.1796349 C1360.58616,73.2787839 1360.36264,72.3722726 1360.11811,71.4591987 L1359.86658,70.5439039 C1359.07271,67.7289803 1358.43464,65.0567676 1357.94639,62.4471 C1357.38101,59.4243804 1357.39842,56.29849 1357.93548,52.9653273 C1358.03961,52.3206424 1358.12575,51.8042705 1358.31973,50.653634 C1358.33433,50.5670085 1358.33433,50.5670085 1358.34893,50.4804216 C1358.91004,47.1512947 1359.15341,45.5404874 1359.34913,43.6271926 C1359.78045,39.4211764 1359.81795,35.3757795 1359.43759,31.4393306 C1359.30009,30.0242664 1359.07703,28.6350689 1358.76679,27.2729185 C1358.76528,27.266435 1358.76528,27.266435 1358.7558,27.2298154 C1358.69378,26.9922682 1358.65662,26.8102152 1358.65323,26.6191729 L1357.77227,23.516 L1357.75191,23.4635074 C1357.71215,23.3635006 1357.6935,23.3165195 1357.65397,23.2168564 L1357.60592,23.0957176 C1357.57368,23.0144263 1357.57368,23.0144263 1357.54148,22.9332515 C1357.31126,22.3528863 1357.17454,22.0111697 1357.02545,21.6460116 C1355.37049,17.5786876 1352.86067,13.9374097 1349.47861,10.5838869 C1345.26321,6.40338101 1339.99788,3.77105266 1333.47742,2.36837704 C1328.66558,1.33247451 1323.82233,1.22422348 1318.94399,2.03916956 C1315.24979,2.6552282 1311.8234,3.49697256 1308.5988,4.60643029 C1303.0285,6.5222983 1298.31967,9.16141262 1294.38713,12.6960285 C1289.26777,17.2992437 1286.34142,23.1051301 1285.53149,30.1330567 C1285.18764,33.1132493 1285.24212,35.8957318 1285.73271,38.549229 C1286.56498,43.0516281 1288.49471,46.9938615 1291.53609,50.3946266 C1292.32481,51.2771367 1293.05404,52.2478054 1293.86869,53.4615207 C1294.57092,54.503534 1294.68896,55.6836 1294.19139,56.8487614 C1294.05407,57.1696372 1293.94279,57.4261171 1293.69466,57.9954041 L1293.68664,58.0138002 C1292.99278,59.6057263 1292.69102,60.3250716 1292.3584,61.2190223 C1292.12893,61.8335179 1292.02939,62.1816877 1291.99716,62.5192895 C1291.91228,63.4122283 1292.20103,63.9286924 1293.00023,64.3146987 C1293.92049,64.7603642 1294.84224,65.0096382 1295.77262,65.0587533 C1296.66908,65.1020651 1297.36018,65.5518069 1297.75268,66.3725998 C1299.28163,69.5739095 1301.25303,72.1977198 1303.74924,74.2658834 C1307.43941,77.3242645 1311.75342,78.7352923 1316.72817,78.5724024 C1320.24597,78.4565298 1323.40542,77.4114984 1326.22504,75.4139538 C1326.85986,74.9634958 1327.5052,74.5910948 1328.17736,74.2972467 C1329.58014,73.6857117 1330.79096,74.230298 1331.33686,75.6428273 C1331.78813,76.8048959 1331.87915,78.0238303 1331.67552,79.3452755 C1331.41791,81.0312219 1330.77496,82.5495836 1329.74606,83.8459703 C1329.69267,83.9132532 1329.49497,84.1660899 1329.33334,84.3724955 L1329.19041,84.5548321 L1329.14049,84.6182826 C1328.84212,84.996408 1328.56891,85.3333973 1328.27873,85.6776786 C1327.50136,86.5999917 1326.70141,87.4541104 1325.82882,88.2644801 C1320.43058,93.2778067 1313.98927,95.0969159 1306.47497,91.8288746 C1299.27939,88.6996021 1292.29235,83.5750008 1284.33442,76.4912078 C1283.82908,76.0413795 1283.0123,75.352379 1281.9556,74.524225 C1280.24508,73.1836653 1278.47934,71.9378363 1276.75434,70.9042092 C1276.13299,70.5318926 1275.53569,70.1985854 1274.96434,69.9048223 L1274.92827,69.886 L1274.89951,69.9441127 C1273.59378,72.4852063 1271.48902,74.2823384 1269.05036,74.5576015 L1268.81334,74.5794629 C1264.01559,74.922054 1262.55657,70.725646 1265.49916,67.1882 C1267.25986,65.0723499 1269.84932,64.7807035 1273.05418,65.8245435 L1273.13827,65.853 L1273.18627,65.569193 C1273.69709,62.2392763 1272.55363,59.1214521 1269.80214,57.243658 L1269.54757,57.0763941 C1267.15617,55.5639419 1259.53397,53.9235756 1248.67161,52.3920077 C1243.77527,51.7016344 1238.52517,51.073019 1233.2745,50.5187697 C1231.43633,50.3247367 1229.7296,50.1538836 1228.19829,50.0077469 C1227.66268,49.9566324 1227.18738,49.9122691 1226.77788,49.8748485 L1226.73527,49.87 L1226.69254,50.1053463 C1226.58892,50.6577908 1226.45273,51.2847674 1226.27818,51.9744822 L1226.18767,52.3245132 C1225.41019,55.2697445 1224.2025,58.2153825 1222.46753,60.9736469 C1217.29886,69.1908257 1208.65615,74.0003309 1195.94175,73.6312725 C1195.11367,73.607236 1194.46186,72.9164605 1194.48526,72.0883821 C1194.50994,71.2603038 1195.20071,70.6084991 1196.02879,70.6325355 C1207.66058,70.9701691 1215.31468,66.7108054 1219.92812,59.376338 C1221.48877,56.8952059 1222.58263,54.2272048 1223.28704,51.558797 C1223.45114,50.9371619 1223.58561,50.3461438 1223.69349,49.7927814 L1223.74027,49.542 L1223.51924,49.5148598 C1216.87513,48.6456905 1212.93638,47.187914 1210.49847,43.7238534 L1210.34159,43.4950773 C1208.27016,40.3923691 1209.18159,36.4176931 1212.39908,34.5040994 C1214.93717,32.9956885 1218.94576,32.9396097 1221.53912,34.1457723 L1221.59527,34.173 L1221.70311,34.001521 C1222.58055,32.661606 1224.09923,31.4547275 1225.87223,30.6625039 L1226.1049,30.561545 C1229.83384,28.9912507 1233.47431,29.7920185 1234.96039,33.4714625 C1236.08905,36.26581 1235.75712,38.9275105 1234.2078,41.4867922 C1233.07679,43.3550846 1231.5458,44.9254113 1228.8364,47.2603333 L1229.04927,47.075 L1229.06929,47.0776202 C1230.25743,47.1925424 1231.54132,47.3213031 1232.90249,47.4632662 L1233.58942,47.535345 C1238.87222,48.0929854 1244.15557,48.7255819 1249.09046,49.4213909 C1260.49996,51.0301043 1268.23057,52.6937996 1271.15111,54.5409092 C1275.27757,57.1505579 1276.94239,61.7308948 1276.08634,66.4121254 C1276.05061,66.607497 1276.01075,66.8011298 1275.96687,66.992815 L1275.95527,67.039 L1276.15824,67.1415145 C1276.75174,67.4439048 1277.36052,67.7792438 1277.9836,68.1452691 L1278.29633,68.3308285 C1280.14065,69.4359569 1282.00456,70.7510534 1283.80614,72.1629785 C1284.91632,73.0330399 1285.77988,73.7614984 1286.3291,74.2503896 C1294.06574,81.137205 1300.84381,86.1085338 1307.67142,89.0777813 C1313.9609,91.8131366 1319.18904,90.3366411 1323.78732,86.0662367 C1324.56331,85.345582 1325.28146,84.578802 1325.98484,83.7442735 C1326.25203,83.4272656 1326.50561,83.1144856 1326.78541,82.7599008 C1326.89868,82.6163576 1327.30688,82.0935451 1327.39613,81.9810744 C1328.09336,81.1025905 1328.52961,80.0723654 1328.71023,78.890264 C1328.79581,78.3349121 1328.80131,77.8414714 1328.72218,77.3854887 L1328.71927,77.377 L1328.52778,77.4886137 C1328.43345,77.5454612 1328.33904,77.6049183 1328.24448,77.6670136 L1327.9602,77.8612428 C1324.65566,80.202329 1320.9267,81.4357345 1316.82664,81.5707859 C1311.13309,81.7572121 1306.1008,80.1112518 1301.83507,76.5758521 C1298.9889,74.2177391 1296.75483,71.2443367 1295.04589,67.666163 L1295.22127,68.025 C1294.14448,67.923026 1293.09676,67.6413067 1292.07571,67.1918224 L1291.69406,67.0154251 C1289.76313,66.0828086 1288.8074,64.3733388 1289.01068,62.2347883 C1289.07435,61.567886 1289.23299,61.0129826 1289.54735,60.1711908 C1289.90477,59.2105842 1290.22086,58.4570584 1290.93652,56.8151231 C1290.94053,56.8059227 1290.94053,56.8059227 1290.94454,56.7967238 C1291.19001,56.2335268 1291.29951,55.9811482 1291.43289,55.6695024 C1291.52806,55.4466319 1291.51747,55.3407537 1291.37932,55.1357584 C1290.63393,54.0252183 1289.98321,53.1590477 1289.29958,52.3941266 C1285.89096,48.5827414 1283.7148,44.1370572 1282.78269,39.0945902 C1282.23502,36.1322998 1282.17472,33.0527456 1282.55124,29.789401 C1283.44376,22.0448115 1286.70989,15.5647899 1292.38148,10.4650317 C1296.63071,6.64576137 1301.69024,3.81009807 1307.62292,1.76959063 C1311.01216,0.603485046 1314.59897,-0.277668144 1318.4501,-0.919895855 Z M1361.40827,77.313 L1361.17052,77.4296051 C1360.41007,77.8140535 1359.67781,78.2954111 1358.96801,78.8707918 C1355.71281,81.5095069 1353.09552,85.725554 1349.43741,93.5177739 C1345.62313,101.640848 1340.87389,107.440803 1334.246,111.430871 C1329.08303,114.538747 1323.43504,116.128215 1317.37332,116.193436 C1311.8295,116.253977 1306.70885,115.117431 1302.03514,112.697725 C1301.11215,112.220567 1300.40313,111.809052 1298.83772,110.866211 L1298.66676,110.763264 C1298.29771,110.54111 1298.10398,110.425046 1297.87097,110.286758 C1296.90723,109.71634 1295.97653,109.352445 1295.0214,109.188598 C1294.14661,109.034758 1293.5731,108.481227 1293.316,107.669527 C1292.02855,103.566586 1290.36299,99.5431361 1288.32618,95.5832665 C1287.10931,93.2200213 1286.40496,92.0250164 1285.44042,90.8379094 C1283.3007,88.207797 1280.57754,87.1028241 1277.17404,87.4608271 C1274.2044,87.775257 1271.28751,88.7956887 1268.22345,90.5047052 C1262.55077,93.665935 1257.1526,97.5828356 1251.88516,102.287263 C1251.60713,102.535489 1251.38413,102.737879 1250.8837,103.19455 C1249.19064,104.739563 1248.40885,105.412558 1247.33646,106.184917 C1245.33125,107.629144 1243.64808,108.490936 1241.72955,108.882589 C1239.96768,109.241828 1238.35073,109.262396 1236.78185,108.872946 C1235.12794,108.461197 1233.72315,107.601727 1232.61139,106.316386 C1232.58992,106.291534 1232.58992,106.291534 1232.56849,106.266727 C1231.77384,105.346715 1231.40298,104.936932 1230.93429,104.484493 C1229.84079,103.430801 1228.64848,103.32656 1227.39075,104.175189 C1225.74401,105.286128 1225.0822,106.9433 1225.49921,108.914657 C1225.90364,110.829251 1226.69806,112.542021 1227.88339,114.047641 C1229.48607,116.084109 1230.72703,117.818566 1233.28815,121.521248 C1233.7454,122.181023 1234.31106,122.7569 1234.99256,123.26032 C1236.14873,124.115523 1237.23707,124.11834 1238.57151,123.295005 C1238.93435,123.070636 1239.23458,122.866834 1239.88517,122.411166 C1239.89717,122.402763 1239.89717,122.402763 1239.90918,122.394349 C1240.42375,122.033946 1240.66292,121.869214 1240.97104,121.667311 C1241.26281,121.477206 1241.51118,121.34063 1241.98079,121.098968 C1242.00855,121.084689 1242.00855,121.084689 1242.03598,121.070576 C1242.2896,120.940118 1242.40857,120.877391 1242.53545,120.805802 C1242.58736,120.776283 1242.61331,120.761524 1242.63949,120.74658 L1242.74491,120.686251 C1242.82297,120.641455 1242.82297,120.641455 1242.90208,120.596015 C1243.41977,120.298691 1243.68336,120.152092 1244.00894,119.987019 C1245.68129,119.137371 1247.38731,118.638089 1249.95149,118.127776 C1251.63415,117.792335 1253.0075,117.575404 1255.98281,117.14712 C1256.01126,117.143025 1256.01126,117.143025 1256.0397,117.13893 C1257.92529,116.867517 1258.76137,116.742607 1259.79718,116.570848 C1262.16402,116.177813 1264.36973,115.551636 1266.42294,114.67084 C1266.57886,114.604433 1266.70278,114.56692 1266.8857,114.520514 C1266.97998,114.496806 1267.00259,114.490974 1267.02992,114.483047 C1267.9711,114.209978 1268.91707,114.898037 1268.94717,115.877573 C1268.94752,115.887157 1268.94752,115.887157 1268.94904,115.914177 C1268.96033,116.108347 1268.96186,116.185837 1268.9442,116.331958 C1268.63433,119.279175 1268.99416,122.25533 1269.98661,125.353499 C1271.15116,128.9853 1272.16233,131.616354 1273.41175,134.068189 C1276.6575,140.434204 1281.08144,145.250719 1286.87249,148.52822 C1290.10551,150.358468 1293.75067,151.598906 1298.29919,152.546199 C1302.72538,153.467295 1307.27858,153.750393 1311.97298,153.41986 C1314.59981,153.233876 1316.96519,152.877378 1319.18039,152.307423 C1319.18551,152.306053 1319.18551,152.306053 1319.21493,152.297529 C1319.44604,152.23004 1319.62423,152.188656 1319.81334,152.181063 L1321.58027,151.68 L1321.71131,151.619514 C1321.98285,151.496658 1322.25911,151.398561 1322.66327,151.271829 L1322.87658,151.20583 C1322.89269,151.2009 1322.89269,151.2009 1322.90869,151.196007 C1323.18957,151.110092 1323.31191,151.071207 1323.45058,151.022156 C1329.4759,148.889493 1334.93783,145.419666 1340.08836,140.600268 C1345.22882,135.789093 1349.53644,130.1726 1353.07842,123.738204 C1357.30548,116.061446 1360.08061,107.785775 1361.44175,98.9106977 C1362.3006,93.3172717 1362.49995,87.7296777 1362.03171,82.1588198 C1361.90935,80.7004739 1361.72655,79.2339223 1361.48417,77.7549884 L1361.40827,77.313 Z M1272.09551,68.6911571 C1270.06006,68.0542843 1268.57804,68.1783714 1267.80534,69.1069303 C1266.40354,70.7921097 1266.72645,71.7208421 1268.59928,71.5871093 C1269.92387,71.4921866 1271.23928,70.4006443 1272.14175,68.7390582 L1272.15627,68.711 L1272.09551,68.6911571 Z M1221.03241,37.3761542 C1220.8332,37.0297339 1219.86642,36.5574164 1218.47633,36.3805752 C1216.79486,36.1666644 1215.02126,36.4355317 1213.93218,37.082782 C1212.18883,38.119635 1211.72127,40.1586494 1212.83634,41.8288771 C1214.6909,44.6045625 1218.33497,45.8683099 1224.72837,46.6417697 L1224.92427,46.664 L1225.0876,46.5238886 C1225.20249,46.4242941 1225.32392,46.31954 1225.45448,46.2073156 L1225.65749,46.0330875 C1225.59718,46.0847766 1226.60123,45.2262607 1226.87795,44.9877859 C1231.97212,40.597702 1233.55029,37.9907444 1232.17872,34.594976 C1231.42531,32.7295891 1229.62618,32.333848 1227.26921,33.3263936 C1225.17185,34.209617 1223.71101,35.8904815 1223.91161,36.5055326 C1224.53189,38.4067886 1221.67965,39.3371999 1221.05948,37.4357808 L1221.03241,37.3761542 Z" id="Path" fill="url(#linearGradient-4)"></path>
                    </g>
                </g>
            </g>
        </g>
    </g>
</svg>