<?xml version="1.0" encoding="UTF-8"?>
<svg width="378px" height="200px" viewBox="0 0 378 200" version="1.1" xmlns="http://www.w3.org/2000/svg" xmlns:xlink="http://www.w3.org/1999/xlink">
    <title>Shape</title>
    <g id="Desktop" stroke="none" stroke-width="1" fill="none" fill-rule="evenodd">
        <g id="Group" fill="#4E515C">
            <path d="M378,143.215 L378,149.545 L0,149.545 L0,143.215 L378,143.215 Z M2.35,169.398 L2.35,199.57 L5.98,199.57 L5.98,172.848 L19,172.848 L19,169.398 L2.35,169.398 Z M45.684,169.398 L27.539,193.538 L27.539,169.398 L23.909,169.398 L23.909,199.57 L27.112,199.57 L45.254,175.43 L45.254,199.57 L48.886,199.57 L48.886,169.398 L45.684,169.398 Z M57.85,199.57 L61.479,199.57 L61.479,172.848 L77.699,172.848 L77.699,199.57 L81.332,199.57 L81.332,169.398 L57.85,169.398 L57.85,199.57 Z M95.077,193.106 C97.268,195.403 99.971,196.552 103.189,196.552 C106.546,196.552 109.278,195.403 111.386,193.106 C113.52,190.804 114.586,187.931 114.586,184.484 C114.586,181.037 113.492,178.164 111.301,175.862 C109.111,173.564 106.404,172.415 103.189,172.415 C99.914,172.415 97.195,173.552 95.033,175.821 C92.871,178.091 91.79,180.981 91.79,184.484 C91.79,187.874 92.887,190.748 95.077,193.106 Z M92.258,173.45 C95.134,170.463 98.776,168.969 103.189,168.969 C107.571,168.969 111.199,170.419 114.073,173.321 C116.979,176.223 118.43,179.942 118.43,184.484 C118.43,188.909 116.979,192.614 114.073,195.603 C111.171,198.533 107.543,199.999 103.189,199.999 C98.836,199.999 95.191,198.549 92.258,195.647 C89.384,192.745 87.948,189.026 87.948,184.484 C87.949,180.116 89.384,176.438 92.258,173.45 Z M146.900945,169.398 L133.582945,183.578 L147.583945,199.568 L142.930945,199.568 L129.396945,183.838 L142.503945,169.398 L146.900945,169.398 Z M125.043945,199.568 L128.673945,199.568 L128.673945,169.398 L125.043945,169.398 L125.043945,199.568 Z M155.910945,193.106 C158.101945,195.403 160.804945,196.552 164.022945,196.552 C167.379945,196.552 170.111945,195.403 172.219945,193.106 C174.353945,190.804 175.419945,187.931 175.419945,184.484 C175.419945,181.037 174.325945,178.164 172.134945,175.862 C169.944945,173.564 167.237945,172.415 164.022945,172.415 C160.747945,172.415 158.028945,173.552 155.866945,175.821 C153.704945,178.091 152.623945,180.981 152.623945,184.484 C152.623945,187.874 153.720945,190.748 155.910945,193.106 Z M153.091945,173.45 C155.967945,170.463 159.609945,168.969 164.022945,168.969 C168.404945,168.969 172.032945,170.419 174.906945,173.321 C177.811945,176.223 179.263945,179.942 179.263945,184.484 C179.263945,188.909 177.811945,192.614 174.906945,195.603 C172.004945,198.533 168.376945,199.999 164.022945,199.999 C159.669945,199.999 156.024945,198.549 153.091945,195.647 C150.217945,192.745 148.781945,189.026 148.781945,184.484 C148.782945,180.116 150.217945,176.438 153.091945,173.45 Z M189.507945,172.846 L189.507945,184.484 C191.302945,184.629 192.753945,184.699 193.863945,184.699 C196.053945,184.699 197.777945,184.161 199.029945,183.081 C200.280945,182.005 200.906945,180.518 200.906945,178.621 C200.906945,176.754 200.331945,175.311 199.177945,174.289 C198.027945,173.269 196.310945,172.76 194.034945,172.76 C193.522945,172.76 192.011945,172.789 189.507945,172.846 Z M189.507945,199.568 L185.877945,199.568 L185.877945,169.398 C187.073945,169.398 188.340945,169.386 189.681945,169.354 C191.015945,169.329 192.355945,169.314 193.692945,169.314 C197.619945,169.314 200.435945,170.203 202.146945,171.984 C203.881945,173.738 204.750945,175.964 204.750945,178.666 C204.750945,181.28 203.808945,183.521 201.930945,185.389 C200.110945,187.228 197.460945,188.146 193.990945,188.146 C192.169945,188.146 190.677945,188.089 189.507945,187.975 L189.507945,199.568 Z M206.541945,172.846 L206.541945,169.4 L231.091945,169.4 L231.091945,172.846 L220.630945,172.846 L220.630945,199.569 L217.000945,199.569 L217.000945,172.846 L206.541945,172.846 Z M257.344945,175.432 L239.198945,199.569 L235.999945,199.569 L235.999945,169.399 L239.629945,169.399 L239.629945,193.536 L257.770945,169.4 L260.972945,169.4 L260.972945,199.57 L257.342945,199.57 L257.342945,175.433 L257.344945,175.432 Z M271.154945,198.664 C269.374945,197.772 268.047945,196.639 267.162945,195.259 L269.169945,192.803 C270.108945,193.923 271.281945,194.828 272.691945,195.515 C274.101945,196.208 275.444945,196.553 276.728945,196.553 C278.776945,196.553 280.420945,196.034 281.656945,194.999 C282.896945,193.964 283.515945,192.559 283.515945,190.777 C283.515945,189.283 283.000945,188.09 281.978945,187.2 C280.954945,186.308 279.513945,185.862 277.663945,185.862 L274.208945,185.862 L274.208945,182.415 L277.408945,182.415 C278.716945,182.415 279.870945,181.94 280.866945,180.994 C281.865945,179.987 282.361945,178.765 282.361945,177.329 C282.361945,175.778 281.865945,174.569 280.866945,173.708 C279.870945,172.847 278.561945,172.416 276.939945,172.416 C274.293945,172.416 272.030945,173.536 270.152945,175.778 L268.015945,173.363 C269.039945,171.983 270.380945,170.907 272.030945,170.131 C273.687249,169.353442 275.496239,168.95543 277.325945,168.965795 C279.971945,168.965795 282.076945,169.679 283.641945,171.1 C285.206945,172.524 285.991945,174.483 285.991945,176.984 C285.991945,178.392 285.614945,179.721 284.858945,180.972 C284.106945,182.222 283.044945,183.19 281.678945,183.88 L281.678945,184.01 C283.414945,184.355 284.760945,185.165 285.712945,186.444 C286.667945,187.723 287.144945,189.283 287.144945,191.122 C287.144945,193.85 286.148945,196.006 284.154945,197.585 C282.162945,199.196 279.756945,200 276.939945,200 C274.862945,200 272.931945,199.554 271.154945,198.664 Z M299.395945,193.106 C301.586945,195.403 304.289945,196.552 307.507945,196.552 C310.864945,196.552 313.596945,195.403 315.704945,193.106 C317.838945,190.804 318.904945,187.931 318.904945,184.484 C318.904945,181.037 317.810945,178.164 315.619945,175.862 C313.429945,173.564 310.722945,172.415 307.507945,172.415 C304.232945,172.415 301.513945,173.552 299.351945,175.821 C297.189945,178.091 296.108945,180.981 296.108945,184.484 C296.108945,187.874 297.205945,190.748 299.395945,193.106 Z M296.575945,173.45 C299.452945,170.463 303.094945,168.969 307.507945,168.969 C311.889945,168.969 315.517945,170.419 318.391945,173.321 C321.296945,176.223 322.747945,179.942 322.747945,184.484 C322.747945,188.909 321.297945,192.614 318.391945,195.603 C315.489945,198.533 311.861945,199.999 307.507945,199.999 C303.154945,199.999 299.509945,198.549 296.575945,195.647 C293.702945,192.745 292.267945,189.026 292.267945,184.484 C292.267945,180.116 293.702945,176.438 296.575945,173.45 Z M346.615945,199.569 L346.615945,172.846 L335.769945,172.846 L335.257945,178.534 C334.915945,182.272 334.473945,185.468 333.932945,188.124 C333.392945,190.783 332.810945,192.874 332.184945,194.397 C331.554945,195.92 330.824945,197.097 329.984945,197.929 C329.146945,198.765 328.327945,199.281 327.530945,199.483 C326.730945,199.683 325.820945,199.711 324.796945,199.569 L324.840945,195.904 C325.438945,195.992 325.950945,195.942 326.377945,195.755 C326.803945,195.568 327.287945,195.128 327.827945,194.438 C328.425945,193.723 328.966945,192.644 329.449945,191.207 C330.587945,187.987 331.412945,182.731 331.928945,175.432 L332.355945,169.399 L350.241945,169.399 L350.241945,199.569 L346.615945,199.569 Z M237.662,9.705 C241.615242,14.2017445 243.995406,19.8642895 244.442,25.835 L235.945,21.03 C235.084189,18.6575473 233.787979,16.4666742 232.123,14.57 C224.742,6.148 211.939,5.312 203.523,12.702 C195.111,20.09 194.277,32.912 201.658,41.334 C209.04,49.756 221.843,50.592 230.255,43.201 C231.661879,41.9697642 232.890653,40.548815 233.906,38.979 L241.907,39.719 C240.291179,43.1661871 237.978162,46.2409029 235.114,48.749 C223.644,58.824 206.185,57.684 196.12,46.199 C186.054,34.712 187.192,17.232 198.665,7.154 C210.137,-2.924 227.596,-1.781 237.662,9.705 Z M235.671,24.91 C238.541,25.942 240.641,27.86 241.336,29.791 C244.039,30.468 246.258,31.649 247.88,33.368 C248.71,34.251 249.198,35.048 249.669,35.82 C250.203,36.7 250.712,37.533 251.834,38.666 C253.598,40.394 255.653,41.764 257.477,42.42 C263.044,44.43 268.817,41.052 270.451,39.97 L272.484,43.05 C270.486,44.37 263.411,48.48 256.228,45.895 C253.073,44.755 250.507,42.527 249.214,41.258 C247.791,39.828 247.118,38.72 246.52,37.745 C246.1,37.049 245.765,36.501 245.199,35.903 C244.092,34.732 242.524,33.903 240.577,33.396 C238.984,34.912 235.759,35.279 232.468,34.096 C228.4,32.636 225.82,29.396 226.705,26.86 C227.591,24.325 231.602,23.451 235.671,24.91 Z M212.905,28.998 C211.803952,29.9659184 210.363099,30.4560942 208.900219,30.3604198 C207.437338,30.2647454 206.072602,29.5910801 205.107,28.488 C203.093241,26.1907109 203.321033,22.6964052 205.616,20.68 C206.7171,19.7117699 208.158175,19.2214022 209.621301,19.3170803 C211.084426,19.4127585 212.449369,20.0866202 213.415,21.19 C215.428509,23.4875562 215.200267,26.9818828 212.905,28.998 Z M10.966,25.14 C13.157,25.368 15.426,25.52 17.545,25.52 C23.068,25.52 27.376,22.868 27.376,16.962 C27.376,11.432 23.975,8.707 17.621,8.707 C15.731,8.707 13.461,8.783 10.966,8.859 L10.966,25.14 Z M1.663,0.153 C4.613,0.152 13.009,0 16.713,0 C32.295,0 37.211,8.33 37.211,17.038 C37.211,26.048 30.481,34.228 17.848,34.228 C16.261,34.228 13.236,34.228 10.966,33.999 L10.966,53.161 L1.663,53.161 L1.663,0.153 Z M47.957,0.15 L78.587,0.15 L78.587,8.857 L57.257,8.857 L57.257,22.037 L76.32,22.037 L76.32,30.744 L57.257,30.744 L57.257,44.452 L79.345,44.452 L79.345,53.159 L47.957,53.159 L47.957,0.15 Z M100.752,8.86 L100.752,53.16 L91.452,53.16 L91.452,0.153 L133.655,0.153 L133.655,53.16 L124.352,53.16 L124.352,8.859 L100.752,8.86 Z M157.637,25.14 C159.831,25.368 162.101,25.52 164.219,25.52 C169.739,25.52 174.05,22.868 174.05,16.962 C174.05,11.432 170.646,8.707 164.292,8.707 C162.404,8.707 160.135,8.783 157.637,8.859 L157.637,25.14 Z M148.337,0.153 C151.283,0.153 159.679,0.001 163.384,0.001 C178.966,0.001 183.885,8.331 183.885,17.039 C183.885,26.049 177.152,34.229 164.522,34.229 C162.932,34.229 159.907,34.229 157.637,34 L157.637,53.162 L148.337,53.162 L148.337,0.153 Z M10.967,95.874 C13.157,96.103 15.427,96.254 17.545,96.254 C23.068,96.254 27.376,93.602 27.376,87.696 C27.376,82.166 23.975,79.442 17.621,79.442 C15.731,79.442 13.461,79.518 10.966,79.594 L10.967,95.874 Z M1.663,70.885 C4.613,70.885 13.009,70.733 16.713,70.733 C32.295,70.733 37.211,79.064 37.211,87.771 C37.211,96.782 30.481,104.961 17.848,104.961 C16.261,104.961 13.236,104.961 10.966,104.733 L10.966,123.894 L1.663,123.894 L1.663,70.885 Z M78.587,70.885 L78.587,79.592 L57.257,79.592 L57.257,92.772 L76.32,92.772 L76.32,101.479 L57.257,101.479 L57.257,115.187 L79.345,115.187 L79.345,123.894 L47.957,123.894 L47.957,70.884 L78.587,70.885 Z M107.257,79.594 L106.198,89.589 C103.1,120.41 96.215,125.408 85.777,123.895 L86.004,114.656 C90.089,115.185 95.46,113.444 97.805,81.486 L98.561,70.886 L131.915,70.886 L131.915,123.896 L122.687,123.896 L122.687,79.592 L107.257,79.594 Z M173.745,101.63 L166.032,82.773 L158.242,101.63 L173.745,101.63 Z M162.175,70.733 L170.344,70.733 L192.732,123.893 L182.821,123.893 L177.301,110.337 L154.686,110.337 L149.166,123.893 L139.786,123.893 L162.175,70.733 Z M209.982,70.885 L209.982,96.025 L230.859,70.885 L242.053,70.885 L220.269,95.573 L243.415,123.893 L231.615,123.893 L209.982,96.557 L209.982,123.894 L200.678,123.894 L200.678,70.884 L209.982,70.885 Z M271.935,124.726 C255.749,124.726 244.63,113.899 244.63,97.389 C244.63,82.169 254.234,70.053 271.706,70.053 C278.589,70.053 284.336,72.249 287.816,75.427 L283.659,82.321 C280.482,80.2 277.002,78.76 271.706,78.76 C261.875,78.76 254.462,85.878 254.462,97.39 C254.462,108.445 261.948,116.02 272.766,116.02 C277.226,116.02 281.693,114.579 285.322,111.778 L288.875,118.744 C285.546,122.305 278.816,124.726 271.935,124.726 Z" id="Shape"></path>
        </g>
    </g>
</svg>