<?xml version="1.0" encoding="UTF-8"?>
<svg width="20px" height="15px" viewBox="0 0 20 15" version="1.1" xmlns="http://www.w3.org/2000/svg" xmlns:xlink="http://www.w3.org/1999/xlink">
    <title>Shape</title>
    <g id="Desktop" stroke="none" stroke-width="1" fill="none" fill-rule="evenodd">
        <g id="060-Contacts" transform="translate(-1181, -342)" fill="#029A44">
            <g id="Group-12" transform="translate(776, 152)">
                <g id="Group-11" transform="translate(32, 188)">
                    <g id="Group-5" transform="translate(371, 2)">
                        <path d="M11.9995839,6.447675 C10.3741833,6.447675 2,2.16825 2,2.16825 L2,1.5 C2,0.672 2.74570347,0 3.66618118,0 L20.3329866,0 C21.2542965,0 22,0.672 22,1.5 L21.9866839,2.25 C21.9866839,2.25 13.7032167,6.447675 11.9995839,6.447675 L11.9995839,6.447675 Z M11.9995839,8.510175 C13.781449,8.510175 21.9866839,4.5 21.9866839,4.5 L22,13.5 C22,14.328 21.2542965,15 20.3329866,15 L3.66618118,15 C2.74653572,15 2,14.328 2,13.5 L2.01331613,4.5 C2.01248387,4.5 10.3741833,8.510175 11.9995839,8.510175 L11.9995839,8.510175 Z" id="Shape"></path>
                    </g>
                </g>
            </g>
        </g>
    </g>
</svg>