<?xml version="1.0" encoding="UTF-8"?>
<svg width="20px" height="20px" viewBox="0 0 20 20" version="1.1" xmlns="http://www.w3.org/2000/svg" xmlns:xlink="http://www.w3.org/1999/xlink">
    <title>Shape Copy</title>
    <g id="Desktop" stroke="none" stroke-width="1" fill="none" fill-rule="evenodd">
        <g id="060-Contacts" transform="translate(-808, -340)" fill="#029A44">
            <g id="Group-12" transform="translate(776, 152)">
                <g id="Group-2" transform="translate(32, 188)">
                    <path d="M10,0 C15.5228475,0 20,4.4771525 20,10 C20,15.5228475 15.5228475,20 10,20 C4.4771525,20 0,15.5228475 0,10 C0,4.59221182 4.29254769,0.187001882 9.65621464,0.00579859757 L10,0 Z M6.99489802,5 C6.76632136,5.05306233 6.53672636,5.10102233 6.30917136,5.16122733 C6.02549136,5.23775733 5.80610102,5.40919 5.63058802,5.64286733 C5.40711569,5.943894 5.25915402,6.280634 5.14078469,6.63268067 C5.00914996,7.022484 4.96527169,7.41841067 5.02853802,7.82964067 C5.08364102,8.192914 5.20609202,8.532714 5.33058402,8.87557733 C5.53569069,9.443954 5.76222502,10.001104 6.07957736,10.5184607 C6.56632069,11.315414 7.16837402,12.0154273 7.84287402,12.657274 C8.37553736,13.1623873 8.95105736,13.614434 9.58372069,13.9889307 C10.2806707,14.4001607 11.0378274,14.6715953 11.8062074,14.908334 C12.204174,15.032826 12.6184674,15.0665 13.0337807,14.9736413 C13.4909307,14.8716013 13.9205307,14.7052703 14.3052307,14.435878 C14.4440094,14.3368973 14.581767,14.2144463 14.6787074,14.074648 C14.910344,13.737908 14.9766717,13.3460647 14.999121,12.947078 C15.0072844,12.805239 14.9593244,12.702176 14.8399347,12.6317667 L14.173598,12.23074 L13.3212783,11.7645947 L12.9103114,11.5031767 C12.873576,11.4766453 12.828677,11.4582778 12.7868397,11.4378693 C12.636837,11.362358 12.4939774,11.374603 12.363363,11.484809 C12.2990764,11.537871 12.2327487,11.592974 12.1776457,11.65522 L11.4949824,12.4297233 C11.247019,12.7062587 11.1225254,12.7368713 10.8031324,12.556256 C10.464349,12.364416 10.12863,12.163391 9.80617569,11.9439993 C8.96942902,11.3776627 8.30717236,10.642956 7.78879569,9.778656 C7.64899836,9.54497933 7.52246536,9.306199 7.39491236,9.06741933 C7.31225769,8.91129367 7.34389102,8.763332 7.46634202,8.64496267 L7.95206536,8.20413933 C8.14492536,8.027606 8.34492969,7.85515333 8.52656536,7.669436 C8.65411836,7.53984167 8.65820002,7.37657367 8.57248436,7.214326 L8.44289036,6.99799567 C8.39391002,6.92248433 8.33574569,6.85105433 8.29390836,6.77248167 L7.81124836,5.891855 C7.66736802,5.64082833 7.51532469,5.395927 7.36430169,5.151025 C7.31379069,5.06760532 7.24261607,5.03010472 7.15895713,5.02087306 L7.03545991,5.02015341 L6.99489802,5 Z" id="Shape-Copy"></path>
                </g>
            </g>
        </g>
    </g>
</svg>