<?xml version="1.0" encoding="UTF-8"?>
<svg width="39px" height="32px" viewBox="0 0 39 32" version="1.1" xmlns="http://www.w3.org/2000/svg" xmlns:xlink="http://www.w3.org/1999/xlink">
    <title>ic-heart</title>
    <g id="Desktop" stroke="none" stroke-width="1" fill="none" fill-rule="evenodd">
        <path d="M28.1443299,0 C34.1752577,0 39,4.77018634 39,10.7329193 C39,13.3167702 38.5979381,17.2919255 34.9793814,20.8695652 C33.6224227,22.2950311 30.941634,24.3572399 28.2653178,26.2950849 L27.6711943,26.7233606 C24.2122022,29.206085 20.9260631,31.3850932 20.7061856,31.6024845 C20.3041237,31.8012422 19.9020619,32 19.5,32 C19.0979381,32 18.6958763,31.8012422 18.2938144,31.6024845 C17.8917526,31.2049689 7.2371134,24.0496894 4.02061856,20.8695652 C0.402061856,17.2919255 0,13.3167702 0,10.7329193 C0,4.77018634 5.0257732,0 10.8556701,0 C14.4742268,0 17.6907216,1.78881988 19.7010309,4.57142857 C21.7113402,1.78881988 24.9278351,0 28.1443299,0 Z M28.1443299,3 C25.95381,3 23.6160364,4.27522159 22.1328,6.32827206 C20.9353007,7.98581407 18.4667612,7.98581407 17.2692618,6.32827206 C15.7607956,4.24029921 13.4086375,3 10.8556701,3 C6.59706678,3 3,6.5113752 3,10.7329193 C3,13.9326219 3.77614686,16.4091359 6.12984316,18.7362177 C7.07349278,19.669197 8.95966277,21.1755262 11.5389254,23.0803968 C11.8422565,23.3044168 12.1543016,23.5333296 12.4750961,23.7672283 C13.1382328,24.2507366 14.3591011,25.1194484 15.6479489,26.0361363 L16.2957704,26.496917 C17.4855153,27.3432868 18.663794,28.1827424 19.4533728,28.7555328 L19.507,28.794 L19.522021,28.7846119 C20.2441427,28.2695704 21.3029222,27.5276925 22.4046114,26.756373 L23.3525736,26.0926356 C24.6122645,25.2103161 25.8183804,24.3632053 26.5324404,23.8459565 C26.9661034,23.5318208 27.3839126,23.225915 27.7855901,22.9282398 C30.1744515,21.157902 31.9270989,19.7248892 32.8701568,18.7362177 C35.2238531,16.4091359 36,13.9326219 36,10.7329193 C36,6.43472534 32.5259922,3 28.1443299,3 Z" id="ic-heart" fill="#4E515C" fill-rule="nonzero"></path>
    </g>
</svg>