<?xml version="1.0" encoding="UTF-8"?>
<svg width="48px" height="32px" viewBox="0 0 48 32" version="1.1" xmlns="http://www.w3.org/2000/svg" xmlns:xlink="http://www.w3.org/1999/xlink">
    <title>ic-o</title>
    <g id="Desktop" stroke="none" stroke-width="1" fill="none" fill-rule="evenodd">
        <path d="M5.42567609,3.97446536 C12.0408991,-1.85513663 22.1100162,-1.19425803 27.9166217,5.44716398 C30.2815233,8.15595035 31.5777495,11.4399459 31.8296806,14.7728954 L26.9251509,11.9947575 C26.4416058,10.6607618 25.7101929,9.3920381 24.7227855,8.26201728 C20.4643373,3.39109721 13.0811308,2.90563701 8.22942541,7.18095043 C3.37772007,11.4521844 2.8941749,18.8687109 7.15262314,23.739631 C11.407008,28.610551 18.7942779,29.0919318 23.6459833,24.8206978 C24.4749178,24.0863883 25.1778869,23.2623298 25.750827,22.3770788 L30.3668548,22.805426 C29.4607155,24.7431874 28.1522992,26.5259278 26.4497326,28.0271829 C19.8304461,33.8527054 9.76132903,33.1959063 3.95878696,26.5544843 C-1.84781852,19.9089828 -1.18954694,9.79998786 5.42567609,3.97446536 Z M21.5959955,15.368502 C22.1079845,13.8998829 24.4241253,13.3981047 26.7687099,14.2425607 C28.426579,14.8381673 29.6334103,15.9477907 30.0356873,17.0614935 C31.5960348,17.4531253 32.8760073,18.1384808 33.8105904,19.1297987 C34.1530774,19.4940396 34.3939792,19.8353853 34.6028951,20.1627561 L35.0289942,20.8535986 C35.2826807,21.2588069 35.5732954,21.6713257 36.0901605,22.1935014 C37.1100751,23.1970578 38.2925259,23.9884803 39.3449478,24.3678736 C42.5550376,25.5264509 45.8829661,23.5764511 46.8297394,22.9522879 L48,24.7309489 L47.8252751,24.8444737 C46.4786915,25.702021 42.5781251,27.8041086 38.6257251,26.3749864 C36.8053197,25.7181873 35.3262404,24.4290661 34.5785739,23.6947565 C33.8261668,22.93563 33.4390993,22.3341874 33.1137753,21.8055879 L32.7930837,21.28468 C32.6398783,21.046256 32.481857,20.8295894 32.2624332,20.5984179 C31.6244786,19.9212213 30.7224027,19.4398406 29.5968396,19.1461167 C28.6785101,20.0232087 26.8174707,20.2353426 24.9198607,19.5540665 C22.5752761,18.7096105 21.0880699,16.8371211 21.5959955,15.368502 Z M13.9328204,12.0889939 C15.0949542,13.4189101 14.9608618,15.4382614 13.6402553,16.6049977 C12.3155853,17.771734 10.3001365,17.6371106 9.14206613,16.3112739 C7.97993236,14.9813577 8.10996131,12.9579269 9.43463128,11.7952701 C10.7593012,10.6285338 12.7706866,10.7590777 13.9328204,12.0889939 Z" id="ic-o" fill="#4E515C"></path>
    </g>
</svg>