<?xml version="1.0" encoding="UTF-8"?>
<svg width="170px" height="160px" viewBox="0 0 170 160" version="1.1" xmlns="http://www.w3.org/2000/svg" xmlns:xlink="http://www.w3.org/1999/xlink">
    <title>logo-new</title>
    <g id="Symbols" stroke="none" stroke-width="1" fill="none" fill-rule="evenodd">
        <g id="Footer" transform="translate(-56, -64)" fill="#4E515C">
            <g id="logo-new" transform="translate(56, 64)">
                <path d="M70.5726304,54.9821789 C75.5503309,60.6412156 74.9852074,69.2528932 69.3132121,74.2192215 C63.6412169,79.1832484 55.0098195,78.6217173 50.0321189,72.9626806 C45.0567249,67.3036439 45.6195418,58.6919663 51.2915371,53.725638 C56.9635323,48.7616111 65.5949298,49.3231422 70.5726304,54.9821789" id="Fill-1"></path>
                <path d="M119.993262,120.487082 C118.803043,118.581559 117.961124,116.917678 117.319882,115.456316 C108.114135,124.986235 95.1970246,130.923736 80.8820987,130.923736 C52.9257822,130.923736 30.2608674,108.310603 30.2608674,80.4181566 C30.2608674,52.5234091 52.9257822,29.9102758 80.8820987,29.9102758 C108.840722,29.9102758 131.505637,52.5234091 131.505637,80.4181566 C131.505637,84.7769266 130.94974,89.009122 129.909451,93.0457021 C131.337253,94.5692004 132.582831,96.1985611 133.611587,97.9429896 C135.143187,100.541222 135.881308,102.739017 136.471804,104.501857 C136.72092,105.247497 136.935436,105.873466 137.193778,106.501736 C140.888994,98.5735614 142.964959,89.7386522 142.964959,80.4181566 C142.964959,46.2084857 115.170106,18.4748332 80.8820987,18.4748332 C46.5963983,18.4748332 18.7992389,46.2084857 18.7992389,80.4181566 C18.7992389,114.625526 46.5963983,142.359179 80.8820987,142.359179 C97.4183061,142.359179 112.429833,135.896968 123.557001,125.382068 C122.131505,123.644544 120.938979,121.957649 119.993262,120.487082" id="Fill-3"></path>
                <path d="M167.321092,123.132492 C166.534532,122.950685 165.757199,123.063451 165.079051,123.378737 L165.062904,123.335011 C161.598351,124.607662 149.578519,128.292134 140.220534,122.299401 C137.157334,120.340946 133.971882,116.987869 131.473805,113.107781 C129.896073,110.57859 129.317109,108.854874 128.710466,107.032199 C128.175329,105.432756 127.624045,103.780382 126.475345,101.831132 C124.230997,98.0246878 120.664952,94.9500749 115.99634,92.5819786 C115.544241,88.7847397 112.511026,84.4213669 107.683257,81.33985 C100.844108,76.9764773 93.1122953,76.8614094 90.4089287,81.0890021 C87.7055621,85.3142934 91.0570908,92.2805009 97.8962392,96.6438736 C103.42753,100.176457 109.498572,100.873768 113.066924,98.7956424 C116.423066,100.542372 118.946515,102.705648 120.478115,105.294674 C121.262369,106.620256 121.640655,107.754825 122.118127,109.193173 C122.796275,111.213764 123.559769,113.508217 125.557308,116.704802 C127.388769,119.551581 131.148571,124.674401 136.449199,128.071204 C148.522084,135.794558 163.252202,131.327624 167.475636,129.776509 L167.468716,129.758099 C168.645096,129.429005 169.613879,128.508462 169.909127,127.247318 C170.342773,125.403931 169.18254,123.560544 167.321092,123.132492" id="Fill-5"></path>
                <path d="M45.3314441,13.896974 C45.5136677,13.4274972 45.4583086,12.9350068 45.1699803,12.4195028 C44.874732,11.8970948 44.4779922,11.588713 43.9843741,11.4989601 C43.4884493,11.4092072 42.9140993,11.5449872 42.2659372,11.9086016 L40.5013677,12.8958837 L42.3212962,16.1338929 L44.0858657,15.1466108 C44.7340278,14.7829964 45.1515273,14.3664508 45.3314441,13.896974 M43.7836976,9.28735606 C44.5494977,9.22291806 45.2391791,9.34949269 45.8527418,9.67168267 C46.4686111,9.99387264 46.9691492,10.5001712 47.3589691,11.195181 C47.7418691,11.878684 47.9148661,12.5667897 47.8710402,13.2617995 C47.8295209,13.9568093 47.5804053,14.612696 47.1236932,15.224857 C46.6646744,15.8370179 46.0234322,16.3732341 45.1953532,16.8381082 L43.3108391,17.8921296 L44.7594007,20.4627453 L42.5934782,21.6755605 L37.3505155,12.3481608 L41.3963389,10.0813242 C42.2244179,9.61875146 43.0202041,9.35409541 43.7836976,9.28735606" id="Fill-7"></path>
                <polygon id="Fill-9" points="61.8593477 11.0207381 62.4913634 12.9055494 54.6211528 15.5313977 51.2188783 5.38931768 58.9022522 2.82560605 59.5342679 4.70811602 54.187507 6.49166765 54.9279342 8.6963676 59.6472926 7.11993809 60.2585487 8.94491415 55.5391903 10.5213436 56.32575 12.8687277"></polygon>
                <polygon id="Fill-11" points="75.3408892 0.0607558232 76.6418267 10.6769154 74.1944957 10.9737904 73.1403673 2.3598114 68.3356637 2.94665742 69.3920988 11.5583351 66.9447677 11.8575115 65.6438302 1.24135193"></polygon>
                <path d="M88.5066536,5.75799506 C88.9218464,5.4726268 89.1525091,5.03306762 89.2032549,4.4462216 C89.2563073,3.8478688 89.1017633,3.37148791 88.7442361,3.0193803 C88.3844024,2.66497133 87.8331186,2.45784921 87.0926914,2.39341122 L85.0766996,2.22080944 L84.7583851,5.91909004 L86.7720702,6.09169181 C87.5148041,6.15612981 88.0914608,6.04336332 88.5066536,5.75799506 M89.8260441,1.0793364 C90.4949659,1.45445758 90.9931972,1.94694797 91.3184316,2.55680756 C91.6459726,3.1689685 91.7751437,3.86858101 91.7059449,4.6602478 C91.6390527,5.44270916 91.3922437,6.10780131 90.9655177,6.66012698 C90.5387918,7.21245264 89.9621351,7.61288875 89.2401609,7.8614353 C88.5158801,8.10998185 87.6808812,8.19513205 86.7374708,8.1122832 L84.585388,7.92817465 L84.3316591,10.8647061 L81.8589552,10.6529813 L82.7792993,0 L87.4017793,0.395833393 C88.349803,0.476380886 89.1548157,0.704215223 89.8260441,1.0793364" id="Fill-13"></path>
                <path d="M102.63036,11.9886888 C103.202403,11.8575115 103.702941,11.5859514 104.134281,11.1740085 C104.561007,10.7597642 104.872401,10.2373562 105.063851,9.60448304 C105.257608,8.96930853 105.289901,8.3617503 105.16073,7.78180835 C105.033865,7.19956504 104.768603,6.69556787 104.362637,6.26981684 C103.958977,5.84636716 103.453826,5.54258805 102.847183,5.35847949 C102.242847,5.1766723 101.65235,5.14905601 101.080307,5.28023336 C100.508263,5.4114107 100.005419,5.68297082 99.5786928,6.09491371 C99.1473536,6.50915796 98.8382656,7.03156599 98.6445089,7.66443914 C98.4530589,8.29961366 98.4230728,8.90717189 98.5476306,9.48711384 C98.6768017,10.0693571 98.9420638,10.5733543 99.3457235,10.9991053 C99.7516898,11.422555 100.256841,11.7263341 100.861177,11.9104427 C101.46782,12.0922499 102.05601,12.1198662 102.63036,11.9886888 M97.5788474,12.3707141 C96.8637931,11.6549921 96.3840147,10.8219009 96.1441255,9.87144045 C95.9042363,8.92098003 95.9388357,7.94520469 96.2410038,6.94181307 C96.5477852,5.93612008 97.062163,5.10533023 97.7887504,4.44714215 C98.5176445,3.78895406 99.3780163,3.35860031 100.372172,3.15838226 C101.366329,2.96046556 102.395084,3.02030084 103.460746,3.34018946 C104.524101,3.66237943 105.414459,4.18018474 106.1249,4.89590675 C106.835341,5.6093274 107.315119,6.44241861 107.557315,7.39518038 C107.801817,8.3456408 107.774138,9.32601885 107.467356,10.3271091 C107.165188,11.3328021 106.646197,12.163592 105.914997,12.8194787 C105.181489,13.4776668 104.321117,13.9057192 103.331575,14.1082386 C102.342032,14.3084566 101.315583,14.2486213 100.252228,13.9287327 C99.1842596,13.6065428 98.2939017,13.0887374 97.5788474,12.3707141" id="Fill-15"></path>
                <path d="M123.953971,20.9794 L124.931981,16.6551503 L121.176793,19.0232466 L123.953971,20.9794 Z M123.506486,22.9631697 L119.439903,20.1002816 L117.338566,21.4258632 L115.264908,19.9645016 L125.349481,13.9763708 L127.349326,15.3848013 L125.084218,26.8800792 L122.957509,25.3818958 L123.506486,22.9631697 Z" id="Fill-17"></path>
                <polygon id="Fill-19" points="142.475031 29.5496532 134.570221 36.7736126 132.904837 34.957842 139.319566 29.0985873 136.053382 25.5360867 129.636346 31.3976428 127.970962 29.5841736 135.878078 22.3602141"></polygon>
                <path d="M143.12896,45.6653654 C143.636418,45.9622405 144.187701,46.1049246 144.782811,46.0957192 C145.377921,46.0865138 145.966111,45.9185147 146.538154,45.5871193 C147.114811,45.2557239 147.555377,44.8345756 147.859851,44.3236743 C148.164326,43.8127731 148.316563,43.2650502 148.31195,42.6782041 C148.309643,42.0913581 148.150486,41.5252243 147.832172,40.9775014 C147.51847,40.4320798 147.105584,40.0109314 146.598126,39.7140564 C146.090669,39.4194827 145.539385,39.2744972 144.941968,39.2837027 C144.346859,39.2906067 143.760975,39.4609071 143.186625,39.7923025 C142.612275,40.1236979 142.17171,40.5448463 141.867235,41.0557475 C141.560454,41.5666487 141.408216,42.1143717 141.412829,42.7012177 C141.415136,43.2880637 141.5766,43.8541975 141.892608,44.4019205 C142.208616,44.9473421 142.621502,45.3684904 143.12896,45.6653654 M139.182321,42.4963969 C139.150029,41.4861012 139.373771,40.5517503 139.848936,39.6933442 C140.326408,38.8372394 141.020703,38.1468323 141.93182,37.6221229 C142.840631,37.0974136 143.786348,36.8442643 144.768971,36.8603738 C145.751594,36.8764833 146.674245,37.1503448 147.534617,37.6842596 C148.397295,38.215873 149.107736,38.963814 149.663633,39.9234799 C150.21953,40.8854471 150.512472,41.8704279 150.542458,42.8761208 C150.570138,43.8841152 150.346395,44.8161647 149.873536,45.6791736 C149.398371,46.5398811 148.706383,47.2325895 147.795266,47.7572989 C146.884148,48.2820083 145.938431,48.5328562 144.951195,48.512144 C143.968572,48.4914318 143.045921,48.2175703 142.185549,47.6882582 C141.325178,47.1612475 140.61935,46.4179092 140.063453,45.455942 C139.505249,44.4939748 139.210001,43.5066926 139.182321,42.4963969" id="Fill-21"></path>
                <polygon id="Fill-23" points="155.606888 59.4442798 154.506627 56.2039693 146.269663 58.9840084 145.483103 56.6688434 153.722374 53.8865028 152.629033 50.6600004 154.543533 50.0133191 157.521388 58.7975985"></polygon>
                <polygon id="Fill-25" points="151.426358 74.1941367 149.456498 74.479505 148.266279 66.2843729 158.874455 64.7516692 160.034689 72.7511859 158.064829 73.0342528 157.25751 67.4695717 154.95319 67.8032685 155.665938 72.7166656 153.756051 72.9928284 153.04561 68.0794313 150.589052 68.4338403"></polygon>
                <polygon id="Fill-27" points="153.757896 83.3933508 153.843241 81.6834426 149.532156 81.4694164 149.654407 79.0138686 160.359462 79.5477834 160.237211 82.0033312 155.909979 81.7870037 155.82002 83.5590485 160.006548 86.5807302 159.877377 89.1904689 154.88353 85.4392571 149.165402 88.7624165 149.306106 85.9547611"></polygon>
                <path d="M151.077596,99.4621153 L155.462493,98.7648042 L151.866462,96.1642709 L151.077596,99.4621153 Z M149.06391,99.7843053 L150.21953,94.9537571 L148.205845,93.5016009 L148.796342,91.0322449 L158.110501,98.1549446 L157.54307,100.532245 L146.003017,102.700125 L146.607353,100.173235 L149.06391,99.7843053 Z" id="Fill-29"></path>
                <path d="M10.581881,61.9585123 C10.9970738,61.6754454 11.3084685,61.1760509 11.5160649,60.4626303 L12.0742685,58.5248877 L8.48515728,57.4915785 L7.92464697,59.4316224 C7.71935719,60.145043 7.71935719,60.731889 7.92464697,61.1944618 C8.13224338,61.6570345 8.51975668,61.9700191 9.08949349,62.1334154 C9.66845682,62.2991131 10.1666882,62.2415792 10.581881,61.9585123 L10.581881,61.9585123 Z M2.51330054,60.2923299 L5.9547877,59.1347473 L5.98708047,59.0173781 L6.58449681,56.9461569 L3.71735972,56.1222711 L4.40242787,53.7449694 L14.7038231,56.702213 L13.419032,61.150736 C13.1560765,62.0620733 12.7777897,62.807713 12.2795583,63.3922577 C11.7813269,63.974501 11.2023636,64.368033 10.5380551,64.5682511 C9.8737466,64.7707705 9.1586923,64.761565 8.39519883,64.5429361 C7.62939874,64.3220059 7.0227559,63.949186 6.5752703,63.4221753 C6.12547808,62.8951646 5.85098949,62.253086 5.75180454,61.4936382 L1.7774866,62.8468361 L2.51330054,60.2923299 Z" id="Fill-31"></path>
                <polygon id="Fill-33" points="1.98139241 77.25241 0 77.0683014 0.765800091 68.8225395 11.4385622 69.8098216 10.6912151 77.8576668 8.70982273 77.6735583 9.22881375 72.0766582 6.91065384 71.862632 6.45163511 76.8059467 4.53252163 76.6287422 4.99154035 71.6854275 2.51883645 71.4552918"></polygon>
                <path d="M6.05258867,88.9789742 C6.41011583,89.3333832 6.88297432,89.48067 7.47347077,89.4254375 C8.07319373,89.3656022 8.51375945,89.1308638 8.79747454,88.7143182 C9.07888301,88.2954712 9.18498784,87.720132 9.11117579,86.979095 L8.91741914,84.9723118 L5.21528315,85.3290221 L5.4090398,87.3381067 C5.48054523,88.0791437 5.69506152,88.6245653 6.05258867,88.9789742 M10.9034248,89.4231361 C10.6566157,90.1480636 10.2621826,90.7257041 9.71781863,91.1560579 C9.17576134,91.588713 8.50683957,91.8418623 7.71566658,91.917807 C6.9337201,91.9960532 6.23250556,91.8740813 5.60971633,91.5541926 C4.98923373,91.234304 4.49100234,90.744115 4.11271555,90.0790228 C3.73673539,89.4139307 3.50145945,88.6130585 3.40919438,87.6672008 L3.20159797,85.5246375 L0.260648826,85.8100057 L0.020759641,83.3452524 L10.6912151,82.3142445 L11.1387007,86.9215611 C11.2286592,87.8651175 11.1525405,88.6982087 10.9034248,89.4231361" id="Fill-35"></path>
                <path d="M11.7917068,102.127317 C11.9900767,101.664744 11.9808502,101.077898 11.7686405,100.364477 L11.1919838,98.4313376 L7.61209904,99.4968658 L8.18644911,101.427704 C8.4009654,102.141125 8.7192799,102.635917 9.14369922,102.914381 C9.56581192,103.192845 10.0617367,103.245776 10.6291669,103.077777 C11.2058236,102.907477 11.5933369,102.58989 11.7917068,102.127317 L11.7917068,102.127317 Z M4.09679983,105.06615 L6.36882721,102.240083 L6.3342278,102.122714 L5.71835845,100.058397 L2.85583462,100.907598 L2.1477002,98.5348986 L12.4214159,95.4832993 L13.7454197,99.9203155 C14.015295,100.829352 14.1006402,101.660141 13.996842,102.421891 C13.8907371,103.179037 13.6162486,103.823417 13.1664563,104.348126 C12.7143575,104.877438 12.1100213,105.25256 11.3465278,105.480394 C10.5830343,105.705927 9.87028666,105.717434 9.20828477,105.517216 C8.54628289,105.314696 7.96731957,104.921164 7.47370143,104.334318 L4.85568004,107.613752 L4.09679983,105.06615 Z" id="Fill-37"></path>
                <path d="M12.5503563,118.259599 C13.0485877,118.570282 13.5952582,118.731377 14.190368,118.742884 C14.7877843,118.752089 15.3782808,118.6002 15.964164,118.287215 C16.5477405,117.974231 16.9998394,117.56689 17.3204605,117.065195 C17.6433883,116.563499 17.811772,116.020379 17.8256118,115.433532 C17.8417582,114.848988 17.6987473,114.27595 17.3988858,113.721323 C17.101331,113.164395 16.7022845,112.729438 16.2040531,112.418755 C15.7058218,112.108072 15.1591512,111.946977 14.5617349,111.937771 C13.9666252,111.926265 13.3761287,112.078154 12.7902455,112.391139 C12.2066689,112.704123 11.7545701,113.111463 11.4316423,113.613159 C11.1110212,114.114855 10.9426375,114.657975 10.9287977,115.244821 C10.9126513,115.829366 11.0556622,116.402404 11.3555236,116.957031 C11.6530785,117.513959 12.0521249,117.948916 12.5503563,118.259599 M8.70290285,114.968658 C8.70520947,113.958363 8.95663179,113.030916 9.45947643,112.188619 C9.96232107,111.348624 10.6773754,110.678929 11.6023327,110.184137 C12.5295967,109.687044 13.4822335,109.461511 14.4648565,109.507538 C15.4451729,109.555867 16.3585971,109.859646 17.2051292,110.416574 C18.0493546,110.975804 18.7344227,111.744457 19.2626403,112.722534 C19.7885512,113.702912 20.0492,114.694797 20.0469085,115.702791 C20.0445867,116.708484 19.7931644,117.635931 19.2926264,118.480529 C18.7897818,119.327428 18.0770341,119.999425 17.1497701,120.494216 C16.2248128,120.99131 15.2698693,121.214541 14.2849397,121.16161 C13.3023166,121.11098 12.3888924,120.809502 11.5469737,120.252574 C10.7027483,119.700248 10.0199867,118.931595 9.49176921,117.953518 C8.9658583,116.977743 8.70290285,115.981255 8.70290285,114.968658" id="Fill-39"></path>
                <path d="M28.7059703,135.701583 L30.3275289,131.57525 L26.2563327,133.349596 L28.7059703,135.701583 Z M27.9609298,137.5956 L24.3764318,134.15277 L22.0997912,135.146956 L20.2683295,133.388719 L31.1440748,128.988525 L32.9109509,130.684625 L28.9274065,141.705823 L27.0544255,139.903861 L27.9609298,137.5956 Z" id="Fill-41"></path>
                <path d="M41.5086716,143.706163 C42.0092096,143.644026 42.4174825,143.363261 42.735797,142.866167 C43.0610314,142.359869 43.1463766,141.867379 42.9918326,141.388696 C42.8395952,140.910014 42.4474687,140.470455 41.8200662,140.070019 L40.1177756,138.983778 L38.113317,142.113624 L39.8156075,143.199864 C40.4453166,143.6003 41.0081336,143.768299 41.5086716,143.706163 M44.8532804,140.17358 C45.2730865,140.815658 45.4829895,141.483052 45.4899282,142.173459 C45.492216,142.866167 45.282313,143.547369 44.8532804,144.217064 C44.4288611,144.877553 43.9006436,145.351633 43.2663212,145.643905 C42.6319988,145.933876 41.9353975,146.023629 41.178824,145.908561 C40.4222504,145.793493 39.6426105,145.48281 38.8445176,144.971909 L37.0245891,143.812025 L35.4330166,146.295189 L33.3432128,144.962704 L39.114393,135.952891 L43.0241254,138.445261 C43.8245249,138.956162 44.435781,139.531501 44.8532804,140.17358" id="Fill-43"></path>
                <path d="M54.1231521,153.071995 C54.7044221,152.982242 55.2234131,152.747504 55.6801252,152.365478 C56.1368373,151.981152 56.4828313,151.484059 56.7204139,150.864994 C56.9579964,150.245929 57.0318085,149.640672 56.9441567,149.051525 C56.8611181,148.464678 56.6281488,147.94227 56.2544753,147.491205 C55.8831084,147.037837 55.4010234,146.699538 54.8082203,146.474005 C54.2177238,146.250773 53.6318406,146.181732 53.0505707,146.271485 C52.4716073,146.361238 51.9503097,146.595977 51.4935976,146.978002 C51.0368855,147.360027 50.6885848,147.861723 50.4533089,148.478487 C50.218033,149.097552 50.1419143,149.702809 50.2295661,150.291956 C50.3149113,150.881103 50.545574,151.398909 50.9192475,151.852276 C51.2906144,152.305643 51.7726994,152.643943 52.3655025,152.869476 C52.955999,153.095009 53.5418822,153.161748 54.1231521,153.071995 M49.0554931,153.09731 C48.3934912,152.333259 47.9759917,151.467949 47.8029947,150.503681 C47.6299977,149.539412 47.7337959,148.56824 48.1074695,147.587861 C48.481143,146.605182 49.0554931,145.813515 49.8282131,145.208258 C50.5986264,144.603002 51.4889843,144.234784 52.4946736,144.105908 C53.4980563,143.974731 54.5221986,144.10821 55.5624872,144.504043 C56.6027759,144.899877 57.4516146,145.479819 58.1090032,146.241568 C58.7686985,147.005618 59.1861979,147.868627 59.3638082,148.837498 C59.5414184,149.801767 59.4422335,150.775241 59.0662533,151.75792 C58.6925798,152.738298 58.1182297,153.529965 57.3408965,154.132921 C56.5612566,154.735876 55.6732053,155.104093 54.6721293,155.235271 C53.6710533,155.368749 52.6515242,155.235271 51.6112356,154.839437 C50.5709469,154.443604 49.7198016,153.863662 49.0554931,153.09731" id="Fill-45"></path>
                <polygon id="Fill-47" points="66.7302515 149.969076 63.3533498 149.379928 63.7016505 147.391556 72.9004781 149.000204 72.5521775 150.986275 69.1729692 150.397128 67.6736618 158.944368 65.230944 158.516315"></polygon>
                <polygon id="Fill-49" points="86.3266606 149.135294 86.5134974 159.8297 84.0338736 159.871124 83.9554483 155.487039 79.0861591 155.572189 79.1645844 159.956274 76.682654 160 76.4981239 149.305594 78.9777477 149.26417 79.0515597 153.477954 83.9208489 153.395106 83.8470368 149.17902"></polygon>
                <polygon id="Fill-51" points="101.038557 155.231588 101.462976 157.171632 93.3505698 158.93217 91.0739292 148.481709 98.9902723 146.762595 99.412385 148.70494 93.9064669 149.899344 94.400085 152.168482 99.2647609 151.11216 99.6730338 152.994669 94.8106646 154.048691 95.3388821 156.467417"></polygon>
                <polygon id="Fill-53" points="109.374706 149.885997 108.634279 151.82604 109.690714 154.313807 107.418687 155.275774 103.241385 145.425967 105.511106 144.466301 107.462512 149.069015 109.882164 142.620613 112.419453 141.54818 110.193559 147.665187 116.83895 151.294427 114.174796 152.419791"></polygon>
                <path d="M124.010484,141.895455 L120.310654,139.442209 L121.189479,143.784869 L124.010484,141.895455 Z M125.708161,143.020819 L121.576992,145.789351 L122.070611,148.219584 L119.960047,149.634918 L117.948668,138.098216 L119.983113,136.735813 L129.938514,142.944874 L127.777205,144.394729 L125.708161,143.020819 Z" id="Fill-55"></path>
                <path d="M18.0327469,33.227912 C16.9324859,34.7283967 17.1585353,36.8341383 18.662456,37.9295842 C20.16407,39.0250301 22.1523823,38.7120456 23.24803,37.2161636 C24.3459844,35.7179802 24.0415096,33.7273065 22.5422022,32.6341619 C21.0382815,31.538716 19.0407428,31.8517006 18.0327469,33.227912" id="Fill-57"></path>
            </g>
        </g>
    </g>
</svg>