<?xml version="1.0" encoding="UTF-8"?>
<svg width="16px" height="16px" viewBox="0 0 16 16" version="1.1" xmlns="http://www.w3.org/2000/svg" xmlns:xlink="http://www.w3.org/1999/xlink">
    <title>Shape</title>
    <g id="Desktop" stroke="none" stroke-width="1" fill="none" fill-rule="evenodd">
        <g id="010-Home" transform="translate(-88, -3548)" fill="#4E515C" fill-rule="nonzero">
            <g id="Group-62" transform="translate(56, 3152)">
                <g id="Group-57" transform="translate(32, 392)">
                    <g id="MALE" transform="translate(0, 4)">
                        <path d="M5.78599254,16 C7.9579402,16.0030124 9.9494603,14.7850956 10.9461074,12.8443136 C11.9427545,10.9035317 11.7774003,8.56533559 10.5176673,6.78594621 L14.2076989,3.07488187 L14.2076989,5.71397877 C14.2076989,6.21173008 14.6089192,6.61523725 15.1038495,6.61523725 C15.5987797,6.61523725 16,6.21173008 16,5.71397877 L16,0.90125848 C16,0.871569966 16,0.841881451 16,0.812192936 L15.9936742,0.774021989 C15.9936742,0.758117428 15.9936742,0.741152562 15.9862942,0.725248001 C15.9837807,0.710181973 15.9802584,0.695303862 15.9757512,0.680715229 C15.9757512,0.666931276 15.9694255,0.653147322 15.9652083,0.639363369 C15.9609911,0.625579416 15.9557196,0.611795463 15.9504481,0.596951205 C15.9451767,0.582106948 15.9409595,0.569383299 15.935688,0.55665965 C15.9304165,0.543936001 15.9240908,0.530152047 15.917765,0.517428398 C15.9114392,0.504704749 15.9051135,0.489860492 15.8977334,0.476076538 L15.8766475,0.440026199 C15.8692675,0.42730255 15.8618874,0.413518597 15.853453,0.400794948 C15.8450187,0.388071299 15.8344757,0.374287345 15.8239328,0.361563696 L15.8007383,0.329754573 C15.763501,0.283644482 15.7214386,0.241697761 15.6752772,0.20463869 L15.645757,0.181312 L15.6056938,0.151623486 L15.5677392,0.128296795 L15.5255674,0.106030409 L15.4865585,0.0869449358 L15.4464953,0.0689197661 L15.4074864,0.0540755088 C15.3927262,0.0540755088 15.3790204,0.0434724679 15.363206,0.0392312515 L15.3252514,0.0286282106 L15.2788624,0.0169648655 L15.234582,0.0106030409 L15.1913559,0 L15.1133381,0 L10.3184056,0 C9.82347537,0 9.42225511,0.403507166 9.42225511,0.90125848 C9.42225511,1.39900979 9.82347537,1.80251696 10.3184056,1.80251696 L12.9404367,1.80251696 L9.26832807,5.49555612 C7.24895331,3.97913006 4.48685952,3.94811776 2.43432485,5.41882515 C0.381790176,6.88953254 -0.49115947,9.52517087 0.274463109,11.9399509 C1.04008569,14.3547309 3.26895461,15.9956732 5.78915543,16 L5.78599254,16 Z M5.78599254,6.12643706 C8.00211562,6.12643706 9.79863833,7.93319973 9.79863833,10.1619544 C9.79863833,12.3907092 8.00211562,14.1974718 5.78599254,14.1974718 C3.56986947,14.1974718 1.77334676,12.3907092 1.77334676,10.1619544 C1.77567116,7.93416874 3.57083298,6.12877472 5.78599254,6.12643706 Z" id="Shape"></path>
                    </g>
                </g>
            </g>
        </g>
    </g>
</svg>