<?xml version="1.0" encoding="UTF-8"?>
<svg width="32px" height="32px" viewBox="0 0 32 32" version="1.1" xmlns="http://www.w3.org/2000/svg" xmlns:xlink="http://www.w3.org/1999/xlink">
    <title>Shape</title>
    <g id="Desktop" stroke="none" stroke-width="1" fill="none" fill-rule="evenodd">
        <g id="040-Articles" transform="translate(-528, -1093)" fill="#4E515C" fill-rule="nonzero">
            <g id="Group" transform="translate(56, 1061)">
                <g id="Group-42-Copy" transform="translate(448, 0)">
                    <g id="020-mitochondria" transform="translate(24, 32)">
                        <path d="M21.5535343,0 C24.3451812,0 26.9697745,1.08676698 28.9437212,3.06017282 C33.0187179,7.13386147 33.0187804,13.76234 28.9437837,17.8360912 L17.8366526,28.9398272 C15.8627059,30.913233 13.2381126,32 10.4464657,32 C7.77131715,32 5.24924664,31.0016806 3.3063769,29.1818418 L3.05627882,28.9398272 C-1.01871793,24.8661385 -1.01878045,18.23766 3.0562163,14.1639088 L14.1633474,3.06017282 C16.1372941,1.08676698 18.7618874,0 21.5535343,0 Z M21.5535343,1.8750293 C19.2628608,1.8750293 17.1092939,2.76679323 15.489586,4.38600603 L4.38245491,15.489742 C1.10569087,18.7655657 1.04015559,24.0545993 4.18584907,27.4109514 L4.38251743,27.613994 C6.00222532,29.2332693 8.15585476,30.1249707 10.4464657,30.1249707 C12.7371392,30.1249707 14.8907061,29.2332068 16.510414,27.613994 L27.6175451,16.510258 C30.9611819,13.1675807 30.9611819,7.72868326 27.6175451,4.38600603 C25.9977747,2.76679323 23.8442078,1.8750293 21.5535343,1.8750293 Z M26.3355082,5.75640244 C28.899582,8.36738074 28.8588189,12.6176972 26.244729,15.2310505 L23.701662,17.7733402 C22.4187498,19.0558602 20.3312041,19.0558602 19.0482919,17.7733402 L16.5325461,15.2583634 C16.1636776,14.8896702 15.5684238,14.8689823 15.2056823,15.2121752 C15.0206854,15.3872404 14.916902,15.6233691 14.9134634,15.8770606 C14.9099623,16.1309395 15.0069309,16.3695683 15.1864261,16.5490086 L17.7297432,19.0915483 C19.0126554,20.3740683 19.0126554,22.4609135 17.7298058,23.7434335 L15.2308154,26.2415975 C13.9071401,27.5647432 12.1636424,28.2284411 10.4257716,28.2284411 C8.7314772,28.2284411 7.04262209,27.5976812 5.75333286,26.3322864 C3.57088166,24.190378 3.11554787,20.8457007 4.64616464,18.1986594 C4.792024,17.9464054 5.04691839,17.7762778 5.33588624,17.7383397 C5.6249166,17.7002141 5.91507232,17.7988406 6.12120105,18.0049688 L10.1780045,22.0605322 C10.3541235,22.2365349 10.5882613,22.3335365 10.8373413,22.3335365 C11.0863588,22.3335365 11.320434,22.2365974 11.4966156,22.0605322 C11.8601074,21.697089 11.8601074,21.1057673 11.4966156,20.7423866 L9.43170218,18.6781043 C7.89170739,17.1385803 7.89170739,14.6335411 9.43170218,13.0939546 L13.093066,9.4337099 C13.8390557,8.68794825 14.8309369,8.27719183 15.8859634,8.27719183 C16.9409898,8.27719183 17.932871,8.68794825 18.6789232,9.4337099 L20.7438366,11.4979922 C20.9233318,11.677495 21.1597203,11.775434 21.4161151,11.7709339 C21.6698842,11.7674339 21.9060225,11.6636822 22.0811413,11.4788044 C22.4245016,11.1161737 22.403745,10.5211644 22.034939,10.1523461 L18.0056444,6.12422069 C17.7995157,5.91821747 17.700984,5.62808794 17.7389337,5.33914592 C17.7768834,5.05026641 17.9470631,4.79544993 18.1993941,4.64957265 C20.8473699,3.11948624 24.1928198,3.57468085 26.3355082,5.75640244 Z M20.3190127,5.78515289 L23.3611776,8.82645041 C24.4415872,9.90652979 24.4784115,11.6745574 23.4432664,12.7676995 C22.9170974,13.3233957 22.2063065,13.6352131 21.4418109,13.6457132 C20.6791284,13.6560259 19.9582717,13.3642713 19.417598,12.8237629 L17.3526846,10.7595431 C16.9608712,10.3678495 16.4400164,10.1521586 15.8859634,10.1521586 C15.3319729,10.1521586 14.811118,10.3678495 14.4193046,10.7594806 L10.7579408,14.4197253 C9.94924346,15.2282379 9.94924346,16.543696 10.7579408,17.3522086 L12.8228542,19.4164909 C13.3532121,19.9466867 13.6452434,20.6515727 13.6452434,21.4013969 C13.6452434,22.1512211 13.3532121,22.8561071 12.8228542,23.3863029 C12.2925588,23.9164987 11.5873948,24.2085033 10.8373413,24.2085033 C10.0872878,24.2085033 9.38218627,23.9164987 8.85176585,23.3863029 L5.7820921,20.3175675 C5.34638961,21.9629057 5.80685005,23.7571837 7.06731753,24.9942655 C8.94792174,26.8399819 12.0152197,26.8046063 13.9045768,24.9157018 L16.4035046,22.4176003 C16.9550568,21.8661542 16.9550568,20.9688276 16.4034421,20.4173815 L13.8601875,17.8748418 C13.3195138,17.3343958 13.027545,16.6156971 13.0379858,15.8513102 C13.0484892,15.0871107 13.3604019,14.3764746 13.9163305,13.8504039 C15.0097443,12.8155752 16.7783751,12.8523883 17.8587847,13.9325302 L20.3745305,16.447507 C20.6417413,16.7146362 20.997043,16.8617635 21.3749769,16.8617635 C21.7529108,16.8617635 22.1082125,16.7146362 22.3754234,16.447507 L24.9184904,13.9052173 C26.808035,12.0162503 26.8432963,8.94995234 24.9970782,7.06998547 C23.7596181,5.80990328 21.9648539,5.34952109 20.3190127,5.78515289 Z" id="Shape"></path>
                    </g>
                </g>
            </g>
        </g>
    </g>
</svg>