<svg width="72" height="27" xmlns="http://www.w3.org/2000/svg"><path d="M41.323 1.448a5.621 5.621 0 0 1 7.921.517 5.567 5.567 0 0 1 1.378 3.266l-1.727-.973a4.123 4.123 0 0 0-6.585-1.686 4.102 4.102 0 0 0-.38 5.797 4.122 4.122 0 0 0 6.551-.477l1.626.15a5.621 5.621 0 0 1-9.3 1.312 5.593 5.593 0 0 1 .516-7.906zm5.696 3.99c.18-.513.994-.69 1.82-.395.584.21 1.01.598 1.151.989.55.137 1 .376 1.33.724.126.134.214.258.29.378l.185.296c.08.12.176.246.328.398.358.35.776.628 1.146.76 1.131.407 2.304-.276 2.636-.496l.412.624-.128.081c-.527.32-1.841.973-3.173.495-.641-.23-1.163-.682-1.425-.939a3.29 3.29 0 0 1-.494-.625l-.053-.086a1.985 1.985 0 0 0-.269-.373c-.225-.237-.543-.405-.939-.507-.323.306-.978.38-1.647.141-.826-.295-1.35-.951-1.17-1.465zm-2.7-1.148a1.118 1.118 0 0 1-.104 1.581 1.124 1.124 0 0 1-1.584-.103 1.118 1.118 0 0 1 .104-1.581 1.124 1.124 0 0 1 1.584.103zM2.889 1.794V5.09c.446.046.908.077 1.338.077 1.12 0 1.997-.537 1.997-1.733 0-1.12-.692-1.671-1.982-1.671l-.496.006-.856.025zM1 10.763V.031L3.868 0 4.058 0C7.221 0 8.22 1.687 8.22 3.45c0 1.824-1.367 3.48-3.933 3.48l-.54-.004c-.281-.005-.595-.016-.858-.042v3.879H1zM10.71.03h6.222v1.763h-4.333v2.669h3.872v1.763h-3.872V9h4.486v1.763h-6.376V.03zm15.518 1.764h-4.794v8.969h-1.89V.031h8.573v10.732h-1.89v-8.97zm6.76 0V5.09c.447.046.908.077 1.338.077 1.121 0 1.997-.537 1.997-1.733 0-1.12-.692-1.671-1.982-1.671l-.496.006-.856.025zM31.1 10.763V.031L33.967 0l.19-.001c3.164 0 4.163 1.687 4.163 3.45 0 1.824-1.367 3.48-3.933 3.48l-.54-.004c-.281-.005-.595-.016-.858-.042v3.879h-1.89zM3.226 23.32h4.486v-7.205H4.747l-.17 1.87c-.191 2.672-.91 4.705-1.307 5.276l-.044.06zM0 23.32h1.152l.093-.128c.482-.723 1.394-2.95 1.566-6.694l.108-2.147h6.668v8.97h1.46V27H9.28v-1.917H1.767V27H0v-3.68zm12.922-8.969h6.222v1.763h-4.332v2.669h3.871v1.762h-3.871v2.776h4.486v1.763h-6.376V14.35zm7.498 0h8.865v1.763h-3.487v8.97h-1.89v-8.97H20.42v-1.763zm14.812 9.138c2.258 0 3.61-1.656 3.61-3.772 0-2.223-1.582-3.77-3.61-3.77-2.059 0-3.596 1.547-3.596 3.77 0 2.147 1.583 3.772 3.596 3.772zm0-9.306c3.196 0 5.608 2.192 5.608 5.534 0 3.22-2.412 5.535-5.608 5.535-3.196 0-5.593-2.192-5.593-5.535 0-3.112 2.29-5.534 5.593-5.534zm7.79.168h1.89v5.09l4.24-5.09h2.274l-4.424 4.999 4.7 5.734h-2.396l-4.394-5.535v5.535h-1.89V14.35zm17.915 9.69c-.676.721-2.043 1.211-3.44 1.211-3.289 0-5.548-2.192-5.548-5.534 0-3.082 1.952-5.535 5.501-5.535 1.398 0 2.565.445 3.272 1.088l-.845 1.396c-.645-.43-1.351-.721-2.427-.721-1.998 0-3.503 1.44-3.503 3.772 0 2.238 1.52 3.771 3.718 3.771.906 0 1.813-.291 2.55-.858l.722 1.41zm1.876 1.043V14.35h1.89v7.636l5.638-7.636h1.66v10.733h-1.89v-7.62l-5.639 7.62h-1.66z" fill="#4E515C" fill-rule="evenodd"/></svg>