<svg width="368" height="200" xmlns="http://www.w3.org/2000/svg"><path d="M368 143.215v6.33H0v-6.33h368zM2.363 169.398v30.172h3.649v-26.722h13.096v-3.45H2.363zm43.572 0-18.245 24.14v-24.14h-3.65v30.172h3.22l18.246-24.14v24.14h3.649v-30.172h-3.22zm12.233 0v30.172h3.649v-26.722h16.312v26.722h3.65v-30.172H58.167zm32.623 0v30.172h17.384v-3.45H94.441v-10.083h12.018v-3.45H94.44v-9.74h13.305v-3.45H90.791zm32.883 3.362c-.515 0-2.034.029-4.552.086v11.638c1.806.145 3.265.215 4.38.215 2.203 0 3.935-.538 5.194-1.618 1.259-1.076 1.888-2.563 1.888-4.46 0-1.867-.578-3.31-1.739-4.332-1.157-1.02-2.883-1.529-5.171-1.529m-4.552 15.215v11.593h-3.649v-30.17c1.202 0 2.476-.012 3.824-.044 1.341-.025 2.689-.04 4.034-.04 3.947 0 6.78.889 8.5 2.67 1.744 1.754 2.618 3.98 2.618 6.682 0 2.614-.947 4.855-2.835 6.723-1.83 1.839-4.495 2.757-7.985 2.757-1.83 0-3.33-.057-4.507-.171m39.535-18.577h4.421l-13.391 14.18 14.078 15.99h-4.679l-13.608-15.73 13.179-14.44zm-17.555 30.17h3.649v-30.17h-3.65v30.17zm27.73-15.084c0 3.39 1.103 6.264 3.306 8.622 2.203 2.297 4.92 3.446 8.156 3.446 3.376 0 6.122-1.149 8.243-3.446 2.145-2.302 3.216-5.175 3.216-8.622s-1.1-6.32-3.302-8.622c-2.203-2.298-4.924-3.447-8.157-3.447-3.293 0-6.026 1.137-8.2 3.406-2.175 2.27-3.262 5.16-3.262 8.663m-3.862 0c0-4.368 1.443-8.046 4.333-11.034 2.892-2.987 6.554-4.481 10.991-4.481 4.406 0 8.055 1.45 10.944 4.352 2.921 2.902 4.38 6.621 4.38 11.163 0 4.425-1.459 8.13-4.38 11.119-2.918 2.93-6.567 4.396-10.944 4.396-4.377 0-8.041-1.45-10.991-4.352-2.89-2.902-4.333-6.621-4.333-11.163m45.5-11.724c-.514 0-2.034.029-4.551.086v11.638c1.805.145 3.264.215 4.38.215 2.203 0 3.935-.538 5.194-1.618 1.259-1.076 1.888-2.563 1.888-4.46 0-1.867-.578-3.31-1.739-4.332-1.157-1.02-2.883-1.529-5.171-1.529m-4.552 15.215v11.593h-3.649v-30.17c1.202 0 2.476-.012 3.824-.044 1.341-.025 2.689-.04 4.034-.04 3.947 0 6.78.889 8.5 2.67 1.744 1.754 2.618 3.98 2.618 6.682 0 2.614-.947 4.855-2.835 6.723-1.83 1.839-4.495 2.757-7.985 2.757-1.83 0-3.33-.057-4.507-.171m27.645-15.129h-10.518V169.4h24.685v3.446h-10.518v26.723h-3.65v-26.723zm40.564 2.586-18.245 24.137h-3.217v-30.17h3.65v24.137l18.242-24.137h3.22v30.17h-3.65v-24.137zM293.832 200c-2.089 0-4.03-.446-5.817-1.336-1.79-.892-3.125-2.025-4.015-3.405l2.019-2.456c.944 1.12 2.123 2.025 3.54 2.712 1.418.693 2.77 1.038 4.06 1.038 2.06 0 3.712-.519 4.955-1.554 1.246-1.035 1.87-2.44 1.87-4.222 0-1.494-.519-2.687-1.546-3.577-1.03-.892-2.479-1.338-4.338-1.338h-3.475v-3.447h3.217c1.316 0 2.476-.475 3.477-1.421 1.005-1.007 1.504-2.229 1.504-3.665 0-1.551-.5-2.76-1.504-3.621-1-.861-2.317-1.292-3.947-1.292-2.66 0-4.937 1.12-6.825 3.362l-2.149-2.415c1.03-1.38 2.378-2.456 4.037-3.232a12.418 12.418 0 0 1 5.324-1.165c2.66 0 4.778.713 6.351 2.134 1.574 1.424 2.362 3.383 2.362 5.884 0 1.408-.378 2.737-1.138 3.988-.756 1.25-1.824 2.218-3.198 2.908v.13c1.745.345 3.1 1.155 4.056 2.434.96 1.279 1.44 2.839 1.44 4.678 0 2.728-1.001 4.884-3.007 6.463-2.002 1.611-4.421 2.415-7.253 2.415m19.273-15.516c0 3.39 1.103 6.264 3.306 8.622 2.203 2.297 4.92 3.446 8.156 3.446 3.376 0 6.122-1.149 8.242-3.446 2.146-2.302 3.217-5.175 3.217-8.622s-1.1-6.32-3.302-8.622c-2.203-2.298-4.924-3.447-8.157-3.447-3.293 0-6.026 1.137-8.2 3.406-2.175 2.27-3.262 5.16-3.262 8.663m-3.862 0c0-4.368 1.443-8.046 4.333-11.034 2.892-2.987 6.554-4.481 10.991-4.481 4.406 0 8.055 1.45 10.944 4.352 2.921 2.902 4.38 6.621 4.38 11.163 0 4.425-1.459 8.13-4.38 11.119-2.918 2.93-6.567 4.396-10.944 4.396-4.377 0-8.042-1.45-10.991-4.352-2.89-2.902-4.333-6.621-4.333-11.163m58.293 15.085h-3.646v-26.723h-10.906l-.515 5.688c-.343 3.738-.788 6.934-1.332 9.59-.543 2.659-1.128 4.75-1.758 6.273-.632 1.523-1.366 2.7-2.212 3.532-.842.836-1.665 1.352-2.467 1.554-.804.2-1.72.228-2.749.086l.045-3.665c.6.088 1.115.038 1.544-.149.43-.187.916-.627 1.46-1.317.6-.715 1.144-1.794 1.63-3.231 1.144-3.22 1.974-8.476 2.492-15.775l.429-6.033h17.985v30.17zM199.756 7.154c11.535-10.078 29.09-8.935 39.21 2.551a27.464 27.464 0 0 1 6.819 16.13l-8.544-4.805a20.25 20.25 0 0 0-3.843-6.46c-7.422-8.422-20.296-9.258-28.757-1.868-8.458 7.388-9.298 20.21-1.875 28.632 7.422 8.422 20.295 9.258 28.753 1.867a20.192 20.192 0 0 0 3.672-4.222l8.045.74a27.552 27.552 0 0 1-6.831 9.03c-11.532 10.075-29.088 8.935-39.208-2.55-10.121-11.487-8.977-28.967 2.558-39.045zM227.95 26.86c.89-2.535 4.924-3.409 9.015-1.95 2.886 1.032 4.997 2.95 5.696 4.881 2.718.677 4.949 1.858 6.58 3.577.836.883 1.325 1.68 1.799 2.452.537.88 1.049 1.713 2.177 2.846 1.774 1.728 3.84 3.098 5.674 3.754 5.597 2.01 11.401-1.368 13.045-2.45l2.044 3.08c-2.01 1.32-9.123 5.43-16.345 2.845-3.172-1.14-5.753-3.368-7.053-4.637-1.43-1.43-2.107-2.538-2.708-3.513-.423-.696-.76-1.244-1.329-1.842-1.112-1.171-2.689-2-4.647-2.507-1.602 1.516-4.844 1.883-8.153.7-4.091-1.46-6.685-4.7-5.795-7.236zm-13.364-5.67a5.515 5.515 0 0 1-.511 7.808 5.572 5.572 0 0 1-7.842-.51 5.515 5.515 0 0 1 .512-7.808 5.572 5.572 0 0 1 7.841.51zM11.027 8.86v16.28c2.206.228 4.488.38 6.618.38 5.55 0 9.886-2.652 9.886-8.558 0-5.53-3.424-8.255-9.813-8.255-1.9 0-4.18.076-6.69.152zm-9.354 44.3V.153C4.638.152 13.08 0 16.806 0c15.667 0 20.61 8.33 20.61 17.038 0 9.01-6.767 17.19-19.469 17.19-1.596 0-4.638 0-6.92-.229v19.162H1.673zM48.22.15h30.8v8.707H57.575v13.18H76.74v8.707H57.575v13.708h22.206v8.707h-31.56V.15zm76.816 8.71h-23.729v44.3h-9.354V.153h42.437V53.16h-9.354V8.859zm33.468 0v16.28c2.206.228 4.488.38 6.618.38 5.55 0 9.885-2.652 9.885-8.558 0-5.53-3.423-8.255-9.812-8.255-1.9 0-4.18.076-6.691.152zm-9.355 44.3V.153c2.966 0 11.408-.152 15.134-.152 15.667 0 20.61 8.33 20.61 17.038 0 9.01-6.767 17.19-19.47 17.19-1.595 0-4.637 0-6.919-.229v19.162h-9.355zM11.027 79.594v16.28c2.206.229 4.488.38 6.618.38 5.55 0 9.886-2.652 9.886-8.558 0-5.53-3.424-8.254-9.813-8.254-1.9 0-4.18.076-6.69.152zm-9.354 44.301V70.885c2.965 0 11.408-.152 15.133-.152 15.667 0 20.61 8.331 20.61 17.038 0 9.011-6.767 17.19-19.469 17.19-1.596 0-4.638 0-6.92-.228v19.161H1.673zm46.548-53.01h30.8v8.707H57.575v13.18H76.74v8.707H57.575v13.708h22.206v8.707h-31.56V70.884zm75.142 8.709H107.85l-1.065 9.995c-3.119 30.821-10.038 35.819-20.534 34.306l.229-9.239c4.107.529 9.507-1.212 11.862-33.17l.763-10.6h33.538v53.01h-9.279V79.592zm35.749 22.036h15.59l-7.758-18.857-7.832 18.857zm3.954-30.897h8.214l22.51 53.16h-9.961l-5.553-13.556h-22.74l-5.55 13.556h-9.43l22.51-53.16zm38.716.152h9.355v25.14l20.988-25.14h11.256l-21.9 24.688 23.27 28.32h-11.863l-21.751-27.336v27.337h-9.355V70.884zm88.682 47.86c-3.347 3.56-10.115 5.981-17.035 5.981-16.274 0-27.456-10.827-27.456-27.337 0-15.22 9.66-27.336 27.228-27.336 6.92 0 12.698 2.196 16.198 5.374l-4.183 6.894c-3.195-2.121-6.691-3.561-12.015-3.561-9.889 0-17.34 7.118-17.34 18.63 0 11.055 7.527 18.63 18.404 18.63 4.485 0 8.974-1.441 12.623-4.242l3.576 6.966z" fill="#4E515C" fill-rule="evenodd"/></svg>