<svg width="62" height="25" xmlns="http://www.w3.org/2000/svg"><path d="M40.198 1.434c2.34-2.02 5.903-1.791 7.957.511a5.47 5.47 0 0 1 1.384 3.233l-1.735-.963a4.035 4.035 0 0 0-.78-1.295c-1.505-1.688-4.118-1.855-5.835-.374a4.02 4.02 0 0 0-.38 5.739c1.506 1.688 4.118 1.856 5.835.374.294-.253.542-.538.745-.846l1.632.148a5.53 5.53 0 0 1-1.386 1.81c-2.34 2.02-5.903 1.791-7.957-.51a5.482 5.482 0 0 1 .52-7.827zm5.721 3.95c.181-.508 1-.683 1.83-.39.585.206 1.014.59 1.156.977.551.136 1.004.373 1.335.717.127.133.215.256.291.375l.074.117c.109.176.213.343.442.57.36.347.779.621 1.151.753 1.136.403 2.314-.274 2.647-.491l.415.617-.129.08c-.53.318-1.85.964-3.188.49-.643-.228-1.167-.675-1.43-.93a3.22 3.22 0 0 1-.439-.528l-.112-.175a1.966 1.966 0 0 0-.27-.37c-.225-.234-.545-.4-.942-.502-.325.304-.983.377-1.655.14-.83-.292-1.356-.942-1.176-1.45zm-2.712-1.137c.411.46.365 1.161-.103 1.565a1.14 1.14 0 0 1-1.592-.102 1.096 1.096 0 0 1 .104-1.565 1.14 1.14 0 0 1 1.591.102zM1.898 1.776v3.263c.448.046.911.076 1.343.076 1.127 0 2.006-.531 2.006-1.715 0-1.108-.694-1.655-1.99-1.655l-.241.002-1.118.029zM0 10.656V.03L2.88 0h.191c3.18 0 4.182 1.67 4.182 3.415 0 1.806-1.373 3.446-3.95 3.446l-.34-.002a12.767 12.767 0 0 1-1.065-.044v3.84H0zM9.446.03h6.25v1.745h-4.352v2.642h3.89v1.745h-3.89V8.91h4.507v1.745H9.446V.03zm15.588 1.746H20.22v8.88h-1.898V.03h8.612v10.626h-1.899v-8.88zm6.792 0v3.263c.448.046.911.076 1.343.076 1.127 0 2.006-.531 2.006-1.715 0-1.108-.694-1.655-1.99-1.655l-.241.002-1.118.029zm-1.898 8.88V.03l2.88-.03H33c3.18 0 4.182 1.67 4.182 3.415 0 1.806-1.373 3.446-3.95 3.446l-.34-.002a12.767 12.767 0 0 1-1.065-.044v3.84h-1.898zM0 14.208h1.914l3.688 4.963 3.519-4.963h1.79v10.625H9.03v-7.68l-3.411 4.72H5.34l-3.442-4.675v7.635H0V14.208zm13.907 0h6.25v1.745h-4.352v2.642h3.889v1.745h-3.89v2.747h4.507v1.746h-6.404V14.208zm16.437 0v1.745H26.84v8.88h-1.898v-8.88H21.44v-1.745h8.905zm5.54-.03 4.569 10.655h-2.022l-1.126-2.717H32.69l-1.126 2.717H29.65l4.568-10.655h1.667zm-.879 2.413-1.59 3.78h3.165l-1.575-3.78zm8.968 3.476v3.02l.614.042c.196.011.39.019.59.019 1.404 0 1.991-.637 1.991-1.579 0-.91-.571-1.593-1.898-1.593-.285 0-.638.02-1.012.058l-.285.033zm-1.898-5.859h6.312v1.746h-4.414v2.367c.417-.06 1.065-.091 1.45-.091 2.254 0 3.628 1.245 3.628 3.203 0 2.2-1.513 3.46-4.167 3.46-1.25 0-2.176-.06-2.81-.06V14.209zm14.292 9.047c2.269 0 3.627-1.64 3.627-3.734 0-2.201-1.59-3.734-3.627-3.734-2.068 0-3.612 1.533-3.612 3.734 0 2.125 1.59 3.734 3.612 3.734zm0-9.214c3.21 0 5.633 2.17 5.633 5.48C62 22.708 59.577 25 56.367 25s-5.618-2.17-5.618-5.48c0-3.08 2.3-5.479 5.618-5.479z" fill="#4E515C" fill-rule="evenodd"/></svg>