<?xml version="1.0" encoding="UTF-8"?>
<svg width="368px" height="200px" viewBox="0 0 368 200" version="1.1" xmlns="http://www.w3.org/2000/svg" xmlns:xlink="http://www.w3.org/1999/xlink">
    <title>Group 53</title>
    <g id="Desktop" stroke="none" stroke-width="1" fill="none" fill-rule="evenodd">
        <g id="020-Product" transform="translate(-808.000000, -944.000000)">
            <g id="Group-53" transform="translate(808.000000, 944.000000)">
                <path d="M0,146.381367 L368,146.381367 L0,146.381367 Z" id="Fill-1" fill="#4E515C"></path>
                <line x1="0" y1="146.380101" x2="368" y2="146.380101" id="Stroke-2" stroke="#4E515C" stroke-width="6.3301556"></line>
                <polygon id="Fill-4" fill="#4E515C" points="2.36297614 169.397812 2.36297614 199.570499 6.01201651 199.570499 6.01201651 172.847747 19.1078757 172.847747 19.1078757 169.397812"></polygon>
                <polygon id="Fill-5" fill="#4E515C" points="45.9349975 169.397812 27.6897956 193.537861 27.6897956 169.397812 24.0407553 169.397812 24.0407553 199.570499 27.2606837 199.570499 45.5058856 175.430451 45.5058856 199.570499 49.154926 199.570499 49.154926 169.397812"></polygon>
                <polygon id="Fill-6" fill="#4E515C" points="58.1675471 169.397812 58.1675471 199.570499 61.8165875 199.570499 61.8165875 172.847747 78.1291965 172.847747 78.1291965 199.570499 81.7782369 199.570499 81.7782369 169.397812"></polygon>
                <polygon id="Fill-7" fill="#4E515C" points="90.7914938 169.397812 90.7914938 199.570499 108.175293 199.570499 108.175293 196.120564 94.4405341 196.120564 94.4405341 186.036626 106.458846 186.036626 106.458846 182.586691 94.4405341 182.586691 94.4405341 172.847747 107.746181 172.847747 107.746181 169.397812"></polygon>
                <g id="Group-52" transform="translate(1.672583, 0.000000)" fill="#4E515C">
                    <path d="M122.001278,172.760074 C121.486344,172.760074 119.96697,172.78856 117.449514,172.845532 L117.449514,184.483523 C119.254962,184.629116 120.713943,184.698748 121.829634,184.698748 C124.032408,184.698748 125.764749,184.160685 127.023477,183.081393 C128.282205,182.005267 128.911569,180.51768 128.911569,178.621799 C128.911569,176.754403 128.333063,175.311127 127.172871,174.288807 C126.015858,173.269652 124.289875,172.760074 122.001278,172.760074 M117.449514,187.974603 L117.449514,199.568283 L113.800473,199.568283 L113.800473,169.398762 C115.001987,169.398762 116.276608,169.386102 117.624337,169.354451 C118.965709,169.32913 120.313438,169.313305 121.657989,169.313305 C125.605818,169.313305 128.437957,170.202692 130.157583,171.98463 C131.902638,173.738083 132.776755,175.963133 132.776755,178.66611 C132.776755,181.280464 131.82953,183.521339 129.941438,185.388735 C128.11056,187.227645 125.446888,188.145518 121.956778,188.145518 C120.1259,188.145518 118.625598,188.088546 117.449514,187.974603" id="Fill-8"></path>
                    <path d="M156.984387,169.398445 L161.405829,169.398445 L148.014359,183.577994 L162.092408,199.567967 L157.413499,199.567967 L143.805884,183.83753 L156.984387,169.398445 Z M139.428943,199.567967 L143.077983,199.567967 L143.077983,169.398445 L139.428943,169.398445 L139.428943,199.567967 Z" id="Fill-10"></path>
                    <path d="M167.159742,184.483839 C167.159742,187.873637 168.262719,190.747528 170.465493,193.105511 C172.668267,195.403358 175.385976,196.552281 178.621798,196.552281 C181.997478,196.552281 184.743794,195.403358 186.863925,193.105511 C189.009484,190.804499 190.080674,187.930609 190.080674,184.483839 C190.080674,181.037069 188.980877,178.163179 186.778102,175.862167 C184.575328,173.564321 181.854441,172.415397 178.621798,172.415397 C175.328761,172.415397 172.59516,173.55166 170.420993,175.821021 C168.246826,178.090382 167.159742,180.980098 167.159742,184.483839 M163.297735,184.483839 C163.297735,180.116032 164.740823,176.438211 167.630176,173.450378 C170.522708,170.462544 174.184463,168.968628 178.621798,168.968628 C183.027346,168.968628 186.676387,170.418233 189.56574,173.32061 C192.48688,176.222986 193.94586,179.941952 193.94586,184.483839 C193.94586,188.908618 192.48688,192.614924 189.56574,195.602757 C186.647779,198.533619 182.998739,199.99905 178.621798,199.99905 C174.244856,199.99905 170.579923,198.549445 167.630176,195.647069 C164.740823,192.744692 163.297735,189.025726 163.297735,184.483839" id="Fill-12"></path>
                    <path d="M208.798217,172.760074 C208.283283,172.760074 206.763909,172.78856 204.246453,172.845532 L204.246453,184.483523 C206.051901,184.629116 207.510882,184.698748 208.626572,184.698748 C210.829347,184.698748 212.561687,184.160685 213.820416,183.081393 C215.079144,182.005267 215.708508,180.51768 215.708508,178.621799 C215.708508,176.754403 215.130002,175.311127 213.96981,174.288807 C212.812797,173.269652 211.086814,172.760074 208.798217,172.760074 M204.246453,187.974603 L204.246453,199.568283 L200.597412,199.568283 L200.597412,169.398762 C201.798925,169.398762 203.073547,169.386102 204.421276,169.354451 C205.762648,169.32913 207.110377,169.313305 208.454928,169.313305 C212.402757,169.313305 215.234896,170.202692 216.954522,171.98463 C218.699577,173.738083 219.573694,175.963133 219.573694,178.66611 C219.573694,181.280464 218.626469,183.521339 216.738376,185.388735 C214.907499,187.227645 212.243827,188.145518 208.753717,188.145518 C206.922839,188.145518 205.422537,188.088546 204.246453,187.974603" id="Fill-14"></path>
                    <polygon id="Fill-16" points="231.891112 172.846481 221.373103 172.846481 221.373103 169.399711 246.058162 169.399711 246.058162 172.846481 235.540152 172.846481 235.540152 199.569233 231.891112 199.569233"></polygon>
                    <polygon id="Fill-18" points="272.455854 175.432033 254.210652 199.568916 250.993902 199.568916 250.993902 169.399395 254.642942 169.399395 254.642942 193.536278 272.884966 169.399395 276.104894 169.399395 276.104894 199.568916 272.455854 199.568916"></polygon>
                    <path d="M292.159082,200 C290.070738,200 288.128609,199.553724 286.342232,198.664337 C284.552677,197.771785 283.217662,196.638687 282.327652,195.258713 L284.346067,192.802613 C285.290113,193.923051 286.469377,194.828263 287.887035,195.515085 C289.304694,196.208237 290.655601,196.55323 291.946116,196.55323 C294.005853,196.55323 295.658728,196.034158 296.901563,194.999177 C298.147577,193.964197 298.770584,192.558902 298.770584,190.776963 C298.770584,189.283047 298.252471,188.089812 297.225781,187.200425 C296.195913,186.307873 294.746468,185.861597 292.886983,185.861597 L289.412766,185.861597 L289.412766,182.414828 L292.629516,182.414828 C293.945459,182.414828 295.105651,181.940066 296.106912,180.993708 C297.111351,179.987213 297.610393,178.765493 297.610393,177.328548 C297.610393,175.77766 297.111351,174.5686 296.106912,173.707699 C295.105651,172.846798 293.789708,172.416347 292.159082,172.416347 C289.498589,172.416347 287.222706,173.536785 285.334614,175.77766 L283.185876,173.362705 C284.215744,171.982731 285.563474,170.906605 287.222706,170.131161 C288.881939,169.355717 290.655601,168.966412 292.546872,168.966412 C295.207366,168.966412 297.324318,169.678555 298.897728,171.099675 C300.471139,172.52396 301.259433,174.483143 301.259433,176.983554 C301.259433,178.392014 300.881179,179.721347 300.121492,180.971552 C299.364984,182.221758 298.296972,183.190272 296.923814,183.880259 L296.923814,184.010027 C298.668869,184.35502 300.022955,185.16528 300.979716,186.443972 C301.939655,187.722663 302.419624,189.283047 302.419624,191.121957 C302.419624,193.850254 301.418363,196.005672 299.412663,197.585046 C297.41014,199.19607 294.991221,200 292.159082,200" id="Fill-20"></path>
                    <path d="M311.432563,184.483839 C311.432563,187.873637 312.53554,190.747528 314.738314,193.105511 C316.941089,195.403358 319.658797,196.552281 322.894619,196.552281 C326.270299,196.552281 329.016615,195.403358 331.136746,193.105511 C333.282305,190.804499 334.353496,187.930609 334.353496,184.483839 C334.353496,181.037069 333.253698,178.163179 331.050923,175.862167 C328.848149,173.564321 326.127262,172.415397 322.894619,172.415397 C319.601582,172.415397 316.867981,173.55166 314.693814,175.821021 C312.519647,178.090382 311.432563,180.980098 311.432563,184.483839 M307.570556,184.483839 C307.570556,180.116032 309.013644,176.438211 311.902997,173.450378 C314.795529,170.462544 318.457284,168.968628 322.894619,168.968628 C327.300168,168.968628 330.949208,170.418233 333.838561,173.32061 C336.759701,176.222986 338.218681,179.941952 338.218681,184.483839 C338.218681,188.908618 336.759701,192.614924 333.838561,195.602757 C330.9206,198.533619 327.27156,199.99905 322.894619,199.99905 C318.517678,199.99905 314.852744,198.549445 311.902997,195.647069 C309.013644,192.744692 307.570556,189.025726 307.570556,184.483839" id="Fill-22"></path>
                    <path d="M365.863023,199.568916 L362.217161,199.568916 L362.217161,172.846165 L351.311362,172.846165 L350.796428,178.533809 C350.453138,182.271766 350.008133,185.468495 349.464591,188.123995 C348.92105,190.78266 348.336186,192.874777 347.706822,194.397179 C347.074279,195.919582 346.340021,197.096991 345.494512,197.929406 C344.652181,198.764987 343.828922,199.280894 343.027913,199.483459 C342.223726,199.682859 341.308287,199.711345 340.278418,199.568916 L340.322919,195.903756 C340.923675,195.992378 341.43861,195.941737 341.867722,195.754998 C342.296833,195.568258 342.78316,195.128312 343.326702,194.438325 C343.927459,193.723018 344.471,192.643726 344.957327,191.206781 C346.101626,187.987897 346.931242,182.730703 347.449355,175.432033 L347.878467,169.399395 L365.863023,169.399395 L365.863023,199.568916 Z" id="Fill-24"></path>
                    <path d="M233.517923,38.9788826 C232.51984,40.5139453 231.296077,41.9382303 229.846632,43.2010964 C221.38836,50.591553 208.515003,49.7559725 201.092957,41.3337005 C193.670911,32.9114285 194.510063,20.0896983 202.968335,12.7024067 C211.429786,5.31195007 224.303142,6.14753061 231.725189,14.5698026 C233.447994,16.5258207 234.725793,18.7192196 235.568124,21.0297264 L244.112219,25.8343145 C243.673571,20.0643777 241.419939,14.3862281 237.294107,9.70507805 C227.173424,-1.78098928 209.61798,-2.92358236 198.082817,7.15402535 C186.547653,17.2316331 185.403355,34.7123577 195.524038,46.1984251 C205.644722,57.6844924 223.200166,58.8239204 234.732151,48.7494778 C237.704148,46.154114 239.986387,43.0681631 241.562976,39.7195108 L233.517923,38.9788826 Z" id="Fill-26"></path>
                    <path d="M212.913877,21.1895628 C214.938649,23.4874093 214.70979,26.9816552 212.402121,28.9978098 C210.094453,31.0139643 206.585271,30.7860787 204.560499,28.4882322 C202.535727,26.1903858 202.764586,22.6961399 205.072255,20.6799853 C207.379923,18.6638308 210.889105,18.8917164 212.913877,21.1895628" id="Fill-28"></path>
                    <path d="M272.307095,43.0494892 L270.263251,39.9698685 C268.619911,41.0523251 262.815776,44.4294631 257.218249,42.4196387 C255.384193,41.7644676 253.318099,40.3939889 251.544437,38.6658564 C250.416031,37.5327586 249.904276,36.7003431 249.367091,35.8204515 C248.893479,35.0481725 248.403973,34.2505729 247.568,33.3675162 C245.937375,31.6488789 243.705993,30.4683049 240.988284,29.7909783 C240.288991,27.8602808 238.178396,25.9422437 235.292221,24.9104283 C231.201354,23.4513274 227.167703,24.3248889 226.277693,26.8601162 C225.387683,29.3953435 227.981426,32.6363832 232.072293,34.0954841 C235.381222,35.2792232 238.623401,34.9120741 240.225418,33.3960019 C242.18344,33.9024143 243.760029,34.7316647 244.872541,35.9027435 C245.441512,36.5009432 245.778444,37.0485017 246.201199,37.7448188 C246.801956,38.7196627 247.478999,39.82744 248.909372,41.2580551 C250.209422,42.5272513 252.79045,44.7554661 255.9627,45.8948941 C263.184494,48.4807627 270.298215,44.3693266 272.307095,43.0494892" id="Fill-30"></path>
                    <path d="M9.35463921,8.85905276 L9.35463921,25.1402129 C11.5605922,25.3680985 13.8428317,25.5200223 15.9724981,25.5200223 C21.5223453,25.5200223 25.8579647,22.8676871 25.8579647,16.9616519 C25.8579647,11.432261 22.4346054,8.70712902 16.0456061,8.70712902 C14.1447994,8.70712902 11.8657384,8.78309089 9.35463921,8.85905276 L9.35463921,8.85905276 Z M0,53.1606467 L0,0.151923734 C2.96563995,0.151923734 11.4080191,0 15.133346,0 C30.8006979,0 35.7434312,8.33048476 35.7434312,17.0376138 C35.7434312,26.0485903 28.9761777,34.2271513 16.2744658,34.2271513 C14.6788053,34.2271513 11.6368787,34.2271513 9.35463921,33.9992657 L9.35463921,53.1606467 L0,53.1606467 Z" id="Fill-32"></path>
                    <polygon id="Fill-34" points="46.5481507 0.150341195 77.3488486 0.150341195 77.3488486 8.85747022 55.9027899 8.85747022 55.9027899 22.0368542 75.0666091 22.0368542 75.0666091 30.7439832 55.9027899 30.7439832 55.9027899 44.4519351 78.1085356 44.4519351 78.1085356 53.1590641 46.5481507 53.1590641"></polygon>
                    <polygon id="Fill-36" points="123.363947 8.85905276 99.6356488 8.85905276 99.6356488 53.1606467 90.2810096 53.1606467 90.2810096 0.151923734 132.718586 0.151923734 132.718586 53.1606467 123.363947 53.1606467"></polygon>
                    <path d="M156.832449,8.85905276 L156.832449,25.1402129 C159.038402,25.3680985 161.320642,25.5200223 163.450308,25.5200223 C169.000155,25.5200223 173.335775,22.8676871 173.335775,16.9616519 C173.335775,11.432261 169.912416,8.70712902 163.523416,8.70712902 C161.62261,8.70712902 159.343549,8.78309089 156.832449,8.85905276 L156.832449,8.85905276 Z M147.47781,53.1606467 L147.47781,0.151923734 C150.44345,0.151923734 158.885829,0 162.611156,0 C178.278508,0 183.221241,8.33048476 183.221241,17.0376138 C183.221241,26.0485903 176.453988,34.2271513 163.752276,34.2271513 C162.156615,34.2271513 159.114689,34.2271513 156.832449,33.9992657 L156.832449,53.1606467 L147.47781,53.1606467 Z" id="Fill-38"></path>
                    <path d="M9.35463921,79.5925279 L9.35463921,95.8736881 C11.5605922,96.1015737 13.8428317,96.2534974 15.9724981,96.2534974 C21.5223453,96.2534974 25.8579647,93.6011622 25.8579647,87.695127 C25.8579647,82.1657361 22.4346054,79.4406042 16.0456061,79.4406042 C14.1447994,79.4406042 11.8657384,79.516566 9.35463921,79.5925279 L9.35463921,79.5925279 Z M0,123.894122 L0,70.8853989 C2.96563995,70.8853989 11.4080191,70.7334751 15.133346,70.7334751 C30.8006979,70.7334751 35.7434312,79.0639599 35.7434312,87.7710889 C35.7434312,96.7820654 28.9761777,104.960626 16.2744658,104.960626 C14.6788053,104.960626 11.6368787,104.960626 9.35463921,104.732741 L9.35463921,123.894122 L0,123.894122 Z" id="Fill-40"></path>
                    <polygon id="Fill-42" points="46.5481507 70.8841328 77.3488486 70.8841328 77.3488486 79.5912619 55.9027899 79.5912619 55.9027899 92.7706458 75.0666091 92.7706458 75.0666091 101.477775 55.9027899 101.477775 55.9027899 115.185727 78.1085356 115.185727 78.1085356 123.892856 46.5481507 123.892856"></polygon>
                    <path d="M121.690728,79.5925279 L106.17595,79.5925279 L105.111116,89.5878436 C101.992903,120.409371 95.0730769,125.407029 84.5773179,123.894122 L84.8061776,114.65526 C88.9129373,115.183828 94.3133899,113.443035 96.6687374,81.4852444 L97.431603,70.8853989 L130.969081,70.8853989 L130.969081,123.894122 L121.690728,123.894122 L121.690728,79.5925279 Z" id="Fill-44"></path>
                    <path d="M157.439245,101.629066 L173.030311,101.629066 L165.271332,82.771532 L157.439245,101.629066 Z M161.393432,70.7315761 L169.606951,70.7315761 L192.117843,123.892223 L182.15609,123.892223 L176.603065,110.336195 L153.863313,110.336195 L148.313466,123.892223 L138.88254,123.892223 L161.393432,70.7315761 Z" id="Fill-46"></path>
                    <polygon id="Fill-48" points="200.109814 70.8841328 209.464453 70.8841328 209.464453 96.0243458 230.452793 70.8841328 241.708238 70.8841328 219.807639 95.5717397 243.078218 123.892856 231.215658 123.892856 209.464453 96.5560788 209.464453 123.892856 200.109814 123.892856"></polygon>
                    <path d="M288.791031,118.743274 C285.443958,122.303987 278.676705,124.725271 271.756878,124.725271 C255.482412,124.725271 244.300074,113.89754 244.300074,97.3884943 C244.300074,82.1676352 253.95986,70.0517174 271.528018,70.0517174 C278.447845,70.0517174 284.226552,72.2482814 287.726198,75.4260195 L283.543151,82.3195589 C280.348652,80.1989568 276.852184,78.7588464 271.528018,78.7588464 C261.639373,78.7588464 254.188719,85.8771064 254.188719,97.3884943 C254.188719,108.444111 261.71566,116.018142 272.592852,116.018142 C277.077865,116.018142 281.566058,114.578032 285.215098,111.776938 L288.791031,118.743274 Z" id="Fill-50"></path>
                </g>
            </g>
        </g>
    </g>
</svg>