<?xml version="1.0" encoding="UTF-8"?>
<svg width="350.731938px" height="200px" viewBox="0 0 350.731938 200" version="1.1" xmlns="http://www.w3.org/2000/svg" xmlns:xlink="http://www.w3.org/1999/xlink">
    <title>Group 54</title>
    <g id="Desktop" stroke="none" stroke-width="1" fill="none" fill-rule="evenodd">
        <g id="020-Product" transform="translate(-119.998917, -2542.000000)">
            <g id="Group-53" transform="translate(120.000000, 2542.000000)">
                <path d="M91.7897034,184.483839 C91.7897034,187.873637 92.8866567,190.747528 95.0774021,193.105511 C97.2681475,195.403358 99.9710152,196.552281 103.189166,196.552281 C106.546413,196.552281 109.277732,195.403358 111.386285,193.105511 C113.520127,190.804499 114.585468,187.930609 114.585468,184.483839 C114.585468,181.037069 113.491676,178.163179 111.300931,175.862167 C109.110185,173.564321 106.404156,172.415397 103.189166,172.415397 C99.9141127,172.415397 97.1954388,173.55166 95.0331446,175.821021 C92.8708504,178.090382 91.7897034,180.980098 91.7897034,184.483839 M87.9487861,184.483839 C87.9487861,180.116032 89.383993,176.438211 92.2575682,173.450378 C95.1343046,170.462544 98.7760632,168.968628 103.189166,168.968628 C107.570657,168.968628 111.199771,170.418233 114.073346,173.32061 C116.978534,176.222986 118.429547,179.941952 118.429547,184.483839 C118.429547,188.908618 116.978534,192.614924 114.073346,195.602757 C111.17132,198.533619 107.542206,199.99905 103.189166,199.99905 C98.8361269,199.99905 95.191207,198.549445 92.2575682,195.647069 C89.383993,192.744692 87.9487861,189.025726 87.9487861,184.483839" id="Fill-7" fill="#4E515C"></path>
                <path d="M142.99287,169.398445 L147.390167,169.398445 L134.071826,183.577994 L148.072996,199.567967 L143.419638,199.567967 L129.886332,183.83753 L142.99287,169.398445 Z M125.533293,199.567967 L129.162406,199.567967 L129.162406,169.398445 L125.533293,169.398445 L125.533293,199.567967 Z" id="Fill-11" fill="#4E515C"></path>
                <path d="M153.112659,184.483839 C153.112659,187.873637 154.209613,190.747528 156.400358,193.105511 C158.591103,195.403358 161.293971,196.552281 164.512122,196.552281 C167.869369,196.552281 170.600687,195.403358 172.70924,193.105511 C174.843083,190.804499 175.908424,187.930609 175.908424,184.483839 C175.908424,181.037069 174.814632,178.163179 172.623887,175.862167 C170.433141,173.564321 167.727112,172.415397 164.512122,172.415397 C161.237069,172.415397 158.518395,173.55166 156.3561,175.821021 C154.193806,178.090382 153.112659,180.980098 153.112659,184.483839 M149.271742,184.483839 C149.271742,180.116032 150.706949,176.438211 153.580524,173.450378 C156.45726,170.462544 160.099019,168.968628 164.512122,168.968628 C168.893613,168.968628 172.522727,170.418233 175.396302,173.32061 C178.301489,176.222986 179.752503,179.941952 179.752503,184.483839 C179.752503,188.908618 178.301489,192.614924 175.396302,195.602757 C172.494275,198.533619 168.865162,199.99905 164.512122,199.99905 C160.159083,199.99905 156.514163,198.549445 153.580524,195.647069 C150.706949,192.744692 149.271742,189.025726 149.271742,184.483839" id="Fill-13" fill="#4E515C"></path>
                <path d="M194.523754,172.760074 C194.011631,172.760074 192.500554,172.78856 189.996845,172.845532 L189.996845,184.483523 C191.792435,184.629116 193.243448,184.698748 194.353046,184.698748 C196.543792,184.698748 198.266672,184.160685 199.518527,183.081393 C200.770381,182.005267 201.396309,180.51768 201.396309,178.621799 C201.396309,176.754403 200.820961,175.311127 199.667105,174.288807 C198.516411,173.269652 196.799853,172.760074 194.523754,172.760074 M189.996845,187.974603 L189.996845,199.568283 L186.367732,199.568283 L186.367732,169.398762 C187.562684,169.398762 188.830345,169.386102 190.170714,169.354451 C191.504761,169.32913 192.845131,169.313305 194.182339,169.313305 C198.10861,169.313305 200.925282,170.202692 202.635518,171.98463 C204.371044,173.738083 205.240387,175.963133 205.240387,178.66611 C205.240387,181.280464 204.298335,183.521339 202.420553,185.388735 C200.599674,187.227645 197.950547,188.145518 194.479496,188.145518 C192.658617,188.145518 191.166507,188.088546 189.996845,187.974603" id="Fill-15" fill="#4E515C"></path>
                <polygon id="Fill-17" fill="#4E515C" points="217.490858 172.846481 207.030286 172.846481 207.030286 169.399711 231.580544 169.399711 231.580544 172.846481 221.119972 172.846481 221.119972 199.569233 217.490858 199.569233"></polygon>
                <polygon id="Fill-19" fill="#4E515C" points="257.833767 175.432033 239.688199 199.568916 236.489015 199.568916 236.489015 169.399395 240.118129 169.399395 240.118129 193.536278 258.260535 169.399395 261.46288 169.399395 261.46288 199.568916 257.833767 199.568916"></polygon>
                <path d="M277.4294,200 C275.352459,200 273.420936,199.553724 271.644314,198.664337 C269.864531,197.771785 268.536807,196.638687 267.651657,195.258713 L269.65905,192.802613 C270.597941,193.923051 271.770764,194.828263 273.180681,195.515085 C274.590598,196.208237 275.934129,196.55323 277.217596,196.55323 C279.266085,196.55323 280.909935,196.034158 282.145983,194.999177 C283.385192,193.964197 284.004797,192.558902 284.004797,190.776963 C284.004797,189.283047 283.489514,188.089812 282.46843,187.200425 C281.444186,186.307873 280.002656,185.861597 278.153326,185.861597 L274.698081,185.861597 L274.698081,182.414828 L277.897264,182.414828 C279.206021,182.414828 280.359877,181.940066 281.355671,180.993708 C282.354625,179.987213 282.850941,178.765493 282.850941,177.328548 C282.850941,175.77766 282.354625,174.5686 281.355671,173.707699 C280.359877,172.846798 279.05112,172.416347 277.4294,172.416347 C274.783434,172.416347 272.51998,173.536785 270.642198,175.77766 L268.505194,173.362705 C269.529439,171.982731 270.869808,170.906605 272.51998,170.131161 C274.170152,169.355717 275.934129,168.966412 277.815072,168.966412 C280.461037,168.966412 282.566429,169.678555 284.131247,171.099675 C285.696065,172.52396 286.480055,174.483143 286.480055,176.983554 C286.480055,178.392014 286.103866,179.721347 285.348328,180.971552 C284.595951,182.221758 283.533771,183.190272 282.168112,183.880259 L282.168112,184.010027 C283.903637,184.35502 285.250329,185.16528 286.201865,186.443972 C287.156562,187.722663 287.633911,189.283047 287.633911,191.121957 C287.633911,193.850254 286.638117,196.005672 284.643369,197.585046 C282.651783,199.19607 280.246072,200 277.4294,200" id="Fill-21" fill="#4E515C"></path>
                <path d="M296.597632,184.483839 C296.597632,187.873637 297.694585,190.747528 299.88533,193.105511 C302.076076,195.403358 304.778943,196.552281 307.997095,196.552281 C311.354341,196.552281 314.08566,195.403358 316.194213,193.105511 C318.328056,190.804499 319.393397,187.930609 319.393397,184.483839 C319.393397,181.037069 318.299604,178.163179 316.108859,175.862167 C313.918114,173.564321 311.212085,172.415397 307.997095,172.415397 C304.722041,172.415397 302.003367,173.55166 299.841073,175.821021 C297.678779,178.090382 296.597632,180.980098 296.597632,184.483839 M292.756714,184.483839 C292.756714,180.116032 294.191921,176.438211 297.065496,173.450378 C299.942233,170.462544 303.583991,168.968628 307.997095,168.968628 C312.378585,168.968628 316.007699,170.418233 318.881274,173.32061 C321.786462,176.222986 323.237475,179.941952 323.237475,184.483839 C323.237475,188.908618 321.786462,192.614924 318.881274,195.602757 C315.979248,198.533619 312.350134,199.99905 307.997095,199.99905 C303.644055,199.99905 299.999135,198.549445 297.065496,195.647069 C294.191921,192.744692 292.756714,189.025726 292.756714,184.483839" id="Fill-23" fill="#4E515C"></path>
                <path d="M350.730856,199.568916 L347.104903,199.568916 L347.104903,172.846165 L336.258659,172.846165 L335.746536,178.533809 C335.405122,182.271766 334.962547,185.468495 334.421973,188.123995 C333.8814,190.78266 333.29973,192.874777 332.673803,194.397179 C332.044714,195.919582 331.314466,197.096991 330.473573,197.929406 C329.635843,198.764987 328.817079,199.280894 328.020444,199.483459 C327.220648,199.682859 326.310209,199.711345 325.285964,199.568916 L325.330222,195.903756 C325.927698,195.992378 326.43982,195.941737 326.866589,195.754998 C327.293357,195.568258 327.777028,195.128312 328.317602,194.438325 C328.915078,193.723018 329.455651,192.643726 329.939322,191.206781 C331.077372,187.987897 331.902458,182.730703 332.417741,175.432033 L332.84451,169.399395 L350.730856,169.399395 L350.730856,199.568916 Z" id="Fill-25" fill="#4E515C"></path>
                <path d="M233.906171,38.9788826 C232.913539,40.5139453 231.696458,41.9382303 230.254929,43.2010964 C221.842846,50.591553 209.039788,49.7559725 201.658272,41.3337005 C194.276756,32.9114285 195.111326,20.0896983 203.523409,12.7024067 C211.938653,5.31195007 224.741711,6.14753061 232.123227,14.5698026 C233.836624,16.5258207 235.107446,18.7192196 235.945177,21.0297264 L244.442613,25.8343145 C244.006361,20.0643777 241.765036,14.3862281 237.661735,9.70507805 C227.596319,-1.78098928 210.136742,-2.92358236 198.66457,7.15402535 C187.192398,17.2316331 186.054348,34.7123577 196.119764,46.1984251 C206.185181,57.6844924 223.644758,58.8239204 235.113768,48.7494778 C238.069536,46.154114 240.339312,43.0681631 241.907292,39.7195108 L233.906171,38.9788826 Z" id="Fill-27" fill="#4E515C"></path>
                <path d="M213.41464,21.1895628 C215.428356,23.4874093 215.200746,26.9816552 212.905679,28.9978098 C210.610613,31.0139643 207.120594,30.7860787 205.106879,28.4882322 C203.093163,26.1903858 203.320773,22.6961399 205.61584,20.6799853 C207.910906,18.6638308 211.400925,18.8917164 213.41464,21.1895628" id="Fill-29" fill="#4E515C"></path>
                <path d="M272.483522,43.0494892 L270.450839,39.9698685 C268.816474,41.0523251 263.044033,44.4294631 257.477074,42.4196387 C255.653034,41.7644676 253.598222,40.3939889 251.834245,38.6658564 C250.712002,37.5327586 250.203041,36.7003431 249.66879,35.8204515 C249.197764,35.0481725 248.710931,34.2505729 247.879523,33.3675162 C246.257802,31.6488789 244.038606,30.4683049 241.335738,29.7909783 C240.640263,27.8602808 238.541194,25.9422437 235.67078,24.9104283 C231.602253,23.4513274 227.590628,24.3248889 226.705479,26.8601162 C225.820329,29.3953435 228.399908,32.6363832 232.468435,34.0954841 C235.759295,35.2792232 238.983769,34.9120741 240.577038,33.3960019 C242.524368,33.9024143 244.092347,34.7316647 245.198784,35.9027435 C245.764648,36.5009432 246.09974,37.0485017 246.520186,37.7448188 C247.117662,38.7196627 247.791008,39.82744 249.21357,41.2580551 C250.506521,42.5272513 253.073455,44.7554661 256.228381,45.8948941 C263.410738,48.4807627 270.485613,44.3693266 272.483522,43.0494892" id="Fill-31" fill="#4E515C"></path>
                <path d="M10.966372,8.85905276 L10.966372,25.1402129 C13.1571174,25.3680985 15.426894,25.5200223 17.5449307,25.5200223 C23.0676323,25.5200223 27.3764144,22.8676871 27.3764144,16.9616519 C27.3764144,11.432261 23.9749107,8.70712902 17.6208007,8.70712902 C15.7303739,8.70712902 13.4605973,8.78309089 10.966372,8.85905276 L10.966372,8.85905276 Z M1.66281686,53.1606467 L1.66281686,0.151923734 C4.61226197,0.151923734 13.0085387,0 16.7135223,0 C32.2953175,0 37.2110594,8.33048476 37.2110594,17.0376138 C37.2110594,26.0485903 30.4807607,34.2271513 17.8484106,34.2271513 C16.2614637,34.2271513 13.2361486,34.2271513 10.966372,33.9992657 L10.966372,53.1606467 L1.66281686,53.1606467 Z" id="Fill-33" fill="#4E515C"></path>
                <polygon id="Fill-35" fill="#4E515C" points="47.9567762 0.150341195 78.5861156 0.150341195 78.5861156 8.85747022 57.2571701 8.85747022 57.2571701 22.0368542 76.3195002 22.0368542 76.3195002 30.7439832 57.2571701 30.7439832 57.2571701 44.4519351 79.3448153 44.4519351 79.3448153 53.1590641 47.9567762 53.1590641"></polygon>
                <polygon id="Fill-37" fill="#4E515C" points="124.351514 8.85905276 100.752792 8.85905276 100.752792 53.1606467 91.4523981 53.1606467 91.4523981 0.151923734 133.655069 0.151923734 133.655069 53.1606467 124.351514 53.1606467"></polygon>
                <path d="M157.637251,8.85905276 L157.637251,25.1402129 C159.831158,25.3680985 162.100934,25.5200223 164.218971,25.5200223 C169.738511,25.5200223 174.050455,22.8676871 174.050455,16.9616519 C174.050455,11.432261 170.64579,8.70712902 164.29168,8.70712902 C162.404414,8.70712902 160.134637,8.78309089 157.637251,8.85905276 L157.637251,8.85905276 Z M148.336857,53.1606467 L148.336857,0.151923734 C151.283141,0.151923734 159.679418,0 163.384401,0 C178.966196,0 183.885099,8.33048476 183.885099,17.0376138 C183.885099,26.0485903 177.15164,34.2271513 164.522451,34.2271513 C162.932343,34.2271513 159.907028,34.2271513 157.637251,33.9992657 L157.637251,53.1606467 L148.336857,53.1606467 Z" id="Fill-39" fill="#4E515C"></path>
                <path d="M10.966372,79.5925279 L10.966372,95.8736881 C13.1571174,96.1015737 15.426894,96.2534974 17.5449307,96.2534974 C23.0676323,96.2534974 27.3764144,93.6011622 27.3764144,87.695127 C27.3764144,82.1657361 23.9749107,79.4406042 17.6208007,79.4406042 C15.7303739,79.4406042 13.4605973,79.516566 10.966372,79.5925279 L10.966372,79.5925279 Z M1.66281686,123.894122 L1.66281686,70.8853989 C4.61226197,70.8853989 13.0085387,70.7334751 16.7135223,70.7334751 C32.2953175,70.7334751 37.2110594,79.0639599 37.2110594,87.7710889 C37.2110594,96.7820654 30.4807607,104.960626 17.8484106,104.960626 C16.2614637,104.960626 13.2361486,104.960626 10.966372,104.732741 L10.966372,123.894122 L1.66281686,123.894122 Z" id="Fill-41" fill="#4E515C"></path>
                <polygon id="Fill-43" fill="#4E515C" points="47.9567762 70.8841328 78.5861156 70.8841328 78.5861156 79.5912619 57.2571701 79.5912619 57.2571701 92.7706458 76.3195002 92.7706458 76.3195002 101.477775 57.2571701 101.477775 57.2571701 115.185727 79.3448153 115.185727 79.3448153 123.892856 47.9567762 123.892856"></polygon>
                <path d="M122.687433,79.5925279 L107.257378,79.5925279 L106.198359,89.5878436 C103.100335,120.409371 96.2151355,125.407029 85.7766921,123.894122 L86.004302,114.65526 C90.0886354,115.183828 95.4595971,113.443035 97.8052437,81.4852444 L98.5607821,70.8853989 L131.915118,70.8853989 L131.915118,123.894122 L122.687433,123.894122 L122.687433,79.5925279 Z" id="Fill-45" fill="#4E515C"></path>
                <path d="M158.242314,101.629066 L173.745078,101.629066 L166.031631,82.771532 L158.242314,101.629066 Z M162.174907,70.7315761 L170.343574,70.7315761 L192.731538,123.892223 L182.821023,123.892223 L177.301483,110.336195 L154.685909,110.336195 L149.166369,123.892223 L139.786944,123.892223 L162.174907,70.7315761 Z" id="Fill-47" fill="#4E515C"></path>
                <polygon id="Fill-49" fill="#4E515C" points="200.678285 70.8841328 209.98184 70.8841328 209.98184 96.0243458 230.858727 70.8841328 242.052709 70.8841328 220.268544 95.5717397 243.415207 123.892856 231.614266 123.892856 209.98184 96.5560788 209.98184 123.892856 200.678285 123.892856"></polygon>
                <path d="M288.875229,118.743274 C285.546434,122.303987 278.816136,124.725271 271.934097,124.725271 C255.748503,124.725271 244.630391,113.89754 244.630391,97.3884943 C244.630391,82.1676352 254.234265,70.0517174 271.706487,70.0517174 C278.588526,70.0517174 284.335676,72.2482814 287.816211,75.4260195 L283.659169,82.3195589 C280.482114,80.1989568 277.001579,78.7588464 271.706487,78.7588464 C261.875004,78.7588464 254.461875,85.8771064 254.461875,97.3884943 C254.461875,108.444111 261.947712,116.018142 272.765506,116.018142 C277.226028,116.018142 281.692872,114.578032 285.321986,111.776938 L288.875229,118.743274 Z" id="Fill-51" fill="#4E515C"></path>
                <polygon id="Fill-4" fill="#4E515C" points="2.35007234 169.397812 2.35007234 199.570499 5.97918594 199.570499 5.97918594 172.847747 19.0003696 172.847747 19.0003696 169.397812"></polygon>
                <polygon id="Fill-5" fill="#4E515C" points="45.6841544 169.397812 27.5385865 193.537861 27.5385865 169.397812 23.9094729 169.397812 23.9094729 199.570499 27.1118179 199.570499 45.2542246 175.430451 45.2542246 199.570499 48.8864995 199.570499 48.8864995 169.397812"></polygon>
                <polygon id="Fill-6" fill="#4E515C" points="57.8499042 169.397812 57.8499042 199.570499 61.4790178 199.570499 61.4790178 172.847747 77.6993853 172.847747 77.6993853 199.570499 81.3316602 199.570499 81.3316602 169.397812"></polygon>
                <path d="M0,146.381367 L377.996839,146.381367 L0,146.381367 Z" id="Fill-1" fill="#4E515C"></path>
                <line x1="9.28554109e-14" y1="146.380101" x2="350.5" y2="146.5" id="Stroke-2" stroke="#4E515C" stroke-width="6.3301556"></line>
            </g>
        </g>
    </g>
</svg>