<svg width="76" height="27" xmlns="http://www.w3.org/2000/svg"><path d="M41.228 1.448a5.653 5.653 0 0 1 7.948.517 5.557 5.557 0 0 1 1.381 3.266l-1.731-.973a4.1 4.1 0 0 0-.78-1.308 4.146 4.146 0 0 0-5.828-.378 4.092 4.092 0 0 0-.38 5.797 4.145 4.145 0 0 0 6.572-.477l1.63.15a5.579 5.579 0 0 1-1.384 1.828 5.653 5.653 0 0 1-7.947-.516 5.58 5.58 0 0 1 .519-7.906zm5.715 3.99c.18-.513.998-.69 1.827-.394.585.208 1.013.597 1.154.988.551.137 1.003.376 1.334.724.17.179.269.34.365.496.108.179.212.347.44.577.36.35.78.627 1.15.76 1.135.406 2.312-.277 2.645-.496l.414.623c-.407.267-1.849 1.1-3.313.576-.643-.23-1.166-.682-1.43-.939-.29-.29-.426-.514-.548-.711a1.985 1.985 0 0 0-.27-.373c-.225-.237-.544-.405-.941-.507-.325.307-.982.38-1.653.141-.829-.295-1.355-.951-1.174-1.465zM44.234 4.29c.41.465.364 1.173-.104 1.581a1.13 1.13 0 0 1-1.59-.103 1.116 1.116 0 0 1 .105-1.581 1.13 1.13 0 0 1 1.589.103zM2.975 1.794V5.09c.447.046.91.077 1.341.077 1.125 0 2.004-.537 2.004-1.733 0-1.12-.694-1.671-1.989-1.671-.385 0-.847.015-1.356.03zm-1.896 8.97V.03C1.68.03 3.391 0 4.147 0c3.175 0 4.177 1.687 4.177 3.45 0 1.824-1.372 3.48-3.946 3.48-.324 0-.94 0-1.403-.046v3.88H1.08zM10.514.03h6.242v1.762h-4.347v2.669h3.885v1.763H12.41V9h4.502v1.763h-6.397V.03zm15.569 1.763h-4.81v8.97h-1.895V.03h8.601v10.732h-1.896v-8.97zm6.784 0V5.09c.447.046.91.077 1.34.077 1.126 0 2.005-.537 2.005-1.733 0-1.12-.694-1.671-1.99-1.671-.384 0-.846.015-1.355.03zm-1.896 8.97V.03c.6 0 2.312-.031 3.067-.031 3.175 0 4.178 1.687 4.178 3.45 0 1.824-1.372 3.48-3.946 3.48-.324 0-.94 0-1.403-.046v3.88H30.97zM2.466 18.735h4.81c-.37-1.794-1.85-2.79-3.885-2.79-.863 0-1.772.26-2.528.828l-.74-1.41c.756-.645 2.066-1.181 3.715-1.181 3.176 0 5.426 2.177 5.426 5.52 0 3.357-2.189 5.55-5.641 5.55-1.496 0-2.867-.476-3.623-1.12l.817-1.58c.678.522 1.65.936 2.775.936 1.85 0 3.406-1.011 3.73-2.99H2.466v-1.763zM18.283 20.5H13.35v4.585h-1.896V14.35h1.896v4.385h4.933v-4.385h1.88v10.733h-1.88v-4.585zm4.871-6.147h6.243v1.762H25.05v2.668h3.885v1.764H25.05v2.774h4.502v1.764h-6.398V14.352zm25.652 0v8.968h1.465V27h-1.773v-1.916H40.96V27h-1.773v-3.68h1.157c.446-.551 1.48-2.82 1.664-6.822l.108-2.146h6.69zm-13.72-.03c3.176 0 4.177 1.686 4.177 3.448 0 1.825-1.371 3.48-3.946 3.48-.323 0-.94 0-1.402-.045v3.88h-1.896V14.351c.6 0 2.312-.03 3.067-.03zm11.839 1.792H43.95l-.17 1.871c-.2 2.775-.97 4.86-1.356 5.335h4.501v-7.206zm-11.654-.03c-.385 0-.848.015-1.356.03v3.297c.446.046.909.076 1.34.076 1.126 0 2.004-.536 2.004-1.732 0-1.12-.693-1.671-1.988-1.671zm15.632-1.732h2.174l3.915 5.12v-5.12h1.88v5.12l3.9-5.12h2.19l-4.055 5.12 4.224 5.612h-2.188l-4.07-5.566v5.566h-1.88v-5.566l-4.086 5.566h-2.173l4.224-5.596-4.055-5.136zm15.88 10.732V14.352h1.894v7.635l5.658-7.635H76v10.732h-1.897v-7.62l-5.656 7.62h-1.665z" fill="#4E515C" fill-rule="evenodd"/></svg>