<?xml version="1.0" encoding="UTF-8"?>
<svg width="13px" height="13px" viewBox="0 0 13 13" version="1.1" xmlns="http://www.w3.org/2000/svg" xmlns:xlink="http://www.w3.org/1999/xlink">
    <title>Group 95</title>
    <g id="Desktop" stroke="none" stroke-width="1" fill="none" fill-rule="evenodd">
        <g id="Group-95">
            <rect id="Rectangle" fill="#FFFFFF" opacity="0" x="0" y="0" width="13" height="13"></rect>
            <path d="M6.4945,1 C9.536,1 12,3.464 12,6.5 C12,9.536 9.536,12 6.4945,12 C3.4585,12 1,9.536 1,6.5 C1,3.464 3.4585,1 6.4945,1 Z M6.5,2.1 C4.069,2.1 2.1,4.069 2.1,6.5 C2.1,8.931 4.069,10.9 6.5,10.9 C8.931,10.9 10.9,8.931 10.9,6.5 C10.9,4.069 8.931,2.1 6.5,2.1 Z M7.0225,3.5025 L7.0225,6.49656332 L9.59172816,8.02097203 L8.92088129,9.12116089 L5.7025,7.19013212 L5.7025,3.5025 L7.0225,3.5025 Z" id="Shape" fill="#4E515C" fill-rule="nonzero"></path>
        </g>
    </g>
</svg>