<?xml version="1.0" encoding="UTF-8"?>
<svg width="22px" height="22px" viewBox="0 0 22 22" version="1.1" xmlns="http://www.w3.org/2000/svg" xmlns:xlink="http://www.w3.org/1999/xlink">
    <title>Shape</title>
    <g id="Page-1" stroke="none" stroke-width="1" fill="none" fill-rule="evenodd">
        <path d="M18.7781784,3.22183328 C23.0739483,7.51760315 23.0739483,14.4824449 18.7781748,18.7781743 C14.4824013,23.0739478 7.5175596,23.0739478 3.22183012,18.7781743 C-1.07394337,14.4824009 -1.07394337,7.51755915 3.22183012,3.22182966 C7.5176036,-1.07394382 14.4824453,-1.07394382 18.7781784,3.22183328 Z M4.63604288,4.63604967 C1.12132437,8.15073219 1.12132437,13.8492358 4.63605013,17.3639616 C8.15073264,20.8786801 13.8492363,20.8786801 17.363962,17.3639543 C20.8786805,13.8492718 20.8786805,8.15076819 17.3639584,4.63604605 L17.1547228,4.43334817 C13.6266411,1.12267522 8.08185245,1.19024011 4.63604288,4.63604967 Z M8.70705465,7.2929078 L11,9.585 L13.2928503,7.2929078 C13.6833753,6.90238273 14.3165416,6.90238273 14.7070666,7.2929078 C15.0975917,7.68343288 15.0975917,8.31659912 14.7070666,8.7071242 L12.415,11 L14.7070666,13.2929198 C15.0975917,13.6834449 15.0975917,14.3166111 14.7070666,14.7071362 C14.3165416,15.0976613 13.6833753,15.0976613 13.2928503,14.7071362 L11,12.415 L8.70705465,14.7071362 C8.31652958,15.0976613 7.68336333,15.0976613 7.29283826,14.7071362 C6.90231318,14.3166111 6.90231318,13.6834449 7.29283826,13.2929198 L9.585,11 L7.29283826,8.7071242 C6.90231318,8.31659912 6.90231318,7.68343288 7.29283826,7.2929078 C7.68336333,6.90238273 8.31652958,6.90238273 8.70705465,7.2929078 Z" id="Shape" fill="#4E515C" fill-rule="nonzero"></path>
    </g>
</svg>