<?xml version="1.0" encoding="UTF-8"?>
<svg width="160px" height="256px" viewBox="0 0 160 256" version="1.1" xmlns="http://www.w3.org/2000/svg" xmlns:xlink="http://www.w3.org/1999/xlink">
    <title>3</title>
    <defs>
        <polygon id="path-1" points="0 0 160 0 160 256 0 256"></polygon>
        <linearGradient x1="50%" y1="0%" x2="50%" y2="100%" id="linearGradient-3">
            <stop stop-color="#FFFFFF" offset="0%"></stop>
            <stop stop-color="#FFFFFF" stop-opacity="0" offset="100%"></stop>
        </linearGradient>
    </defs>
    <g id="Desktop" stroke="none" stroke-width="1" fill="none" fill-rule="evenodd">
        <g id="3">
            <mask id="mask-2" fill="white">
                <use xlink:href="#path-1"></use>
            </mask>
            <g id="Mask"></g>
            <path d="M123.858083,240 C105.464128,240 89.141393,236.825095 74.8898781,230.475285 C60.6383631,224.125475 49.4461734,215.361217 41.3133089,204.18251 C33.1804444,193.003802 29.0760081,180.152091 29,165.627376 L92.8467869,165.627376 C92.9227949,170.114068 94.3099424,174.125475 97.0082292,177.661597 C99.706516,181.197719 103.41191,183.954373 108.124411,185.931559 C112.836912,187.908745 118.233485,188.897338 124.314132,188.897338 C130.166754,188.897338 135.335303,187.851711 139.81978,185.760456 C144.304257,183.669202 147.800628,180.760456 150.308895,177.034221 C152.817162,173.307985 154.033291,169.04943 153.957283,164.258555 C154.033291,159.543726 152.608139,155.361217 149.681828,151.711027 C146.755517,148.060837 142.670083,145.209125 137.425526,143.155894 C132.180968,141.102662 126.138326,140.076046 119.297599,140.076046 L95.5830777,140.076046 L95.5830777,96.2737643 L119.297599,96.2737643 C125.606269,96.2737643 131.173861,95.2471483 136.000374,93.1939163 C140.826887,91.1406844 144.589287,88.2889734 147.287574,84.6387833 C149.985861,80.9885932 151.297,76.8060837 151.220992,72.0912548 C151.297,67.5285171 150.194883,63.4980989 147.914641,60 C145.634398,56.5019011 142.461061,53.7642586 138.394629,51.7870722 C134.328196,49.8098859 129.634697,48.8212928 124.314132,48.8212928 C118.537518,48.8212928 113.38797,49.8479087 108.86549,51.9011407 C104.343009,53.9543726 100.789631,56.8060837 98.2053565,60.4562738 C95.6210818,64.1064639 94.2909404,68.2889734 94.2149323,73.0038023 L33.5604848,73.0038023 C33.6364929,58.7072243 37.569911,46.0836502 45.3607391,35.1330798 C53.1515673,24.1825095 63.8497045,15.5893536 77.4551507,9.35361217 C91.060597,3.11787072 106.680257,0 124.314132,0 C141.567966,0 156.826588,2.92775665 170.089998,8.78326996 C183.353408,14.6387833 193.728511,22.6806084 201.215306,32.9087452 C208.702102,43.1368821 212.407496,54.8288973 212.331488,67.9847909 C212.483504,81.0646388 208.018029,91.7870722 198.935064,100.152091 C189.852098,108.51711 178.355876,113.460076 164.446398,114.980989 L164.446398,116.806084 C183.296402,118.859316 197.471908,124.619772 206.972918,134.087452 C216.473928,143.555133 221.148425,155.437262 220.996409,169.73384 C221.072417,183.422053 216.986983,195.551331 208.740106,206.121673 C200.49323,216.692015 189.054014,224.980989 174.422458,230.988593 C159.790903,236.996198 142.936111,240 123.858083,240 Z" id="Path" fill="url(#linearGradient-3)" fill-rule="nonzero" opacity="0.5" mask="url(#mask-2)"></path>
        </g>
    </g>
</svg>