<?xml version="1.0" encoding="UTF-8"?>
<svg width="13px" height="14px" viewBox="0 0 13 14" version="1.1" xmlns="http://www.w3.org/2000/svg" xmlns:xlink="http://www.w3.org/1999/xlink">
    <title>belki-white</title>
    <defs>
        <path d="M0,0 L12,0 L12,14 L0,14 L0,0 Z" id="path-1"></path>
    </defs>
    <g id="belki" stroke="none" fill="none" transform="translate(0.1039, 0)" xlink:href="#path-1" fill-rule="nonzero">
        <path d="M10.9682976,0 L10.9604023,0.0407888054 C10.9235578,0.240149198 10.7781534,1.13554517 10.9682976,1.95348837 C11.1837943,2.88049067 11.8471851,5.42635659 11.8471851,5.42635659 C12.1725422,6.58397933 11.9401448,7.50193827 11.5091514,7.8501292 L8.70347214,9.47803618 L8.70347214,9.44186047 L7.62176447,10.0568475 C7.51190408,10.1744192 7.39781745,10.1653747 7.18232073,10.1653747 C6.6414669,10.1653747 6.10061306,9.83979328 5.55975923,9.26098191 C5.55975923,9.26098191 5.01784904,8.64034238 4.44028687,7.98663598 L4.20856058,7.72478262 C4.09294673,7.59436693 3.97860685,7.46576227 3.869591,7.34366925 C3.91607059,7.50000008 3.96341252,7.66260627 4.01017546,7.82650443 L4.10250231,8.15454681 C4.34437098,9.02604521 4.54243892,9.83979328 4.47805156,9.83979328 C4.80340868,10.8798455 4.57946166,11.8068478 4.03860782,12.1550388 L1.03010837,14 C1.03010837,14 1.24560509,12.8559434 1.03010837,12.0465116 C0.920247974,11.2370798 0.151220888,8.57364341 0.151220888,8.57364341 C-0.174136227,7.53359231 0.0498107936,6.60658886 0.590664628,6.25839793 L3.2949338,4.63049096 L3.2949338,4.66666667 L4.71467511,3.79844961 C4.82453659,3.68087913 4.90481877,3.68992248 5.12031549,3.68992248 C5.55130893,3.68992248 6.22737622,4.05167959 6.87809045,4.63049096 C6.87809045,4.63049096 7.49077617,5.29521993 7.95979812,5.82428941 C7.7358511,4.96963853 7.52035438,4.16020672 7.52035438,4.16020672 C7.19499727,3.12015562 7.41894429,2.19315217 7.95979812,1.84496124 L10.9682976,0 Z M5.12031549,4.84754522 L3.73437754,5.7881137 C3.84423902,5.7881137 3.82733733,5.88759748 3.93719773,6.00516796 C4.17145524,6.21354005 4.53056872,6.60475866 4.8942821,7.02016926 L5.13611946,7.2989526 C5.69583822,7.94968475 6.20202316,8.57364341 6.20202316,8.57364341 C6.6330166,9.0348843 6.97105025,9.15245478 7.08091064,9.15245478 L8.50065195,8.2118863 L8.2640284,7.99483204 C7.72317457,7.41602067 6.10906445,5.54392823 5.99920297,5.42635659 C5.56821061,4.96511686 5.23017697,4.84754522 5.12031549,4.84754522 Z" id="Combined-Shape" fill="#FFFFFF"></path>
    </g>
</svg>