<?xml version="1.0" encoding="UTF-8"?>
<svg width="37px" height="32px" viewBox="0 0 37 32" version="1.1" xmlns="http://www.w3.org/2000/svg" xmlns:xlink="http://www.w3.org/1999/xlink">
    <title>Mask</title>
    <g id="Desktop" stroke="none" stroke-width="1" fill="none" fill-rule="evenodd">
        <g id="040-Articles" transform="translate(-760, -717)" fill="#FFFFFF" fill-rule="nonzero">
            <g id="Group-6" transform="translate(56, 412)">
                <g id="Group-28" transform="translate(672, 0)">
                    <path d="M49.242,305 C51.462,305 53.435321,305.646299 55.162,306.938935 C56.888679,308.231571 58.048,309.897041 58.64,311.935421 C59.330679,311.835976 59.824,311.786272 60.12,311.786272 C62.586679,311.786272 64.683321,312.631461 66.41,314.321802 C68.136679,316.012144 69,318.075394 69,320.511479 C69,322.947565 68.136679,325.010815 66.41,326.701156 C64.683321,328.391497 62.586679,329.236686 60.12,329.236686 L57.2728972,329.236686 L55.4781487,332.332482 L56.8478399,332.332482 L52.9749394,337 L54.4390727,333.046901 L53.0221701,333.046901 L54.2973805,329.236686 L38.734,329.236686 C36.908679,329.236686 35.33,328.590387 33.998,327.297751 C32.666,326.005116 32,324.463924 32,322.674137 C32,320.834648 32.653679,319.268585 33.961,317.975949 C35.268321,316.683313 36.859321,316.037014 38.734,316.037014 C38.783321,316.037014 38.906679,316.049431 39.104,316.074301 C39.301321,316.099172 39.424679,316.111589 39.474,316.111589 C39.424679,315.813291 39.4,315.340974 39.4,314.694675 C39.4,312.009995 40.362,309.723059 42.286,307.833828 C44.21,305.944597 46.528679,305 49.242,305 Z M49.242,308 C47.3134656,308 45.7499385,308.636968 44.3878908,309.974401 C43.0376602,311.300232 42.4,312.81613 42.4,314.694675 C42.4,315.189836 42.4173973,315.52291 42.4338153,315.622208 C42.7359673,317.449649 41.326252,319.111589 39.474,319.111589 C39.2472078,319.111589 39.0693662,319.093672 38.7288447,319.050752 C38.7035744,319.047567 38.6804182,319.04471 38.6595351,319.042191 L38.636,319.039 L38.5044786,319.042208 C37.6016559,319.083844 36.8790492,319.376826 36.2308624,319.95792 L36.0703049,320.109217 C35.3330149,320.838225 35,321.636063 35,322.674137 C35,323.644187 35.331579,324.4115 36.0872698,325.144858 C36.8620456,325.896737 37.6924049,326.236686 38.734,326.236686 L60.12,326.236686 C61.8065331,326.236686 63.1485933,325.695692 64.3113573,324.557398 C65.4602248,323.432708 66,322.142725 66,320.511479 C66,318.880233 65.4602248,317.59025 64.3113573,316.465561 C63.1485933,315.327267 61.8065331,314.786272 60.12,314.786272 C60.0043788,314.786272 59.6257717,314.824425 59.0675356,314.9048 C57.587291,315.117928 56.1761428,314.208295 55.7590417,312.772128 C55.3494552,311.361837 54.5717465,310.244583 53.3641135,309.340519 C52.1604514,308.439427 50.8187798,308 49.242,308 Z" id="Mask"></path>
                </g>
            </g>
        </g>
    </g>
</svg>