<?xml version="1.0" encoding="UTF-8"?>
<svg width="36px" height="32px" viewBox="0 0 36 32" version="1.1" xmlns="http://www.w3.org/2000/svg" xmlns:xlink="http://www.w3.org/1999/xlink">
    <title>decision</title>
    <g id="Desktop" stroke="none" stroke-width="1" fill="none" fill-rule="evenodd">
        <g id="040-Articles" transform="translate(-528, -1407)" fill="#4E515C" fill-rule="nonzero">
            <g id="Group" transform="translate(56, 1061)">
                <g id="Group-50-Copy" transform="translate(448, 314)">
                    <g id="decision" transform="translate(24, 32)">
                        <path d="M5.95696721,2.27202613 C8.3545082,-0.117154591 11.4159836,-0.0806785493 12.6147541,0.0469875962 C15.1598361,0.320557908 16.9303279,1.67017145 18,2.80092873 C19.0696721,1.65193342 20.8401639,0.320557908 23.3852459,0.0469875962 C24.5840164,-0.0806785493 27.6454918,-0.117154591 30.0430328,2.27202613 C32.6618852,4.8800631 32.3668033,8.23585893 32.2745902,8.89242767 L32.2745902,8.94714174 C34.5245902,10.5156115 36,13.0871725 36,16.0052558 L35.9631148,16.0052558 C35.9631148,18.9233391 34.4877049,21.4949 32.2377049,23.0633698 C32.2561475,23.0816078 32.2561475,23.0998459 32.2561475,23.1180839 C32.3483607,23.7746526 32.6434426,27.1304485 30.0245902,29.7384854 C28.0881148,31.6534776 25.7459016,32 24.2704918,32 C23.920082,32 23.6065574,31.963524 23.3668033,31.9452859 C20.8217213,31.6717156 19.0512295,30.3221021 17.9815574,29.1913448 C16.9118852,30.3403401 15.1413934,31.6717156 12.5963115,31.9452859 C12.3565574,31.981762 12.0614754,32 11.692623,32 C10.2172131,32 7.85655738,31.6534776 5.93852459,29.7384854 C3.31967213,27.1304485 3.6147541,23.7746526 3.70696721,23.1180839 C3.72540984,23.0998459 3.72540984,23.0816078 3.72540984,23.0633698 C1.47540984,21.4949 0,18.9233391 0,16.0052558 C0,13.0871725 1.47540984,10.5156115 3.72540984,8.94714174 L3.72540984,8.89242767 C3.63319672,8.23585893 3.33811475,4.8800631 5.95696721,2.27202613 Z M12.3565574,2.80092873 C11.545082,2.70973863 9.49795082,2.67326259 7.94877049,4.22349435 C6.76844262,5.39072768 6.5102459,6.8132933 6.47336066,7.70695632 C7.2295082,7.50633809 8.00409836,7.36043393 8.81557377,7.36043393 C9.57172131,7.36043393 10.1987705,7.98052663 10.1987705,8.72828549 C10.1987705,9.47604434 9.57172131,10.096137 8.81557377,10.096137 C5.51434426,10.096137 2.82172131,12.7588881 2.82172131,16.0234938 C2.82172131,19.2880995 5.51434426,21.9508506 8.81557377,21.9508506 C9.57172131,21.9508506 10.1987705,22.5709433 10.1987705,23.3187021 C10.1987705,24.066461 9.57172131,24.6865537 8.81557377,24.6865537 C8.00409836,24.6865537 7.2295082,24.5406495 6.47336066,24.3400313 C6.5102459,25.2336943 6.76844262,26.6562599 7.94877049,27.8234932 C9.49795082,29.355487 11.545082,29.337249 12.3565574,29.2460589 C15.2151639,28.9360125 16.6721311,26.5468318 16.8381148,26.2732615 C16.8565574,26.2367854 16.8934426,26.2185474 16.8934426,26.2003094 C16.9487705,26.1273573 17.0040984,26.0726432 17.0778689,25.9996912 C17.1331967,25.9267391 17.2069672,25.872025 17.2807377,25.817311 C17.317623,25.7990729 17.3360656,25.7625969 17.3545082,25.7625969 C17.4098361,25.7261209 17.4651639,25.7261209 17.5204918,25.7078828 C17.6127049,25.6714068 17.6864754,25.6166927 17.7786885,25.6166927 C17.8709016,25.5984547 17.9631148,25.5984547 18.0553279,25.5984547 L18.295082,25.5984547 C18.3872951,25.6166927 18.4795082,25.6531688 18.5717213,25.6896448 C18.6270492,25.7078828 18.6639344,25.7261209 18.7192623,25.7443589 C18.7377049,25.7625969 18.7561475,25.7990729 18.7745902,25.7990729 C18.8483607,25.853787 18.9036885,25.9085011 18.977459,25.9814531 C19.0512295,26.0361672 19.1065574,26.1091193 19.1618852,26.1820714 C19.1803279,26.2185474 19.2172131,26.2367854 19.2172131,26.2550235 C19.3831967,26.5285938 20.8401639,28.9360125 23.6987705,29.2278208 C24.5102459,29.3190109 26.557377,29.355487 28.1065574,27.8052552 C29.2868852,26.6380219 29.545082,25.2154563 29.5819672,24.3217933 C28.8258197,24.5224115 28.0512295,24.6683156 27.2397541,24.6683156 C26.4836066,24.6683156 25.8565574,24.0482229 25.8565574,23.3004641 C25.8565574,22.5527052 26.4836066,21.9326125 27.2397541,21.9326125 L27.2581967,21.9690886 C30.5594262,21.9690886 33.2520492,19.3063375 33.2520492,16.0417318 C33.2520492,12.7771261 30.5594262,10.1143751 27.2581967,10.1143751 C26.5020492,10.1143751 25.875,9.49428236 25.875,8.74652351 C25.875,7.99876466 26.5020492,7.37867195 27.2581967,7.37867195 C28.0696721,7.37867195 28.8442623,7.52457612 29.6004098,7.72519434 C29.5635246,6.83153133 29.3053279,5.40896571 28.125,4.24173238 C26.557377,2.70973863 24.5286885,2.72797665 23.7172131,2.81916675 C20.8586066,3.12921311 19.4016393,5.51839383 19.2356557,5.79196414 C19.2172131,5.82844018 19.1803279,5.8466782 19.1803279,5.86491622 C19.125,5.93786831 19.0696721,5.99258237 18.9959016,6.06553445 C18.9221311,6.13848654 18.8483607,6.1932006 18.7745902,6.24791466 C18.7561475,6.26615268 18.7377049,6.30262872 18.7192623,6.30262872 C18.682377,6.33910476 18.6270492,6.33910476 18.5717213,6.35734279 C18.4795082,6.39381883 18.3872951,6.43029487 18.295082,6.44853289 L18.0553279,6.44853289 C17.9631148,6.44853289 17.8709016,6.43029487 17.7786885,6.43029487 C17.6864754,6.41205685 17.6127049,6.37558081 17.5204918,6.33910476 C17.4651639,6.32086674 17.4098361,6.32086674 17.3545082,6.2843907 C17.317623,6.26615268 17.2991803,6.22967664 17.2807377,6.22967664 C17.2069672,6.17496258 17.1516393,6.12024852 17.0778689,6.04729643 C17.0040984,5.99258237 16.9487705,5.91963029 16.8934426,5.8466782 C16.875,5.81020216 16.8381148,5.79196414 16.8381148,5.77372612 C16.6721311,5.50015581 15.2151639,3.09273707 12.3565574,2.80092873 Z M8.74180328,13.2513146 C9.27663934,12.722412 10.1618852,12.722412 10.6967213,13.2513146 L11.5635246,14.1085016 L12.4303279,13.2513146 C12.9651639,12.722412 13.8504098,12.722412 14.3852459,13.2513146 C14.920082,13.7802172 14.920082,14.6556422 14.3852459,15.1845448 L13.5184426,16.0417318 L14.3852459,16.8989188 C14.920082,17.4278214 14.920082,18.3032464 14.3852459,18.832149 C14.1086066,19.1057193 13.7581967,19.2333855 13.4077869,19.2333855 C13.057377,19.2333855 12.7069672,19.1057193 12.4303279,18.832149 L11.5635246,17.974962 L10.6967213,18.832149 C10.420082,19.1057193 10.0696721,19.2333855 9.7192623,19.2333855 C9.36885246,19.2333855 9.01844262,19.1057193 8.74180328,18.832149 C8.20696721,18.3032464 8.20696721,17.4278214 8.74180328,16.8989188 L9.60860656,16.0417318 L8.74180328,15.1845448 C8.20696721,14.6556422 8.20696721,13.7802172 8.74180328,13.2513146 Z M25.3401639,13.2513146 C25.875,12.722412 26.7602459,12.722412 27.295082,13.2513146 C27.829918,13.7802172 27.829918,14.6556422 27.295082,15.1845448 L23.6065574,18.832149 C23.329918,19.1057193 22.9795082,19.2333855 22.6290984,19.2333855 C22.2786885,19.2333855 21.9282787,19.1057193 21.6516393,18.832149 L19.807377,17.0083469 C19.272541,16.4794443 19.272541,15.6040193 19.807377,15.0751167 C20.3422131,14.5462141 21.227459,14.5462141 21.7622951,15.0751167 L22.6290984,15.9323037 Z" id="Combined-Shape"></path>
                    </g>
                </g>
            </g>
        </g>
    </g>
</svg>