<svg width="143" height="27" xmlns="http://www.w3.org/2000/svg" xmlns:xlink="http://www.w3.org/1999/xlink"><defs><radialGradient cx="50%" cy="50%" fx="50%" fy="50%" r="50%" gradientTransform="matrix(0 1 -.6213 0 .81 0)" id="d"><stop stop-color="#FF1F78" offset="0%"/><stop stop-color="#FF1F78" stop-opacity="0" offset="100%"/></radialGradient><radialGradient cx="50%" cy="50%" fx="50%" fy="50%" r="50%" gradientTransform="matrix(0 1 -.53 0 .765 0)" id="g"><stop stop-color="#4AD6FC" offset="0%"/><stop stop-color="#4AD6FC" stop-opacity="0" offset="100%"/></radialGradient><radialGradient cx="50%" cy="50%" fx="50%" fy="50%" r="50%" gradientTransform="matrix(0 1 -.5176 0 .759 0)" id="j"><stop stop-color="#FFF" offset="0%"/><stop stop-color="#FFF" stop-opacity="0" offset="100%"/></radialGradient><ellipse id="c" cx="24.332" cy="21.655" rx="20.792" ry="12.918"/><ellipse id="f" cx="25.392" cy="21.722" rx="22.561" ry="11.956"/><ellipse id="i" cx="34.813" cy="22.747" rx="32.236" ry="16.685"/><path d="M22.975 8.53h.494c1.668 0 3.023 1.38 3.023 3.079v3.782c0 1.7-1.355 3.08-3.023 3.08h-3.964c-.94 0-1.386.486-1.386 1.412v4.037c0 1.7-1.356 3.08-3.024 3.08h-3.713c-1.669 0-3.024-1.38-3.024-3.08v-4.037c0-1.005-.485-1.412-1.394-1.412h-3.94C1.355 18.463 0 17.082 0 15.383v-3.782c0-1.7 1.355-3.08 3.024-3.08H6.98c.877 0 1.394-.502 1.394-1.436V3.08c0-1.7 1.355-3.08 3.024-3.08h3.713c1.668 0 3.023 1.38 3.023 3.08v4.013c0 .981.353 1.436 1.363 1.436h.697l-2.036 2.833c-1.56-.128-2.805-1.46-2.805-3.08V4.26c0-.982-.368-1.429-1.402-1.429h-1.41c-.877 0-1.386.48-1.386 1.429v4.02c0 1.7-1.355 3.08-3.024 3.08H4.183c-1.018 0-1.402.679-1.402 1.437v1.42c0 .854.509 1.42 1.386 1.42h3.964c1.669 0 3.024 1.38 3.024 3.08v4.03c0 .909.446 1.42 1.37 1.42h1.418c.878 0 1.403-.543 1.403-1.437v-4.013c0-1.7 1.355-3.08 3.023-3.08h3.964c.956 0 1.386-.494 1.386-1.436v-1.42c0-.973-.5-1.42-1.417-1.42h-1.363l2.036-2.833z" id="a"/></defs><g fill="none" fill-rule="evenodd"><path d="m58.602 5.717 6.312 15.55h-2.915l-1.468-3.688h-7.035l-1.447 3.687h-2.78l6.22-15.549h3.113zm-4.12 9.309h5.042L57.005 8.65l-2.523 6.376zM77.993 8.275h-8.17v12.991h-2.739V5.717h13.653v15.55h-2.738V8.274zM96.025 8.275h-5.171v12.991h-2.738V8.276h-5.085V5.722h12.994zM108.123 14.537h-7.056v4.177h8.107v2.552H98.329V5.717h10.604V8.27h-7.866v3.71h7.056zM46.955 14.537h-7.057v4.177h8.107v2.552H37.16V5.717h10.604V8.27h-7.866v3.71h7.057zM115.173 21.266h-2.737V5.717h2.737v6.528h2.3l4.929-6.528h3.333l-5.852 7.397 6.795 8.152h-3.504l-5.568-6.729h-2.433zM136.283 5.717l6.312 15.55h-2.914l-1.469-3.688h-7.035l-1.447 3.687h-2.78l6.22-15.549h3.113zm-4.12 9.309h5.042l-2.518-6.376-2.524 6.376zM23.874 8.53h.494c1.668 0 3.024 1.38 3.024 3.079v3.782c0 1.7-1.356 3.08-3.024 3.08h-3.964c-.94 0-1.386.486-1.386 1.412v4.037c0 1.7-1.355 3.08-3.024 3.08h-3.713c-1.669 0-3.024-1.38-3.024-3.08v-4.037c0-1.005-.485-1.412-1.394-1.412h-3.94C2.254 18.463.899 17.082.899 15.383v-3.782c0-1.7 1.355-3.08 3.024-3.08h3.956c.877 0 1.394-.502 1.394-1.436V3.08c0-1.7 1.355-3.08 3.024-3.08h3.713c1.668 0 3.023 1.38 3.023 3.08v4.013c0 .981.353 1.436 1.363 1.436h.697l-2.036 2.833c-1.559-.128-2.805-1.46-2.805-3.08V4.26c0-.982-.368-1.429-1.402-1.429h-1.41c-.877 0-1.386.48-1.386 1.429v4.02c0 1.7-1.355 3.08-3.024 3.08H5.082c-1.018 0-1.402.679-1.402 1.437v1.42c0 .854.51 1.42 1.386 1.42H9.03c1.669 0 3.024 1.38 3.024 3.08v4.03c0 .909.446 1.42 1.37 1.42h1.418c.878 0 1.403-.543 1.403-1.437v-4.013c0-1.7 1.355-3.08 3.023-3.08h3.964c.956 0 1.387-.494 1.387-1.436v-1.42c0-.973-.502-1.42-1.418-1.42h-1.363l2.036-2.833z" fill="#8168F0" fill-rule="nonzero"/><g transform="translate(.9)"><mask id="b" fill="#fff"><use xlink:href="#a"/></mask><g mask="url(#b)"><g transform="translate(-19.57 5.715)"><mask id="e" fill="#fff"><use xlink:href="#c" transform="rotate(29.639 24.332 21.655)"/></mask><ellipse fill="url(#d)" fill-rule="nonzero" mask="url(#e)" transform="rotate(29.639 24.332 21.655)" cx="24.332" cy="21.655" rx="20.792" ry="12.918"/></g><g transform="translate(-7.14 -20.299)"><mask id="h" fill="#fff"><use xlink:href="#f" transform="rotate(29.733 25.392 21.722)"/></mask><ellipse fill="url(#g)" fill-rule="nonzero" mask="url(#h)" transform="rotate(29.733 25.392 21.722)" cx="25.392" cy="21.722" rx="22.561" ry="11.956"/></g><g transform="translate(-.512 -25.652)"><mask id="k" fill="#fff"><use xlink:href="#i" transform="rotate(11.253 34.813 22.747)"/></mask><ellipse fill="url(#j)" fill-rule="nonzero" mask="url(#k)" transform="rotate(11.253 34.813 22.747)" cx="34.813" cy="22.747" rx="32.236" ry="16.685"/></g></g></g></g></svg>