<?xml version="1.0" encoding="UTF-8"?>
<svg width="37px" height="32px" viewBox="0 0 37 32" version="1.1" xmlns="http://www.w3.org/2000/svg" xmlns:xlink="http://www.w3.org/1999/xlink">
    <title>ic-cloud</title>
    <g id="Desktop" stroke="none" stroke-width="1" fill="none" fill-rule="evenodd">
        <path d="M17.242,0 C19.462,0 21.435321,0.646299208 23.162,1.93893491 C24.888679,3.23157061 26.048,4.89704113 26.64,6.93542103 C27.330679,6.83597604 27.824,6.78627219 28.12,6.78627219 C30.586679,6.78627219 32.683321,7.63146137 34.41,9.32180246 C36.136679,11.0121435 37,13.075394 37,15.5114793 C37,17.9475646 36.136679,20.010815 34.41,21.7011561 C32.683321,23.3914972 30.586679,24.2366864 28.12,24.2366864 L25.2728972,24.2366864 L23.4781487,27.3324824 L24.8478399,27.3324824 L20.9749394,32 L22.4390727,28.0469013 L21.0221701,28.0469013 L22.2973805,24.2366864 L6.734,24.2366864 C4.908679,24.2366864 3.33,23.5903872 1.998,22.2977515 C0.666,21.0051158 0,19.4639235 0,17.6741375 C0,15.8346475 0.653679,14.2685847 1.961,12.975949 C3.268321,11.6833133 4.859321,11.0370141 6.734,11.0370141 C6.783321,11.0370141 6.906679,11.0494308 7.104,11.0743013 C7.301321,11.0991719 7.424679,11.1115885 7.474,11.1115885 C7.424679,10.8132909 7.4,10.3409738 7.4,9.69467456 C7.4,7.00999545 8.362,4.72305901 10.286,2.83382795 C12.21,0.944596887 14.528679,0 17.242,0 Z M17.242,3 C15.3134656,3 13.7499385,3.63696754 12.3878908,4.97440145 C11.0376602,6.30023183 10.4,7.81613026 10.4,9.69467456 C10.4,10.1898357 10.4173973,10.5229103 10.4338153,10.6222081 C10.7359673,12.4496493 9.32625198,14.1115885 7.474,14.1115885 C7.24720777,14.1115885 7.06936618,14.0936717 6.72884469,14.050752 C6.70357441,14.0475669 6.68041823,14.0447097 6.65953509,14.042191 L6.636,14.039 L6.50447861,14.0422079 C5.60165592,14.0838437 4.87904919,14.3768259 4.23086239,14.95792 L4.07030487,15.1092172 C3.33301492,15.838225 3,16.6360626 3,17.6741375 C3,18.6441872 3.33157904,19.4114997 4.08726981,20.1448577 C4.8620456,20.8967367 5.69240487,21.2366864 6.734,21.2366864 L28.12,21.2366864 C29.8065331,21.2366864 31.1485933,20.6956917 32.3113573,19.5573981 C33.4602248,18.4327084 34,17.1427254 34,15.5114793 C34,13.8802332 33.4602248,12.5902502 32.3113573,11.4655605 C31.1485933,10.3272669 29.8065331,9.78627219 28.12,9.78627219 C28.0043788,9.78627219 27.6257717,9.82442464 27.0675356,9.9048003 C25.587291,10.1179281 24.1761428,9.20829486 23.7590417,7.77212832 C23.3494552,6.36183653 22.5717465,5.24458328 21.3641135,4.3405186 C20.1604514,3.43942658 18.8187798,3 17.242,3 Z" id="ic-cloud" fill="#4E515C" fill-rule="nonzero"></path>
    </g>
</svg>