<?xml version="1.0" encoding="UTF-8"?>
<svg width="85px" height="80px" viewBox="0 0 85 80" version="1.1" xmlns="http://www.w3.org/2000/svg" xmlns:xlink="http://www.w3.org/1999/xlink">
    <title>Group</title>
    <g id="Symbols" stroke="none" stroke-width="1" fill="none" fill-rule="evenodd">
        <g id="Group" fill="#C8AB6D" transform="translate(0, -0)">
            <path d="M35.2863152,27.4910894 C37.7751655,30.3206078 37.4926037,34.6264466 34.6566061,37.1096108 C31.8206084,39.5916242 27.5049097,39.3108587 25.0160594,36.4813403 C22.5283624,33.651822 22.8097709,29.3459831 25.6457685,26.862819 C28.4817662,24.3808055 32.7974649,24.6615711 35.2863152,27.4910894" id="Fill-1"></path>
            <path d="M59.9966312,60.2435411 C59.4015215,59.2907793 58.9805621,58.4588388 58.659941,57.728158 C54.0570673,62.4931175 47.5985123,65.461868 40.4410494,65.461868 C26.4628911,65.461868 15.1304337,54.1553013 15.1304337,40.2090783 C15.1304337,26.2617046 26.4628911,14.9551379 40.4410494,14.9551379 C54.420361,14.9551379 65.7528184,26.2617046 65.7528184,40.2090783 C65.7528184,42.3884633 65.4748698,44.504561 64.9547255,46.522851 C65.6686265,47.2846002 66.2914157,48.0992805 66.8057935,48.9714948 C67.5715936,50.2706108 67.9406539,51.3695087 68.2359021,52.2509285 C68.3604599,52.6237483 68.4677181,52.9367328 68.5968892,53.250868 C70.4444972,49.2867807 71.4824793,44.8693261 71.4824793,40.2090783 C71.4824793,23.1042428 57.5850529,9.23741661 40.4410494,9.23741661 C23.2981991,9.23741661 9.39961947,23.1042428 9.39961947,40.2090783 C9.39961947,57.312763 23.2981991,71.1795893 40.4410494,71.1795893 C48.7091531,71.1795893 56.2149166,67.9484841 61.7785004,62.6910342 C61.0657527,61.822272 60.4694897,60.9788246 59.9966312,60.2435411" id="Fill-3"></path>
            <path d="M83.660546,61.566246 C83.2672662,61.4753424 82.8785996,61.5317256 82.5395254,61.6893686 L82.5314522,61.6675057 C80.7991755,62.3038309 74.7892594,64.1460671 70.110267,61.1497004 C68.5786668,60.170473 66.985941,58.4939345 65.7369026,56.5538906 C64.9480363,55.289295 64.6585546,54.4274368 64.3552332,53.5160994 C64.0876645,52.7163779 63.8120226,51.8901908 63.2376725,50.9155661 C62.1154986,49.0123439 60.3324761,47.4750375 57.9981698,46.2909893 C57.7721204,44.3923699 56.2555132,42.2106835 53.8416283,40.669925 C50.4220541,38.4882386 46.5561476,38.4307047 45.2044643,40.5445011 C43.852781,42.6571467 45.5285454,46.1402504 48.9481196,48.3219368 C51.7137651,50.0882283 54.749286,50.4368838 56.5334618,49.3978212 C58.2115328,50.2711861 59.4732576,51.3528239 60.2390577,52.6473372 C60.6311843,53.310128 60.8203277,53.8774125 61.0590635,54.5965865 C61.3981377,55.6068822 61.7798844,56.7541086 62.7786538,58.352401 C63.6943846,59.7757903 65.5742854,62.3372006 68.2245996,64.035602 C74.2610419,67.8972789 81.6261012,65.663812 83.737818,64.8882547 L83.7343581,64.8790493 C84.3225479,64.7145023 84.8069395,64.2542309 84.9545637,63.6236591 C85.1713866,62.7019656 84.5912699,61.7802722 83.660546,61.566246" id="Fill-5"></path>
            <path d="M22.6657221,6.948487 C22.7568338,6.71374859 22.7291543,6.4675034 22.5849901,6.20975142 C22.437366,5.94854741 22.2389961,5.7943565 21.9921871,5.74948004 C21.7442247,5.70460358 21.4570496,5.77249361 21.1329686,5.9543008 L20.2506838,6.44794187 L21.1606481,8.06694647 L22.0429328,7.57330541 C22.3670139,7.39149821 22.5757636,7.18322541 22.6657221,6.948487 M21.8918488,4.64367803 C22.2747488,4.61145903 22.6195895,4.67474635 22.9263709,4.83584133 C23.2343056,4.99693632 23.4845746,5.25008558 23.6794845,5.59759048 C23.8709346,5.93934198 23.9574331,6.28339485 23.9355201,6.63089974 C23.9147605,6.97840464 23.7902026,7.30634801 23.5618466,7.61242848 C23.3323372,7.91850895 23.0117161,8.18661703 22.5976766,8.41905408 L21.6554195,8.94606482 L22.3797004,10.2313727 L21.2967391,10.8377802 L18.6752577,6.17408039 L20.6981694,5.0406621 C21.1122089,4.80937573 21.5101021,4.6770477 21.8918488,4.64367803" id="Fill-7"></path>
            <polygon id="Fill-9" points="30.9296738 5.51036905 31.2456817 6.45277472 27.3105764 7.76569885 25.6094392 2.69465884 29.4511261 1.41280302 29.7671339 2.35405801 27.0937535 3.24583382 27.4639671 4.3481838 29.8236463 3.55996905 30.1292743 4.47245707 27.7695952 5.26067182 28.162875 6.43436386"></polygon>
            <polygon id="Fill-11" points="37.6704446 0.0303779116 38.3209134 5.33845769 37.0972479 5.48689521 36.5701836 1.1799057 34.1678318 1.47332871 34.6960494 5.77916754 33.4723839 5.92875574 32.8219151 0.620675966"></polygon>
            <path d="M44.2533268,2.87899753 C44.4609232,2.7363134 44.5762545,2.51653381 44.6016274,2.2231108 C44.6281536,1.9239344 44.5508816,1.68574396 44.3721181,1.50969015 C44.1922012,1.33248567 43.9165593,1.2289246 43.5463457,1.19670561 L42.5383498,1.11040472 L42.3791925,2.95954502 L43.3860351,3.04584591 C43.757402,3.0780649 44.0457304,3.02168166 44.2533268,2.87899753 M44.913022,0.539668202 C45.2474829,0.727228792 45.4965986,0.973473985 45.6592158,1.27840378 C45.8229863,1.58448425 45.8875719,1.93429051 45.8529725,2.3301239 C45.8195264,2.72135458 45.6961218,3.05390066 45.4827589,3.33006349 C45.2693959,3.60622632 44.9810675,3.80644437 44.6200804,3.93071765 C44.25794,4.05499092 43.8404406,4.09756603 43.3687354,4.0561416 L42.292694,3.96408732 L42.1658296,5.43235305 L40.9294776,5.32649063 L41.3896496,0 L43.7008897,0.197916697 C44.1749015,0.238190443 44.5774079,0.352107611 44.913022,0.539668202" id="Fill-13"></path>
            <path d="M51.31518,5.99434442 C51.6012017,5.92875574 51.8514707,5.79297568 52.0671403,5.58700424 C52.2805033,5.37988211 52.4362006,5.1186781 52.5319256,4.80224152 C52.628804,4.48465426 52.6449503,4.18087515 52.5803648,3.89090417 C52.5169326,3.59978252 52.3843015,3.34778394 52.1813184,3.13490842 C51.9794885,2.92318358 51.7269129,2.77129402 51.4235915,2.67923975 C51.1214234,2.58833615 50.8261751,2.57452801 50.5401534,2.64011668 C50.2541317,2.70570535 50.0027094,2.84148541 49.7893464,3.04745686 C49.5736768,3.25457898 49.4191328,3.51578299 49.3222545,3.83221957 C49.2265295,4.14980683 49.2115364,4.45358595 49.2738153,4.74355692 C49.3384009,5.03467857 49.4710319,5.28667716 49.6728617,5.49955267 C49.8758449,5.71127751 50.1284205,5.86316707 50.4305886,5.95522135 C50.7339101,6.04612495 51.028005,6.05993309 51.31518,5.99434442 M48.7894237,6.18535704 C48.4318965,5.82749604 48.1920073,5.41095043 48.0720628,4.93572022 C47.9521182,4.46049002 47.9694179,3.97260235 48.1205019,3.47090653 C48.2738926,2.96806004 48.5310815,2.55266512 48.8943752,2.22357107 C49.2588222,1.89447703 49.6890081,1.67930016 50.1860862,1.57919113 C50.6831643,1.48023278 51.197542,1.51015042 51.7303728,1.67009473 C52.2620503,1.83118972 52.7072293,2.09009237 53.0624498,2.44795337 C53.4176703,2.8046637 53.6575595,3.22120931 53.7786574,3.69759019 C53.9009086,4.1728204 53.8870689,4.66300943 53.7336782,5.16355456 C53.5825941,5.66640105 53.3230986,6.08179598 52.9574983,6.40973934 C52.5907446,6.73883338 52.1605587,6.95285958 51.6657873,7.05411929 C51.1710158,7.15422831 50.6577914,7.12431067 50.1261139,6.96436636 C49.5921298,6.80327138 49.1469508,6.54436872 48.7894237,6.18535704" id="Fill-15"></path>
            <path d="M61.9769856,10.4897 L62.4659905,8.32757515 L60.5883963,9.51162329 L61.9769856,10.4897 Z M61.7532429,11.4815848 L59.7199513,10.0501408 L58.6692828,10.7129316 L57.6324541,9.98225078 L62.6747403,6.98818541 L63.674663,7.69240063 L62.5421092,13.4400396 L61.4787543,12.6909479 L61.7532429,11.4815848 Z" id="Fill-17"></path>
            <polygon id="Fill-19" points="71.2375155 14.7748266 67.2851105 18.3868063 66.4524183 17.478921 69.6597828 14.5492936 68.026691 12.7680434 64.8181732 15.6988214 63.9854809 14.7920868 67.9390392 11.1801071"></polygon>
            <path d="M71.5644799,22.8326827 C71.8182088,22.9811202 72.0938507,23.0524623 72.3914056,23.0478596 C72.6889604,23.0432569 72.9830553,22.9592574 73.2690771,22.7935597 C73.5574054,22.627862 73.7776883,22.4172878 73.9299256,22.1618372 C74.082163,21.9063866 74.1582817,21.6325251 74.1559751,21.3391021 C74.1548217,21.0456791 74.0752431,20.7626122 73.9160859,20.4887507 C73.7592352,20.2160399 73.5527922,20.0054657 73.2990632,19.8570282 C73.0453343,19.7097414 72.7696924,19.6372486 72.4709842,19.6418513 C72.1734293,19.6453034 71.8804877,19.7304536 71.5933127,19.8961513 C71.3061377,20.061849 71.0858548,20.2724231 70.9336174,20.5278737 C70.7802268,20.7833244 70.7041081,21.0571858 70.7064147,21.3506089 C70.707568,21.6440319 70.7883,21.9270988 70.9463039,22.2009602 C71.1043078,22.473671 71.3107509,22.6842452 71.5644799,22.8326827 M69.5911607,21.2481985 C69.5750143,20.7430506 69.6868857,20.2758752 69.9244682,19.8466721 C70.1632041,19.4186197 70.5103514,19.0734162 70.9659102,18.8110615 C71.4203157,18.5487068 71.8931742,18.4221321 72.3844857,18.4301869 C72.8757972,18.4382416 73.3371225,18.5751724 73.7673084,18.8421298 C74.1986477,19.1079365 74.5538682,19.481907 74.8318167,19.9617399 C75.1097652,20.4427235 75.256236,20.9352139 75.2712291,21.4380604 C75.2850689,21.9420576 75.1731975,22.4080824 74.9367682,22.8395868 C74.6991857,23.2699405 74.3531916,23.6162948 73.8976329,23.8786494 C73.4420741,24.1410041 72.9692156,24.2664281 72.4755974,24.256072 C71.9842859,24.2457159 71.5229606,24.1087851 71.0927747,23.8441291 C70.6625888,23.5806237 70.3096749,23.2089546 70.0317264,22.727971 C69.7526245,22.2469874 69.6050004,21.7533463 69.5911607,21.2481985" id="Fill-21"></path>
            <polygon id="Fill-23" points="77.803444 29.7221399 77.2533135 28.1019846 73.1348314 29.4920042 72.7415515 28.3344217 76.8611869 26.9432514 76.3145164 25.3300002 77.2717665 25.0066596 78.7606941 29.3987993"></polygon>
            <polygon id="Fill-25" points="75.7131788 37.0970684 74.7282492 37.2397525 74.1331394 33.1421865 79.4372277 32.3758346 80.0173444 36.375593 79.0324147 36.5171264 78.628755 33.7347859 77.476595 33.9016343 77.8329688 36.3583328 76.8780253 36.4964142 76.5228048 34.0397157 75.294526 34.2169202"></polygon>
            <polygon id="Fill-27" points="76.878948 41.6966754 76.9216206 40.8417213 74.7660778 40.7347082 74.8272034 39.5069343 80.1797309 39.7738917 80.1186053 41.0016656 77.9549894 40.8935018 77.9100101 41.7795243 80.0032739 43.2903651 79.9386884 44.5952345 77.4417649 42.7196286 74.582701 44.3812083 74.6530531 42.9773805"></polygon>
            <path d="M75.5387978,49.7310577 L77.7312466,49.3824021 L75.933231,48.0821354 L75.5387978,49.7310577 Z M74.5319552,49.8921527 L75.1097652,47.4768786 L74.1029226,46.7508004 L74.3981709,45.5161224 L79.0552503,49.0774723 L78.7715352,50.2661232 L73.0015084,51.3500623 L73.3036765,50.0866173 L74.5319552,49.8921527 Z" id="Fill-29"></path>
            <path d="M5.29094051,30.9792561 C5.49853692,30.8377227 5.65423423,30.5880255 5.75803243,30.2313151 L6.03713427,29.2624439 L4.24257864,28.7457892 L3.96232348,29.7158112 C3.85967859,30.0725215 3.85967859,30.3659445 3.96232348,30.5972309 C4.06612169,30.8285173 4.25987834,30.9850095 4.54474675,31.0667077 C4.83422841,31.1495566 5.0833441,31.1207896 5.29094051,30.9792561 L5.29094051,30.9792561 Z M1.25665027,30.1461649 L2.97739385,29.5673737 L2.99354024,29.5086891 L3.2922484,28.4730784 L1.85867986,28.0611355 L2.20121394,26.8724847 L7.35191154,28.3511065 L6.70951598,30.575368 C6.57803825,31.0310367 6.38889486,31.4038565 6.13977917,31.6961288 C5.89066347,31.9872505 5.60118181,32.1840165 5.26902756,32.2841255 C4.9368733,32.3853852 4.57934615,32.3807825 4.19759942,32.2714681 C3.81469937,32.1610029 3.51137795,31.974593 3.28763515,31.7110877 C3.06273904,31.4475823 2.92549475,31.126543 2.87590227,30.7468191 L0.888743299,31.423418 L1.25665027,30.1461649 Z" id="Fill-31"></path>
            <polygon id="Fill-33" points="0.990696203 38.626205 0 38.5341507 0.382900046 34.4112697 5.7192811 34.9049108 5.34560757 38.9288334 4.35491136 38.8367791 4.61440688 36.0383291 3.45532692 35.931316 3.22581755 38.4029734 2.26626081 38.3143711 2.49577018 35.8427138 1.25941822 35.7276459"></polygon>
            <path d="M3.02629434,44.4894871 C3.20505791,44.6666916 3.44148716,44.740335 3.73673539,44.7127187 C4.03659687,44.6828011 4.25687972,44.5654319 4.39873727,44.3571591 C4.53944151,44.1477356 4.59249392,43.860066 4.55558789,43.4895475 L4.45870957,42.4861559 L2.60764158,42.6645111 L2.7045199,43.6690534 C2.74027262,44.0395718 2.84753076,44.3122826 3.02629434,44.4894871 M5.4517124,44.7115681 C5.32830786,45.0740318 5.13109128,45.3628521 4.85890931,45.5780289 C4.58788067,45.7943565 4.25341978,45.9209311 3.85783329,45.9589035 C3.46686005,45.9980266 3.11625278,45.9370406 2.80485817,45.7770963 C2.49461686,45.617152 2.24550117,45.3720575 2.05635778,45.0395114 C1.86836769,44.7069653 1.75072973,44.3065292 1.70459719,43.8336004 L1.60079899,42.7623187 L0.130324413,42.9050029 L0.0103798205,41.6726262 L5.34560757,41.1571223 L5.56935036,43.4607806 C5.61432959,43.9325587 5.57627024,44.3491043 5.4517124,44.7115681" id="Fill-35"></path>
            <path d="M5.89585338,51.0636584 C5.99503834,50.832372 5.99042508,50.538949 5.88432025,50.1822387 L5.5959919,49.2156688 L3.80604952,49.7484329 L4.09322455,50.7138522 C4.2004827,51.0705625 4.35963995,51.3179584 4.57184961,51.4571904 C4.78290596,51.5964225 5.03086834,51.6228881 5.31458344,51.5388886 C5.60291178,51.4537384 5.79666843,51.2949448 5.89585338,51.0636584 L5.89585338,51.0636584 Z M2.04839991,52.5330748 L3.1844136,51.1200417 L3.1671139,51.0613571 L2.85917923,50.0291985 L1.42791731,50.4537988 L1.0738501,49.2674493 L6.21070794,47.7416497 L6.87270983,49.9601578 C7.00764749,50.4146758 7.05032009,50.8300707 6.99842099,51.2109453 C6.94536857,51.5895185 6.80812428,51.9117084 6.58322817,52.1740631 C6.35717874,52.4387192 6.05501063,52.6262798 5.6732639,52.7401969 C5.29151717,52.8529634 4.93514333,52.8587168 4.60414239,52.7586078 C4.27314144,52.6573481 3.98365978,52.4605821 3.73685072,52.1671591 L2.42784002,53.8068759 L2.04839991,52.5330748 Z" id="Fill-37"></path>
            <path d="M6.27517816,59.1297994 C6.52429385,59.285141 6.79762912,59.3656885 7.09518398,59.3714419 C7.39389215,59.3760446 7.68914038,59.3000998 7.98208198,59.1436075 C8.27387026,58.9871153 8.49991969,58.7834452 8.66023025,58.5325973 C8.82169413,58.2817494 8.905886,58.0101893 8.91280588,57.7167662 C8.92087908,57.4244939 8.84937365,57.137975 8.69944291,56.8606615 C8.55066548,56.5821973 8.35114226,56.364719 8.10202657,56.2093775 C7.85291088,56.0540359 7.5795756,55.9734884 7.28086744,55.9688857 C6.98331258,55.9631323 6.68806435,56.039077 6.39512275,56.1955693 C6.10333446,56.3520616 5.87728504,56.5557317 5.71582116,56.8065796 C5.5555106,57.0574275 5.47131873,57.3289876 5.46439884,57.6224106 C5.45632565,57.9146829 5.52783108,58.2012019 5.67776182,58.4785154 C5.82653925,58.7569796 6.02606247,58.9744578 6.27517816,59.1297994 M4.35145142,57.4843292 C4.35260474,56.9791813 4.4783159,56.5154579 4.72973822,56.0943096 C4.98116053,55.674312 5.33868769,55.3394645 5.80116635,55.0920687 C6.26479834,54.8435221 6.74111677,54.7307556 7.23242827,54.7537692 C7.72258646,54.7779334 8.17929857,54.929823 8.60256458,55.2082872 C9.02467728,55.4879021 9.36721136,55.8722287 9.63132013,56.361267 C9.89427558,56.851456 10.0246,57.3473985 10.0234543,57.8513956 C10.0222934,58.3542421 9.89658221,58.8179655 9.6463132,59.2402645 C9.39489088,59.6637142 9.03851704,59.9997123 8.57488506,60.2471082 C8.11240639,60.4956548 7.63493465,60.6072706 7.14246983,60.580805 C6.65115832,60.55549 6.19444622,60.4047512 5.77348683,60.126287 C5.35137413,59.8501241 5.00999337,59.4657975 4.7458846,58.9767592 C4.48292915,58.4888715 4.35145142,57.9906277 4.35145142,57.4843292" id="Fill-39"></path>
            <path d="M14.3529851,67.8507915 L15.1637645,65.787625 L13.1281663,66.6747981 L14.3529851,67.8507915 Z M13.9804649,68.7977999 L12.1882159,67.0763849 L11.0498956,67.573478 L10.1341648,66.6943597 L15.5720374,64.4942624 L16.4554755,65.3423125 L14.4637032,70.8529116 L13.5272128,69.9519304 L13.9804649,68.7977999 Z" id="Fill-41"></path>
            <path d="M20.7543358,71.8530814 C21.0046048,71.8220131 21.2087413,71.6816303 21.3678985,71.4330837 C21.5305157,71.1799345 21.5731883,70.9336893 21.4959163,70.6943482 C21.4197976,70.455007 21.2237343,70.2352274 20.9100331,70.0350094 L20.0588878,69.4918892 L19.0566585,71.0568119 L19.9078038,71.5999321 C20.2226583,71.8001502 20.5040668,71.8841497 20.7543358,71.8530814 M22.4266402,70.0867899 C22.6365432,70.4078292 22.7414948,70.741526 22.7449641,71.0867295 C22.746108,71.4330837 22.6411565,71.7736846 22.4266402,72.108532 C22.2144305,72.4387767 21.9503218,72.6758165 21.6331606,72.8219526 C21.3159994,72.9669381 20.9676988,73.0118146 20.589412,72.9542807 C20.2111252,72.8967467 19.8213053,72.7414052 19.4222588,72.4859545 L18.5122946,71.9060126 L17.7165083,73.1475947 L16.6716064,72.4813518 L19.5571965,67.9764456 L21.5120627,69.2226304 C21.9122624,69.478081 22.2178905,69.7657506 22.4266402,70.0867899" id="Fill-43"></path>
            <path d="M27.0615761,76.5359975 C27.352211,76.4911211 27.6117065,76.3737519 27.8400626,76.1827392 C28.0684187,75.9905759 28.2414157,75.7420294 28.3602069,75.4324969 C28.4789982,75.1229644 28.5159042,74.8203359 28.4720783,74.5257623 C28.4305591,74.2323392 28.3140744,73.9711352 28.1272376,73.7456023 C27.9415542,73.5189186 27.7005117,73.3497689 27.4041101,73.2370024 C27.1088619,73.1253866 26.8159203,73.0908662 26.5252853,73.1357427 C26.2358037,73.1806191 25.9751548,73.2979883 25.7467988,73.489001 C25.5184427,73.6800136 25.3442924,73.9308615 25.2266545,74.2392433 C25.1090165,74.5487758 25.0709571,74.8514043 25.1147831,75.1459779 C25.1574557,75.4405516 25.272787,75.6994543 25.4596238,75.9261379 C25.6453072,76.1528216 25.8863497,76.3219713 26.1827513,76.4347378 C26.4779995,76.5475043 26.7709411,76.580874 27.0615761,76.5359975 M24.5277465,76.548655 C24.1967456,76.1666297 23.9879959,75.7339746 23.9014974,75.2518404 C23.8149989,74.7697061 23.866898,74.2841198 24.0537347,73.7939307 C24.2405715,73.302591 24.5277465,72.9067576 24.9141065,72.6041292 C25.2993132,72.3015008 25.7444922,72.1173922 26.2473368,72.0529542 C26.7490281,71.9873656 27.2610993,72.0541049 27.7812436,72.2520216 C28.301388,72.4499383 28.7258073,72.7399093 29.0545016,73.1207838 C29.3843492,73.5028091 29.593099,73.9343135 29.6819041,74.4187492 C29.7707092,74.9008834 29.7211167,75.3876204 29.5331267,75.8789601 C29.3462899,76.3691492 29.0591149,76.7649826 28.6704482,77.0664603 C28.2806283,77.3679381 27.8366027,77.5520466 27.3360646,77.6176353 C26.8355266,77.6843746 26.3257621,77.6176353 25.8056178,77.4197186 C25.2854734,77.2218019 24.8599008,76.9318309 24.5277465,76.548655" id="Fill-45"></path>
            <polygon id="Fill-47" points="33.3651257 74.9845378 31.6766749 74.6899641 31.8508252 73.6957779 36.450239 74.5001021 36.2760887 75.4931376 34.5864846 75.198564 33.8368309 79.4721838 32.615472 79.2581576"></polygon>
            <polygon id="Fill-49" points="43.1633303 74.5676469 43.2567487 79.9148498 42.0169368 79.935562 41.9777241 77.7435195 39.5430796 77.7860946 39.5822922 79.9781371 38.341327 80 38.2490619 74.6527972 39.4888738 74.6320849 39.5257799 76.7389772 41.9604244 76.6975528 41.9235184 74.5895098"></polygon>
            <polygon id="Fill-51" points="50.5192784 77.6157942 50.7314881 78.5858162 46.6752849 79.4660852 45.5369646 74.2408543 49.4951361 73.3812974 49.7061925 74.3524701 46.9532334 74.9496722 47.2000425 76.0842412 49.6323804 75.5560798 49.8365169 76.4973347 47.4053323 77.0243455 47.6694411 78.2337086"></polygon>
            <polygon id="Fill-53" points="54.687353 74.9429983 54.3171394 75.9130202 54.845357 77.1569036 53.7093433 77.6378872 51.6206927 72.7129834 52.7555531 72.2331505 53.7312562 74.5345074 54.941082 71.3103063 56.2097267 70.7740902 55.0967793 73.8325935 58.4194752 75.6472135 57.0873982 76.2098953"></polygon>
            <path d="M62.0052418,70.9477276 L60.1553271,69.7211043 L60.5947396,71.8924346 L62.0052418,70.9477276 Z M62.8540805,71.5104093 L60.7884962,72.8946755 L61.0353053,74.109792 L59.9800235,74.8174592 L58.9743342,69.0491081 L59.9915566,68.3679064 L64.9692572,71.4724369 L63.8886026,72.1973644 L62.8540805,71.5104093 Z" id="Fill-55"></path>
            <path d="M9.01637343,16.613956 C8.46624294,17.3641984 8.57926765,18.4170692 9.33122798,18.9647921 C10.082035,19.5125151 11.0761911,19.3560228 11.624015,18.6080818 C12.1729922,17.8589901 12.0207548,16.8636532 11.2711011,16.317081 C10.5191408,15.769358 9.52037138,15.9258503 9.01637343,16.613956" id="Fill-57"></path>
        </g>
    </g>
</svg>