<?xml version="1.0" encoding="UTF-8"?>
<svg width="48px" height="32px" viewBox="0 0 48 32" version="1.1" xmlns="http://www.w3.org/2000/svg" xmlns:xlink="http://www.w3.org/1999/xlink">
    <title>Combined Shape</title>
    <g id="Desktop" stroke="none" stroke-width="1" fill="none" fill-rule="evenodd">
        <g id="040-Articles" transform="translate(-976, -1093)" fill="#4E515C">
            <g id="Group" transform="translate(56, 1061)">
                <g id="Group-44-Copy" transform="translate(896, 0)">
                    <path d="M29.4256761,35.9744654 C36.0408991,30.1448634 46.1100162,30.805742 51.9166217,37.447164 C54.2815233,40.1559503 55.5777495,43.4399459 55.8296806,46.7728954 L50.9251509,43.9947575 C50.4416058,42.6607618 49.7101929,41.3920381 48.7227855,40.2620173 C44.4643373,35.3910972 37.0811308,34.905637 32.2294254,39.1809504 C27.3777201,43.4521844 26.8941749,50.8687109 31.1526231,55.739631 C35.407008,60.610551 42.7942779,61.0919318 47.6459833,56.8206978 C48.4749178,56.0863883 49.1778869,55.2623298 49.750827,54.3770788 L54.3668548,54.805426 C53.4607155,56.7431874 52.1522992,58.5259278 50.4497326,60.0271829 C43.8304461,65.8527054 33.761329,65.1959063 27.958787,58.5544843 C22.1521815,51.9089828 22.8104531,41.7999879 29.4256761,35.9744654 Z M45.5959955,47.368502 C46.1079845,45.8998829 48.4241253,45.3981047 50.7687099,46.2425607 C52.426579,46.8381673 53.6334103,47.9477907 54.0356873,49.0614935 C55.5960348,49.4531253 56.8760073,50.1384808 57.8105904,51.1297987 C58.2900722,51.6397359 58.5704471,52.1047987 58.8426952,52.5494639 L59.0289942,52.8535986 C59.2826807,53.2588069 59.5732954,53.6713257 60.0901605,54.1935014 C61.1100751,55.1970578 62.2925259,55.9884803 63.3449478,56.3678736 C66.5550376,57.5264509 69.8829661,55.5764511 70.8297394,54.9522879 L72,56.7309489 C70.8500564,57.4938149 66.7663346,59.872162 62.6257251,58.3749864 C60.8053197,57.7181873 59.3262404,56.4290661 58.5785739,55.6947565 C57.7577661,54.8666185 57.3717427,54.2261374 57.0263533,53.6631667 C56.782549,53.2592965 56.591569,52.9451752 56.2624332,52.5984179 C55.6244786,51.9212213 54.7224027,51.4398406 53.5968396,51.1461167 C52.6785101,52.0232087 50.8174707,52.2353426 48.9198607,51.5540665 C46.5752761,50.7096105 45.0880699,48.8371211 45.5959955,47.368502 Z M37.9328204,44.0889939 C39.0949542,45.4189101 38.9608618,47.4382614 37.6402553,48.6049977 C36.3155853,49.771734 34.3001365,49.6371106 33.1420661,48.3112739 C31.9799324,46.9813577 32.1099613,44.9579269 33.4346313,43.7952701 C34.7593012,42.6285338 36.7706866,42.7590777 37.9328204,44.0889939 Z" id="Combined-Shape"></path>
                </g>
            </g>
        </g>
    </g>
</svg>