<svg width="54" height="25" xmlns="http://www.w3.org/2000/svg"><path d="M39.281 1.434a5.485 5.485 0 0 1 7.776.511 5.535 5.535 0 0 1 1.352 3.233l-1.694-.963a4.069 4.069 0 0 0-.762-1.294 4.023 4.023 0 0 0-5.703-.375 4.085 4.085 0 0 0-.372 5.74 4.022 4.022 0 0 0 5.702.373c.287-.253.53-.538.728-.846l1.595.149a5.517 5.517 0 0 1-1.354 1.81 5.485 5.485 0 0 1-7.775-.512 5.57 5.57 0 0 1 .507-7.826zm5.591 3.95c.177-.508.977-.683 1.788-.39.572.206.99.59 1.13.977.538.136.98.373 1.304.717.125.133.21.256.285.375l.072.117c.107.176.208.343.432.57.352.347.761.621 1.125.753 1.11.403 2.261-.274 2.587-.491l.405.617-.126.08c-.518.318-1.807.964-3.115.49-.63-.228-1.14-.675-1.399-.929a3.254 3.254 0 0 1-.484-.619l-.053-.085c-.084-.14-.15-.25-.263-.37-.22-.234-.534-.4-.922-.502-.317.304-.96.378-1.617.14-.81-.292-1.325-.942-1.149-1.45zm-2.65-1.137c.402.46.356 1.161-.101 1.565a1.097 1.097 0 0 1-1.555-.102 1.114 1.114 0 0 1 .101-1.565 1.097 1.097 0 0 1 1.555.102zM1.855 1.776v3.263c.437.046.89.076 1.312.076 1.101 0 1.96-.531 1.96-1.715 0-1.108-.678-1.655-1.945-1.655l-.235.002-1.092.029zM0 10.656V.03L2.815 0H3c3.107 0 4.087 1.67 4.087 3.415 0 1.806-1.342 3.446-3.86 3.446l-.332-.002a12.193 12.193 0 0 1-1.04-.044v3.84H0zM9.23.03h6.108v1.745h-4.253v2.642h3.801v1.745h-3.8V8.91h4.403v1.745H9.231V.03zm15.233 1.746h-4.705v8.88h-1.855V.03h8.415v10.626h-1.855v-8.88zm6.637 0v3.263c.438.046.89.076 1.313.076 1.1 0 1.96-.531 1.96-1.715 0-1.108-.679-1.655-1.946-1.655l-.234.002-1.093.029zm-1.854 8.88V.03L32.06 0h.186c3.107 0 4.088 1.67 4.088 3.415 0 1.806-1.343 3.446-3.86 3.446l-.332-.002a12.194 12.194 0 0 1-1.042-.044v3.84h-1.854zm-27.39 9.411v3.02l.599.042c.192.012.38.02.576.02 1.373 0 1.946-.638 1.946-1.579 0-.91-.558-1.594-1.855-1.594-.278 0-.623.02-.99.058l-.277.033zM0 14.208h6.168v1.746H1.855v2.368c.407-.061 1.04-.091 1.418-.091 2.201 0 3.543 1.244 3.543 3.202 0 2.201-1.478 3.46-4.072 3.46-1.22 0-2.126-.06-2.744-.06V14.209zm9.26 10.625V14.208h1.855v7.56l5.536-7.56h1.629v10.625h-1.856V17.29l-5.534 7.543H9.26zm16.652-1.578c2.217 0 3.544-1.64 3.544-3.734 0-2.201-1.554-3.734-3.544-3.734-2.021 0-3.53 1.533-3.53 3.734 0 2.125 1.554 3.734 3.53 3.734zm0-9.214c3.137 0 5.504 2.17 5.504 5.48 0 3.187-2.367 5.479-5.504 5.479-3.137 0-5.49-2.17-5.49-5.48 0-3.08 2.247-5.479 5.49-5.479zm7.647.167h1.87l3.605 4.964 3.439-4.964h1.749v10.625h-1.84v-7.68l-3.333 4.72h-.272l-3.363-4.675v7.635h-1.855V14.208z" fill="#4E515C" fill-rule="evenodd"/></svg>