<svg width="378" height="200" xmlns="http://www.w3.org/2000/svg"><path d="M378 143.215v6.33H0v-6.33h378zM2.35 169.398v30.172h3.63v-26.722H19v-3.45H2.35zm43.334 0-18.145 24.14v-24.14h-3.63v30.172h3.203l18.142-24.14v24.14h3.632v-30.172h-3.202zm12.166 0v30.172h3.629v-26.722h16.22v26.722h3.633v-30.172H57.85zm33.94 15.086c0 3.39 1.097 6.264 3.287 8.622 2.191 2.297 4.894 3.446 8.112 3.446 3.357 0 6.089-1.149 8.197-3.446 2.134-2.302 3.2-5.175 3.2-8.622s-1.094-6.32-3.285-8.622c-2.19-2.298-4.897-3.447-8.112-3.447-3.275 0-5.994 1.137-8.156 3.406-2.162 2.27-3.243 5.16-3.243 8.663m-3.841 0c0-4.368 1.435-8.046 4.309-11.034 2.876-2.987 6.518-4.481 10.931-4.481 4.382 0 8.01 1.45 10.884 4.352 2.906 2.902 4.357 6.621 4.357 11.163 0 4.425-1.451 8.13-4.357 11.119-2.902 2.93-6.53 4.396-10.884 4.396-4.353 0-7.998-1.45-10.931-4.352-2.874-2.902-4.31-6.621-4.31-11.163m45.253-11.724c-.512 0-2.023.029-4.527.086v11.638c1.795.145 3.246.215 4.356.215 2.19 0 3.914-.538 5.166-1.618 1.251-1.076 1.877-2.563 1.877-4.46 0-1.867-.575-3.31-1.729-4.332-1.15-1.02-2.867-1.529-5.143-1.529m-4.527 15.215v11.593h-3.63v-30.17c1.196 0 2.463-.012 3.804-.044 1.334-.025 2.674-.04 4.011-.04 3.927 0 6.743.889 8.454 2.67 1.735 1.754 2.604 3.98 2.604 6.682 0 2.614-.942 4.855-2.82 6.723-1.82 1.839-4.47 2.757-7.94 2.757-1.821 0-3.313-.057-4.483-.171m39.319-18.577h4.397l-13.318 14.18 14.001 15.99h-4.653l-13.534-15.73 13.107-14.44zm-17.46 30.17h3.63v-30.17h-3.63v30.17zm27.58-15.084c0 3.39 1.097 6.264 3.287 8.622 2.191 2.297 4.894 3.446 8.112 3.446 3.357 0 6.089-1.149 8.197-3.446 2.134-2.302 3.2-5.175 3.2-8.622s-1.094-6.32-3.285-8.622c-2.19-2.298-4.897-3.447-8.112-3.447-3.275 0-5.994 1.137-8.156 3.406-2.162 2.27-3.243 5.16-3.243 8.663m-3.841 0c0-4.368 1.435-8.046 4.309-11.034 2.876-2.987 6.518-4.481 10.931-4.481 4.382 0 8.01 1.45 10.884 4.352 2.905 2.902 4.357 6.621 4.357 11.163 0 4.425-1.452 8.13-4.357 11.119-2.902 2.93-6.53 4.396-10.884 4.396-4.353 0-7.998-1.45-10.931-4.352-2.874-2.902-4.31-6.621-4.31-11.163m45.253-11.724c-.512 0-2.023.029-4.527.086v11.638c1.795.145 3.246.215 4.356.215 2.19 0 3.914-.538 5.166-1.618 1.251-1.076 1.877-2.563 1.877-4.46 0-1.867-.575-3.31-1.729-4.332-1.15-1.02-2.867-1.529-5.143-1.529m-4.527 15.215v11.593h-3.63v-30.17c1.196 0 2.463-.012 3.804-.044 1.334-.025 2.674-.04 4.011-.04 3.927 0 6.743.889 8.454 2.67 1.735 1.754 2.604 3.98 2.604 6.682 0 2.614-.942 4.855-2.82 6.723-1.82 1.839-4.47 2.757-7.94 2.757-1.821 0-3.313-.057-4.483-.171m27.494-15.129h-10.46V169.4h24.55v3.446H246.12v26.723h-3.63v-26.723zm40.343 2.586-18.146 24.137h-3.199v-30.17h3.63v24.137L283.26 169.4h3.202v30.17h-3.63v-24.137zM302.429 200c-2.077 0-4.008-.446-5.785-1.336-1.78-.892-3.107-2.025-3.992-3.405l2.007-2.456c.939 1.12 2.112 2.025 3.522 2.712 1.41.693 2.753 1.038 4.037 1.038 2.048 0 3.692-.519 4.928-1.554 1.24-1.035 1.859-2.44 1.859-4.222 0-1.494-.515-2.687-1.537-3.577-1.024-.892-2.465-1.338-4.315-1.338h-3.455v-3.447h3.2c1.308 0 2.462-.475 3.458-1.421.999-1.007 1.495-2.229 1.495-3.665 0-1.551-.496-2.76-1.495-3.621-.996-.861-2.305-1.292-3.927-1.292-2.646 0-4.909 1.12-6.787 3.362l-2.137-2.415c1.024-1.38 2.365-2.456 4.015-3.232a12.293 12.293 0 0 1 5.295-1.165c2.646 0 4.751.713 6.316 2.134 1.565 1.424 2.35 3.383 2.35 5.884 0 1.408-.377 2.737-1.133 3.988-.752 1.25-1.814 2.218-3.18 2.908v.13c1.736.345 3.082 1.155 4.034 2.434.955 1.279 1.432 2.839 1.432 4.678 0 2.728-.996 4.884-2.99 6.463-1.992 1.611-4.398 2.415-7.215 2.415m19.169-15.516c0 3.39 1.097 6.264 3.287 8.622 2.191 2.297 4.894 3.446 8.112 3.446 3.357 0 6.089-1.149 8.197-3.446 2.134-2.302 3.2-5.175 3.2-8.622s-1.094-6.32-3.285-8.622c-2.19-2.298-4.897-3.447-8.112-3.447-3.275 0-5.994 1.137-8.156 3.406-2.162 2.27-3.243 5.16-3.243 8.663m-3.841 0c0-4.368 1.435-8.046 4.308-11.034 2.877-2.987 6.519-4.481 10.932-4.481 4.382 0 8.01 1.45 10.884 4.352 2.905 2.902 4.356 6.621 4.356 11.163 0 4.425-1.45 8.13-4.356 11.119-2.902 2.93-6.53 4.396-10.884 4.396-4.353 0-7.998-1.45-10.932-4.352-2.873-2.902-4.308-6.621-4.308-11.163m57.974 15.085h-3.626v-26.723h-10.846l-.512 5.688c-.342 3.738-.784 6.934-1.325 9.59-.54 2.659-1.122 4.75-1.748 6.273-.63 1.523-1.36 2.7-2.2 3.532-.838.836-1.657 1.352-2.454 1.554-.8.2-1.71.228-2.734.086l.044-3.665c.598.088 1.11.038 1.537-.149.426-.187.91-.627 1.45-1.317.598-.715 1.139-1.794 1.622-3.231 1.138-3.22 1.963-8.476 2.479-15.775l.427-6.033h17.886v30.17zM198.665 7.154c11.472-10.078 28.931-8.935 38.997 2.551a27.541 27.541 0 0 1 6.78 16.13l-8.497-4.805a20.274 20.274 0 0 0-3.822-6.46c-7.381-8.422-20.184-9.258-28.6-1.868-8.412 7.388-9.246 20.21-1.865 28.632 7.382 8.422 20.185 9.258 28.597 1.867a20.16 20.16 0 0 0 3.651-4.222l8.001.74a27.539 27.539 0 0 1-6.793 9.03c-11.47 10.075-28.929 8.935-38.994-2.55-10.066-11.487-8.928-28.967 2.545-39.045zm28.04 19.706c.886-2.535 4.897-3.409 8.966-1.95 2.87 1.032 4.97 2.95 5.665 4.881 2.703.677 4.922 1.858 6.544 3.577.83.883 1.318 1.68 1.789 2.452.534.88 1.043 1.713 2.165 2.846 1.764 1.728 3.819 3.098 5.643 3.754 5.567 2.01 11.34-1.368 12.974-2.45l2.033 3.08c-1.998 1.32-9.073 5.43-16.256 2.845-3.155-1.14-5.721-3.368-7.014-4.637-1.423-1.43-2.096-2.538-2.694-3.513-.42-.696-.755-1.244-1.321-1.842-1.107-1.171-2.675-2-4.622-2.507-1.593 1.516-4.818 1.883-8.109.7-4.068-1.46-6.648-4.7-5.763-7.236zm-13.29-5.67a5.536 5.536 0 0 1-.51 7.808 5.52 5.52 0 0 1-7.798-.51 5.536 5.536 0 0 1 .509-7.808 5.52 5.52 0 0 1 7.799.51zM10.966 8.86v16.28c2.191.228 4.46.38 6.579.38 5.523 0 9.831-2.652 9.831-8.558 0-5.53-3.401-8.255-9.755-8.255-1.89 0-4.16.076-6.655.152zm-9.303 44.3V.153C4.613.152 13.009 0 16.713 0c15.582 0 20.498 8.33 20.498 17.038 0 9.01-6.73 17.19-19.363 17.19-1.587 0-4.612 0-6.882-.229v19.162H1.663zM47.957.15h30.63v8.707h-21.33v13.18H76.32v8.707H57.257v13.708h22.088v8.707H47.957V.15zm76.395 8.71h-23.6v44.3h-9.3V.153h42.203V53.16h-9.303V8.859zm33.285 0v16.28c2.194.228 4.464.38 6.582.38 5.52 0 9.831-2.652 9.831-8.558 0-5.53-3.404-8.255-9.758-8.255-1.888 0-4.157.076-6.655.152zm-9.3 44.3V.153c2.946 0 11.342-.152 15.047-.152 15.582 0 20.501 8.33 20.501 17.038 0 9.01-6.733 17.19-19.363 17.19-1.59 0-4.615 0-6.885-.229v19.162h-9.3zM10.967 79.594v16.28c2.19.229 4.46.38 6.578.38 5.523 0 9.831-2.652 9.831-8.558 0-5.53-3.401-8.254-9.755-8.254-1.89 0-4.16.076-6.655.152zm-9.304 44.301V70.885c2.95 0 11.346-.152 15.05-.152 15.582 0 20.498 8.331 20.498 17.038 0 9.011-6.73 17.19-19.363 17.19-1.587 0-4.612 0-6.882-.228v19.161H1.663zm46.294-53.01h30.63v8.707h-21.33v13.18H76.32v8.707H57.257v13.708h22.088v8.707H47.957V70.884zm74.73 8.709h-15.43l-1.059 9.995c-3.098 30.821-9.983 35.819-20.421 34.306l.227-9.239c4.085.529 9.456-1.212 11.801-33.17l.756-10.6h33.354v53.01h-9.228V79.592zm35.555 22.036h15.503l-7.713-18.857-7.79 18.857zm3.933-30.897h8.169l22.388 53.16h-9.911l-5.52-13.556h-22.615l-5.52 13.556h-9.38l22.389-53.16zm38.503.152h9.304v25.14l20.877-25.14h11.194l-21.784 24.688 23.146 28.32h-11.8l-21.633-27.336v27.337h-9.304V70.884zm88.197 47.86c-3.329 3.56-10.059 5.981-16.94 5.981-16.186 0-27.305-10.827-27.305-27.337 0-15.22 9.604-27.336 27.076-27.336 6.883 0 12.63 2.196 16.11 5.374l-4.157 6.894c-3.177-2.121-6.657-3.561-11.953-3.561-9.831 0-17.244 7.118-17.244 18.63 0 11.055 7.486 18.63 18.304 18.63 4.46 0 8.927-1.441 12.556-4.242l3.553 6.966z" fill="#4E515C" fill-rule="evenodd"/></svg>