<?xml version="1.0" encoding="UTF-8"?>
<svg width="54px" height="25px" viewBox="0 0 54 25" version="1.1" xmlns="http://www.w3.org/2000/svg" xmlns:xlink="http://www.w3.org/1999/xlink">
    <title>Shape</title>
    <g id="Landing" stroke="none" stroke-width="1" fill="none" fill-rule="evenodd">
        <path d="M39.0460058,1.38028384 C41.3699112,-0.644366442 44.906915,-0.414891029 46.9459203,1.89265353 C47.7771314,2.83312654 48.2310014,3.97448457 48.3196538,5.13314731 L46.5981301,4.16784582 C46.4284024,3.70362835 46.1707801,3.26348698 45.8237476,2.86999308 C44.32878,1.17789405 41.7351288,1.01011367 40.0302748,2.49455626 C38.3261786,3.97899884 38.1572086,6.5551425 39.6521761,8.24724153 C41.1479013,9.93934055 43.7415526,10.1071209 45.4456488,8.62267835 C45.7373683,8.36837445 45.9843827,8.08247066 46.1851766,7.77399551 L47.8059245,7.92296643 C47.4884428,8.59559273 47.0285111,9.21555253 46.4299179,9.73695076 C44.1060125,11.761601 40.5690087,11.5321256 38.5300033,9.22458107 C36.4909979,6.91703651 36.7221004,3.40493412 39.0460058,1.38028384 Z M44.726352,5.339299 C44.9051722,4.82993882 45.7181982,4.65463465 46.5425898,4.94806223 C47.1245133,5.15496629 47.5495902,5.54018403 47.6905248,5.92841129 C48.2375935,6.0638394 48.6869172,6.3008386 49.0157646,6.64693266 C49.1503344,6.7883798 49.2402901,6.91923345 49.3197712,7.04527188 L49.4728975,7.28992446 C49.555782,7.41652364 49.6545166,7.54849695 49.8174249,7.71079572 C50.1743076,8.05839455 50.5910497,8.33376504 50.9600559,8.46543126 C52.0882904,8.86870609 53.2566837,8.19081315 53.5885619,7.97337579 L54,8.59183083 L53.8935565,8.65929077 C53.3828808,8.97231448 52.0540249,9.64426889 50.7069798,9.16288604 C50.0682278,8.93491539 49.5476791,8.48725024 49.2855104,8.23219396 C49.0695623,8.01663754 48.9388568,7.83747744 48.8361748,7.67852574 L48.7407149,7.52571064 C48.6550933,7.38652063 48.5876569,7.27592101 48.4724845,7.15554046 C48.2489592,6.9207984 47.9307198,6.75452277 47.5359514,6.65219931 C47.2139234,6.95691256 46.5600172,7.03064565 45.8939875,6.79289407 C45.0695959,6.4994665 44.546774,5.84865918 44.726352,5.339299 Z M42.0340466,4.19997238 C42.4416961,4.66118034 42.3954756,5.36390177 41.9309976,5.76868135 C41.4657619,6.17346093 40.7588158,6.12756585 40.3511662,5.66635789 C39.942759,5.20514993 39.9889795,4.5024285 40.4542152,4.09764892 C40.9186932,3.69286934 41.626397,3.73876442 42.0340466,4.19997238 Z M1.86723186,1.80462526 L1.86723186,5.04587142 C2.30746305,5.09101412 2.7628485,5.12110926 3.18792542,5.12110926 C4.29645938,5.12110926 5.16176749,4.593692 5.16176749,3.41847693 C5.16176749,2.31774733 4.47831047,1.77453012 3.20307968,1.77453012 C2.97531119,1.77453012 2.72026503,1.77994725 2.44448785,1.78753122 L1.86723186,1.80462526 Z M0.000227313866,10.6232525 L0.000227313866,0.071145419 L2.85985281,0.0414337172 L3.02047088,0.0410502829 C6.14830967,0.0410502829 7.13485185,1.69929228 7.13485185,3.43277212 C7.13485185,5.22644224 5.78384977,6.8545891 3.24854246,6.8545891 L2.7913752,6.85220853 C2.49565999,6.84824091 2.15184777,6.83766059 1.86723186,6.8094464 L1.86723186,10.6232525 L0.000227313866,10.6232525 Z M9.28918112,0.0713711325 L15.4372635,0.0713711325 L15.4372635,1.80485097 L11.1569434,1.80485097 L11.1569434,4.42764209 L14.9826357,4.42764209 L14.9826357,6.16112193 L11.1569434,6.16112193 L11.1569434,8.8899984 L15.5888061,8.8899984 L15.5888061,10.6227259 L9.28918112,10.6227259 L9.28918112,0.0713711325 Z M24.6210467,1.80462526 L19.8845835,1.80462526 L19.8845835,10.6232525 L18.0175789,10.6232525 L18.0175789,0.071145419 L26.4880513,0.071145419 L26.4880513,10.6232525 L24.6210467,10.6232525 L24.6210467,1.80462526 Z M31.2991493,1.80462526 L31.2991493,5.04587142 C31.7393804,5.09101412 32.1955236,5.12110926 32.6198428,5.12110926 C33.7283768,5.12110926 34.5936849,4.593692 34.5936849,3.41847693 C34.5936849,2.31774733 33.9102279,1.77453012 32.6357548,1.77453012 C32.4079863,1.77453012 32.1526674,1.77994725 31.876672,1.78753122 L31.2991493,1.80462526 Z M29.4321447,10.6232525 L29.4321447,0.071145419 L32.2917702,0.0414337172 L32.4523883,0.0410502829 C35.5802271,0.0410502829 36.5667692,1.69929228 36.5667692,3.43277212 C36.5667692,5.22644224 35.2157672,6.8545891 32.6804598,6.8545891 L32.2234924,6.85220853 C31.9279326,6.84824091 31.5842387,6.83766059 31.2991493,6.8094464 L31.2991493,10.6232525 L29.4321447,10.6232525 Z M0,14.2820687 L5.99653978,14.2820687 L5.99653978,16.0155485 L1.86700455,16.0155485 L1.86700455,24.8334234 L0,24.8334234 L0,14.2820687 Z M7.69533207,14.2820687 L13.8434144,14.2820687 L13.8434144,16.0155485 L9.56309433,16.0155485 L9.56309433,18.6383397 L13.3887867,18.6383397 L13.3887867,20.3718195 L9.56309433,20.3718195 L9.56309433,23.100696 L13.994957,23.100696 L13.994957,24.8334234 L7.69533207,24.8334234 L7.69533207,14.2820687 Z M23.1485075,20.3268273 L18.2908102,20.3268273 L18.2908102,24.8335739 L16.4230479,24.8335739 L16.4230479,14.2822192 L18.2908102,14.2822192 L18.2908102,18.5933474 L23.1485075,18.5933474 L23.1485075,14.2822192 L25.0003578,14.2822192 L25.0003578,24.8335739 L23.1485075,24.8335739 L23.1485075,20.3268273 Z M32.6806114,23.2657678 C34.9113181,23.2657678 36.2479237,21.6383733 36.2479237,19.558047 C36.2479237,17.3723877 34.684762,15.8503262 32.6806114,15.8503262 C30.6461523,15.8503262 29.1284534,17.3723877 29.1284534,19.558047 C29.1284534,21.6684684 30.6916151,23.2657678 32.6806114,23.2657678 Z M32.6806114,14.116094 C35.838001,14.116094 38.221008,16.2716581 38.221008,19.558047 C38.221008,22.723303 35.838001,25 32.6806114,25 C29.5224641,25 27.1546113,22.8436835 27.1546113,19.558047 C27.1546113,16.498124 29.4163843,14.116094 32.6806114,14.116094 Z M40.3754131,14.2820687 L42.2575719,14.2820687 L45.8855012,19.211652 L49.3474913,14.2820687 L51.1084161,14.2820687 L51.1084161,24.8334234 L49.2565658,24.8334234 L49.2565658,17.2065635 L45.9014131,21.893881 L45.6286365,21.893881 L42.2431753,17.2517063 L42.2431753,24.8334234 L40.3754131,24.8334234 L40.3754131,14.2820687 Z" id="Shape" fill="#4E515C"></path>
    </g>
</svg>