<svg width="66" height="25" xmlns="http://www.w3.org/2000/svg"><path d="M40.68 1.434a5.565 5.565 0 0 1 7.842.512 5.511 5.511 0 0 1 1.364 3.233l-1.71-.964a4.081 4.081 0 0 0-6.52-1.67 4.06 4.06 0 0 0-.374 5.74 4.08 4.08 0 0 0 6.485-.472l1.61.149a5.565 5.565 0 0 1-9.208 1.299 5.538 5.538 0 0 1 .511-7.827zm5.64 3.95c.177-.508.984-.683 1.802-.39.577.206 1 .59 1.14.978.543.135.989.372 1.315.716.167.177.265.337.36.492.107.176.21.343.435.57.355.347.768.622 1.135.753 1.12.403 2.28-.274 2.609-.491l.409.617c-.402.265-1.825 1.089-3.269.57-.634-.228-1.15-.675-1.41-.929-.287-.287-.422-.509-.542-.704a1.965 1.965 0 0 0-.266-.37c-.222-.234-.538-.4-.93-.502-.32.304-.968.378-1.63.14-.818-.292-1.337-.942-1.159-1.45zm-2.674-1.136c.405.46.36 1.16-.102 1.565a1.113 1.113 0 0 1-1.568-.103 1.107 1.107 0 0 1 .102-1.565 1.113 1.113 0 0 1 1.568.103zM2.936 1.776V5.04c.44.045.897.076 1.323.076 1.11 0 1.977-.532 1.977-1.716 0-1.108-.685-1.654-1.962-1.654-.38 0-.836.015-1.339.03zm-1.871 8.88V.03C1.658.03 3.346 0 4.09 0c3.134 0 4.122 1.67 4.122 3.416 0 1.806-1.353 3.445-3.894 3.445-.319 0-.927 0-1.384-.046v3.84h-1.87zM10.374.03h6.16v1.746h-4.29v2.641h3.833v1.746h-3.832V8.91h4.44v1.745h-6.311V.03zm15.363 1.746H20.99v8.88h-1.87V.03h8.487v10.625h-1.871V1.776zm6.693 0V5.04c.441.045.898.076 1.324.076 1.11 0 1.977-.532 1.977-1.716 0-1.108-.685-1.654-1.963-1.654-.38 0-.836.015-1.338.03zm-1.87 8.88V.03c.592 0 2.28-.03 3.026-.03 3.133 0 4.122 1.67 4.122 3.416 0 1.806-1.354 3.445-3.894 3.445-.32 0-.927 0-1.384-.046v3.84h-1.87zM2.432 18.55H7.18c-.365-1.777-1.825-2.763-3.833-2.763-.851 0-1.75.258-2.494.82l-.73-1.397c.745-.637 2.037-1.168 3.665-1.168 3.133 0 5.354 2.155 5.354 5.464C9.14 22.83 6.98 25 3.574 25 2.099 25 .745 24.53 0 23.893l.806-1.564c.67.516 1.627.926 2.738.926 1.825 0 3.361-1.002 3.68-2.96h-4.79V18.55zm8.869-4.341h1.886l3.635 4.963 3.468-4.963h1.764v10.625H20.2v-7.68l-3.362 4.72h-.274l-3.391-4.675v7.635h-1.871V14.209zm15.576 5.859v3.02c.426.03.79.06 1.186.06 1.384 0 1.962-.637 1.962-1.578 0-.91-.563-1.594-1.87-1.594-.35 0-.807.03-1.278.092zm-1.871-5.86h6.22v1.746h-4.35v2.368c.411-.061 1.05-.092 1.43-.092 2.22 0 3.575 1.245 3.575 3.203 0 2.201-1.49 3.461-4.107 3.461-1.232 0-2.145-.06-2.768-.06V14.209zm11.21 1.746v3.264c.442.045.898.075 1.324.075 1.11 0 1.977-.53 1.977-1.715 0-1.108-.685-1.655-1.962-1.655-.38 0-.836.016-1.339.03zm-1.87 8.88V14.209c.593 0 2.281-.03 3.026-.03 3.133 0 4.122 1.669 4.122 3.414 0 1.807-1.353 3.446-3.894 3.446-.319 0-.927 0-1.384-.046v3.84h-1.87zm9.309 0V14.209h1.87v7.559l5.583-7.56h1.642v10.626h-1.87v-7.545l-5.583 7.545h-1.642zm16.793-1.579c2.235 0 3.574-1.64 3.574-3.734 0-2.2-1.567-3.734-3.574-3.734-2.038 0-3.56 1.533-3.56 3.734 0 2.125 1.567 3.734 3.56 3.734m0-9.213c3.164 0 5.551 2.17 5.551 5.479C66 22.709 63.613 25 60.45 25s-5.537-2.171-5.537-5.48c0-3.081 2.267-5.48 5.537-5.48" fill="#4E515C" fill-rule="evenodd"/></svg>