<?xml version="1.0" encoding="UTF-8"?>
<svg width="32px" height="32px" viewBox="0 0 32 32" version="1.1" xmlns="http://www.w3.org/2000/svg" xmlns:xlink="http://www.w3.org/1999/xlink">
    <title>Shape</title>
    <g id="Desktop" stroke="none" stroke-width="1" fill="none" fill-rule="evenodd">
        <g id="040-Articles" transform="translate(-976, -1407)" fill="#4E515C" fill-rule="nonzero">
            <g id="Group" transform="translate(56, 1061)">
                <g id="Group-51-Copy" transform="translate(896, 314)">
                    <path d="M35.2,47.6 C34.096,47.6 33.2,48.496 33.2,49.6 C33.2,50.704 34.096,51.6 35.2,51.6 C36.304,51.6 37.2,50.704 37.2,49.6 C37.2,48.496 36.304,47.6 35.2,47.6 Z M44.8,47.6 C43.696,47.6 42.8,48.496 42.8,49.6 C42.8,50.704 43.696,51.6 44.8,51.6 C45.904,51.6 46.8,50.704 46.8,49.6 C46.8,48.496 45.904,47.6 44.8,47.6 Z M40,32 C31.168,32 24,39.168 24,48 C24,56.832 31.168,64 40,64 C48.832,64 56,56.832 56,48 C56,39.168 48.832,32 40,32 Z M40,60.8 C32.944,60.8 27.2,55.056 27.2,48 C27.2,47.536 27.232,47.072 27.28,46.624 C31.056,44.944 34.048,41.856 35.616,38.032 C38.512,42.128 43.28,44.8 48.672,44.8 C49.92,44.8 51.12,44.656 52.272,44.384 C52.608,45.52 52.8,46.736 52.8,48 C52.8,55.056 47.056,60.8 40,60.8 Z" id="Shape"></path>
                </g>
            </g>
        </g>
    </g>
</svg>