<?xml version="1.0" encoding="UTF-8"?>
<svg width="13px" height="12px" viewBox="0 0 13 12" version="1.1" xmlns="http://www.w3.org/2000/svg" xmlns:xlink="http://www.w3.org/1999/xlink">
    <title>uglevody</title>
    <defs>
        <path d="M0,0 L12,0 L12,12 L0,12 L0,0 Z" id="path-1"></path>
    </defs>
    <g id="uglevody" stroke="none" fill="none" transform="translate(0.1039, 0)" xlink:href="#path-1" fill-rule="nonzero">
        <path d="M3.68638371,9.77008971 C5.40066943,9.77008971 6.17075914,10.5435266 6.17075914,10.5435266 C6.17075914,10.5435266 5.31361629,12 3.68638371,12 C2.055804,12 1.71428571,11.4006694 1.71428571,10.972098 C1.71428571,10.5435266 2.48437543,9.77008971 3.68638371,9.77008971 Z M1.45647343,5.82924086 C1.45647343,5.82924086 2.22991114,6.59933057 2.22991114,8.31361629 C2.22991114,9.51562543 1.45647343,10.2857143 1.027902,10.2857143 C0.599330571,10.2857143 0,9.94419686 0,8.31361629 C0,6.68638371 1.45647343,5.82924086 1.45647343,5.82924086 Z M6.25781229,7.19866114 C7.972098,7.19866114 8.74218771,7.972098 8.74218771,7.972098 C8.74218771,7.972098 7.88504486,9.42857143 6.25781229,9.42857143 C4.62723257,9.42857143 4.28571429,8.82924086 4.28571429,8.40066943 C4.28571429,7.972098 5.055804,7.19866114 6.25781229,7.19866114 Z M4.027902,3.25781229 C4.027902,3.25781229 4.80133971,4.027902 4.80133971,5.74218771 C4.80133971,6.94419686 4.027902,7.71428571 3.59933057,7.71428571 C3.17075914,7.71428571 2.57142857,7.37276829 2.57142857,5.74218771 C2.57142857,4.11495514 4.027902,3.25781229 4.027902,3.25781229 Z M11.1428571,4.37276829 C11.055804,5.22991114 10.2857143,6.51562543 9.17075914,6.77008971 C7.80133971,7.11495514 6.94419686,6.25781229 6.85714286,6.087054 C6.77008971,5.91294686 7.28571429,5.055804 8.40066943,4.62723257 C9.85714286,4.11495514 11.2299111,4.28571429 11.1428571,4.37276829 Z M7.28571429,3.59933057 C6.85714286,4.71428571 6.087054,5.22991114 5.82924086,5.14285714 C5.74218771,5.055804 4.88504486,4.11495514 5.22991114,2.82924086 C5.48437543,1.71428571 6.77008971,0.944196857 7.54352657,0.857142857 C7.62723257,0.770089714 7.88504486,2.14285714 7.28571429,3.59933057 Z M12,0 C12,0 12,1.88504486 11.2299111,2.74218771 C10.1986611,3.77008971 9,3.42857143 8.82924086,3.25781229 C8.57142857,3.087054 8.22991114,1.88504486 9.25781229,0.857142857 C10.0435266,0.0714285714 11.6929641,0.00595238095 11.962414,0.000496031746 L12,0 Z" id="Combined-Shape" fill="#4E515C"></path>
    </g>
</svg>