<?xml version="1.0" encoding="UTF-8"?>
<svg width="12px" height="12px" viewBox="0 0 12 12" version="1.1" xmlns="http://www.w3.org/2000/svg" xmlns:xlink="http://www.w3.org/1999/xlink">
    <title>zhiry-white</title>
    <defs>
        <path d="M0,0 L11,0 L11,12 L0,12 L0,0 Z" id="path-1"></path>
    </defs>
    <g id="zhiry" stroke="none" fill="none" transform="translate(0.1039, 0)" xlink:href="#path-1" fill-rule="nonzero">
        <path d="M3.86077009,0.552237117 C4.62241862,1.56764711 7.72212818,5.84176059 7.72212818,8.17780509 C7.72212818,10.2854648 5.98950519,12 3.86077009,12 C1.73203499,12 0,10.2854648 0,8.17780509 C0,5.84195463 3.09912157,1.56764711 3.86077009,0.552237117 Z M8.25589628,0.0512264929 C8.31613302,0.128713031 9.10796524,1.15026761 9.82544887,2.36702618 C9.87980566,2.45964782 9.93390113,2.55304562 9.98760461,2.64721957 C10.5348312,3.61638342 11,4.66988988 11,5.45187006 C11,5.60684314 10.9873255,5.75858222 10.9627604,5.90669922 C10.9473419,6.00087318 10.9274807,6.0938829 10.9025236,6.18456414 C10.6369328,7.16426798 9.85162657,7.9354093 8.85854894,8.18950853 L8.85823103,8.17780509 C8.85823103,6.97803184 8.2705905,5.4436082 7.2524124,3.64036735 C7.17061922,3.49692306 7.08822173,3.35457483 7.00348477,3.21018671 C6.83372968,2.92230321 6.65739754,2.63470719 6.47604909,2.34877607 C7.18836828,1.1400749 7.97268762,0.128342938 8.0327198,0.0512264929 C8.08603128,-0.0170754976 8.2025848,-0.0170754976 8.25589628,0.0512264929 Z" id="Combined-Shape" fill="#FFFFFF"></path>
    </g>
</svg>