<svg width="327" height="62" xmlns="http://www.w3.org/2000/svg"><path d="M13.188 3.719H4.233v6.812h4.594c2.042.01 3.64.607 4.797 1.79 1.156 1.182 1.734 2.81 1.734 4.882 0 2.083-.586 3.737-1.757 4.961C12.43 23.388 10.807 24 8.734 24H1.36V1.25h11.829v2.469zM4.233 13v8.547h4.563c1.167 0 2.073-.401 2.719-1.203.645-.802.968-1.86.968-3.172 0-1.292-.32-2.31-.96-3.055C10.882 13.372 9.978 13 8.812 13H4.234zm24.172 5.063H20.72L18.953 24h-2.937l7.328-22.75h2.453L33.14 24h-2.938l-1.797-5.938zm-6.937-2.47h6.203L24.562 5.25 21.47 15.594zm28.765 5.954h2.672l-.031 8.031h-2.86V24H36.579v5.594h-2.875l-.016-8.047h1.672c.73-.927 1.326-2.323 1.79-4.188.463-1.864.757-3.948.882-6.25l.438-9.859h11.765v20.297zm-11.828 0h8.953V3.719H41.25l-.328 7.344c-.125 2.406-.412 4.481-.86 6.226-.447 1.745-1 3.164-1.656 4.258zm16.547.937c0-.5.149-.916.445-1.25.297-.333.743-.5 1.336-.5.594 0 1.045.167 1.352.5.307.334.46.75.46 1.25 0 .48-.153.88-.46 1.203-.307.323-.758.485-1.352.485-.593 0-1.039-.162-1.336-.485-.296-.322-.445-.723-.445-1.203zM83.297 24h-2.875V13.484h-9.156V24h-2.86V1.25h2.86v9.781h9.156V1.25h2.875V24zm14.61-10.516h-8.048v8.063h9.375V24H87V1.25h12.078v2.469H89.86v7.312h8.047v2.453zM117.64 24v-8.86h-3.938L109.781 24h-3.047l4.454-9.734c-2.48-1.157-3.72-3.209-3.72-6.157 0-2.135.597-3.81 1.79-5.023 1.193-1.214 2.862-1.826 5.008-1.836h6.25V24h-2.875zm-7.297-15.89c0 1.374.344 2.476 1.031 3.304.688.828 1.651 1.253 2.89 1.274h3.376v-8.97h-3.344c-1.292 0-2.274.391-2.945 1.173-.672.78-1.008 1.854-1.008 3.218zM124.469 24V1.25h6.484c2.073 0 3.633.505 4.68 1.516 1.047 1.01 1.57 2.526 1.57 4.546 0 1.063-.266 2-.797 2.813a5.355 5.355 0 0 1-2.156 1.89c1.042.313 1.867.954 2.477 1.922.609.97.914 2.136.914 3.5 0 2.042-.56 3.646-1.68 4.813-1.12 1.167-2.716 1.75-4.79 1.75h-6.702zm2.86-10.64v8.187h3.905c1.084 0 1.943-.357 2.578-1.07.636-.714.954-1.717.954-3.008 0-2.74-1.157-4.11-3.47-4.11h-3.968zm0-2.407H131c.99 0 1.79-.333 2.398-1 .61-.667.915-1.552.915-2.656 0-1.25-.277-2.159-.829-2.727-.552-.567-1.395-.851-2.53-.851h-3.626v7.234zm27.968-9.703V24h-2.875V3.719h-6.36l-.343 9.562c-.125 2.792-.39 4.922-.797 6.39-.406 1.47-1 2.553-1.781 3.25-.782.699-1.808 1.058-3.078 1.079h-.875v-2.453l.53-.031c.761-.063 1.355-.357 1.782-.883.427-.526.75-1.362.969-2.508.219-1.146.375-2.896.469-5.25l.375-11.625h11.984zM169.047 24v-8.86h-3.938L161.187 24h-3.046l4.453-9.734c-2.48-1.157-3.719-3.209-3.719-6.157 0-2.135.596-3.81 1.79-5.023 1.192-1.214 2.861-1.826 5.007-1.836h6.25V24h-2.875zM161.75 8.11c0 1.374.344 2.476 1.031 3.304.688.828 1.651 1.253 2.89 1.274h3.376v-8.97h-3.344c-1.292 0-2.273.391-2.945 1.173-.672.78-1.008 1.854-1.008 3.218zm25.031 5.374h-8.047v8.063h9.375V24h-12.234V1.25h12.078v2.469h-9.219v7.312h8.047v2.453zm17.344-9.765h-5.984V24h-2.86V3.719h-5.969V1.25h14.813v2.469zm15.938 13.062c-.125 2.438-.81 4.302-2.055 5.594-1.245 1.292-3.003 1.938-5.274 1.938-2.28 0-4.093-.868-5.437-2.602-1.344-1.734-2.016-4.086-2.016-7.055v-4.125c0-2.958.69-5.297 2.07-7.015 1.38-1.72 3.264-2.579 5.649-2.579 2.198 0 3.898.66 5.102 1.977 1.203 1.318 1.856 3.2 1.96 5.649h-2.89c-.125-1.855-.516-3.178-1.172-3.97-.656-.79-1.656-1.187-3-1.187-1.552 0-2.745.607-3.578 1.82-.833 1.214-1.25 2.993-1.25 5.337v4.171c0 2.302.388 4.068 1.164 5.297.776 1.23 1.909 1.844 3.398 1.844 1.49 0 2.563-.37 3.22-1.11.655-.739 1.062-2.067 1.218-3.984h2.89zM232.608 24v-8.86h-3.937L224.75 24h-3.047l4.453-9.734c-2.479-1.157-3.719-3.209-3.719-6.157 0-2.135.597-3.81 1.79-5.023 1.192-1.214 2.862-1.826 5.007-1.836h6.25V24h-2.875zm-7.297-15.89c0 1.374.344 2.476 1.032 3.304.687.828 1.65 1.253 2.89 1.274h3.375v-8.97h-3.343c-1.292 0-2.274.391-2.946 1.173-.672.78-1.007 1.854-1.007 3.218zm34.829-6.86V24h-2.875V3.719h-6.36l-.344 9.562c-.125 2.792-.39 4.922-.796 6.39-.407 1.47-1 2.553-1.782 3.25-.78.699-1.807 1.058-3.078 1.079h-.875v-2.453l.531-.031c.76-.063 1.355-.357 1.782-.883.427-.526.75-1.362.969-2.508.218-1.146.375-2.896.468-5.25l.375-11.625h11.985zm14.734 12.234h-8.047v8.063h9.375V24H263.97V1.25h12.078v2.469h-9.219v7.312h8.047v2.453zM290.359 24l-6.593-10.219h-2.157V24h-2.859V1.25h2.86v10.031h1.75l6.406-10.031h3.562l-7.219 11 7.52 11.4 7.215-22.4h2.453L310.64 24h-2.938l-1.797-5.938h-7.687L296.453 24h-6.094zm11.704-18.75-3.094 10.344h6.203l-3.11-10.344zm13.28 9.844V24h-2.859V1.25h7.25c2.115 0 3.776.633 4.985 1.898 1.208 1.266 1.812 2.951 1.812 5.055 0 2.188-.575 3.873-1.726 5.055-1.151 1.182-2.774 1.794-4.868 1.836h-4.593zm0-2.453h4.391c1.271 0 2.245-.38 2.922-1.141.677-.76 1.016-1.849 1.016-3.266 0-1.364-.35-2.458-1.047-3.28-.698-.824-1.656-1.235-2.875-1.235h-4.406v8.922zM15.72 48.78c-.125 2.438-.81 4.302-2.055 5.594-1.245 1.292-3.003 1.938-5.273 1.938-2.282 0-4.094-.868-5.438-2.602C1.61 51.977.938 49.625.938 46.656v-4.125c0-2.958.69-5.297 2.07-7.015 1.38-1.72 3.263-2.578 5.648-2.578 2.198 0 3.899.658 5.102 1.976 1.203 1.318 1.857 3.2 1.96 5.648h-2.89c-.125-1.854-.515-3.177-1.172-3.968-.656-.792-1.656-1.188-3-1.188-1.552 0-2.745.607-3.578 1.82-.833 1.214-1.25 2.993-1.25 5.337v4.171c0 2.302.388 4.068 1.164 5.297.776 1.23 1.909 1.844 3.399 1.844s2.562-.37 3.218-1.11c.657-.739 1.063-2.067 1.22-3.984h2.89zM32.237 35.72h-5.984V56h-2.86V35.719h-5.968V33.25h14.812v2.469zM35.397 56V33.25h6.484c2.073 0 3.633.505 4.68 1.516 1.047 1.01 1.57 2.526 1.57 4.547 0 1.062-.265 2-.797 2.812a5.355 5.355 0 0 1-2.156 1.89c1.042.313 1.867.954 2.477 1.922.61.97.914 2.136.914 3.5 0 2.042-.56 3.646-1.68 4.813C45.77 55.417 44.173 56 42.1 56h-6.703zm2.86-10.64v8.187h3.906c1.083 0 1.942-.357 2.578-1.07.635-.714.953-1.717.953-3.008 0-2.74-1.157-4.11-3.469-4.11h-3.969zm0-2.407h3.671c.99 0 1.79-.333 2.399-1s.914-1.552.914-2.656c0-1.25-.276-2.159-.828-2.727-.553-.567-1.396-.851-2.532-.851h-3.625v7.234zm25.3 2.531h-8.048v8.063h9.375V56H52.65V33.25h12.078v2.469H55.51v7.312h8.047v2.453zM83.23 56h-2.875V45.484H71.2V56h-2.86V33.25h2.86v9.781h9.156V33.25h2.875V56zm19.644 0H100V45.484h-9.156V56h-2.86V33.25h2.86v9.781H100V33.25h2.875V56zm7.769-13.469h4.593c2.042.01 3.641.607 4.797 1.79 1.157 1.182 1.735 2.81 1.735 4.882 0 2.083-.586 3.737-1.758 4.961-1.172 1.224-2.794 1.836-4.867 1.836h-7.36V33.25h2.86v9.281zM126.628 56h-2.86V33.25h2.86V56zm-15.984-11v8.547h4.562c1.167 0 2.073-.401 2.719-1.203.646-.802.969-1.86.969-3.172 0-1.292-.32-2.31-.961-3.055-.64-.745-1.544-1.117-2.711-1.117h-4.578zm24.643-11.75 5.938 18.563 5.938-18.563h3.687V56h-2.86v-8.86l.266-8.874L142.303 56h-2.187l-5.922-17.672.265 8.813V56H131.6V33.25h3.688zm41.679 15.531c-.125 2.438-.81 4.302-2.055 5.594-1.245 1.292-3.003 1.938-5.274 1.938-2.28 0-4.093-.868-5.437-2.602-1.344-1.734-2.016-4.086-2.016-7.055v-4.125c0-2.958.69-5.297 2.07-7.015 1.38-1.72 3.264-2.578 5.65-2.578 2.197 0 3.898.658 5.1 1.976 1.204 1.318 1.857 3.2 1.962 5.648h-2.891c-.125-1.854-.516-3.177-1.172-3.968-.656-.792-1.656-1.188-3-1.188-1.552 0-2.745.607-3.578 1.82-.833 1.214-1.25 2.993-1.25 5.337v4.171c0 2.302.388 4.068 1.164 5.297.776 1.23 1.909 1.844 3.398 1.844 1.49 0 2.563-.37 3.22-1.11.655-.739 1.062-2.067 1.218-3.984h2.89zm6.534-1.687V56h-2.86V33.25h7.25c2.115 0 3.777.633 4.985 1.898 1.208 1.266 1.813 2.951 1.813 5.055 0 2.188-.576 3.873-1.727 5.055-1.151 1.182-2.774 1.794-4.867 1.836H183.5zm0-2.453h4.39c1.271 0 2.245-.38 2.923-1.141.677-.76 1.015-1.849 1.015-3.266 0-1.364-.349-2.458-1.047-3.28-.698-.824-1.656-1.235-2.875-1.235H183.5v8.922zm25.581.843h-8.047v8.063h9.375V56h-12.234V33.25h12.078v2.469h-9.219v7.312h8.047v2.453zm19.738 8.063h2.672l-.032 8.031H228.6V56h-13.438v5.594h-2.875l-.015-8.047h1.672c.729-.927 1.325-2.323 1.789-4.188.463-1.864.758-3.948.883-6.25l.437-9.859h11.766v20.297zm-11.828 0h8.953V35.719h-6.11l-.328 7.343c-.125 2.407-.411 4.482-.86 6.227-.447 1.745-1 3.164-1.655 4.258zm31.69-4.766c-.125 2.438-.81 4.302-2.054 5.594-1.245 1.292-3.003 1.938-5.274 1.938-2.281 0-4.094-.868-5.437-2.602-1.344-1.734-2.016-4.086-2.016-7.055v-4.125c0-2.958.69-5.297 2.07-7.015 1.38-1.72 3.263-2.578 5.649-2.578 2.198 0 3.898.658 5.101 1.976 1.203 1.318 1.857 3.2 1.961 5.648h-2.89c-.125-1.854-.516-3.177-1.172-3.968-.656-.792-1.656-1.188-3-1.188-1.552 0-2.745.607-3.578 1.82-.834 1.214-1.25 2.993-1.25 5.337v4.171c0 2.302.388 4.068 1.164 5.297.776 1.23 1.909 1.844 3.398 1.844 1.49 0 2.563-.37 3.219-1.11.656-.739 1.062-2.067 1.219-3.984h2.89zM265.2 35.72h-5.984V56h-2.86V35.719h-5.969V33.25H265.2v2.469zM268.36 56V33.25h6.484c2.073 0 3.633.505 4.68 1.516 1.046 1.01 1.57 2.526 1.57 4.547 0 1.062-.266 2-.797 2.812a5.355 5.355 0 0 1-2.156 1.89c1.041.313 1.867.954 2.476 1.922.61.97.914 2.136.914 3.5 0 2.042-.56 3.646-1.68 4.813-1.12 1.167-2.716 1.75-4.788 1.75h-6.704zm2.859-10.64v8.187h3.906c1.083 0 1.943-.357 2.578-1.07.636-.714.953-1.717.953-3.008 0-2.74-1.156-4.11-3.469-4.11h-3.968zm0-2.407h3.672c.99 0 1.789-.333 2.398-1 .61-.667.914-1.552.914-2.656 0-1.25-.276-2.159-.828-2.727-.552-.567-1.396-.851-2.531-.851h-3.625v7.234zm29.19 3.672c0 3.104-.661 5.495-1.984 7.172-1.323 1.677-3.203 2.516-5.64 2.516-2.344 0-4.196-.816-5.555-2.446-1.36-1.63-2.065-3.935-2.118-6.914v-4.281c0-3.042.672-5.425 2.016-7.149 1.344-1.724 3.219-2.586 5.625-2.586 2.396 0 4.263.826 5.602 2.477 1.338 1.651 2.023 4.008 2.054 7.07v4.141zm-2.859-3.984c0-2.407-.393-4.196-1.18-5.368-.786-1.171-1.992-1.757-3.617-1.757-1.573 0-2.763.593-3.57 1.78-.807 1.188-1.216 2.938-1.227 5.25v4.079c0 2.323.404 4.094 1.211 5.313.807 1.218 2.013 1.828 3.617 1.828 1.605 0 2.792-.563 3.563-1.688.77-1.125 1.172-2.849 1.203-5.172v-4.265zm10.769-9.391 5.937 18.563 5.938-18.563h3.687V56h-2.86v-8.86l.267-8.874L315.334 56h-2.187l-5.922-17.672.266 8.813V56h-2.86V33.25h3.688z" fill="#E9EBF0" fill-rule="nonzero"/></svg>