<?xml version="1.0" encoding="UTF-8"?>
<svg width="39px" height="32px" viewBox="0 0 39 32" version="1.1" xmlns="http://www.w3.org/2000/svg" xmlns:xlink="http://www.w3.org/1999/xlink">
    <title>Path</title>
    <g id="Desktop" stroke="none" stroke-width="1" fill="none" fill-rule="evenodd">
        <g id="040-Articles" transform="translate(-88, -717)" fill-rule="nonzero" stroke="#FFFFFF" stroke-width="3">
            <g id="Group-27" transform="translate(56, 412)">
                <path d="M60.1443299,306.5 C62.7451189,306.5 65.0879218,307.525003 66.7791506,309.197109 C68.4641953,310.8631 69.5,313.170176 69.5,315.732919 C69.5,318.04077 69.1625471,321.601725 65.9247691,324.802891 C64.707187,326.081041 62.4607543,327.830637 60.1269679,329.540305 L59.3881772,330.078276 L58.7965363,330.504766 C56.8872907,331.875145 55.0309198,333.152489 53.7187587,334.055431 C52.8797048,334.632812 52.2461125,335.081396 51.9095078,335.331999 C50.7396784,335.064881 50.0158114,334.544359 49.057466,333.871458 C45.7506628,331.549592 39.412631,327.113861 37.0752309,324.802891 C33.8374529,321.601725 33.5,318.04077 33.5,315.732919 C33.5,313.192815 34.5660999,310.907365 36.2459335,309.246527 C37.9616863,307.550175 40.3193836,306.5 42.8556701,306.5 C45.9790678,306.5 48.7511745,308.049739 50.4851464,310.44985 C50.9878543,311.145683 51.3952961,311.901906 51.6965622,312.696377 C52.0028317,311.906148 52.4129811,311.147381 52.9169155,310.44985 C54.6377284,308.067954 57.3799569,306.5 60.1443299,306.5 Z" id="Path"></path>
            </g>
        </g>
    </g>
</svg>