<svg width="32" height="30" xmlns="http://www.w3.org/2000/svg"><g fill="none" fill-rule="evenodd"><path fill="none" d="M0 0h32v30H0z"/><path d="M19.064 16c2.042 0 3.33 1.032 3.861 3.097.532 1.98.252 4.115-.84 6.406-1.119 2.376-2.685 3.818-4.7 4.327-.448.113-.91.17-1.385.17v-1.485c1.567 0 2.84-.763 3.82-2.29.755-1.217.937-2.25.545-3.098-.224-.509-.658-.763-1.301-.763-.84 0-1.56-.311-2.162-.934A3.118 3.118 0 0 1 16 19.182c0-.877.3-1.626.902-2.249.602-.622 1.322-.933 2.162-.933m8.814 0c2.042 0 3.33 1.032 3.86 3.097.532 1.98.253 4.115-.839 6.406-1.119 2.376-2.686 3.818-4.7 4.327-.448.113-.91.17-1.385.17v-1.485c1.567 0 2.84-.763 3.819-2.29.755-1.217.937-2.25.546-3.098-.224-.509-.658-.763-1.301-.763-.84 0-1.56-.311-2.162-.934a3.118 3.118 0 0 1-.902-2.248c0-.877.3-1.626.902-2.249.602-.622 1.322-.933 2.162-.933" fill="#8577B7" fill-rule="nonzero"/></g></svg>