<?xml version="1.0" encoding="UTF-8"?>
<svg width="27px" height="32px" viewBox="0 0 27 32" version="1.1" xmlns="http://www.w3.org/2000/svg" xmlns:xlink="http://www.w3.org/1999/xlink">
    <title>ic-clock</title>
    <g id="Desktop" stroke="none" stroke-width="1" fill="none" fill-rule="evenodd">
        <path d="M18,0 L9,0 L9,3.04761905 L18,3.04761905 L18,0 Z M12,19.8095238 L15,19.8095238 L15,10.6666667 L12,10.6666667 L12,19.8095238 Z M24.045,9.73714286 L26.175,7.57333333 C25.53,6.79619048 24.825,6.0647619 24.06,5.4247619 L21.93,7.58857143 C19.605,5.69904762 16.68,4.57142857 13.5,4.57142857 C6.045,4.57142857 0,10.712381 0,18.2857143 C0,25.8590476 6.03,32 13.5,32 C20.97,32 27,25.8590476 27,18.2857143 C27,15.0552381 25.89,12.0838095 24.045,9.73714286 L24.045,9.73714286 Z M13.5,28.952381 C7.695,28.952381 3,24.1828571 3,18.2857143 C3,12.3885714 7.695,7.61904762 13.5,7.61904762 C19.305,7.61904762 24,12.3885714 24,18.2857143 C24,24.1828571 19.305,28.952381 13.5,28.952381 Z" id="ic-clock" fill="#4E515C" fill-rule="nonzero"></path>
    </g>
</svg>