<?xml version="1.0" encoding="UTF-8"?>
<svg width="68px" height="68px" viewBox="0 0 68 68" version="1.1" xmlns="http://www.w3.org/2000/svg" xmlns:xlink="http://www.w3.org/1999/xlink">
    <title>Shape</title>
    <g id="Desktop" stroke="none" stroke-width="1" fill="none" fill-rule="evenodd">
        <g id="040-Search" transform="translate(-690, -1333)" fill="#4E515C" fill-rule="nonzero">
            <g id="Group-10" transform="translate(56, 1287)">
                <g id="Group-7" transform="translate(491, 46.5)">
                    <g id="Search" transform="translate(143.5, 0)">
                        <path d="M48.083502,8.24982091 C58.7273698,18.8936887 59.0717485,35.9368593 49.1166379,46.9948215 L66.5606602,64.4393398 C67.1464466,65.0251263 67.1464466,65.9748737 66.5606602,66.5606602 C65.9748737,67.1464466 65.0251263,67.1464466 64.4393398,66.5606602 L46.9948215,49.1166379 C35.9368593,59.0717485 18.8936887,58.7273698 8.24982091,48.083502 C-2.7499403,37.0837408 -2.7499403,19.2495821 8.24982091,8.24982091 C19.2495821,-2.7499403 37.0837408,-2.7499403 48.083502,8.24982091 Z M10.3711413,10.3711413 C0.542952914,20.1993296 0.542952914,36.1339934 10.3711413,45.9621817 C20.1516778,55.7427182 35.979619,55.790139 45.818797,46.1044441 C45.8570702,46.0503948 45.9017337,45.999163 45.9504484,45.9504484 C45.999163,45.9017337 46.0503948,45.8570702 46.103725,45.8164578 L45.9621817,45.9621817 C55.79037,36.1339934 55.79037,20.1993296 45.9621817,10.3711413 L45.6655163,10.0792441 C35.8159107,0.543935733 20.1010477,0.641234798 10.3711413,10.3711413 Z M28.3025606,37 C31.1440788,37 33.7502877,38.4063794 35.3235571,40.7076071 C35.7911026,41.3914878 35.6157283,42.324903 34.9318476,42.7924485 C34.2479669,43.2599939 33.3145517,43.0846196 32.8470062,42.400739 C31.8270652,40.9088671 30.1428131,40 28.3025606,40 C26.4525059,40 24.7603624,40.9186789 23.7425179,42.4236765 C23.2784181,43.1099002 22.3458967,43.2899672 21.6596731,42.8258674 C20.9734494,42.3617677 20.7933824,41.4292463 21.2574821,40.7430226 C22.8275473,38.4215048 25.4458615,37 28.3025606,37 Z M17.5,28.5 C19.1568542,28.5 20.5,29.8431458 20.5,31.5 C20.5,33.1568542 19.1568542,34.5 17.5,34.5 C15.8431458,34.5 14.5,33.1568542 14.5,31.5 C14.5,29.8431458 15.8431458,28.5 17.5,28.5 Z M41.0852817,28.5 C42.7421359,28.5 44.0852817,29.8431458 44.0852817,31.5 C44.0852817,33.1568542 42.7421359,34.5 41.0852817,34.5 C39.4284274,34.5 38.0852817,33.1568542 38.0852817,31.5 C38.0852817,29.8431458 39.4284274,28.5 41.0852817,28.5 Z" id="Shape"></path>
                    </g>
                </g>
            </g>
        </g>
    </g>
</svg>