<svg width="70" height="47" xmlns="http://www.w3.org/2000/svg"><path d="M40.712 8.002a23.513 23.513 0 0 1 5.704 13.7l-7.15-4.08a17.2 17.2 0 0 0-3.212-5.488c-6.208-7.154-16.977-7.863-24.055-1.586-7.075 6.275-7.777 17.165-1.568 24.319 6.208 7.154 16.976 7.863 24.052 1.586a17.078 17.078 0 0 0 3.07-3.586l6.73.629a23.372 23.372 0 0 1-5.714 7.67c-9.646 8.557-24.33 7.589-32.797-2.167-8.465-9.756-7.508-24.604 2.14-33.164 9.65-8.56 24.335-7.589 32.8 2.167zm-1.674 12.915c2.414.877 4.18 2.506 4.764 4.146 2.274.575 4.14 1.578 5.504 3.038.622.666 1.014 1.276 1.372 1.864l.359.59c.38.62.809 1.244 1.595 2.046 1.484 1.468 3.212 2.632 4.746 3.188 4.683 1.707 9.538-1.161 10.912-2.08L70 36.324l-.306.2c-2.012 1.28-7.649 4.296-13.366 2.217-2.653-.968-4.812-2.86-5.9-3.938a13.81 13.81 0 0 1-2.06-2.647l-.205-.337c-.354-.592-.636-1.057-1.111-1.565-.931-.995-2.25-1.7-3.888-2.13-1.34 1.289-4.052 1.6-6.82.595-3.422-1.24-5.591-3.992-4.847-6.146.745-2.153 4.119-2.895 7.54-1.656zm-18.72-3.16a4.735 4.735 0 0 1-.427 6.632 4.611 4.611 0 0 1-6.56-.433 4.735 4.735 0 0 1 .428-6.632 4.611 4.611 0 0 1 6.56.433z" fill="#000" fill-rule="evenodd"/></svg>