<?xml version="1.0" encoding="UTF-8"?>
<svg width="80px" height="80px" viewBox="0 0 80 80" version="1.1" xmlns="http://www.w3.org/2000/svg" xmlns:xlink="http://www.w3.org/1999/xlink">
    <title>Group 63</title>
    <defs>
        <radialGradient cx="50%" cy="100%" fx="50%" fy="100%" r="100%" gradientTransform="translate(0.5, 1), rotate(-90), scale(1, 1.0023), translate(-0.5, -1)" id="radialGradient-1">
            <stop stop-color="#FFDFD7" offset="0%"></stop>
            <stop stop-color="#FFF7F1" offset="100%"></stop>
        </radialGradient>
    </defs>
    <g id="Desktop" stroke="none" stroke-width="1" fill="none" fill-rule="evenodd">
        <g id="Group-94" transform="translate(-164, -47)">
            <g id="Group-64" transform="translate(76, 47)">
                <g id="Group-63" transform="translate(88, 0)">
                    <circle id="Oval" fill="url(#radialGradient-1)" cx="40" cy="40" r="40"></circle>
                    <g id="In-Vitro-Fertilization-Iconx" transform="translate(23, 16)" fill="#4E515C" fill-rule="nonzero">
                        <path d="M24.2867007,7.20036002 L9.71493035,7.20036002 C7.70645466,7.20036002 6.07198775,5.58507925 6.07198775,3.60018001 C6.07198775,1.61528076 7.70524035,0 9.71493035,0 L24.2867007,0 C26.2951764,0 27.9296433,1.61528076 27.9296433,3.60018001 C27.9296433,5.58507925 26.2951764,7.20036002 24.2867007,7.20036002 Z M9.71493035,2.40012001 C9.04584322,2.40012001 8.50061615,2.93894695 8.50061615,3.60018001 C8.50061615,4.26141307 9.04584322,4.80024001 9.71493035,4.80024001 L24.2867007,4.80024001 C24.9557879,4.80024001 25.5010149,4.26141307 25.5010149,3.60018001 C25.5010149,2.93894695 24.9557879,2.40012001 24.2867007,2.40012001 L9.71493035,2.40012001 Z" id="Shape"></path>
                        <path d="M16.9583145,48 C16.3292998,48 15.6966421,47.9663983 15.0651987,47.8967948 C7.20129996,47.0363518 0.905080839,40.7636382 0.0927046399,32.980049 C-0.580025426,26.5333267 2.44483124,20.3974199 7.98696124,16.9652483 C8.30268293,16.7684384 8.49940183,16.3952198 8.49940183,15.9883994 L8.49940183,4.80024001 L25.4998006,4.80024001 L25.4998006,15.9907995 C25.4998006,16.3952198 25.7025911,16.7732387 26.0292416,16.9748487 C31.020073,20.0746037 34,25.3920696 34,31.20036 C34,35.9729986 31.9356659,40.5356268 28.3364386,43.720586 C25.2095795,46.4879244 21.1452699,47.9987999 16.9571002,47.9987999 L16.9583145,48 Z M10.9292445,7.20036002 L10.9292445,15.9895995 C10.9292445,17.2340617 10.3123729,18.359718 9.27777724,18.99935 C4.52495146,21.9418971 1.93239065,27.2053603 2.50918989,32.7340367 C3.20499193,39.40037 8.59776129,44.7742387 15.3323478,45.5098755 C19.5460181,45.9730987 23.5896844,44.699835 26.7177578,41.9336967 C29.8033301,39.2035602 31.5725859,35.2913646 31.5725859,31.2015601 C31.5725859,26.2237112 29.0176688,21.6646832 24.7384256,19.0077504 C23.6953297,18.360918 23.0723865,17.2328616 23.0723865,15.9907995 L23.0723865,7.20036002 L10.9292445,7.20036002 L10.9292445,7.20036002 Z" id="Shape"></path>
                        <path d="M30.9824292,26.2501125 L26.3133911,23.6867843 C22.8404525,21.7786889 18.5854956,21.8878944 15.213345,23.9687984 C12.5807119,25.5960798 9.28749175,25.6284814 6.62085777,24.0456023 L4.23108743,22.6283314 L5.48061674,20.5702285 L7.86917277,21.9874994 C9.74650252,23.1011551 12.0682713,23.079554 13.9249577,21.9322966 C18.0463401,19.3869693 23.2448191,19.2561628 27.4912759,21.5878794 L32.160314,24.1512076 L30.9800006,26.2489124 L30.9824292,26.2501125 Z" id="Path"></path>
                        <path d="M10.7203825,37.2018601 C8.04160538,37.2018601 5.86312571,35.0489524 5.86312571,32.4016201 C5.86312571,29.7542877 8.04160538,27.6013801 10.7203825,27.6013801 C13.3991596,27.6013801 15.5776393,29.7542877 15.5776393,32.4016201 C15.5776393,35.0489524 13.3991596,37.2018601 10.7203825,37.2018601 Z M10.7203825,30.0015001 C9.38099394,30.0015001 8.29175411,31.0779539 8.29175411,32.4016201 C8.29175411,33.7252863 9.38099394,34.8017401 10.7203825,34.8017401 C12.0597711,34.8017401 13.1490109,33.7252863 13.1490109,32.4016201 C13.1490109,31.0779539 12.0597711,30.0015001 10.7203825,30.0015001 Z" id="Shape"></path>
                        <ellipse id="Oval" cx="10.7203825" cy="32.4016201" rx="1.2143142" ry="1.20006"></ellipse>
                        <path d="M20.7834043,36.5970299 C20.2588205,36.5970299 19.7743092,36.2586129 19.6188769,35.7353868 C19.4294439,35.099355 19.7973811,34.4321216 20.4409677,34.2461123 L22.1786513,33.740887 C22.8100947,33.5584779 23.1683174,33.1048552 23.1634601,32.4976249 L23.1598172,31.9143957 C23.1464597,30.1839092 23.9357639,28.6178309 25.3237251,27.6181809 L26.2077458,26.980949 C26.7505442,26.5897295 27.5094906,26.7073354 27.9041427,27.2425621 C28.3000092,27.7777889 28.1810064,28.5290265 27.6394222,28.919046 L26.7541872,29.5574779 C25.9952408,30.1047052 25.5811597,30.9339467 25.5884455,31.8963948 L25.5920885,32.479624 C25.6054459,34.159708 24.5332065,35.5577779 22.8623102,36.0438022 L21.1258409,36.5478274 C21.0116953,36.5814291 20.8963355,36.5970299 20.78219,36.5970299 L20.7834043,36.5970299 Z" id="Path"></path>
                        <path d="M18.262488,42.8541427 C16.8805984,42.8541427 15.680856,41.9504975 15.3189904,40.6256313 C14.9546961,39.2899645 15.2206309,37.8882944 16.0487932,36.7770389 L17.5047559,34.8257413 C18.0803409,34.0553028 19.023863,33.659283 19.9722424,33.7828891 C20.7712611,33.8920946 21.4998496,34.1825091 22.1373646,34.6481324 C22.4846585,34.900145 23.1367452,35.4629731 23.5872557,36.3774189 C24.0183373,37.2534627 23.9224065,38.2867143 23.3358927,39.0739537 L21.8775014,41.0264513 C21.0493391,42.1353068 19.7730949,42.8013401 18.3742049,42.8517426 C18.3365612,42.8517426 18.2989174,42.8541427 18.2612737,42.8541427 L18.262488,42.8541427 Z M19.6237342,36.159008 C19.5654471,36.159008 19.5023028,36.1926096 19.4598018,36.2502125 L19.4598018,36.2502125 L18.0038391,38.2015101 C17.6176872,38.719936 17.4938271,39.3751688 17.6638311,39.9992 C17.7391186,40.2728136 18.0135536,40.4540227 18.2879886,40.4540227 C18.9425039,40.4288214 19.5387322,40.119206 19.9260984,39.60078 L21.3832755,37.6494825 C21.431848,37.5846792 21.4403482,37.4970749 21.4051331,37.4262713 C21.1683419,36.9438472 20.8052619,36.6546327 20.6996166,36.579029 C20.3911808,36.3534177 20.036601,36.2130107 19.6443775,36.159008 C19.638306,36.159008 19.6310201,36.159008 19.6249485,36.159008 L19.6237342,36.159008 Z" id="Shape"></path>
                        <path d="M13.3578729,10.80054 L9.71493035,10.80054 C9.04462891,10.80054 8.50061615,10.2629131 8.50061615,9.60048002 C8.50061615,8.9380469 9.04462891,8.40042002 9.71493035,8.40042002 L13.3578729,8.40042002 C14.0281744,8.40042002 14.5721871,8.9380469 14.5721871,9.60048002 C14.5721871,10.2629131 14.0281744,10.80054 13.3578729,10.80054 Z" id="Path"></path>
                        <path d="M13.3578729,15.60078 L9.71493035,15.60078 C9.04462891,15.60078 8.50061615,15.0631532 8.50061615,14.40072 C8.50061615,13.7382869 9.04462891,13.20066 9.71493035,13.20066 L13.3578729,13.20066 C14.0281744,13.20066 14.5721871,13.7382869 14.5721871,14.40072 C14.5721871,15.0631532 14.0281744,15.60078 13.3578729,15.60078 Z" id="Path"></path>
                    </g>
                </g>
            </g>
        </g>
    </g>
</svg>