<svg width="59" height="25" xmlns="http://www.w3.org/2000/svg"><path d="M40.468 1.434c2.357-2.02 5.944-1.791 8.011.511a5.452 5.452 0 0 1 1.393 3.233l-1.745-.963a4.044 4.044 0 0 0-.786-1.295c-1.516-1.688-4.146-1.855-5.875-.374a4.002 4.002 0 0 0-.383 5.739c1.517 1.688 4.147 1.856 5.875.374.296-.253.546-.538.75-.846l1.643.148a5.534 5.534 0 0 1-1.395 1.81c-2.356 2.02-5.943 1.791-8.01-.511a5.457 5.457 0 0 1 .522-7.826zm5.76 3.95c.182-.508 1.006-.683 1.842-.39.59.206 1.021.59 1.164.977.555.136 1.011.373 1.344.717.128.133.217.256.293.375l.075.117c.11.176.214.343.445.57.362.347.784.621 1.159.753 1.143.402 2.329-.274 2.665-.491l.417.617-.13.08c-.533.318-1.862.963-3.209.49-.648-.228-1.175-.675-1.44-.93a3.268 3.268 0 0 1-.5-.618l-.054-.085a1.967 1.967 0 0 0-.272-.37c-.227-.234-.549-.4-.949-.502-.327.304-.99.377-1.666.14-.835-.292-1.365-.942-1.183-1.45zm-2.73-1.137c.414.46.367 1.161-.104 1.565a1.154 1.154 0 0 1-1.602-.102 1.091 1.091 0 0 1 .104-1.565 1.154 1.154 0 0 1 1.602.102zM1.911 1.776v3.263c.45.046.917.076 1.352.076 1.134 0 2.02-.531 2.02-1.715 0-1.109-.7-1.655-2.005-1.655l-.242.002-1.125.029zM0 10.656V.03L2.9 0h.192c3.2 0 4.21 1.67 4.21 3.415 0 1.806-1.382 3.446-3.977 3.446l-.341-.002c-.328-.002-.74-.012-1.073-.044v3.84H0zM9.51.03h6.292v1.745h-4.381v2.642h3.915v1.745h-3.915V8.91h4.537v1.745H9.51V.03zm15.693 1.746h-4.847v8.88h-1.912V.03h8.67v10.626h-1.91v-8.88zm6.838 0v3.263c.45.046.917.076 1.352.076 1.134 0 2.02-.531 2.02-1.715 0-1.109-.7-1.655-2.005-1.655l-.242.002-1.125.029zm-1.911 8.88V.03l2.9-.03h.191c3.201 0 4.211 1.67 4.211 3.415 0 1.806-1.382 3.446-3.977 3.446l-.342-.002c-.327-.002-.74-.012-1.072-.044v3.84H30.13zM1.91 15.954v3.263c.45.046.917.076 1.352.076 1.134 0 2.02-.532 2.02-1.715 0-1.109-.7-1.655-2.005-1.655l-.242.002-1.125.029zM0 24.834V14.207l3.092-.03c3.2 0 4.21 1.67 4.21 3.415 0 1.806-1.382 3.445-3.977 3.445h-.341c-.328-.003-.74-.013-1.073-.045v3.84H0zm9.51-10.626h6.292v1.745h-4.381v2.642h3.915v1.745h-3.915v2.748h4.537v1.745H9.51V14.208zm15.351 1.746h-3.17l-.217 2.003c-.637 6.178-2.05 7.18-4.195 6.876l.047-1.851.137.012c.803.038 1.793-.575 2.26-6.324l.182-2.462h6.852v10.625h-1.896v-8.88zm7.304 4.417h3.185l-1.585-3.78-1.6 3.78zm.808-6.194h1.678l4.599 10.656h-2.036l-1.134-2.717h-4.646L30.3 24.833h-1.926l4.599-10.656zm7.91.031h1.91v5.04l4.288-5.04h2.3l-4.474 4.948 4.754 5.677h-2.424l-4.443-5.48v5.48h-1.912V14.208zM59 23.801c-.684.714-2.066 1.199-3.48 1.199-3.325 0-5.61-2.17-5.61-5.48 0-3.05 1.974-5.479 5.563-5.479 1.414 0 2.594.44 3.31 1.077l-.855 1.382c-.653-.425-1.367-.714-2.455-.714-2.02 0-3.542 1.427-3.542 3.735 0 2.216 1.538 3.734 3.76 3.734.916 0 1.833-.289 2.578-.85L59 23.8z" fill="#4E515C" fill-rule="evenodd"/></svg>