<?xml version="1.0" encoding="UTF-8"?>
<svg width="65px" height="65px" viewBox="0 0 65 65" version="1.1" xmlns="http://www.w3.org/2000/svg" xmlns:xlink="http://www.w3.org/1999/xlink">
    <title>Group 15</title>
    <defs>
        <linearGradient x1="0%" y1="0%" x2="100%" y2="100%" id="linearGradient-1">
            <stop stop-color="#FFB89D" offset="0%"></stop>
            <stop stop-color="#FF967B" offset="100%"></stop>
        </linearGradient>
    </defs>
    <g id="Тест" stroke="none" stroke-width="1" fill="none" fill-rule="evenodd">
        <g id="13-Результат" transform="translate(-720, -2194)">
            <g id="Group" transform="translate(56.0778, 1956.4194)">
                <g transform="translate(56, 48)" id="Group-15">
                    <g transform="translate(608, 190)">
                        <path d="M20.5110816,-5.52448164e-16 L43.4889184,8.28672246e-16 C50.6210683,-4.81482439e-16 53.2073582,0.742604889 55.8147656,2.13706163 C58.422173,3.53151837 60.4684816,5.57782696 61.8629384,8.18523437 C63.2573951,10.7926418 64,13.3789317 64,20.5110816 L64,43.4889184 C64,50.6210683 63.2573951,53.2073582 61.8629384,55.8147656 C60.4684816,58.422173 58.422173,60.4684816 55.8147656,61.8629384 C53.2073582,63.2573951 50.6210683,64 43.4889184,64 L20.5110816,64 C13.3789317,64 10.7926418,63.2573951 8.18523437,61.8629384 C5.57782696,60.4684816 3.53151837,58.422173 2.13706163,55.8147656 C0.742604889,53.2073582 1.60494146e-16,50.6210683 -2.76224082e-16,43.4889184 L5.52448164e-16,20.5110816 C-3.20988293e-16,13.3789317 0.742604889,10.7926418 2.13706163,8.18523437 C3.53151837,5.57782696 5.57782696,3.53151837 8.18523437,2.13706163 C10.7926418,0.742604889 13.3789317,3.20988293e-16 20.5110816,-5.52448164e-16 Z" id="Rectangle-Copy-6" fill="url(#linearGradient-1)"></path>
                        <g id="Group-9" transform="translate(15, 16)" fill="#FFFFFF">
                            <path d="M4.02118539,32.9965847 C3.56591055,33.0114687 3.18542109,32.6407869 3.17092886,32.168894 C3.12950295,30.9431634 3.42057807,27.9091387 3.89595063,27.1605457 C4.12741618,26.795534 4.40331547,26.5004061 4.70956641,26.2903294 C5.05054403,26.0562967 5.42898269,25.9234749 5.82902299,25.9088745 L5.8405074,25.908591 C6.27199311,25.894841 6.71154524,26.0214256 7.13564811,26.3107417 C7.68225136,26.6838333 8.15912783,26.9041161 8.70012559,26.9996571 C9.27776409,27.1014351 9.95835212,27.0739352 10.8843511,26.9465 C11.1255237,26.913897 11.3558955,26.992853 11.5270679,27.1446695 L11.5276148,27.1442442 C12.1513276,27.6966522 12.8723845,28.1580554 13.6646721,28.5280285 C16.1496798,29.6884113 19.2995528,29.9330755 22.346613,29.2692503 C25.3917591,28.6058504 28.3171392,27.0355203 30.352204,24.5659148 C31.043046,23.7277345 31.6320322,22.7828149 32.0886742,21.7314394 C33.5704366,18.320458 33.6628588,14.747454 32.7989303,11.6758272 C32.3220539,9.97962129 31.5530085,8.43778344 30.5657594,7.16300659 C29.5927291,5.90651576 28.408741,4.91382564 27.0866666,4.29649514 C25.4659976,3.5398223 23.6283552,3.34718117 21.7089548,3.92737261 C20.9270578,4.1636734 20.2672511,4.54144281 19.7243393,5.01971448 C19.1413687,5.53314067 18.6922462,6.16634741 18.3715031,6.86731166 C18.2196081,7.20113791 17.8862867,7.38598268 17.551188,7.35493896 C16.2784693,7.30674324 15.1072273,7.00162258 14.2937171,6.23906625 C12.2662571,4.33859552 11.425014,2.34434037 10.9903838,1.16226941 C10.8279614,0.719861031 11.0422003,0.224720863 11.4689009,0.0563193394 C11.895328,-0.112082184 12.3730248,0.109901642 12.5354471,0.552451773 C12.8582411,1.43018092 13.4277378,3.27136518 15.2570403,4.85187996 C15.7537699,5.28105358 16.414915,5.50762529 17.1459524,5.60656827 C17.5365591,4.90050094 18.0391388,4.25765506 18.6576563,3.71275989 C19.3673655,3.08749127 20.2296533,2.59391038 21.2499885,2.28545776 C23.5733941,1.58293423 25.8004127,1.81725049 27.7654773,2.73481199 C29.3276306,3.46441017 30.718338,4.62621058 31.8524235,6.09065177 C32.9722902,7.53680694 33.8436015,9.2826261 34.3830954,11.1999653 C35.3494265,14.6368873 35.2482543,18.6297611 33.5950461,22.4353804 C33.0738726,23.6353121 32.3990268,24.7165973 31.6064657,25.678669 C29.3217517,28.4511988 26.0629135,30.2086416 22.6829421,30.9450439 C19.3047481,31.6810209 15.7871006,31.397942 12.9859982,30.0899951 C12.1732027,29.7105247 11.417966,29.2433097 10.7405225,28.6883501 C9.82081264,28.7972157 9.09374008,28.8061461 8.42860132,28.6889171 C7.64355983,28.5504253 6.97541324,28.246934 6.23070392,27.7386109 C6.10738322,27.6545519 5.993086,27.6164205 5.89136693,27.6181216 C5.80195259,27.6213819 5.71171794,27.6563946 5.62148329,27.7181986 C5.49652197,27.8038169 5.37853332,27.9332365 5.27298612,28.0992283 C4.9726141,28.5715464 4.79023073,31.2531753 4.81962535,32.1153117 C4.83384414,32.5872046 4.47618679,32.9818425 4.02118539,32.9965847 Z M0.951839988,32.9961594 C0.498479215,33.0405278 0.0959779747,32.6953614 0.0533215932,32.2253114 C-0.125643802,30.3235649 0.152579712,26.6627123 0.787366825,25.2682966 C1.30430201,24.1321533 2.05625745,23.1974398 2.99086971,22.5134858 C3.92220071,21.8316581 5.03290725,21.4037085 6.27021576,21.2786831 C7.69086467,21.1350882 9.27352579,21.3960538 10.9331598,22.1391185 C11.8445298,21.6374577 12.6169931,21.2725877 13.4277378,21.037421 C14.225084,20.8059398 15.0384264,20.7033112 16.0222575,20.7248575 C16.2914576,20.236238 16.6193102,19.7929791 16.9753269,19.4045783 C17.3534921,18.9916543 17.7684348,18.6369905 18.1806431,18.3532028 C18.0884944,17.821207 18.0374981,17.3481802 18.0295684,16.8619704 C18.0210918,16.3389051 18.0651154,15.8219351 18.1634165,15.2207643 C17.7588644,14.7908301 17.4141954,14.3115662 17.1305031,13.7978565 C16.83601,13.264585 16.6041343,12.6889296 16.4359697,12.0883259 C16.2578247,12.029357 16.0552069,11.9627335 15.854093,11.896677 C12.7300599,10.8705334 8.81846302,7.80959351 7.0005082,2.73741901 C6.84164052,2.29501063 7.05875057,1.80284726 7.4854511,1.63813129 C7.9118782,1.47341532 8.38670388,1.69837594 8.54557155,2.14078432 C10.0812013,6.42538402 13.6370549,9.3693784 16.3518875,10.261141 C16.6221813,10.3498778 16.8960298,10.4398904 17.3644296,10.6020549 C17.6373211,10.6896577 17.8586694,10.9221312 17.9256618,11.2317178 C18.0578693,11.8331721 18.2714246,12.4139305 18.5655076,12.9462097 C18.8440045,13.450422 19.1900407,13.9038871 19.601292,14.2817983 C19.8133434,14.4769909 19.9228555,14.7803405 19.8632459,15.0895019 C19.7299447,15.7765744 19.6696516,16.3106964 19.6781282,16.8348958 C19.686468,17.35059 19.766312,17.8912326 19.9131484,18.5951736 C19.9873869,18.9624534 19.8227771,19.3514212 19.4863112,19.5335727 C19.0585169,19.7653374 18.5917576,20.1248208 18.1712095,20.5838142 C17.8173803,20.9700887 17.5033363,21.420577 17.283902,21.9155754 C17.1567532,22.2509609 16.8325921,22.4791818 16.4667316,22.456785 C15.4247948,22.391579 14.6303197,22.4659989 13.873579,22.6855729 C13.1039868,22.9089743 12.3443751,23.2867437 11.3960909,23.8214327 C11.1666762,23.9672956 10.8730034,23.9940868 10.6115963,23.8662264 C9.09250961,23.1228782 7.66980991,22.8546832 6.42511858,22.9804173 C5.48544771,23.0753913 4.64435137,23.3988696 3.94120467,23.9137133 C3.24079236,24.426289 2.67409139,25.1334903 2.28061361,25.9981783 C1.76832688,27.1239737 1.54643166,30.4806262 1.69518212,32.0645645 C1.7378385,32.5346145 1.40520076,32.9519328 0.951839988,32.9961594 Z" id="Shape" fill-rule="nonzero"></path>
                            <path d="M11.6666667,24.8517188 C17.9148881,30.2867138 27.8354933,27.4065992 30.5128205,19.8707049 C28.7696832,19.3750906 22.550748,18.9351246 21.4212717,20.1832979 C20.8673978,20.795293 20.2016424,21.1452597 19.7205117,21.6286452 C18.3730757,22.9823443 18.8048112,24.2846546 16.3335673,24.0136949 C13.8001069,23.6771938 13.3254543,24.378089 11.6666667,24.8517188 L11.6666667,24.8517188 Z" id="Path"></path>
                        </g>
                    </g>
                </g>
            </g>
        </g>
    </g>
</svg>